%TF.GenerationSoftware,KiCad,Pcbnew,8.0.5*%
%TF.CreationDate,2024-10-09T17:31:38+02:00*%
%TF.ProjectId,phnx,70686e78-2e6b-4696-9361-645f70636258,A*%
%TF.SameCoordinates,Original*%
%TF.FileFunction,Paste,Bot*%
%TF.FilePolarity,Positive*%
%FSLAX46Y46*%
G04 Gerber Fmt 4.6, Leading zero omitted, Abs format (unit mm)*
G04 Created by KiCad (PCBNEW 8.0.5) date 2024-10-09 17:31:38*
%MOMM*%
%LPD*%
G01*
G04 APERTURE LIST*
G04 Aperture macros list*
%AMRoundRect*
0 Rectangle with rounded corners*
0 $1 Rounding radius*
0 $2 $3 $4 $5 $6 $7 $8 $9 X,Y pos of 4 corners*
0 Add a 4 corners polygon primitive as box body*
4,1,4,$2,$3,$4,$5,$6,$7,$8,$9,$2,$3,0*
0 Add four circle primitives for the rounded corners*
1,1,$1+$1,$2,$3*
1,1,$1+$1,$4,$5*
1,1,$1+$1,$6,$7*
1,1,$1+$1,$8,$9*
0 Add four rect primitives between the rounded corners*
20,1,$1+$1,$2,$3,$4,$5,0*
20,1,$1+$1,$4,$5,$6,$7,0*
20,1,$1+$1,$6,$7,$8,$9,0*
20,1,$1+$1,$8,$9,$2,$3,0*%
%AMRotRect*
0 Rectangle, with rotation*
0 The origin of the aperture is its center*
0 $1 length*
0 $2 width*
0 $3 Rotation angle, in degrees counterclockwise*
0 Add horizontal line*
21,1,$1,$2,0,0,$3*%
G04 Aperture macros list end*
%ADD10RoundRect,0.225000X-0.408374X0.156464X-0.330232X-0.286700X0.408374X-0.156464X0.330232X0.286700X0*%
%ADD11RotRect,1.800000X0.820000X190.000000*%
%ADD12RotRect,1.800000X0.820000X170.000000*%
%ADD13RoundRect,0.225000X-0.330232X0.286700X-0.408374X-0.156464X0.330232X-0.286700X0.408374X0.156464X0*%
%ADD14RoundRect,0.225000X-0.275430X0.339688X-0.429339X-0.083173X0.275430X-0.339688X0.429339X0.083173X0*%
%ADD15RotRect,1.800000X0.820000X210.000000*%
%ADD16RoundRect,0.225000X-0.437260X0.007356X-0.212260X-0.382356X0.437260X-0.007356X0.212260X0.382356X0*%
%ADD17RotRect,1.800000X0.820000X150.000000*%
%ADD18RotRect,1.800000X0.820000X160.000000*%
%ADD19RoundRect,0.225000X-0.212260X0.382356X-0.437260X-0.007356X0.212260X-0.382356X0.437260X0.007356X0*%
%ADD20RotRect,1.800000X0.820000X140.000000*%
%ADD21RoundRect,0.225000X-0.431894X-0.068685X-0.142639X-0.413405X0.431894X0.068685X0.142639X0.413405X0*%
%ADD22RotRect,1.800000X0.820000X200.000000*%
%ADD23RoundRect,0.225000X-0.142639X0.413405X-0.431894X0.068685X0.142639X-0.413405X0.431894X-0.068685X0*%
%ADD24RotRect,1.800000X0.820000X220.000000*%
%ADD25RoundRect,0.225000X-0.429339X0.083173X-0.275430X-0.339688X0.429339X-0.083173X0.275430X0.339688X0*%
G04 APERTURE END LIST*
D10*
%TO.C,D429*%
X232214762Y-113437418D03*
X232787800Y-116687284D03*
%TD*%
D11*
%TO.C,D536*%
X265115042Y-152167744D03*
X265375514Y-153644956D03*
X270447274Y-152750668D03*
X270186802Y-151273456D03*
%TD*%
D12*
%TO.C,D521*%
X147042981Y-151316019D03*
X146782509Y-152793231D03*
X151854269Y-153687519D03*
X152114741Y-152210307D03*
%TD*%
D13*
%TO.C,D415*%
X146196683Y-116236116D03*
X145623645Y-119485982D03*
%TD*%
D10*
%TO.C,D448*%
X307313049Y-99946785D03*
X307886087Y-103196651D03*
%TD*%
D12*
%TO.C,D510*%
X116218915Y-107294692D03*
X115958443Y-108771904D03*
X121030203Y-109666192D03*
X121290675Y-108188980D03*
%TD*%
D14*
%TO.C,D417*%
X142946662Y-162141602D03*
X141817996Y-165242588D03*
%TD*%
D10*
%TO.C,D428*%
X228915447Y-94726070D03*
X229488485Y-97975936D03*
%TD*%
D15*
%TO.C,D537*%
X256359693Y-182423682D03*
X257109693Y-183722720D03*
X261569723Y-181147720D03*
X260819723Y-179848682D03*
%TD*%
D11*
%TO.C,D541*%
X283001560Y-144190592D03*
X283262032Y-145667804D03*
X288333792Y-144773516D03*
X288073320Y-143296304D03*
%TD*%
D13*
%TO.C,D403*%
X88214683Y-115557078D03*
X87641645Y-118806944D03*
%TD*%
D10*
%TO.C,D436*%
X256699911Y-142882961D03*
X257272949Y-146132827D03*
%TD*%
D11*
%TO.C,D548*%
X315691181Y-109309669D03*
X315951653Y-110786881D03*
X321023413Y-109892593D03*
X320762941Y-108415381D03*
%TD*%
D13*
%TO.C,D413*%
X150752603Y-78175480D03*
X150179565Y-81425346D03*
%TD*%
D11*
%TO.C,D531*%
X247228523Y-160144897D03*
X247488995Y-161622109D03*
X252560755Y-160727821D03*
X252300283Y-159250609D03*
%TD*%
D10*
%TO.C,D435*%
X253427511Y-124324260D03*
X254000549Y-127574126D03*
%TD*%
%TO.C,D445*%
X291093554Y-117378090D03*
X291666592Y-120627956D03*
%TD*%
%TO.C,D443*%
X284451512Y-79709193D03*
X285024550Y-82959059D03*
%TD*%
D11*
%TO.C,D553*%
X337700883Y-124891699D03*
X337961355Y-126368911D03*
X343033115Y-125474623D03*
X342772643Y-123997411D03*
%TD*%
D16*
%TO.C,D437*%
X252854196Y-172201983D03*
X254504196Y-175059867D03*
%TD*%
D11*
%TO.C,D552*%
X334401567Y-106180350D03*
X334662039Y-107657562D03*
X339733799Y-106763274D03*
X339473327Y-105286062D03*
%TD*%
D12*
%TO.C,D509*%
X119518231Y-88583346D03*
X119257759Y-90060558D03*
X124329519Y-90954846D03*
X124589991Y-89477634D03*
%TD*%
D11*
%TO.C,D547*%
X312391864Y-90598321D03*
X312652336Y-92075533D03*
X317724096Y-91181245D03*
X317463624Y-89704033D03*
%TD*%
%TO.C,D535*%
X261772314Y-133210196D03*
X262032786Y-134687408D03*
X267104546Y-133793120D03*
X266844074Y-132315908D03*
%TD*%
D13*
%TO.C,D414*%
X149469951Y-97672491D03*
X148896913Y-100922357D03*
%TD*%
%TO.C,D406*%
X110151396Y-100386124D03*
X109578358Y-103635990D03*
%TD*%
D10*
%TO.C,D447*%
X303964494Y-81244117D03*
X304537532Y-84493983D03*
%TD*%
D13*
%TO.C,D416*%
X142889552Y-134991784D03*
X142316514Y-138241650D03*
%TD*%
D17*
%TO.C,D522*%
X156361883Y-179571888D03*
X155611883Y-180870926D03*
X160071913Y-183445926D03*
X160821913Y-182146888D03*
%TD*%
D12*
%TO.C,D507*%
X93383423Y-127384564D03*
X93122951Y-128861776D03*
X98194711Y-129756064D03*
X98455183Y-128278852D03*
%TD*%
D13*
%TO.C,D425*%
X181943674Y-132338144D03*
X181370636Y-135588010D03*
%TD*%
D12*
%TO.C,D505*%
X99982056Y-89961866D03*
X99721584Y-91439078D03*
X104793344Y-92333366D03*
X105053816Y-90856154D03*
%TD*%
D13*
%TO.C,D411*%
X126677873Y-117516159D03*
X126104835Y-120766025D03*
%TD*%
D11*
%TO.C,D538*%
X273073311Y-87884690D03*
X273333783Y-89361902D03*
X278405543Y-88467614D03*
X278145071Y-86990402D03*
%TD*%
D10*
%TO.C,D453*%
X329285752Y-115606914D03*
X329858790Y-118856780D03*
%TD*%
D18*
%TO.C,D517*%
X137455184Y-171162425D03*
X136942153Y-172571965D03*
X141781570Y-174333367D03*
X142294601Y-172923827D03*
%TD*%
D10*
%TO.C,D446*%
X294392870Y-136089437D03*
X294965908Y-139339303D03*
%TD*%
D12*
%TO.C,D511*%
X112919600Y-126006041D03*
X112659128Y-127483253D03*
X117730888Y-128377541D03*
X117991360Y-126900329D03*
%TD*%
D10*
%TO.C,D444*%
X287768191Y-98519023D03*
X288341229Y-101768889D03*
%TD*%
D13*
%TO.C,D410*%
X129952008Y-98947609D03*
X129378970Y-102197475D03*
%TD*%
D11*
%TO.C,D533*%
X255173684Y-95787500D03*
X255434156Y-97264712D03*
X260505916Y-96370424D03*
X260245444Y-94893212D03*
%TD*%
D13*
%TO.C,D408*%
X103570999Y-137705412D03*
X102997961Y-140955278D03*
%TD*%
D12*
%TO.C,D506*%
X96682741Y-108673215D03*
X96422269Y-110150427D03*
X101494029Y-111044715D03*
X101754501Y-109567503D03*
%TD*%
%TO.C,D524*%
X171774331Y-121913886D03*
X171513859Y-123391098D03*
X176585619Y-124285386D03*
X176846091Y-122808174D03*
%TD*%
%TO.C,D518*%
X156984338Y-94935775D03*
X156723866Y-96412987D03*
X161795626Y-97307275D03*
X162056098Y-95830063D03*
%TD*%
D13*
%TO.C,D405*%
X113512358Y-81325169D03*
X112939320Y-84575035D03*
%TD*%
D11*
%TO.C,D549*%
X318990496Y-128021018D03*
X319250968Y-129498230D03*
X324322728Y-128603942D03*
X324062256Y-127126730D03*
%TD*%
D19*
%TO.C,D422*%
X163408884Y-171516120D03*
X161758884Y-174374004D03*
%TD*%
D13*
%TO.C,D426*%
X178619178Y-151192289D03*
X178046140Y-154442155D03*
%TD*%
%TO.C,D407*%
X106895495Y-118851268D03*
X106322457Y-122101134D03*
%TD*%
D12*
%TO.C,D514*%
X135755091Y-105916172D03*
X135494619Y-107393384D03*
X140566379Y-108287672D03*
X140826851Y-106810460D03*
%TD*%
D11*
%TO.C,D543*%
X292855689Y-89219801D03*
X293116161Y-90697013D03*
X298187921Y-89802725D03*
X297927449Y-88325513D03*
%TD*%
D20*
%TO.C,D527*%
X173850545Y-191217627D03*
X172886364Y-192366693D03*
X176831493Y-195677049D03*
X177795674Y-194527983D03*
%TD*%
D13*
%TO.C,D402*%
X91470584Y-97091934D03*
X90897546Y-100341800D03*
%TD*%
%TO.C,D412*%
X123353378Y-136370301D03*
X122780340Y-139620167D03*
%TD*%
D12*
%TO.C,D503*%
X74702612Y-124090373D03*
X74442140Y-125567585D03*
X79513900Y-126461873D03*
X79774372Y-124984661D03*
%TD*%
D10*
%TO.C,D440*%
X271270618Y-116100903D03*
X271843656Y-119350769D03*
%TD*%
%TO.C,D434*%
X250101280Y-105460264D03*
X250674318Y-108710130D03*
%TD*%
D12*
%TO.C,D515*%
X132455777Y-124627517D03*
X132195305Y-126104729D03*
X137267065Y-126999017D03*
X137527537Y-125521805D03*
%TD*%
%TO.C,D523*%
X175117057Y-102956341D03*
X174856585Y-104433553D03*
X179928345Y-105327841D03*
X180188817Y-103850629D03*
%TD*%
D13*
%TO.C,D419*%
X167295693Y-105994325D03*
X166722655Y-109244191D03*
%TD*%
D12*
%TO.C,D525*%
X168475017Y-140625236D03*
X168214545Y-142102448D03*
X173286305Y-142996736D03*
X173546777Y-141519524D03*
%TD*%
D21*
%TO.C,D432*%
X234512107Y-185128729D03*
X236633307Y-187656675D03*
%TD*%
D11*
%TO.C,D550*%
X322320116Y-146904223D03*
X322580588Y-148381435D03*
X327652348Y-147487147D03*
X327391876Y-146009935D03*
%TD*%
D12*
%TO.C,D516*%
X129156460Y-143338867D03*
X128895988Y-144816079D03*
X133967748Y-145710367D03*
X134228220Y-144233155D03*
%TD*%
D22*
%TO.C,D542*%
X274983532Y-173525174D03*
X275496563Y-174934714D03*
X280335980Y-173173312D03*
X279822949Y-171763772D03*
%TD*%
D11*
%TO.C,D529*%
X240586480Y-122476001D03*
X240846952Y-123953213D03*
X245918712Y-123058925D03*
X245658240Y-121581713D03*
%TD*%
D13*
%TO.C,D418*%
X168673292Y-86472555D03*
X168100254Y-89722421D03*
%TD*%
D11*
%TO.C,D546*%
X302783938Y-145525703D03*
X303044410Y-147002915D03*
X308116170Y-146108627D03*
X307855698Y-144631415D03*
%TD*%
D10*
%TO.C,D441*%
X274586430Y-134905808D03*
X275159468Y-138155674D03*
%TD*%
D23*
%TO.C,D427*%
X182096156Y-184619019D03*
X179974954Y-187146965D03*
%TD*%
D24*
%TO.C,D532*%
X239900024Y-194777927D03*
X240864205Y-195926993D03*
X244809334Y-192616637D03*
X243845153Y-191467571D03*
%TD*%
D10*
%TO.C,D433*%
X248500000Y-86500000D03*
X249073038Y-89749866D03*
%TD*%
D12*
%TO.C,D508*%
X90084109Y-146095907D03*
X89823637Y-147573119D03*
X94895397Y-148467407D03*
X95155869Y-146990195D03*
%TD*%
D11*
%TO.C,D530*%
X243885796Y-141187347D03*
X244146268Y-142664559D03*
X249218028Y-141770271D03*
X248957556Y-140293059D03*
%TD*%
D12*
%TO.C,D519*%
X153641609Y-113893326D03*
X153381137Y-115370538D03*
X158452897Y-116264826D03*
X158713369Y-114787614D03*
%TD*%
D10*
%TO.C,D438*%
X266760780Y-78169077D03*
X267333818Y-81418943D03*
%TD*%
D12*
%TO.C,D526*%
X165175699Y-159336585D03*
X164915227Y-160813797D03*
X169986987Y-161708085D03*
X170247459Y-160230873D03*
%TD*%
D11*
%TO.C,D544*%
X296141896Y-107856805D03*
X296402368Y-109334017D03*
X301474128Y-108439729D03*
X301213656Y-106962517D03*
%TD*%
D12*
%TO.C,D512*%
X109620284Y-144717389D03*
X109359812Y-146194601D03*
X114431572Y-147088889D03*
X114692044Y-145611677D03*
%TD*%
%TO.C,D502*%
X78075789Y-105392046D03*
X77815317Y-106869258D03*
X82887077Y-107763546D03*
X83147549Y-106286334D03*
%TD*%
D10*
%TO.C,D450*%
X313839247Y-137534565D03*
X314412285Y-140784431D03*
%TD*%
D11*
%TO.C,D539*%
X276359517Y-106521697D03*
X276619989Y-107998909D03*
X281691749Y-107104621D03*
X281431277Y-105627409D03*
%TD*%
D12*
%TO.C,D513*%
X139054407Y-87204825D03*
X138793935Y-88682037D03*
X143865695Y-89576325D03*
X144126167Y-88099113D03*
%TD*%
D25*
%TO.C,D442*%
X273135260Y-162380199D03*
X274263926Y-165481185D03*
%TD*%
D10*
%TO.C,D431*%
X238856804Y-151106313D03*
X239429842Y-154356179D03*
%TD*%
D12*
%TO.C,D520*%
X150342295Y-132604670D03*
X150081823Y-134081882D03*
X155153583Y-134976170D03*
X155414055Y-133498958D03*
%TD*%
D11*
%TO.C,D534*%
X258472998Y-114498848D03*
X258733470Y-115976060D03*
X263805230Y-115081772D03*
X263544758Y-113604560D03*
%TD*%
D13*
%TO.C,D424*%
X185225623Y-113725277D03*
X184652585Y-116975143D03*
%TD*%
%TO.C,D420*%
X164057153Y-124360992D03*
X163484115Y-127610858D03*
%TD*%
%TO.C,D421*%
X160732659Y-143215135D03*
X160159621Y-146465001D03*
%TD*%
D11*
%TO.C,D528*%
X237300274Y-103838996D03*
X237560746Y-105316208D03*
X242632506Y-104421920D03*
X242372034Y-102944708D03*
%TD*%
%TO.C,D545*%
X299441211Y-126568152D03*
X299701683Y-128045364D03*
X304773443Y-127151076D03*
X304512971Y-125673864D03*
%TD*%
D10*
%TO.C,D449*%
X310605669Y-118908092D03*
X311178707Y-122157958D03*
%TD*%
D13*
%TO.C,D423*%
X188560537Y-94812044D03*
X187987499Y-98061910D03*
%TD*%
%TO.C,D409*%
X133056348Y-79902331D03*
X132483310Y-83152197D03*
%TD*%
D10*
%TO.C,D439*%
X267945255Y-97241836D03*
X268518293Y-100491702D03*
%TD*%
%TO.C,D452*%
X325894652Y-96662969D03*
X326467690Y-99912835D03*
%TD*%
%TO.C,D430*%
X235557490Y-132394966D03*
X236130528Y-135644832D03*
%TD*%
D11*
%TO.C,D540*%
X279671944Y-125307386D03*
X279932416Y-126784598D03*
X285004176Y-125890310D03*
X284743704Y-124413098D03*
%TD*%
M02*
