%TF.GenerationSoftware,KiCad,Pcbnew,8.0.5*%
%TF.CreationDate,2024-10-09T17:31:38+02:00*%
%TF.ProjectId,phnx,70686e78-2e6b-4696-9361-645f70636258,A*%
%TF.SameCoordinates,Original*%
%TF.FileFunction,Legend,Top*%
%TF.FilePolarity,Positive*%
%FSLAX46Y46*%
G04 Gerber Fmt 4.6, Leading zero omitted, Abs format (unit mm)*
G04 Created by KiCad (PCBNEW 8.0.5) date 2024-10-09 17:31:38*
%MOMM*%
%LPD*%
G01*
G04 APERTURE LIST*
%ADD10C,0.150000*%
%ADD11C,0.120000*%
%ADD12C,0.000000*%
G04 APERTURE END LIST*
D10*
G36*
X223385517Y-175538868D02*
G01*
X223441920Y-175568418D01*
X223478357Y-175619076D01*
X223498300Y-175678814D01*
X223509299Y-175743461D01*
X223515584Y-175811538D01*
X223518605Y-175877199D01*
X223519612Y-175950977D01*
X223519166Y-176002057D01*
X223517039Y-176066062D01*
X223511731Y-176135487D01*
X223501311Y-176200679D01*
X223481676Y-176261306D01*
X223445788Y-176314829D01*
X223421281Y-176333313D01*
X223358625Y-176349880D01*
X223335724Y-176347820D01*
X223277200Y-176316922D01*
X223241373Y-176265509D01*
X223221431Y-176205656D01*
X223210432Y-176142209D01*
X223204147Y-176076059D01*
X223201126Y-176012637D01*
X223200118Y-175941672D01*
X223201035Y-175871430D01*
X223203784Y-175808624D01*
X223209502Y-175743074D01*
X223219508Y-175680133D01*
X223237651Y-175620627D01*
X223247723Y-175600780D01*
X223293812Y-175552154D01*
X223356764Y-175535945D01*
X223385517Y-175538868D01*
G37*
G36*
X228717035Y-175538868D02*
G01*
X228773438Y-175568418D01*
X228809876Y-175619076D01*
X228829819Y-175678814D01*
X228840817Y-175743461D01*
X228847102Y-175811538D01*
X228850124Y-175877199D01*
X228851131Y-175950977D01*
X228850684Y-176002057D01*
X228848557Y-176066062D01*
X228843249Y-176135487D01*
X228832830Y-176200679D01*
X228813195Y-176261306D01*
X228777306Y-176314829D01*
X228752800Y-176333313D01*
X228690143Y-176349880D01*
X228667243Y-176347820D01*
X228608719Y-176316922D01*
X228572892Y-176265509D01*
X228552949Y-176205656D01*
X228541951Y-176142209D01*
X228535666Y-176076059D01*
X228532644Y-176012637D01*
X228531637Y-175941672D01*
X228532553Y-175871430D01*
X228535302Y-175808624D01*
X228541020Y-175743074D01*
X228551026Y-175680133D01*
X228569170Y-175620627D01*
X228579241Y-175600780D01*
X228625331Y-175552154D01*
X228688282Y-175535945D01*
X228717035Y-175538868D01*
G37*
G36*
X215068915Y-175575917D02*
G01*
X215132855Y-175582329D01*
X215190433Y-175606048D01*
X215212549Y-175632366D01*
X215226725Y-175692901D01*
X215226371Y-175702303D01*
X215204081Y-175760522D01*
X215199718Y-175765795D01*
X215145456Y-175796814D01*
X215106358Y-175805061D01*
X215042783Y-175813874D01*
X214886138Y-175813874D01*
X214886138Y-175575650D01*
X215049918Y-175575650D01*
X215068915Y-175575917D01*
G37*
G36*
X219733082Y-176032525D02*
G01*
X219795139Y-176039199D01*
X219853185Y-176063886D01*
X219873469Y-176085630D01*
X219891649Y-176147327D01*
X219887067Y-176183250D01*
X219852875Y-176236971D01*
X219842251Y-176244823D01*
X219781144Y-176265761D01*
X219715772Y-176270472D01*
X219524075Y-176270472D01*
X219524075Y-176032247D01*
X219714841Y-176032247D01*
X219733082Y-176032525D01*
G37*
G36*
X219745957Y-175579270D02*
G01*
X219807898Y-175601395D01*
X219820830Y-175613594D01*
X219841088Y-175672428D01*
X219839500Y-175693013D01*
X219807898Y-175748114D01*
X219749060Y-175769870D01*
X219685994Y-175774170D01*
X219524075Y-175774170D01*
X219524075Y-175575650D01*
X219688786Y-175575650D01*
X219745957Y-175579270D01*
G37*
G36*
X225808183Y-176052099D02*
G01*
X225497684Y-176052099D01*
X225808183Y-175688558D01*
X225808183Y-176052099D01*
G37*
G36*
X229365399Y-176749068D02*
G01*
X214328444Y-176749068D01*
X214328444Y-175813874D01*
X214469555Y-175813874D01*
X214469555Y-176588105D01*
X214886138Y-176588105D01*
X214886138Y-176071951D01*
X214911264Y-176071951D01*
X214944991Y-176075213D01*
X215002459Y-176099558D01*
X215038500Y-176140026D01*
X215071011Y-176194165D01*
X215284730Y-176588105D01*
X215753735Y-176588105D01*
X215845551Y-176588105D01*
X216943618Y-176588105D01*
X216943618Y-176270472D01*
X216261514Y-176270472D01*
X216261514Y-176052099D01*
X216876617Y-176052099D01*
X216876617Y-175774170D01*
X216261514Y-175774170D01*
X216261514Y-175615354D01*
X216924386Y-175615354D01*
X216924386Y-175297721D01*
X216998521Y-175297721D01*
X217489239Y-176588105D01*
X217931258Y-176588105D01*
X218235310Y-175774170D01*
X219105631Y-175774170D01*
X219105631Y-176270472D01*
X219105631Y-176588105D01*
X219797662Y-176588105D01*
X220479146Y-176588105D01*
X220878358Y-176588105D01*
X221615366Y-176588105D01*
X222702576Y-176588105D01*
X222702576Y-176270472D01*
X222162228Y-176270472D01*
X222180044Y-176253795D01*
X222228918Y-176211846D01*
X222265894Y-176184016D01*
X222317338Y-176147623D01*
X222371915Y-176110104D01*
X222426074Y-176071226D01*
X222483827Y-176025832D01*
X222533685Y-175981812D01*
X222576584Y-175937639D01*
X222827582Y-175937639D01*
X222827593Y-175941672D01*
X222827608Y-175946863D01*
X222829211Y-176010068D01*
X222834096Y-176079395D01*
X222842238Y-176145621D01*
X222853638Y-176208744D01*
X222856977Y-176223897D01*
X222874044Y-176287108D01*
X222896920Y-176347789D01*
X222926842Y-176402922D01*
X222948092Y-176433237D01*
X222990845Y-176481810D01*
X223039389Y-176522680D01*
X223093724Y-176555845D01*
X223100143Y-176559051D01*
X223163371Y-176583326D01*
X223227812Y-176597982D01*
X223290560Y-176605463D01*
X223359245Y-176607957D01*
X223412633Y-176606523D01*
X223479100Y-176600149D01*
X223539178Y-176588105D01*
X223985205Y-176588105D01*
X225072416Y-176588105D01*
X225072416Y-176270472D01*
X224532067Y-176270472D01*
X224549884Y-176253795D01*
X224598758Y-176211846D01*
X224635733Y-176184016D01*
X224687178Y-176147623D01*
X224741755Y-176110104D01*
X224795914Y-176071226D01*
X224808805Y-176061094D01*
X225160819Y-176061094D01*
X225160819Y-176369732D01*
X225808183Y-176369732D01*
X225808183Y-176588105D01*
X226137603Y-176588105D01*
X226137603Y-176369732D01*
X226298280Y-176369732D01*
X226298280Y-176250620D01*
X226348531Y-176250620D01*
X226884847Y-176250620D01*
X226884847Y-175952839D01*
X226348531Y-175952839D01*
X226348531Y-176250620D01*
X226298280Y-176250620D01*
X226298280Y-176052099D01*
X226137603Y-176052099D01*
X226137603Y-175618145D01*
X227046765Y-175618145D01*
X227046765Y-175936709D01*
X227088091Y-175923347D01*
X227148698Y-175902031D01*
X227208772Y-175878144D01*
X227265448Y-175851717D01*
X227315987Y-175823855D01*
X227369200Y-175790197D01*
X227419922Y-175753387D01*
X227419922Y-176588105D01*
X227799282Y-176588105D01*
X227799282Y-175937639D01*
X228159101Y-175937639D01*
X228159112Y-175941672D01*
X228159126Y-175946863D01*
X228160729Y-176010068D01*
X228165615Y-176079395D01*
X228173757Y-176145621D01*
X228185156Y-176208744D01*
X228188496Y-176223897D01*
X228205562Y-176287108D01*
X228228439Y-176347789D01*
X228258361Y-176402922D01*
X228279611Y-176433237D01*
X228322364Y-176481810D01*
X228370908Y-176522680D01*
X228425242Y-176555845D01*
X228431662Y-176559051D01*
X228494889Y-176583326D01*
X228559331Y-176597982D01*
X228622079Y-176605463D01*
X228690764Y-176607957D01*
X228744151Y-176606523D01*
X228810619Y-176600149D01*
X228886124Y-176585012D01*
X228953208Y-176561909D01*
X229011872Y-176530838D01*
X229062114Y-176491801D01*
X229103934Y-176444797D01*
X229125443Y-176412578D01*
X229156589Y-176351644D01*
X229181858Y-176281668D01*
X229197843Y-176219177D01*
X229210066Y-176150900D01*
X229218529Y-176076835D01*
X229223230Y-175996983D01*
X229224288Y-175933297D01*
X229223725Y-175894712D01*
X229220036Y-175828099D01*
X229212903Y-175762643D01*
X229202326Y-175698346D01*
X229188306Y-175635206D01*
X229184707Y-175621234D01*
X229165029Y-175560284D01*
X229138676Y-175502755D01*
X229132716Y-175492100D01*
X229096866Y-175440215D01*
X229054304Y-175393879D01*
X229029449Y-175372166D01*
X228975255Y-175336882D01*
X228915960Y-175310128D01*
X228888369Y-175300835D01*
X228826416Y-175286973D01*
X228762940Y-175279885D01*
X228700379Y-175277869D01*
X228650417Y-175279166D01*
X228587592Y-175284934D01*
X228515153Y-175298632D01*
X228449485Y-175319539D01*
X228390587Y-175347656D01*
X228338459Y-175382983D01*
X228293102Y-175425518D01*
X228261695Y-175465751D01*
X228228326Y-175525597D01*
X228201499Y-175596060D01*
X228184749Y-175660075D01*
X228172187Y-175730885D01*
X228163812Y-175808491D01*
X228160278Y-175871154D01*
X228159101Y-175937639D01*
X227799282Y-175937639D01*
X227799282Y-175277869D01*
X227489094Y-175277869D01*
X227457280Y-175336300D01*
X227420464Y-175389381D01*
X227378647Y-175437112D01*
X227331828Y-175479491D01*
X227291846Y-175508560D01*
X227237345Y-175540683D01*
X227174383Y-175570876D01*
X227113682Y-175595219D01*
X227046765Y-175618145D01*
X226137603Y-175618145D01*
X226137603Y-175277869D01*
X225813456Y-175277869D01*
X225168314Y-176052099D01*
X225160819Y-176061094D01*
X224808805Y-176061094D01*
X224853667Y-176025832D01*
X224903525Y-175981812D01*
X224951714Y-175932192D01*
X224993628Y-175877773D01*
X225013823Y-175844163D01*
X225041549Y-175782328D01*
X225058185Y-175718776D01*
X225063730Y-175653507D01*
X225063490Y-175639711D01*
X225055094Y-175573275D01*
X225034701Y-175511079D01*
X225002313Y-175453125D01*
X224990399Y-175436784D01*
X224944937Y-175388220D01*
X224890630Y-175348744D01*
X224834191Y-175320985D01*
X224798831Y-175308564D01*
X224733876Y-175293069D01*
X224668579Y-175283932D01*
X224606326Y-175279384D01*
X224538271Y-175277869D01*
X224515816Y-175278048D01*
X224452116Y-175280738D01*
X224384746Y-175287956D01*
X224316912Y-175301585D01*
X224252277Y-175323777D01*
X224239508Y-175329635D01*
X224181075Y-175363689D01*
X224131669Y-175405680D01*
X224091290Y-175455607D01*
X224061759Y-175509998D01*
X224040123Y-175568522D01*
X224022830Y-175636623D01*
X224011261Y-175704068D01*
X224387209Y-175735086D01*
X224393898Y-175694000D01*
X224410692Y-175632439D01*
X224443043Y-175577200D01*
X224486318Y-175547589D01*
X224547887Y-175535945D01*
X224594256Y-175542191D01*
X224649319Y-175573788D01*
X224673891Y-175604352D01*
X224689643Y-175664984D01*
X224679097Y-175716553D01*
X224647458Y-175771999D01*
X224605113Y-175817872D01*
X224557557Y-175859568D01*
X224504369Y-175901809D01*
X224450178Y-175942292D01*
X224388440Y-175988433D01*
X224331802Y-176033177D01*
X224280262Y-176076526D01*
X224233821Y-176118479D01*
X224182940Y-176168958D01*
X224140026Y-176217255D01*
X224099044Y-176272333D01*
X224087586Y-176290287D01*
X224056684Y-176345576D01*
X224030996Y-176403002D01*
X224010520Y-176462565D01*
X223995256Y-176524266D01*
X223985205Y-176588105D01*
X223539178Y-176588105D01*
X223554606Y-176585012D01*
X223621690Y-176561909D01*
X223680353Y-176530838D01*
X223730595Y-176491801D01*
X223772416Y-176444797D01*
X223793924Y-176412578D01*
X223825070Y-176351644D01*
X223850340Y-176281668D01*
X223866324Y-176219177D01*
X223878548Y-176150900D01*
X223887010Y-176076835D01*
X223891711Y-175996983D01*
X223892769Y-175933297D01*
X223892207Y-175894712D01*
X223888517Y-175828099D01*
X223881384Y-175762643D01*
X223870808Y-175698346D01*
X223856787Y-175635206D01*
X223853189Y-175621234D01*
X223833511Y-175560284D01*
X223807157Y-175502755D01*
X223801197Y-175492100D01*
X223765347Y-175440215D01*
X223722786Y-175393879D01*
X223697930Y-175372166D01*
X223643736Y-175336882D01*
X223584442Y-175310128D01*
X223556850Y-175300835D01*
X223494898Y-175286973D01*
X223431422Y-175279885D01*
X223368861Y-175277869D01*
X223318898Y-175279166D01*
X223256073Y-175284934D01*
X223183635Y-175298632D01*
X223117967Y-175319539D01*
X223059069Y-175347656D01*
X223006941Y-175382983D01*
X222961583Y-175425518D01*
X222930177Y-175465751D01*
X222896807Y-175525597D01*
X222869981Y-175596060D01*
X222853231Y-175660075D01*
X222840668Y-175730885D01*
X222832293Y-175808491D01*
X222828760Y-175871154D01*
X222827582Y-175937639D01*
X222576584Y-175937639D01*
X222581874Y-175932192D01*
X222623788Y-175877773D01*
X222643984Y-175844163D01*
X222671710Y-175782328D01*
X222688346Y-175718776D01*
X222693891Y-175653507D01*
X222693651Y-175639711D01*
X222685254Y-175573275D01*
X222664862Y-175511079D01*
X222632474Y-175453125D01*
X222620560Y-175436784D01*
X222575098Y-175388220D01*
X222520791Y-175348744D01*
X222464351Y-175320985D01*
X222428992Y-175308564D01*
X222364036Y-175293069D01*
X222298740Y-175283932D01*
X222236487Y-175279384D01*
X222168432Y-175277869D01*
X222145977Y-175278048D01*
X222082277Y-175280738D01*
X222014907Y-175287956D01*
X221947072Y-175301585D01*
X221882438Y-175323777D01*
X221869668Y-175329635D01*
X221811235Y-175363689D01*
X221761829Y-175405680D01*
X221721450Y-175455607D01*
X221691919Y-175509998D01*
X221670284Y-175568522D01*
X221652991Y-175636623D01*
X221641422Y-175704068D01*
X222017370Y-175735086D01*
X222024058Y-175694000D01*
X222040852Y-175632439D01*
X222073204Y-175577200D01*
X222116479Y-175547589D01*
X222178048Y-175535945D01*
X222224417Y-175542191D01*
X222279479Y-175573788D01*
X222304052Y-175604352D01*
X222319804Y-175664984D01*
X222309257Y-175716553D01*
X222277618Y-175771999D01*
X222235274Y-175817872D01*
X222187718Y-175859568D01*
X222134529Y-175901809D01*
X222080338Y-175942292D01*
X222018601Y-175988433D01*
X221961963Y-176033177D01*
X221910423Y-176076526D01*
X221863982Y-176118479D01*
X221813101Y-176168958D01*
X221770186Y-176217255D01*
X221729205Y-176272333D01*
X221717746Y-176290287D01*
X221686845Y-176345576D01*
X221661156Y-176403002D01*
X221640680Y-176462565D01*
X221625417Y-176524266D01*
X221615366Y-176588105D01*
X220878358Y-176588105D01*
X220878358Y-176210915D01*
X220479146Y-176210915D01*
X220479146Y-176588105D01*
X219797662Y-176588105D01*
X219843536Y-176585575D01*
X219907735Y-176578810D01*
X219976020Y-176570114D01*
X220006848Y-176565424D01*
X220070577Y-176550710D01*
X220129873Y-176525446D01*
X220178183Y-176491586D01*
X220223346Y-176446433D01*
X220260153Y-176392996D01*
X220287173Y-176332785D01*
X220302977Y-176267736D01*
X220307611Y-176204401D01*
X220306560Y-176172825D01*
X220296502Y-176106776D01*
X220275796Y-176047646D01*
X220240301Y-175990061D01*
X220231765Y-175979589D01*
X220184292Y-175934096D01*
X220128822Y-175900054D01*
X220065354Y-175877463D01*
X220069123Y-175876189D01*
X220126382Y-175846915D01*
X220174851Y-175804258D01*
X220183715Y-175794055D01*
X220219460Y-175739366D01*
X220240906Y-175678558D01*
X220248055Y-175611631D01*
X220243172Y-175555340D01*
X220222542Y-175489029D01*
X220190651Y-175435813D01*
X220146003Y-175387986D01*
X220104691Y-175357310D01*
X220048803Y-175329543D01*
X219984633Y-175310414D01*
X219923037Y-175300894D01*
X219855357Y-175297721D01*
X219105631Y-175297721D01*
X219105631Y-175774170D01*
X218235310Y-175774170D01*
X218413291Y-175297721D01*
X217990194Y-175297721D01*
X217714126Y-176188892D01*
X217433406Y-175297721D01*
X216998521Y-175297721D01*
X216924386Y-175297721D01*
X215845551Y-175297721D01*
X215845551Y-176588105D01*
X215753735Y-176588105D01*
X215555215Y-176208434D01*
X215537174Y-176178621D01*
X215498450Y-176126854D01*
X215478579Y-176102582D01*
X215433621Y-176056752D01*
X215418712Y-176046580D01*
X215361347Y-176019219D01*
X215412360Y-176003429D01*
X215468362Y-175975482D01*
X215515956Y-175941943D01*
X215560473Y-175898333D01*
X215596780Y-175847685D01*
X215623447Y-175789999D01*
X215639044Y-175725277D01*
X215643618Y-175660331D01*
X215643079Y-175637336D01*
X215634982Y-175572276D01*
X215614589Y-175506894D01*
X215582201Y-175448782D01*
X215574414Y-175438103D01*
X215531005Y-175391175D01*
X215480145Y-175355030D01*
X215421834Y-175329670D01*
X215409129Y-175325801D01*
X215343653Y-175311480D01*
X215274039Y-175302994D01*
X215204318Y-175298844D01*
X215138011Y-175297721D01*
X214469555Y-175297721D01*
X214469555Y-175813874D01*
X214328444Y-175813874D01*
X214328444Y-175136758D01*
X229365399Y-175136758D01*
X229365399Y-176749068D01*
G37*
X93309290Y-114995083D02*
X93185255Y-115698518D01*
X93185255Y-115698518D02*
X93113553Y-115830935D01*
X93113553Y-115830935D02*
X93003224Y-115908189D01*
X93003224Y-115908189D02*
X92854268Y-115930277D01*
X92854268Y-115930277D02*
X92760477Y-115913739D01*
X94073554Y-116145270D02*
X93604598Y-116062581D01*
X93604598Y-116062581D02*
X93778246Y-115077773D01*
X94981109Y-116208589D02*
X94925944Y-116247216D01*
X94925944Y-116247216D02*
X94776988Y-116269305D01*
X94776988Y-116269305D02*
X94683197Y-116252767D01*
X94683197Y-116252767D02*
X94550779Y-116181064D01*
X94550779Y-116181064D02*
X94473526Y-116070735D01*
X94473526Y-116070735D02*
X94443168Y-115968675D01*
X94443168Y-115968675D02*
X94429348Y-115772824D01*
X94429348Y-115772824D02*
X94454155Y-115632137D01*
X94454155Y-115632137D02*
X94534127Y-115452823D01*
X94534127Y-115452823D02*
X94597560Y-115367301D01*
X94597560Y-115367301D02*
X94707889Y-115290048D01*
X94707889Y-115290048D02*
X94856845Y-115267959D01*
X94856845Y-115267959D02*
X94950636Y-115284497D01*
X94950636Y-115284497D02*
X95083054Y-115356200D01*
X95083054Y-115356200D02*
X95121681Y-115411364D01*
X95841653Y-115441607D02*
X95717619Y-116145041D01*
X95717619Y-116145041D02*
X95645916Y-116277459D01*
X95645916Y-116277459D02*
X95535587Y-116354713D01*
X95535587Y-116354713D02*
X95386631Y-116376801D01*
X95386631Y-116376801D02*
X95292840Y-116360263D01*
X96605917Y-116591794D02*
X96136961Y-116509105D01*
X96136961Y-116509105D02*
X96310609Y-115524297D01*
X97513472Y-116655113D02*
X97458307Y-116693740D01*
X97458307Y-116693740D02*
X97309352Y-116715829D01*
X97309352Y-116715829D02*
X97215560Y-116699291D01*
X97215560Y-116699291D02*
X97083142Y-116627588D01*
X97083142Y-116627588D02*
X97005889Y-116517259D01*
X97005889Y-116517259D02*
X96975531Y-116415199D01*
X96975531Y-116415199D02*
X96961712Y-116219348D01*
X96961712Y-116219348D02*
X96986519Y-116078661D01*
X96986519Y-116078661D02*
X97066490Y-115899347D01*
X97066490Y-115899347D02*
X97129924Y-115813825D01*
X97129924Y-115813825D02*
X97240253Y-115736572D01*
X97240253Y-115736572D02*
X97389208Y-115714483D01*
X97389208Y-115714483D02*
X97483000Y-115731021D01*
X97483000Y-115731021D02*
X97615418Y-115802724D01*
X97615418Y-115802724D02*
X97654044Y-115857888D01*
X98374016Y-115888131D02*
X98249982Y-116591565D01*
X98249982Y-116591565D02*
X98178279Y-116723983D01*
X98178279Y-116723983D02*
X98067950Y-116801237D01*
X98067950Y-116801237D02*
X97918994Y-116823325D01*
X97918994Y-116823325D02*
X97825203Y-116806787D01*
X99138280Y-117038318D02*
X98669324Y-116955629D01*
X98669324Y-116955629D02*
X98842973Y-115970821D01*
X100045835Y-117101637D02*
X99990671Y-117140264D01*
X99990671Y-117140264D02*
X99841715Y-117162353D01*
X99841715Y-117162353D02*
X99747924Y-117145815D01*
X99747924Y-117145815D02*
X99615506Y-117074112D01*
X99615506Y-117074112D02*
X99538252Y-116963783D01*
X99538252Y-116963783D02*
X99507895Y-116861723D01*
X99507895Y-116861723D02*
X99494075Y-116665872D01*
X99494075Y-116665872D02*
X99518882Y-116525185D01*
X99518882Y-116525185D02*
X99598853Y-116345871D01*
X99598853Y-116345871D02*
X99662287Y-116260349D01*
X99662287Y-116260349D02*
X99772616Y-116183096D01*
X99772616Y-116183096D02*
X99921572Y-116161007D01*
X99921572Y-116161007D02*
X100015363Y-116177545D01*
X100015363Y-116177545D02*
X100147781Y-116249248D01*
X100147781Y-116249248D02*
X100186407Y-116304412D01*
X100906379Y-116334655D02*
X100782345Y-117038089D01*
X100782345Y-117038089D02*
X100710643Y-117170507D01*
X100710643Y-117170507D02*
X100600313Y-117247761D01*
X100600313Y-117247761D02*
X100451358Y-117269849D01*
X100451358Y-117269849D02*
X100357566Y-117253311D01*
X101670644Y-117484842D02*
X101201688Y-117402153D01*
X101201688Y-117402153D02*
X101375336Y-116417345D01*
X102578198Y-117548161D02*
X102523034Y-117586788D01*
X102523034Y-117586788D02*
X102374078Y-117608877D01*
X102374078Y-117608877D02*
X102280287Y-117592339D01*
X102280287Y-117592339D02*
X102147869Y-117520636D01*
X102147869Y-117520636D02*
X102070616Y-117410307D01*
X102070616Y-117410307D02*
X102040258Y-117308247D01*
X102040258Y-117308247D02*
X102026438Y-117112396D01*
X102026438Y-117112396D02*
X102051245Y-116971709D01*
X102051245Y-116971709D02*
X102131216Y-116792395D01*
X102131216Y-116792395D02*
X102194650Y-116706873D01*
X102194650Y-116706873D02*
X102304979Y-116629620D01*
X102304979Y-116629620D02*
X102453935Y-116607531D01*
X102453935Y-116607531D02*
X102547726Y-116624069D01*
X102547726Y-116624069D02*
X102680144Y-116695771D01*
X102680144Y-116695771D02*
X102718771Y-116750936D01*
G36*
X197396694Y-136637960D02*
G01*
X197455276Y-136665550D01*
X197497927Y-136707503D01*
X197527240Y-136765120D01*
X197539955Y-136816091D01*
X197547392Y-136879011D01*
X197549573Y-136946580D01*
X197549573Y-137310431D01*
X197152532Y-137310431D01*
X197152532Y-136905636D01*
X197153015Y-136879613D01*
X197159020Y-136816805D01*
X197176177Y-136751762D01*
X197207436Y-136697499D01*
X197229082Y-136675046D01*
X197283241Y-136642333D01*
X197347330Y-136631429D01*
X197396694Y-136637960D01*
G37*
G36*
X198445063Y-137620595D02*
G01*
X196832753Y-137620595D01*
X196832753Y-136912460D01*
X196993716Y-136912460D01*
X196993716Y-137479484D01*
X198284100Y-137479484D01*
X198284100Y-137310431D01*
X197708390Y-137310431D01*
X197708390Y-137114082D01*
X197708739Y-137083645D01*
X197713973Y-137019785D01*
X197719343Y-137000321D01*
X197745923Y-136942858D01*
X197781517Y-136899519D01*
X197831535Y-136856626D01*
X197847989Y-136844199D01*
X197902186Y-136805826D01*
X197956289Y-136769851D01*
X198011754Y-136734412D01*
X198284100Y-136565359D01*
X198284100Y-136352259D01*
X197927693Y-136574665D01*
X197902597Y-136591381D01*
X197849745Y-136629878D01*
X197801899Y-136669603D01*
X197754608Y-136715180D01*
X197719740Y-136761284D01*
X197688538Y-136817232D01*
X197683230Y-136783585D01*
X197669031Y-136721346D01*
X197646430Y-136657252D01*
X197612639Y-136595234D01*
X197570356Y-136545197D01*
X197527595Y-136510871D01*
X197466598Y-136479127D01*
X197406693Y-136462609D01*
X197341437Y-136457103D01*
X197328364Y-136457312D01*
X197265145Y-136464606D01*
X197205500Y-136482320D01*
X197149430Y-136510456D01*
X197100133Y-136547121D01*
X197057872Y-136595570D01*
X197028147Y-136652522D01*
X197009990Y-136716159D01*
X197000306Y-136778584D01*
X196995363Y-136841603D01*
X196993875Y-136905636D01*
X196993716Y-136912460D01*
X196832753Y-136912460D01*
X196832753Y-135270943D01*
X196993716Y-135270943D01*
X196993716Y-136195614D01*
X198284100Y-136195614D01*
X198284100Y-135241165D01*
X198125283Y-135241165D01*
X198125283Y-136026562D01*
X197688538Y-136026562D01*
X197688538Y-135319022D01*
X197529721Y-135319022D01*
X197529721Y-136026562D01*
X197152532Y-136026562D01*
X197152532Y-135270943D01*
X196993716Y-135270943D01*
X196832753Y-135270943D01*
X196832753Y-134573019D01*
X196973864Y-134573019D01*
X196974939Y-134612775D01*
X196982294Y-134681474D01*
X196996618Y-134746493D01*
X197017910Y-134807831D01*
X197023539Y-134820817D01*
X197056514Y-134879819D01*
X197097548Y-134928947D01*
X197146639Y-134968199D01*
X197200806Y-134997152D01*
X197263260Y-135016614D01*
X197328719Y-135023102D01*
X197372146Y-135020291D01*
X197433214Y-135005533D01*
X197489397Y-134978125D01*
X197531745Y-134945470D01*
X197573149Y-134899054D01*
X197609130Y-134841642D01*
X197635660Y-134780558D01*
X197655599Y-134720478D01*
X197673491Y-134657094D01*
X197689158Y-134594732D01*
X197696816Y-134562793D01*
X197713180Y-134496792D01*
X197731121Y-134429470D01*
X197750886Y-134367054D01*
X197752799Y-134362077D01*
X197782383Y-134301755D01*
X197825331Y-134251974D01*
X197866450Y-134228013D01*
X197927693Y-134216922D01*
X197980505Y-134224897D01*
X198036569Y-134253214D01*
X198042806Y-134257862D01*
X198086678Y-134305864D01*
X198116288Y-134363642D01*
X198130232Y-134407134D01*
X198141726Y-134470696D01*
X198145135Y-134534555D01*
X198145098Y-134541358D01*
X198140627Y-134607019D01*
X198128704Y-134668378D01*
X198106982Y-134730905D01*
X198089026Y-134766856D01*
X198052996Y-134818336D01*
X198006481Y-134859633D01*
X197968687Y-134880483D01*
X197909821Y-134900956D01*
X197847354Y-134912365D01*
X197847354Y-135071802D01*
X197913230Y-135066141D01*
X197975617Y-135052570D01*
X198034514Y-135031089D01*
X198089922Y-135001699D01*
X198128271Y-134974807D01*
X198178680Y-134927845D01*
X198220550Y-134872932D01*
X198250599Y-134817447D01*
X198263104Y-134787252D01*
X198283111Y-134721570D01*
X198295146Y-134658309D01*
X198302076Y-134589645D01*
X198303952Y-134526490D01*
X198301547Y-134467950D01*
X198292910Y-134404245D01*
X198277992Y-134343952D01*
X198253701Y-134280201D01*
X198243925Y-134260120D01*
X198210343Y-134205276D01*
X198165547Y-134153834D01*
X198112875Y-134112389D01*
X198101508Y-134105290D01*
X198043287Y-134076664D01*
X197982764Y-134059488D01*
X197919938Y-134053763D01*
X197857743Y-134058973D01*
X197794786Y-134076740D01*
X197737548Y-134107116D01*
X197727768Y-134113975D01*
X197677837Y-134159888D01*
X197638106Y-134213650D01*
X197606958Y-134271826D01*
X197595732Y-134299023D01*
X197574151Y-134363895D01*
X197556144Y-134428498D01*
X197539859Y-134493725D01*
X197525689Y-134555028D01*
X197508433Y-134626852D01*
X197491331Y-134687619D01*
X197468764Y-134751440D01*
X197435424Y-134810313D01*
X197385096Y-134847535D01*
X197322826Y-134859943D01*
X197298772Y-134858231D01*
X197237467Y-134835229D01*
X197188514Y-134789840D01*
X197166758Y-134755057D01*
X197144948Y-134691565D01*
X197135352Y-134629082D01*
X197132680Y-134565884D01*
X197133543Y-134530174D01*
X197140445Y-134465500D01*
X197156459Y-134403493D01*
X197187894Y-134343169D01*
X197232084Y-134298539D01*
X197288736Y-134268717D01*
X197351053Y-134254455D01*
X197351053Y-134092227D01*
X197337263Y-134092982D01*
X197271039Y-134103117D01*
X197209358Y-134123855D01*
X197152222Y-134155195D01*
X197136136Y-134166571D01*
X197087911Y-134210869D01*
X197047987Y-134264983D01*
X197019151Y-134322076D01*
X196999338Y-134378472D01*
X196985186Y-134439095D01*
X196976694Y-134503944D01*
X196973864Y-134573019D01*
X196832753Y-134573019D01*
X196832753Y-132901103D01*
X196993716Y-132901103D01*
X196993716Y-133825775D01*
X198284100Y-133825775D01*
X198284100Y-132871325D01*
X198125283Y-132871325D01*
X198125283Y-133656722D01*
X197688538Y-133656722D01*
X197688538Y-132949182D01*
X197529721Y-132949182D01*
X197529721Y-133656722D01*
X197152532Y-133656722D01*
X197152532Y-132901103D01*
X196993716Y-132901103D01*
X196832753Y-132901103D01*
X196832753Y-132740426D01*
X196993716Y-132740426D01*
X197152532Y-132740426D01*
X197152532Y-132319190D01*
X198284100Y-132319190D01*
X198284100Y-132149827D01*
X197152532Y-132149827D01*
X197152532Y-131726730D01*
X196993716Y-131726730D01*
X196993716Y-132740426D01*
X196832753Y-132740426D01*
X196832753Y-131585619D01*
X198445063Y-131585619D01*
X198445063Y-137620595D01*
G37*
D11*
%TO.C,C6*%
X200986100Y-126566064D02*
X200986100Y-126847224D01*
X202006100Y-126566064D02*
X202006100Y-126847224D01*
%TO.C,SW452*%
X328262786Y-96517033D02*
X342020551Y-94091168D01*
X330688651Y-110274797D02*
X328262786Y-96517033D01*
X342020551Y-94091168D02*
X344446416Y-107848933D01*
X344446416Y-107848933D02*
X330688651Y-110274797D01*
%TO.C,SW412*%
X104796958Y-147395515D02*
X107222823Y-133637750D01*
X107222823Y-133637750D02*
X120980587Y-136063615D01*
X118554722Y-149821380D02*
X104796958Y-147395515D01*
X120980587Y-136063615D02*
X118554722Y-149821380D01*
%TO.C,SW442*%
X267202215Y-164696616D02*
X280329722Y-159918596D01*
X271980236Y-177824123D02*
X267202215Y-164696616D01*
X280329722Y-159918596D02*
X285107743Y-173046102D01*
X285107743Y-173046102D02*
X271980236Y-177824123D01*
%TO.C,SW420*%
X145626130Y-135250923D02*
X148051995Y-121493158D01*
X148051995Y-121493158D02*
X161809759Y-123919023D01*
X159383894Y-137676788D02*
X145626130Y-135250923D01*
X161809759Y-123919023D02*
X159383894Y-137676788D01*
%TO.C,SW422*%
X150975067Y-180532128D02*
X157960068Y-168433754D01*
X157960068Y-168433754D02*
X170058442Y-175418754D01*
X163073441Y-187517128D02*
X150975067Y-180532128D01*
X170058442Y-175418754D02*
X163073441Y-187517128D01*
%TO.C,C10*%
X205739999Y-141359421D02*
X205740000Y-141640581D01*
X206760000Y-141359419D02*
X206760001Y-141640579D01*
%TO.C,C9*%
X208407351Y-118971644D02*
X207884847Y-118971644D01*
X208407351Y-120441644D02*
X207884847Y-120441644D01*
%TO.C,R1*%
X201968526Y-108014267D02*
X201968526Y-108488783D01*
X203013526Y-108014267D02*
X203013526Y-108488783D01*
%TO.C,SW405*%
X95133362Y-92495900D02*
X97559227Y-78738135D01*
X97559227Y-78738135D02*
X111316991Y-81164000D01*
X108891126Y-94921765D02*
X95133362Y-92495900D01*
X111316991Y-81164000D02*
X108891126Y-94921765D01*
%TO.C,SW445*%
X293229253Y-117209672D02*
X306987018Y-114783807D01*
X295655118Y-130967436D02*
X293229253Y-117209672D01*
X306987018Y-114783807D02*
X309412883Y-128541572D01*
X309412883Y-128541572D02*
X295655118Y-130967436D01*
%TO.C,C11*%
X211990000Y-141640581D02*
X211989999Y-141359421D01*
X213010001Y-141640579D02*
X213010000Y-141359419D01*
%TO.C,SW407*%
X88517368Y-130017072D02*
X90943233Y-116259307D01*
X90943233Y-116259307D02*
X104700997Y-118685172D01*
X102275132Y-132442937D02*
X88517368Y-130017072D01*
X104700997Y-118685172D02*
X102275132Y-132442937D01*
%TO.C,SW441*%
X276949665Y-134588109D02*
X290707430Y-132162244D01*
X279375530Y-148345873D02*
X276949665Y-134588109D01*
X290707430Y-132162244D02*
X293133295Y-145920009D01*
X293133295Y-145920009D02*
X279375530Y-148345873D01*
%TO.C,SW453*%
X331570786Y-115277618D02*
X345328551Y-112851753D01*
X333996651Y-129035382D02*
X331570786Y-115277618D01*
X345328551Y-112851753D02*
X347754416Y-126609518D01*
X347754416Y-126609518D02*
X333996651Y-129035382D01*
%TO.C,SW432*%
X229507898Y-189226588D02*
X240209540Y-180246845D01*
X238487640Y-199928229D02*
X229507898Y-189226588D01*
X240209540Y-180246845D02*
X249189282Y-190948486D01*
X249189282Y-190948486D02*
X238487640Y-199928229D01*
%TO.C,SW402*%
X73070693Y-107949271D02*
X75496558Y-94191506D01*
X75496558Y-94191506D02*
X89254322Y-96617371D01*
X86828457Y-110375136D02*
X73070693Y-107949271D01*
X89254322Y-96617371D02*
X86828457Y-110375136D01*
%TO.C,R3*%
X207177500Y-113319386D02*
X207177500Y-113793902D01*
X208222500Y-113319386D02*
X208222500Y-113793902D01*
%TO.C,SW446*%
X296537251Y-135970261D02*
X310295016Y-133544396D01*
X298963116Y-149728025D02*
X296537251Y-135970261D01*
X310295016Y-133544396D02*
X312720881Y-147302161D01*
X312720881Y-147302161D02*
X298963116Y-149728025D01*
%TO.C,C8*%
X202861100Y-118695392D02*
X202861100Y-119217896D01*
X204331100Y-118695392D02*
X204331100Y-119217896D01*
%TO.C,U2*%
X207536100Y-109569144D02*
X207536100Y-108769144D01*
X207536100Y-109569144D02*
X207536100Y-110369144D01*
X210656100Y-109569144D02*
X210656100Y-108769144D01*
X210656100Y-109569144D02*
X210656100Y-110369144D01*
X207586100Y-110869144D02*
X207256100Y-111109144D01*
X207256100Y-110629144D01*
X207586100Y-110869144D01*
G36*
X207586100Y-110869144D02*
G01*
X207256100Y-111109144D01*
X207256100Y-110629144D01*
X207586100Y-110869144D01*
G37*
%TO.C,Y2*%
X211400000Y-139999998D02*
X207399999Y-140000002D01*
X211400001Y-143299998D02*
X211400000Y-139999998D01*
%TO.C,R2*%
X215123600Y-104469386D02*
X215123600Y-104943902D01*
X216168600Y-104469386D02*
X216168600Y-104943902D01*
%TO.C,C7*%
X214130520Y-119396644D02*
X214411680Y-119396644D01*
X214130520Y-120416644D02*
X214411680Y-120416644D01*
%TO.C,SW433*%
X249092082Y-86304492D02*
X262849847Y-83878627D01*
X251517947Y-100062256D02*
X249092082Y-86304492D01*
X262849847Y-83878627D02*
X265275712Y-97636392D01*
X265275712Y-97636392D02*
X251517947Y-100062256D01*
%TO.C,SW428*%
X231158494Y-94302636D02*
X244916259Y-91876771D01*
X233584359Y-108060400D02*
X231158494Y-94302636D01*
X244916259Y-91876771D02*
X247342124Y-105634536D01*
X247342124Y-105634536D02*
X233584359Y-108060400D01*
%TO.C,SW424*%
X166867715Y-124488478D02*
X169293580Y-110730713D01*
X169293580Y-110730713D02*
X183051344Y-113156578D01*
X180625479Y-126914343D02*
X166867715Y-124488478D01*
X183051344Y-113156578D02*
X180625479Y-126914343D01*
%TO.C,SW416*%
X124384544Y-146013364D02*
X126810409Y-132255599D01*
X126810409Y-132255599D02*
X140568173Y-134681464D01*
X138142308Y-148439229D02*
X124384544Y-146013364D01*
X140568173Y-134681464D02*
X138142308Y-148439229D01*
%TO.C,SW443*%
X286613258Y-79688498D02*
X300371023Y-77262633D01*
X289039123Y-93446262D02*
X286613258Y-79688498D01*
X300371023Y-77262633D02*
X302796888Y-91020398D01*
X302796888Y-91020398D02*
X289039123Y-93446262D01*
%TO.C,R5*%
X201948600Y-104469386D02*
X201948600Y-104943902D01*
X202993600Y-104469386D02*
X202993600Y-104943902D01*
D12*
%TO.C,G\u002A\u002A\u002A*%
G36*
X217614546Y-172775121D02*
G01*
X217614546Y-173353855D01*
X217801611Y-173353855D01*
X217988677Y-173353855D01*
X217988677Y-172775121D01*
X217988677Y-172196386D01*
X218406652Y-172196386D01*
X218824626Y-172196386D01*
X218824626Y-173537998D01*
X218824626Y-174879609D01*
X218406652Y-174879609D01*
X217988677Y-174879609D01*
X217988677Y-174262877D01*
X217988677Y-173646145D01*
X217801611Y-173646145D01*
X217614546Y-173646145D01*
X217614546Y-174262877D01*
X217614546Y-174879609D01*
X217199494Y-174879609D01*
X216784442Y-174879609D01*
X216784442Y-173537998D01*
X216784442Y-172196386D01*
X217199494Y-172196386D01*
X217614546Y-172196386D01*
X217614546Y-172775121D01*
G37*
G36*
X220492921Y-172196368D02*
G01*
X220584297Y-172196407D01*
X220666201Y-172196503D01*
X220739186Y-172196674D01*
X220803808Y-172196941D01*
X220860621Y-172197324D01*
X220910180Y-172197843D01*
X220953040Y-172198518D01*
X220989755Y-172199369D01*
X221020879Y-172200415D01*
X221046969Y-172201678D01*
X221068577Y-172203177D01*
X221086260Y-172204932D01*
X221100571Y-172206962D01*
X221112065Y-172209289D01*
X221121298Y-172211932D01*
X221128823Y-172214910D01*
X221135195Y-172218245D01*
X221140970Y-172221955D01*
X221146701Y-172226062D01*
X221152944Y-172230584D01*
X221155562Y-172232414D01*
X221176052Y-172250389D01*
X221198988Y-172277045D01*
X221222720Y-172310113D01*
X221245600Y-172347324D01*
X221263000Y-172380220D01*
X221285708Y-172426677D01*
X221285708Y-173653143D01*
X221285708Y-174879609D01*
X220870656Y-174879609D01*
X220455604Y-174879609D01*
X220455604Y-173698757D01*
X220455604Y-172517905D01*
X220265616Y-172517905D01*
X220075627Y-172517905D01*
X220075627Y-173698757D01*
X220075627Y-174879609D01*
X219660576Y-174879609D01*
X219245524Y-174879609D01*
X219245524Y-173537998D01*
X219245524Y-172196386D01*
X220156408Y-172196386D01*
X220279531Y-172196378D01*
X220391517Y-172196365D01*
X220492921Y-172196368D01*
G37*
G36*
X215257227Y-172197778D02*
G01*
X216191094Y-172199309D01*
X216220323Y-172213574D01*
X216250694Y-172232824D01*
X216281675Y-172260131D01*
X216310323Y-172292416D01*
X216333693Y-172326597D01*
X216340601Y-172339486D01*
X216360622Y-172380284D01*
X216360622Y-173277737D01*
X216360617Y-173397694D01*
X216360598Y-173506517D01*
X216360559Y-173604763D01*
X216360493Y-173692989D01*
X216360394Y-173771752D01*
X216360256Y-173841609D01*
X216360071Y-173903118D01*
X216359835Y-173956836D01*
X216359539Y-174003319D01*
X216359179Y-174043126D01*
X216358747Y-174076813D01*
X216358237Y-174104937D01*
X216357643Y-174128057D01*
X216356958Y-174146728D01*
X216356176Y-174161508D01*
X216355291Y-174172955D01*
X216354296Y-174181625D01*
X216353184Y-174188076D01*
X216351950Y-174192864D01*
X216350587Y-174196548D01*
X216350061Y-174197716D01*
X216330217Y-174229178D01*
X216301287Y-174260460D01*
X216265735Y-174289555D01*
X216226023Y-174314459D01*
X216184614Y-174333167D01*
X216182984Y-174333748D01*
X216144327Y-174347394D01*
X215648896Y-174347517D01*
X215153464Y-174347641D01*
X215153464Y-174613625D01*
X215153464Y-174879609D01*
X214738412Y-174879609D01*
X214323360Y-174879609D01*
X214323360Y-174031968D01*
X215153464Y-174031968D01*
X215340530Y-174031968D01*
X215527595Y-174031968D01*
X215527595Y-173272014D01*
X215527595Y-172512060D01*
X215340530Y-172512060D01*
X215153464Y-172512060D01*
X215153464Y-173272014D01*
X215153464Y-174031968D01*
X214323360Y-174031968D01*
X214323360Y-173537927D01*
X214323360Y-173272014D01*
X214323360Y-172196246D01*
X215257227Y-172197778D01*
G37*
G36*
X223671388Y-172259190D02*
G01*
X223665266Y-172272854D01*
X223654687Y-172296416D01*
X223639997Y-172329112D01*
X223621537Y-172370177D01*
X223599653Y-172418849D01*
X223574686Y-172474363D01*
X223546982Y-172535955D01*
X223516882Y-172602863D01*
X223484732Y-172674321D01*
X223450873Y-172749567D01*
X223415651Y-172827837D01*
X223379408Y-172908367D01*
X223369773Y-172929774D01*
X223327269Y-173024253D01*
X223289347Y-173108654D01*
X223255763Y-173183551D01*
X223226270Y-173249514D01*
X223200623Y-173307115D01*
X223178575Y-173356926D01*
X223159882Y-173399517D01*
X223144297Y-173435461D01*
X223131575Y-173465329D01*
X223121469Y-173489692D01*
X223113735Y-173509122D01*
X223108126Y-173524189D01*
X223104397Y-173535467D01*
X223102302Y-173543526D01*
X223101595Y-173548938D01*
X223102031Y-173552273D01*
X223102061Y-173552352D01*
X223105221Y-173559641D01*
X223112815Y-173576757D01*
X223124484Y-173602903D01*
X223139870Y-173637283D01*
X223158614Y-173679101D01*
X223180357Y-173727561D01*
X223204741Y-173781866D01*
X223231408Y-173841221D01*
X223260000Y-173904829D01*
X223290157Y-173971894D01*
X223321521Y-174041620D01*
X223353734Y-174113210D01*
X223386438Y-174185869D01*
X223419274Y-174258800D01*
X223451883Y-174331208D01*
X223483907Y-174402295D01*
X223514988Y-174471266D01*
X223544767Y-174537324D01*
X223572886Y-174599674D01*
X223598986Y-174657518D01*
X223622709Y-174710062D01*
X223643696Y-174756508D01*
X223661589Y-174796061D01*
X223676029Y-174827925D01*
X223686659Y-174851302D01*
X223693118Y-174865397D01*
X223695001Y-174869378D01*
X223695571Y-174871339D01*
X223694527Y-174873032D01*
X223691085Y-174874477D01*
X223684460Y-174875693D01*
X223673868Y-174876699D01*
X223658525Y-174877514D01*
X223637646Y-174878158D01*
X223610446Y-174878651D01*
X223576142Y-174879011D01*
X223533950Y-174879258D01*
X223483084Y-174879411D01*
X223422760Y-174879489D01*
X223352195Y-174879512D01*
X223283716Y-174879502D01*
X222866997Y-174879396D01*
X222773756Y-174660757D01*
X222680515Y-174442117D01*
X222586690Y-174660799D01*
X222492866Y-174879481D01*
X222078594Y-174879545D01*
X221998949Y-174879545D01*
X221930204Y-174879506D01*
X221871568Y-174879409D01*
X221822250Y-174879234D01*
X221781457Y-174878961D01*
X221748399Y-174878571D01*
X221722285Y-174878044D01*
X221702322Y-174877361D01*
X221687720Y-174876502D01*
X221677687Y-174875448D01*
X221671431Y-174874178D01*
X221668162Y-174872674D01*
X221667087Y-174870917D01*
X221667258Y-174869378D01*
X221669988Y-174862849D01*
X221677233Y-174846317D01*
X221688697Y-174820439D01*
X221704087Y-174785871D01*
X221723110Y-174743267D01*
X221745471Y-174693283D01*
X221770878Y-174636575D01*
X221799036Y-174573799D01*
X221829652Y-174505609D01*
X221862431Y-174432662D01*
X221897081Y-174355614D01*
X221933308Y-174275119D01*
X221966465Y-174201496D01*
X222010401Y-174103826D01*
X222051376Y-174012453D01*
X222089216Y-173927774D01*
X222123748Y-173850183D01*
X222154798Y-173780076D01*
X222182193Y-173717849D01*
X222205760Y-173663896D01*
X222225324Y-173618613D01*
X222240712Y-173582396D01*
X222251752Y-173555640D01*
X222258268Y-173538740D01*
X222260108Y-173532152D01*
X222257414Y-173525435D01*
X222250202Y-173508721D01*
X222238766Y-173482667D01*
X222223400Y-173447931D01*
X222204398Y-173405171D01*
X222182053Y-173355045D01*
X222156660Y-173298211D01*
X222128512Y-173235327D01*
X222097904Y-173167051D01*
X222065128Y-173094040D01*
X222030480Y-173016952D01*
X221994253Y-172936446D01*
X221961583Y-172863920D01*
X221924277Y-172781101D01*
X221888331Y-172701215D01*
X221854035Y-172624911D01*
X221821679Y-172552838D01*
X221791554Y-172485647D01*
X221763951Y-172423987D01*
X221739159Y-172368509D01*
X221717469Y-172319862D01*
X221699172Y-172278695D01*
X221684558Y-172245659D01*
X221673917Y-172221403D01*
X221667539Y-172206578D01*
X221665685Y-172201844D01*
X221671454Y-172200761D01*
X221688454Y-172199828D01*
X221716228Y-172199047D01*
X221754315Y-172198423D01*
X221802257Y-172197962D01*
X221859595Y-172197667D01*
X221925870Y-172197543D01*
X222000622Y-172197594D01*
X222079040Y-172197809D01*
X222492396Y-172199309D01*
X222584572Y-172412681D01*
X222604826Y-172459588D01*
X222623630Y-172503174D01*
X222640478Y-172542265D01*
X222654864Y-172575685D01*
X222666282Y-172602260D01*
X222674227Y-172620815D01*
X222678193Y-172630175D01*
X222678535Y-172631024D01*
X222681135Y-172626931D01*
X222687813Y-172613173D01*
X222698080Y-172590847D01*
X222711445Y-172561049D01*
X222727417Y-172524877D01*
X222745508Y-172483427D01*
X222765226Y-172437796D01*
X222773874Y-172417652D01*
X222867425Y-172199309D01*
X223283453Y-172197809D01*
X223699481Y-172196309D01*
X223671388Y-172259190D01*
G37*
D11*
%TO.C,FB1*%
X215127500Y-107850378D02*
X215127500Y-108649622D01*
X216247500Y-107850378D02*
X216247500Y-108649622D01*
%TO.C,SW437*%
X247251476Y-175332792D02*
X259349853Y-168347793D01*
X254236476Y-187431168D02*
X247251476Y-175332792D01*
X259349853Y-168347793D02*
X266334852Y-180446168D01*
X266334852Y-180446168D02*
X254236476Y-187431168D01*
%TO.C,SW403*%
X69762695Y-126709862D02*
X72188560Y-112952097D01*
X72188560Y-112952097D02*
X85946324Y-115377962D01*
X83520459Y-129135727D02*
X69762695Y-126709862D01*
X85946324Y-115377962D02*
X83520459Y-129135727D01*
%TO.C,SW406*%
X91825364Y-111256487D02*
X94251229Y-97498722D01*
X94251229Y-97498722D02*
X108008993Y-99924587D01*
X105583128Y-113682352D02*
X91825364Y-111256487D01*
X108008993Y-99924587D02*
X105583128Y-113682352D01*
%TO.C,C3*%
X214911100Y-111751393D02*
X214911100Y-112273897D01*
X216381100Y-111751393D02*
X216381100Y-112273897D01*
%TO.C,SW447*%
X306200844Y-81070645D02*
X319958609Y-78644780D01*
X308626709Y-94828409D02*
X306200844Y-81070645D01*
X319958609Y-78644780D02*
X322384474Y-92402545D01*
X322384474Y-92402545D02*
X308626709Y-94828409D01*
%TO.C,D109*%
X201436100Y-110271644D02*
X201436100Y-112956644D01*
X203356100Y-110271644D02*
X201436100Y-110271644D01*
X203356100Y-112956644D02*
X203356100Y-110271644D01*
%TO.C,R4*%
X210177500Y-113319386D02*
X210177500Y-113793902D01*
X211222500Y-113319386D02*
X211222500Y-113793902D01*
%TO.C,SW440*%
X273641667Y-115827523D02*
X287399432Y-113401658D01*
X276067532Y-129585287D02*
X273641667Y-115827523D01*
X287399432Y-113401658D02*
X289825297Y-127159423D01*
X289825297Y-127159423D02*
X276067532Y-129585287D01*
%TO.C,SW450*%
X316124838Y-137352409D02*
X329882603Y-134926544D01*
X318550703Y-151110173D02*
X316124838Y-137352409D01*
X329882603Y-134926544D02*
X332308468Y-148684309D01*
X332308468Y-148684309D02*
X318550703Y-151110173D01*
%TO.C,SW444*%
X289921255Y-98449082D02*
X303679020Y-96023217D01*
X292347120Y-112206846D02*
X289921255Y-98449082D01*
X303679020Y-96023217D02*
X306104885Y-109780982D01*
X306104885Y-109780982D02*
X292347120Y-112206846D01*
%TO.C,SW429*%
X234466492Y-113063225D02*
X248224257Y-110637360D01*
X236892357Y-126820989D02*
X234466492Y-113063225D01*
X248224257Y-110637360D02*
X250650122Y-124395125D01*
X250650122Y-124395125D02*
X236892357Y-126820989D01*
%TO.C,SW439*%
X270333669Y-97066935D02*
X284091434Y-94641070D01*
X272759534Y-110824699D02*
X270333669Y-97066935D01*
X284091434Y-94641070D02*
X286517299Y-108398835D01*
X286517299Y-108398835D02*
X272759534Y-110824699D01*
%TO.C,SW436*%
X259016076Y-142586254D02*
X272773841Y-140160389D01*
X261441941Y-156344018D02*
X259016076Y-142586254D01*
X272773841Y-140160389D02*
X275199706Y-153918154D01*
X275199706Y-153918154D02*
X261441941Y-156344018D01*
%TO.C,SW417*%
X132274238Y-173014643D02*
X137052260Y-159887137D01*
X137052260Y-159887137D02*
X150179765Y-164665158D01*
X145401743Y-177792664D02*
X132274238Y-173014643D01*
X150179765Y-164665158D02*
X145401743Y-177792664D01*
%TO.C,SW414*%
X131000541Y-108492188D02*
X133426406Y-94734423D01*
X133426406Y-94734423D02*
X147184170Y-97160288D01*
X144758305Y-110918053D02*
X131000541Y-108492188D01*
X147184170Y-97160288D02*
X144758305Y-110918053D01*
%TO.C,SW438*%
X267025671Y-78306346D02*
X280783436Y-75880481D01*
X269451536Y-92064110D02*
X267025671Y-78306346D01*
X280783436Y-75880481D02*
X283209301Y-89638246D01*
X283209301Y-89638246D02*
X269451536Y-92064110D01*
%TO.C,SW434*%
X252400080Y-105065080D02*
X266157845Y-102639215D01*
X254825945Y-118822844D02*
X252400080Y-105065080D01*
X266157845Y-102639215D02*
X268583710Y-116396980D01*
X268583710Y-116396980D02*
X254825945Y-118822844D01*
%TO.C,SW430*%
X237774490Y-131823811D02*
X251532255Y-129397946D01*
X240200355Y-145581575D02*
X237774490Y-131823811D01*
X251532255Y-129397946D02*
X253958120Y-143155711D01*
X253958120Y-143155711D02*
X240200355Y-145581575D01*
%TO.C,SW421*%
X142318131Y-154011509D02*
X144743996Y-140253744D01*
X144743996Y-140253744D02*
X158501760Y-142679609D01*
X156075895Y-156437374D02*
X142318131Y-154011509D01*
X158501760Y-142679609D02*
X156075895Y-156437374D01*
%TO.C,C5*%
X216546597Y-124098208D02*
X216546597Y-124379368D01*
X217566597Y-124098208D02*
X217566597Y-124379368D01*
%TO.C,F1*%
X215154678Y-114490145D02*
X214637522Y-114490145D01*
X215154678Y-115910145D02*
X214637522Y-115910145D01*
%TO.C,C4*%
X203886100Y-108113098D02*
X203886100Y-108394258D01*
X204906100Y-108113098D02*
X204906100Y-108394258D01*
%TO.C,SW411*%
X108104954Y-128634924D02*
X110530819Y-114877159D01*
X110530819Y-114877159D02*
X124288583Y-117303024D01*
X121862718Y-131060789D02*
X108104954Y-128634924D01*
X124288583Y-117303024D02*
X121862718Y-131060789D01*
%TO.C,SW427*%
X168217580Y-191108886D02*
X177197324Y-180407245D01*
X177197324Y-180407245D02*
X187898964Y-189386990D01*
X178919220Y-200088628D02*
X168217580Y-191108886D01*
X187898964Y-189386990D02*
X178919220Y-200088628D01*
%TO.C,SW448*%
X309508842Y-99831234D02*
X323266607Y-97405369D01*
X311934707Y-113588998D02*
X309508842Y-99831234D01*
X323266607Y-97405369D02*
X325692472Y-111163134D01*
X325692472Y-111163134D02*
X311934707Y-113588998D01*
%TO.C,SW431*%
X241082488Y-150584399D02*
X254840253Y-148158534D01*
X243508353Y-164342163D02*
X241082488Y-150584399D01*
X254840253Y-148158534D02*
X257266118Y-161916299D01*
X257266118Y-161916299D02*
X243508353Y-164342163D01*
%TO.C,C1*%
X213136100Y-108122065D02*
X213136100Y-108403225D01*
X214156100Y-108122065D02*
X214156100Y-108403225D01*
%TO.C,SW408*%
X85209371Y-148777662D02*
X87635236Y-135019897D01*
X87635236Y-135019897D02*
X101393000Y-137445762D01*
X98967135Y-151203527D02*
X85209371Y-148777662D01*
X101393000Y-137445762D02*
X98967135Y-151203527D01*
%TO.C,SW55*%
X198776100Y-132586644D02*
X199076100Y-132586644D01*
X198776100Y-136726644D02*
X198776100Y-132586644D01*
X199076100Y-136726644D02*
X198776100Y-136726644D01*
X201616100Y-132586644D02*
X201916100Y-132586644D01*
X201916100Y-132586644D02*
X201916100Y-136726644D01*
X201916100Y-136726644D02*
X201616100Y-136726644D01*
%TO.C,SW435*%
X255708078Y-123825666D02*
X269465843Y-121399801D01*
X258133943Y-137583430D02*
X255708078Y-123825666D01*
X269465843Y-121399801D02*
X271891708Y-135157566D01*
X271891708Y-135157566D02*
X258133943Y-137583430D01*
%TO.C,R8*%
X203873600Y-111469386D02*
X203873600Y-111943902D01*
X204918600Y-111469386D02*
X204918600Y-111943902D01*
%TO.C,SW410*%
X111412951Y-109874338D02*
X113838816Y-96116573D01*
X113838816Y-96116573D02*
X127596580Y-98542438D01*
X125170715Y-112300203D02*
X111412951Y-109874338D01*
X127596580Y-98542438D02*
X125170715Y-112300203D01*
%TO.C,SW409*%
X114720949Y-91113751D02*
X117146814Y-77355986D01*
X117146814Y-77355986D02*
X130904578Y-79781851D01*
X128478713Y-93539616D02*
X114720949Y-91113751D01*
X130904578Y-79781851D02*
X128478713Y-93539616D01*
%TO.C,R7*%
X200108842Y-138359144D02*
X200583358Y-138359144D01*
X200108842Y-139404144D02*
X200583358Y-139404144D01*
%TO.C,SW423*%
X170175714Y-105727889D02*
X172601579Y-91970124D01*
X172601579Y-91970124D02*
X186359343Y-94395989D01*
X183933478Y-108153754D02*
X170175714Y-105727889D01*
X186359343Y-94395989D02*
X183933478Y-108153754D01*
D10*
%TO.C,U1*%
X204121100Y-122581644D02*
X204121100Y-123256644D01*
X204121100Y-122581644D02*
X204796100Y-122581644D01*
X204121100Y-132931644D02*
X204121100Y-132256644D01*
X204121100Y-132931644D02*
X204796100Y-132931644D01*
X214471100Y-122581644D02*
X213856100Y-122581644D01*
X214471100Y-122581644D02*
X214471100Y-123256644D01*
X214471100Y-132931644D02*
X213796100Y-132931644D01*
X214471100Y-132931644D02*
X214471100Y-132256644D01*
D11*
X214306100Y-122236644D02*
X213836100Y-121896644D01*
X214306100Y-121556644D01*
X214306100Y-122236644D01*
G36*
X214306100Y-122236644D02*
G01*
X213836100Y-121896644D01*
X214306100Y-121556644D01*
X214306100Y-122236644D01*
G37*
%TO.C,C2*%
X213136100Y-111872065D02*
X213136100Y-112153225D01*
X214156100Y-111872065D02*
X214156100Y-112153225D01*
%TO.C,SW418*%
X152242126Y-97729745D02*
X154667991Y-83971980D01*
X154667991Y-83971980D02*
X168425755Y-86397845D01*
X165999890Y-100155610D02*
X152242126Y-97729745D01*
X168425755Y-86397845D02*
X165999890Y-100155610D01*
%TO.C,R6*%
X214058842Y-135184144D02*
X214533358Y-135184144D01*
X214058842Y-136229144D02*
X214533358Y-136229144D01*
%TO.C,SW413*%
X134308536Y-89731601D02*
X136734401Y-75973836D01*
X136734401Y-75973836D02*
X150492165Y-78399701D01*
X148066300Y-92157466D02*
X134308536Y-89731601D01*
X150492165Y-78399701D02*
X148066300Y-92157466D01*
%TO.C,SW425*%
X163559717Y-143249065D02*
X165985582Y-129491300D01*
X165985582Y-129491300D02*
X179743346Y-131917165D01*
X177317481Y-145674930D02*
X163559717Y-143249065D01*
X179743346Y-131917165D02*
X177317481Y-145674930D01*
%TO.C,SW426*%
X160251721Y-162009653D02*
X162677586Y-148251888D01*
X162677586Y-148251888D02*
X176435350Y-150677753D01*
X174009485Y-164435518D02*
X160251721Y-162009653D01*
X176435350Y-150677753D02*
X174009485Y-164435518D01*
%TO.C,SW449*%
X312816840Y-118591820D02*
X326574605Y-116165955D01*
X315242705Y-132349584D02*
X312816840Y-118591820D01*
X326574605Y-116165955D02*
X329000470Y-129923720D01*
X329000470Y-129923720D02*
X315242705Y-132349584D01*
%TO.C,J1*%
X204376100Y-101726644D02*
X204376100Y-103426644D01*
X213716100Y-101726644D02*
X213716100Y-103426644D01*
%TO.C,SW415*%
X127692543Y-127252776D02*
X130118408Y-113495011D01*
X130118408Y-113495011D02*
X143876172Y-115920876D01*
X141450307Y-129678641D02*
X127692543Y-127252776D01*
X143876172Y-115920876D02*
X141450307Y-129678641D01*
%TO.C,SW419*%
X148934128Y-116490332D02*
X151359993Y-102732567D01*
X151359993Y-102732567D02*
X165117757Y-105158432D01*
X162691892Y-118916197D02*
X148934128Y-116490332D01*
X165117757Y-105158432D02*
X162691892Y-118916197D01*
%TD*%
M02*
