%TF.GenerationSoftware,KiCad,Pcbnew,8.0.5*%
%TF.CreationDate,2024-10-09T17:31:38+02:00*%
%TF.ProjectId,phnx,70686e78-2e6b-4696-9361-645f70636258,A*%
%TF.SameCoordinates,Original*%
%TF.FileFunction,Legend,Bot*%
%TF.FilePolarity,Positive*%
%FSLAX46Y46*%
G04 Gerber Fmt 4.6, Leading zero omitted, Abs format (unit mm)*
G04 Created by KiCad (PCBNEW 8.0.5) date 2024-10-09 17:31:38*
%MOMM*%
%LPD*%
G01*
G04 APERTURE LIST*
%ADD10C,0.120000*%
%ADD11C,0.200000*%
%ADD12C,0.100000*%
G04 APERTURE END LIST*
D10*
%TO.C,D429*%
X231802993Y-116860932D02*
X231106664Y-112911853D01*
X233076279Y-112564557D02*
X231106664Y-112911853D01*
X233772608Y-116513636D02*
X233076279Y-112564557D01*
%TO.C,D536*%
X264047811Y-151442042D02*
X270941466Y-150226505D01*
X264384938Y-153641921D02*
X264571610Y-154700590D01*
X264571610Y-154700590D02*
X271514505Y-153476370D01*
D11*
X272043960Y-151982923D02*
X272130784Y-152475327D01*
D12*
X272217608Y-152967731D02*
X271638380Y-152562151D01*
X272623188Y-152388503D01*
X272217608Y-152967731D01*
G36*
X272217608Y-152967731D02*
G01*
X271638380Y-152562151D01*
X272623188Y-152388503D01*
X272217608Y-152967731D01*
G37*
D10*
%TO.C,D521*%
X145666038Y-153510251D02*
X152608933Y-154734470D01*
X145852710Y-152451582D02*
X145666038Y-153510251D01*
X146288317Y-150269068D02*
X153181972Y-151484605D01*
D11*
X153617247Y-153512174D02*
X153530423Y-154004578D01*
D12*
X154022827Y-154091402D02*
X153443599Y-154496982D01*
X153038019Y-153917754D01*
X154022827Y-154091402D01*
G36*
X154022827Y-154091402D02*
G01*
X153443599Y-154496982D01*
X153038019Y-153917754D01*
X154022827Y-154091402D01*
G37*
D10*
%TO.C,D415*%
X144638837Y-119312334D02*
X145335166Y-115363255D01*
X146608452Y-119659630D02*
X147304781Y-115710551D01*
X147304781Y-115710551D02*
X145335166Y-115363255D01*
%TO.C,D448*%
X306901280Y-103370299D02*
X306204951Y-99421220D01*
X308174566Y-99073924D02*
X306204951Y-99421220D01*
X308870895Y-103023003D02*
X308174566Y-99073924D01*
%TO.C,D510*%
X114841972Y-109488924D02*
X121784867Y-110713143D01*
X115028644Y-108430255D02*
X114841972Y-109488924D01*
X115464251Y-106247741D02*
X122357906Y-107463278D01*
D11*
X122793181Y-109490847D02*
X122706357Y-109983251D01*
D12*
X123198761Y-110070075D02*
X122619533Y-110475655D01*
X122213953Y-109896427D01*
X123198761Y-110070075D01*
G36*
X123198761Y-110070075D02*
G01*
X122619533Y-110475655D01*
X122213953Y-109896427D01*
X123198761Y-110070075D01*
G37*
D10*
%TO.C,D417*%
X140878303Y-164900568D02*
X142249804Y-161132401D01*
X142757688Y-165584608D02*
X144129189Y-161816441D01*
X144129189Y-161816441D02*
X142249804Y-161132401D01*
%TO.C,D428*%
X228503678Y-98149584D02*
X227807349Y-94200505D01*
X229776964Y-93853209D02*
X227807349Y-94200505D01*
X230473293Y-97802288D02*
X229776964Y-93853209D01*
%TO.C,D537*%
X255108619Y-182106759D02*
X261170797Y-178606759D01*
X256177818Y-184058666D02*
X256715318Y-184989643D01*
X256715318Y-184989643D02*
X262820797Y-181464643D01*
D11*
X262807533Y-179880178D02*
X263057533Y-180313190D01*
D12*
X263307533Y-180746203D02*
X262624521Y-180563190D01*
X263490546Y-180063190D01*
X263307533Y-180746203D01*
G36*
X263307533Y-180746203D02*
G01*
X262624521Y-180563190D01*
X263490546Y-180063190D01*
X263307533Y-180746203D01*
G37*
D10*
%TO.C,D541*%
X281934329Y-143464890D02*
X288827984Y-142249353D01*
X282271456Y-145664769D02*
X282458128Y-146723438D01*
X282458128Y-146723438D02*
X289401023Y-145499218D01*
D11*
X289930478Y-144005771D02*
X290017302Y-144498175D01*
D12*
X290104126Y-144990579D02*
X289524898Y-144584999D01*
X290509706Y-144411351D01*
X290104126Y-144990579D01*
G36*
X290104126Y-144990579D02*
G01*
X289524898Y-144584999D01*
X290509706Y-144411351D01*
X290104126Y-144990579D01*
G37*
D10*
%TO.C,D403*%
X86656837Y-118633296D02*
X87353166Y-114684217D01*
X88626452Y-118980592D02*
X89322781Y-115031513D01*
X89322781Y-115031513D02*
X87353166Y-114684217D01*
%TO.C,D436*%
X256288142Y-146306475D02*
X255591813Y-142357396D01*
X257561428Y-142010100D02*
X255591813Y-142357396D01*
X258257757Y-145959179D02*
X257561428Y-142010100D01*
%TO.C,D548*%
X314623950Y-108583967D02*
X321517605Y-107368430D01*
X314961077Y-110783846D02*
X315147749Y-111842515D01*
X315147749Y-111842515D02*
X322090644Y-110618295D01*
D11*
X322620099Y-109124848D02*
X322706923Y-109617252D01*
D12*
X322793747Y-110109656D02*
X322214519Y-109704076D01*
X323199327Y-109530428D01*
X322793747Y-110109656D01*
G36*
X322793747Y-110109656D02*
G01*
X322214519Y-109704076D01*
X323199327Y-109530428D01*
X322793747Y-110109656D01*
G37*
D10*
%TO.C,D413*%
X149194757Y-81251698D02*
X149891086Y-77302619D01*
X151164372Y-81598994D02*
X151860701Y-77649915D01*
X151860701Y-77649915D02*
X149891086Y-77302619D01*
%TO.C,D531*%
X246161292Y-159419195D02*
X253054947Y-158203658D01*
X246498419Y-161619074D02*
X246685091Y-162677743D01*
X246685091Y-162677743D02*
X253627986Y-161453523D01*
D11*
X254157441Y-159960076D02*
X254244265Y-160452480D01*
D12*
X254331089Y-160944884D02*
X253751861Y-160539304D01*
X254736669Y-160365656D01*
X254331089Y-160944884D01*
G36*
X254331089Y-160944884D02*
G01*
X253751861Y-160539304D01*
X254736669Y-160365656D01*
X254331089Y-160944884D01*
G37*
D10*
%TO.C,D435*%
X253015742Y-127747774D02*
X252319413Y-123798695D01*
X254289028Y-123451399D02*
X252319413Y-123798695D01*
X254985357Y-127400478D02*
X254289028Y-123451399D01*
%TO.C,D445*%
X290681785Y-120801604D02*
X289985456Y-116852525D01*
X291955071Y-116505229D02*
X289985456Y-116852525D01*
X292651400Y-120454308D02*
X291955071Y-116505229D01*
%TO.C,D443*%
X284039743Y-83132707D02*
X283343414Y-79183628D01*
X285313029Y-78836332D02*
X283343414Y-79183628D01*
X286009358Y-82785411D02*
X285313029Y-78836332D01*
%TO.C,D553*%
X336633652Y-124165997D02*
X343527307Y-122950460D01*
X336970779Y-126365876D02*
X337157451Y-127424545D01*
X337157451Y-127424545D02*
X344100346Y-126200325D01*
D11*
X344629801Y-124706878D02*
X344716625Y-125199282D01*
D12*
X344803449Y-125691686D02*
X344224221Y-125286106D01*
X345209029Y-125112458D01*
X344803449Y-125691686D01*
G36*
X344803449Y-125691686D02*
G01*
X344224221Y-125286106D01*
X345209029Y-125112458D01*
X344803449Y-125691686D01*
G37*
D10*
%TO.C,D437*%
X253365220Y-171087106D02*
X251633171Y-172087105D01*
X253638171Y-175559867D02*
X251633171Y-172087105D01*
X255370221Y-174559867D02*
X253365220Y-171087106D01*
%TO.C,D552*%
X333334336Y-105454648D02*
X340227991Y-104239111D01*
X333671463Y-107654527D02*
X333858135Y-108713196D01*
X333858135Y-108713196D02*
X340801030Y-107488976D01*
D11*
X341330485Y-105995529D02*
X341417309Y-106487933D01*
D12*
X341504133Y-106980337D02*
X340924905Y-106574757D01*
X341909713Y-106401109D01*
X341504133Y-106980337D01*
G36*
X341504133Y-106980337D02*
G01*
X340924905Y-106574757D01*
X341909713Y-106401109D01*
X341504133Y-106980337D01*
G37*
D10*
%TO.C,D509*%
X118141288Y-90777578D02*
X125084183Y-92001797D01*
X118327960Y-89718909D02*
X118141288Y-90777578D01*
X118763567Y-87536395D02*
X125657222Y-88751932D01*
D11*
X126092497Y-90779501D02*
X126005673Y-91271905D01*
D12*
X126498077Y-91358729D02*
X125918849Y-91764309D01*
X125513269Y-91185081D01*
X126498077Y-91358729D01*
G36*
X126498077Y-91358729D02*
G01*
X125918849Y-91764309D01*
X125513269Y-91185081D01*
X126498077Y-91358729D01*
G37*
D10*
%TO.C,D547*%
X311324633Y-89872619D02*
X318218288Y-88657082D01*
X311661760Y-92072498D02*
X311848432Y-93131167D01*
X311848432Y-93131167D02*
X318791327Y-91906947D01*
D11*
X319320782Y-90413500D02*
X319407606Y-90905904D01*
D12*
X319494430Y-91398308D02*
X318915202Y-90992728D01*
X319900010Y-90819080D01*
X319494430Y-91398308D01*
G36*
X319494430Y-91398308D02*
G01*
X318915202Y-90992728D01*
X319900010Y-90819080D01*
X319494430Y-91398308D01*
G37*
D10*
%TO.C,D535*%
X260705083Y-132484494D02*
X267598738Y-131268957D01*
X261042210Y-134684373D02*
X261228882Y-135743042D01*
X261228882Y-135743042D02*
X268171777Y-134518822D01*
D11*
X268701232Y-133025375D02*
X268788056Y-133517779D01*
D12*
X268874880Y-134010183D02*
X268295652Y-133604603D01*
X269280460Y-133430955D01*
X268874880Y-134010183D01*
G36*
X268874880Y-134010183D02*
G01*
X268295652Y-133604603D01*
X269280460Y-133430955D01*
X268874880Y-134010183D01*
G37*
D10*
%TO.C,D414*%
X147912105Y-100748709D02*
X148608434Y-96799630D01*
X149881720Y-101096005D02*
X150578049Y-97146926D01*
X150578049Y-97146926D02*
X148608434Y-96799630D01*
%TO.C,D406*%
X108593550Y-103462342D02*
X109289879Y-99513263D01*
X110563165Y-103809638D02*
X111259494Y-99860559D01*
X111259494Y-99860559D02*
X109289879Y-99513263D01*
%TO.C,D447*%
X303552725Y-84667631D02*
X302856396Y-80718552D01*
X304826011Y-80371256D02*
X302856396Y-80718552D01*
X305522340Y-84320335D02*
X304826011Y-80371256D01*
%TO.C,D416*%
X141331706Y-138068002D02*
X142028035Y-134118923D01*
X143301321Y-138415298D02*
X143997650Y-134466219D01*
X143997650Y-134466219D02*
X142028035Y-134118923D01*
%TO.C,D522*%
X154317508Y-181162849D02*
X160422987Y-184687849D01*
X154855008Y-180231872D02*
X154317508Y-181162849D01*
X156010809Y-178329965D02*
X162072987Y-181829965D01*
D11*
X161788542Y-183884130D02*
X161538542Y-184317142D01*
D12*
X161971555Y-184567142D02*
X161288542Y-184750155D01*
X161105530Y-184067141D01*
X161971555Y-184567142D01*
G36*
X161971555Y-184567142D02*
G01*
X161288542Y-184750155D01*
X161105530Y-184067141D01*
X161971555Y-184567142D01*
G37*
D10*
%TO.C,D507*%
X92006480Y-129578796D02*
X98949375Y-130803015D01*
X92193152Y-128520127D02*
X92006480Y-129578796D01*
X92628759Y-126337613D02*
X99522414Y-127553150D01*
D11*
X99957689Y-129580719D02*
X99870865Y-130073123D01*
D12*
X100363269Y-130159947D02*
X99784041Y-130565527D01*
X99378461Y-129986299D01*
X100363269Y-130159947D01*
G36*
X100363269Y-130159947D02*
G01*
X99784041Y-130565527D01*
X99378461Y-129986299D01*
X100363269Y-130159947D01*
G37*
D10*
%TO.C,D425*%
X180385828Y-135414362D02*
X181082157Y-131465283D01*
X182355443Y-135761658D02*
X183051772Y-131812579D01*
X183051772Y-131812579D02*
X181082157Y-131465283D01*
%TO.C,D505*%
X98605113Y-92156098D02*
X105548008Y-93380317D01*
X98791785Y-91097429D02*
X98605113Y-92156098D01*
X99227392Y-88914915D02*
X106121047Y-90130452D01*
D11*
X106556322Y-92158021D02*
X106469498Y-92650425D01*
D12*
X106961902Y-92737249D02*
X106382674Y-93142829D01*
X105977094Y-92563601D01*
X106961902Y-92737249D01*
G36*
X106961902Y-92737249D02*
G01*
X106382674Y-93142829D01*
X105977094Y-92563601D01*
X106961902Y-92737249D01*
G37*
D10*
%TO.C,D411*%
X125120027Y-120592377D02*
X125816356Y-116643298D01*
X127089642Y-120939673D02*
X127785971Y-116990594D01*
X127785971Y-116990594D02*
X125816356Y-116643298D01*
%TO.C,D538*%
X272006080Y-87158988D02*
X278899735Y-85943451D01*
X272343207Y-89358867D02*
X272529879Y-90417536D01*
X272529879Y-90417536D02*
X279472774Y-89193316D01*
D11*
X280002229Y-87699869D02*
X280089053Y-88192273D01*
D12*
X280175877Y-88684677D02*
X279596649Y-88279097D01*
X280581457Y-88105449D01*
X280175877Y-88684677D01*
G36*
X280175877Y-88684677D02*
G01*
X279596649Y-88279097D01*
X280581457Y-88105449D01*
X280175877Y-88684677D01*
G37*
D10*
%TO.C,D453*%
X328873983Y-119030428D02*
X328177654Y-115081349D01*
X330147269Y-114734053D02*
X328177654Y-115081349D01*
X330843598Y-118683132D02*
X330147269Y-114734053D01*
%TO.C,D517*%
X135718135Y-173084217D02*
X142342968Y-175495459D01*
X136085807Y-172074048D02*
X135718135Y-173084217D01*
X136893786Y-170000333D02*
X143471634Y-172394474D01*
D11*
X143548213Y-174466824D02*
X143377203Y-174936670D01*
D12*
X143847049Y-175107681D02*
X143206193Y-175406517D01*
X142907357Y-174765660D01*
X143847049Y-175107681D01*
G36*
X143847049Y-175107681D02*
G01*
X143206193Y-175406517D01*
X142907357Y-174765660D01*
X143847049Y-175107681D01*
G37*
D10*
%TO.C,D446*%
X293981101Y-139512951D02*
X293284772Y-135563872D01*
X295254387Y-135216576D02*
X293284772Y-135563872D01*
X295950716Y-139165655D02*
X295254387Y-135216576D01*
%TO.C,D511*%
X111542657Y-128200273D02*
X118485552Y-129424492D01*
X111729329Y-127141604D02*
X111542657Y-128200273D01*
X112164936Y-124959090D02*
X119058591Y-126174627D01*
D11*
X119493866Y-128202196D02*
X119407042Y-128694600D01*
D12*
X119899446Y-128781424D02*
X119320218Y-129187004D01*
X118914638Y-128607776D01*
X119899446Y-128781424D01*
G36*
X119899446Y-128781424D02*
G01*
X119320218Y-129187004D01*
X118914638Y-128607776D01*
X119899446Y-128781424D01*
G37*
D10*
%TO.C,D444*%
X287356422Y-101942537D02*
X286660093Y-97993458D01*
X288629708Y-97646162D02*
X286660093Y-97993458D01*
X289326037Y-101595241D02*
X288629708Y-97646162D01*
%TO.C,D410*%
X128394162Y-102023827D02*
X129090491Y-98074748D01*
X130363777Y-102371123D02*
X131060106Y-98422044D01*
X131060106Y-98422044D02*
X129090491Y-98074748D01*
%TO.C,D533*%
X254106453Y-95061798D02*
X261000108Y-93846261D01*
X254443580Y-97261677D02*
X254630252Y-98320346D01*
X254630252Y-98320346D02*
X261573147Y-97096126D01*
D11*
X262102602Y-95602679D02*
X262189426Y-96095083D01*
D12*
X262276250Y-96587487D02*
X261697022Y-96181907D01*
X262681830Y-96008259D01*
X262276250Y-96587487D01*
G36*
X262276250Y-96587487D02*
G01*
X261697022Y-96181907D01*
X262681830Y-96008259D01*
X262276250Y-96587487D01*
G37*
D10*
%TO.C,D408*%
X102013153Y-140781630D02*
X102709482Y-136832551D01*
X103982768Y-141128926D02*
X104679097Y-137179847D01*
X104679097Y-137179847D02*
X102709482Y-136832551D01*
%TO.C,D506*%
X95305798Y-110867447D02*
X102248693Y-112091666D01*
X95492470Y-109808778D02*
X95305798Y-110867447D01*
X95928077Y-107626264D02*
X102821732Y-108841801D01*
D11*
X103257007Y-110869370D02*
X103170183Y-111361774D01*
D12*
X103662587Y-111448598D02*
X103083359Y-111854178D01*
X102677779Y-111274950D01*
X103662587Y-111448598D01*
G36*
X103662587Y-111448598D02*
G01*
X103083359Y-111854178D01*
X102677779Y-111274950D01*
X103662587Y-111448598D01*
G37*
D10*
%TO.C,D524*%
X170397388Y-124108118D02*
X177340283Y-125332337D01*
X170584060Y-123049449D02*
X170397388Y-124108118D01*
X171019667Y-120866935D02*
X177913322Y-122082472D01*
D11*
X178348597Y-124110041D02*
X178261773Y-124602445D01*
D12*
X178754177Y-124689269D02*
X178174949Y-125094849D01*
X177769369Y-124515621D01*
X178754177Y-124689269D01*
G36*
X178754177Y-124689269D02*
G01*
X178174949Y-125094849D01*
X177769369Y-124515621D01*
X178754177Y-124689269D01*
G37*
D10*
%TO.C,D518*%
X155607395Y-97130007D02*
X162550290Y-98354226D01*
X155794067Y-96071338D02*
X155607395Y-97130007D01*
X156229674Y-93888824D02*
X163123329Y-95104361D01*
D11*
X163558604Y-97131930D02*
X163471780Y-97624334D01*
D12*
X163964184Y-97711158D02*
X163384956Y-98116738D01*
X162979376Y-97537510D01*
X163964184Y-97711158D01*
G36*
X163964184Y-97711158D02*
G01*
X163384956Y-98116738D01*
X162979376Y-97537510D01*
X163964184Y-97711158D01*
G37*
D10*
%TO.C,D405*%
X111954512Y-84401387D02*
X112650841Y-80452308D01*
X113924127Y-84748683D02*
X114620456Y-80799604D01*
X114620456Y-80799604D02*
X112650841Y-80452308D01*
%TO.C,D549*%
X317923265Y-127295316D02*
X324816920Y-126079779D01*
X318260392Y-129495195D02*
X318447064Y-130553864D01*
X318447064Y-130553864D02*
X325389959Y-129329644D01*
D11*
X325919414Y-127836197D02*
X326006238Y-128328601D01*
D12*
X326093062Y-128821005D02*
X325513834Y-128415425D01*
X326498642Y-128241777D01*
X326093062Y-128821005D01*
G36*
X326093062Y-128821005D02*
G01*
X325513834Y-128415425D01*
X326498642Y-128241777D01*
X326093062Y-128821005D01*
G37*
D10*
%TO.C,D422*%
X160892859Y-173874004D02*
X162897859Y-170401243D01*
X162624909Y-174874004D02*
X164629909Y-171401242D01*
X164629909Y-171401242D02*
X162897859Y-170401243D01*
%TO.C,D426*%
X177061332Y-154268507D02*
X177757661Y-150319428D01*
X179030947Y-154615803D02*
X179727276Y-150666724D01*
X179727276Y-150666724D02*
X177757661Y-150319428D01*
%TO.C,D407*%
X105337649Y-121927486D02*
X106033978Y-117978407D01*
X107307264Y-122274782D02*
X108003593Y-118325703D01*
X108003593Y-118325703D02*
X106033978Y-117978407D01*
%TO.C,J3*%
X211115000Y-148770000D02*
X211115000Y-149405000D01*
X211115000Y-149405000D02*
X210480000Y-149405000D01*
%TO.C,D514*%
X134378148Y-108110404D02*
X141321043Y-109334623D01*
X134564820Y-107051735D02*
X134378148Y-108110404D01*
X135000427Y-104869221D02*
X141894082Y-106084758D01*
D11*
X142329357Y-108112327D02*
X142242533Y-108604731D01*
D12*
X142734937Y-108691555D02*
X142155709Y-109097135D01*
X141750129Y-108517907D01*
X142734937Y-108691555D01*
G36*
X142734937Y-108691555D02*
G01*
X142155709Y-109097135D01*
X141750129Y-108517907D01*
X142734937Y-108691555D01*
G37*
D10*
%TO.C,D543*%
X291788458Y-88494099D02*
X298682113Y-87278562D01*
X292125585Y-90693978D02*
X292312257Y-91752647D01*
X292312257Y-91752647D02*
X299255152Y-90528427D01*
D11*
X299784607Y-89034980D02*
X299871431Y-89527384D01*
D12*
X299958255Y-90019788D02*
X299379027Y-89614208D01*
X300363835Y-89440560D01*
X299958255Y-90019788D01*
G36*
X299958255Y-90019788D02*
G01*
X299379027Y-89614208D01*
X300363835Y-89440560D01*
X299958255Y-90019788D01*
G37*
D10*
%TO.C,D527*%
X171560962Y-192429415D02*
X176961575Y-196961068D01*
X172251958Y-191605918D02*
X171560962Y-192429415D01*
X173720463Y-189933608D02*
X179082774Y-194433121D01*
D11*
X178445949Y-196406685D02*
X178124555Y-196789707D01*
D12*
X178507577Y-197111101D02*
X177803161Y-197172730D01*
X177741533Y-196468314D01*
X178507577Y-197111101D01*
G36*
X178507577Y-197111101D02*
G01*
X177803161Y-197172730D01*
X177741533Y-196468314D01*
X178507577Y-197111101D01*
G37*
D10*
%TO.C,D402*%
X89912738Y-100168152D02*
X90609067Y-96219073D01*
X91882353Y-100515448D02*
X92578682Y-96566369D01*
X92578682Y-96566369D02*
X90609067Y-96219073D01*
%TO.C,D412*%
X121795532Y-139446519D02*
X122491861Y-135497440D01*
X123765147Y-139793815D02*
X124461476Y-135844736D01*
X124461476Y-135844736D02*
X122491861Y-135497440D01*
%TO.C,D503*%
X73325669Y-126284605D02*
X80268564Y-127508824D01*
X73512341Y-125225936D02*
X73325669Y-126284605D01*
X73947948Y-123043422D02*
X80841603Y-124258959D01*
D11*
X81276878Y-126286528D02*
X81190054Y-126778932D01*
D12*
X81682458Y-126865756D02*
X81103230Y-127271336D01*
X80697650Y-126692108D01*
X81682458Y-126865756D01*
G36*
X81682458Y-126865756D02*
G01*
X81103230Y-127271336D01*
X80697650Y-126692108D01*
X81682458Y-126865756D01*
G37*
D10*
%TO.C,D440*%
X270858849Y-119524417D02*
X270162520Y-115575338D01*
X272132135Y-115228042D02*
X270162520Y-115575338D01*
X272828464Y-119177121D02*
X272132135Y-115228042D01*
%TO.C,D434*%
X249689511Y-108883778D02*
X248993182Y-104934699D01*
X250962797Y-104587403D02*
X248993182Y-104934699D01*
X251659126Y-108536482D02*
X250962797Y-104587403D01*
%TO.C,D515*%
X131078834Y-126821749D02*
X138021729Y-128045968D01*
X131265506Y-125763080D02*
X131078834Y-126821749D01*
X131701113Y-123580566D02*
X138594768Y-124796103D01*
D11*
X139030043Y-126823672D02*
X138943219Y-127316076D01*
D12*
X139435623Y-127402900D02*
X138856395Y-127808480D01*
X138450815Y-127229252D01*
X139435623Y-127402900D01*
G36*
X139435623Y-127402900D02*
G01*
X138856395Y-127808480D01*
X138450815Y-127229252D01*
X139435623Y-127402900D01*
G37*
D10*
%TO.C,D523*%
X173740114Y-105150573D02*
X180683009Y-106374792D01*
X173926786Y-104091904D02*
X173740114Y-105150573D01*
X174362393Y-101909390D02*
X181256048Y-103124927D01*
D11*
X181691323Y-105152496D02*
X181604499Y-105644900D01*
D12*
X182096903Y-105731724D02*
X181517675Y-106137304D01*
X181112095Y-105558076D01*
X182096903Y-105731724D01*
G36*
X182096903Y-105731724D02*
G01*
X181517675Y-106137304D01*
X181112095Y-105558076D01*
X182096903Y-105731724D01*
G37*
D10*
%TO.C,D419*%
X165737847Y-109070543D02*
X166434176Y-105121464D01*
X167707462Y-109417839D02*
X168403791Y-105468760D01*
X168403791Y-105468760D02*
X166434176Y-105121464D01*
%TO.C,D525*%
X167098074Y-142819468D02*
X174040969Y-144043687D01*
X167284746Y-141760799D02*
X167098074Y-142819468D01*
X167720353Y-139578285D02*
X174614008Y-140793822D01*
D11*
X175049283Y-142821391D02*
X174962459Y-143313795D01*
D12*
X175454863Y-143400619D02*
X174875635Y-143806199D01*
X174470055Y-143226971D01*
X175454863Y-143400619D01*
G36*
X175454863Y-143400619D02*
G01*
X174875635Y-143806199D01*
X174470055Y-143226971D01*
X175454863Y-143400619D01*
G37*
D10*
%TO.C,D432*%
X234821773Y-183942051D02*
X233289684Y-185227625D01*
X235867264Y-188299463D02*
X233289684Y-185227625D01*
X237399351Y-187013888D02*
X234821773Y-183942051D01*
%TO.C,D550*%
X321252885Y-146178521D02*
X328146540Y-144962984D01*
X321590012Y-148378400D02*
X321776684Y-149437069D01*
X321776684Y-149437069D02*
X328719579Y-148212849D01*
D11*
X329249034Y-146719402D02*
X329335858Y-147211806D01*
D12*
X329422682Y-147704210D02*
X328843454Y-147298630D01*
X329828262Y-147124982D01*
X329422682Y-147704210D01*
G36*
X329422682Y-147704210D02*
G01*
X328843454Y-147298630D01*
X329828262Y-147124982D01*
X329422682Y-147704210D01*
G37*
D10*
%TO.C,D516*%
X127779517Y-145533099D02*
X134722412Y-146757318D01*
X127966189Y-144474430D02*
X127779517Y-145533099D01*
X128401796Y-142291916D02*
X135295451Y-143507453D01*
D11*
X135730726Y-145535022D02*
X135643902Y-146027426D01*
D12*
X136136306Y-146114250D02*
X135557078Y-146519830D01*
X135151498Y-145940602D01*
X136136306Y-146114250D01*
G36*
X136136306Y-146114250D02*
G01*
X135557078Y-146519830D01*
X135151498Y-145940602D01*
X136136306Y-146114250D01*
G37*
D10*
%TO.C,D542*%
X273806499Y-172995821D02*
X280384347Y-170601680D01*
X274520509Y-175103738D02*
X274888180Y-176113907D01*
X274888180Y-176113907D02*
X281513013Y-173702665D01*
D11*
X281775091Y-172139968D02*
X281946101Y-172609815D01*
D12*
X282117111Y-173079661D02*
X281476255Y-172780825D01*
X282415947Y-172438805D01*
X282117111Y-173079661D01*
G36*
X282117111Y-173079661D02*
G01*
X281476255Y-172780825D01*
X282415947Y-172438805D01*
X282117111Y-173079661D01*
G37*
D10*
%TO.C,D529*%
X239519249Y-121750299D02*
X246412904Y-120534762D01*
X239856376Y-123950178D02*
X240043048Y-125008847D01*
X240043048Y-125008847D02*
X246985943Y-123784627D01*
D11*
X247515398Y-122291180D02*
X247602222Y-122783584D01*
D12*
X247689046Y-123275988D02*
X247109818Y-122870408D01*
X248094626Y-122696760D01*
X247689046Y-123275988D01*
G36*
X247689046Y-123275988D02*
G01*
X247109818Y-122870408D01*
X248094626Y-122696760D01*
X247689046Y-123275988D01*
G37*
D10*
%TO.C,D418*%
X167115446Y-89548773D02*
X167811775Y-85599694D01*
X169085061Y-89896069D02*
X169781390Y-85946990D01*
X169781390Y-85946990D02*
X167811775Y-85599694D01*
%TO.C,D546*%
X301716707Y-144800001D02*
X308610362Y-143584464D01*
X302053834Y-146999880D02*
X302240506Y-148058549D01*
X302240506Y-148058549D02*
X309183401Y-146834329D01*
D11*
X309712856Y-145340882D02*
X309799680Y-145833286D01*
D12*
X309886504Y-146325690D02*
X309307276Y-145920110D01*
X310292084Y-145746462D01*
X309886504Y-146325690D01*
G36*
X309886504Y-146325690D02*
G01*
X309307276Y-145920110D01*
X310292084Y-145746462D01*
X309886504Y-146325690D01*
G37*
D10*
%TO.C,D441*%
X274174661Y-138329322D02*
X273478332Y-134380243D01*
X275447947Y-134032947D02*
X273478332Y-134380243D01*
X276144276Y-137982026D02*
X275447947Y-134032947D01*
%TO.C,D427*%
X179208911Y-186504178D02*
X181786489Y-183432341D01*
X180740998Y-187789753D02*
X183318578Y-184717915D01*
X183318578Y-184717915D02*
X181786489Y-183432341D01*
%TO.C,D532*%
X238612924Y-194683065D02*
X243975235Y-190183552D01*
X240004824Y-196419654D02*
X240695821Y-197243151D01*
X240695821Y-197243151D02*
X246096434Y-192711499D01*
D11*
X245808232Y-191153408D02*
X246129626Y-191536430D01*
D12*
X246451020Y-191919453D02*
X245746604Y-191857824D01*
X246512648Y-191215037D01*
X246451020Y-191919453D01*
G36*
X246451020Y-191919453D02*
G01*
X245746604Y-191857824D01*
X246512648Y-191215037D01*
X246451020Y-191919453D01*
G37*
D10*
%TO.C,D433*%
X248088231Y-89923514D02*
X247391902Y-85974435D01*
X249361517Y-85627139D02*
X247391902Y-85974435D01*
X250057846Y-89576218D02*
X249361517Y-85627139D01*
%TO.C,D508*%
X88707166Y-148290139D02*
X95650061Y-149514358D01*
X88893838Y-147231470D02*
X88707166Y-148290139D01*
X89329445Y-145048956D02*
X96223100Y-146264493D01*
D11*
X96658375Y-148292062D02*
X96571551Y-148784466D01*
D12*
X97063955Y-148871290D02*
X96484727Y-149276870D01*
X96079147Y-148697642D01*
X97063955Y-148871290D01*
G36*
X97063955Y-148871290D02*
G01*
X96484727Y-149276870D01*
X96079147Y-148697642D01*
X97063955Y-148871290D01*
G37*
D10*
%TO.C,D530*%
X242818565Y-140461645D02*
X249712220Y-139246108D01*
X243155692Y-142661524D02*
X243342364Y-143720193D01*
X243342364Y-143720193D02*
X250285259Y-142495973D01*
D11*
X250814714Y-141002526D02*
X250901538Y-141494930D01*
D12*
X250988362Y-141987334D02*
X250409134Y-141581754D01*
X251393942Y-141408106D01*
X250988362Y-141987334D01*
G36*
X250988362Y-141987334D02*
G01*
X250409134Y-141581754D01*
X251393942Y-141408106D01*
X250988362Y-141987334D01*
G37*
D10*
%TO.C,D519*%
X152264666Y-116087558D02*
X159207561Y-117311777D01*
X152451338Y-115028889D02*
X152264666Y-116087558D01*
X152886945Y-112846375D02*
X159780600Y-114061912D01*
D11*
X160215875Y-116089481D02*
X160129051Y-116581885D01*
D12*
X160621455Y-116668709D02*
X160042227Y-117074289D01*
X159636647Y-116495061D01*
X160621455Y-116668709D01*
G36*
X160621455Y-116668709D02*
G01*
X160042227Y-117074289D01*
X159636647Y-116495061D01*
X160621455Y-116668709D01*
G37*
D10*
%TO.C,D438*%
X266349011Y-81592591D02*
X265652682Y-77643512D01*
X267622297Y-77296216D02*
X265652682Y-77643512D01*
X268318626Y-81245295D02*
X267622297Y-77296216D01*
%TO.C,D526*%
X163798756Y-161530817D02*
X170741651Y-162755036D01*
X163985428Y-160472148D02*
X163798756Y-161530817D01*
X164421035Y-158289634D02*
X171314690Y-159505171D01*
D11*
X171749965Y-161532740D02*
X171663141Y-162025144D01*
D12*
X172155545Y-162111968D02*
X171576317Y-162517548D01*
X171170737Y-161938320D01*
X172155545Y-162111968D01*
G36*
X172155545Y-162111968D02*
G01*
X171576317Y-162517548D01*
X171170737Y-161938320D01*
X172155545Y-162111968D01*
G37*
D10*
%TO.C,D544*%
X295074665Y-107131103D02*
X301968320Y-105915566D01*
X295411792Y-109330982D02*
X295598464Y-110389651D01*
X295598464Y-110389651D02*
X302541359Y-109165431D01*
D11*
X303070814Y-107671984D02*
X303157638Y-108164388D01*
D12*
X303244462Y-108656792D02*
X302665234Y-108251212D01*
X303650042Y-108077564D01*
X303244462Y-108656792D01*
G36*
X303244462Y-108656792D02*
G01*
X302665234Y-108251212D01*
X303650042Y-108077564D01*
X303244462Y-108656792D01*
G37*
D10*
%TO.C,D512*%
X108243341Y-146911621D02*
X115186236Y-148135840D01*
X108430013Y-145852952D02*
X108243341Y-146911621D01*
X108865620Y-143670438D02*
X115759275Y-144885975D01*
D11*
X116194550Y-146913544D02*
X116107726Y-147405948D01*
D12*
X116600130Y-147492772D02*
X116020902Y-147898352D01*
X115615322Y-147319124D01*
X116600130Y-147492772D01*
G36*
X116600130Y-147492772D02*
G01*
X116020902Y-147898352D01*
X115615322Y-147319124D01*
X116600130Y-147492772D01*
G37*
D10*
%TO.C,D502*%
X76698846Y-107586278D02*
X83641741Y-108810497D01*
X76885518Y-106527609D02*
X76698846Y-107586278D01*
X77321125Y-104345095D02*
X84214780Y-105560632D01*
D11*
X84650055Y-107588201D02*
X84563231Y-108080605D01*
D12*
X85055635Y-108167429D02*
X84476407Y-108573009D01*
X84070827Y-107993781D01*
X85055635Y-108167429D01*
G36*
X85055635Y-108167429D02*
G01*
X84476407Y-108573009D01*
X84070827Y-107993781D01*
X85055635Y-108167429D01*
G37*
D10*
%TO.C,D450*%
X313427478Y-140958079D02*
X312731149Y-137009000D01*
X314700764Y-136661704D02*
X312731149Y-137009000D01*
X315397093Y-140610783D02*
X314700764Y-136661704D01*
%TO.C,D539*%
X275292286Y-105795995D02*
X282185941Y-104580458D01*
X275629413Y-107995874D02*
X275816085Y-109054543D01*
X275816085Y-109054543D02*
X282758980Y-107830323D01*
D11*
X283288435Y-106336876D02*
X283375259Y-106829280D01*
D12*
X283462083Y-107321684D02*
X282882855Y-106916104D01*
X283867663Y-106742456D01*
X283462083Y-107321684D01*
G36*
X283462083Y-107321684D02*
G01*
X282882855Y-106916104D01*
X283867663Y-106742456D01*
X283462083Y-107321684D01*
G37*
D10*
%TO.C,D513*%
X137677464Y-89399057D02*
X144620359Y-90623276D01*
X137864136Y-88340388D02*
X137677464Y-89399057D01*
X138299743Y-86157874D02*
X145193398Y-87373411D01*
D11*
X145628673Y-89400980D02*
X145541849Y-89893384D01*
D12*
X146034253Y-89980208D02*
X145455025Y-90385788D01*
X145049445Y-89806560D01*
X146034253Y-89980208D01*
G36*
X146034253Y-89980208D02*
G01*
X145455025Y-90385788D01*
X145049445Y-89806560D01*
X146034253Y-89980208D01*
G37*
D10*
%TO.C,D442*%
X273324234Y-165823205D02*
X271952733Y-162055038D01*
X273832118Y-161370998D02*
X271952733Y-162055038D01*
X275203619Y-165139165D02*
X273832118Y-161370998D01*
%TO.C,D431*%
X238445035Y-154529827D02*
X237748706Y-150580748D01*
X239718321Y-150233452D02*
X237748706Y-150580748D01*
X240414650Y-154182531D02*
X239718321Y-150233452D01*
%TO.C,D520*%
X148965352Y-134798902D02*
X155908247Y-136023121D01*
X149152024Y-133740233D02*
X148965352Y-134798902D01*
X149587631Y-131557719D02*
X156481286Y-132773256D01*
D11*
X156916561Y-134800825D02*
X156829737Y-135293229D01*
D12*
X157322141Y-135380053D02*
X156742913Y-135785633D01*
X156337333Y-135206405D01*
X157322141Y-135380053D01*
G36*
X157322141Y-135380053D02*
G01*
X156742913Y-135785633D01*
X156337333Y-135206405D01*
X157322141Y-135380053D01*
G37*
D10*
%TO.C,D534*%
X257405767Y-113773146D02*
X264299422Y-112557609D01*
X257742894Y-115973025D02*
X257929566Y-117031694D01*
X257929566Y-117031694D02*
X264872461Y-115807474D01*
D11*
X265401916Y-114314027D02*
X265488740Y-114806431D01*
D12*
X265575564Y-115298835D02*
X264996336Y-114893255D01*
X265981144Y-114719607D01*
X265575564Y-115298835D01*
G36*
X265575564Y-115298835D02*
G01*
X264996336Y-114893255D01*
X265981144Y-114719607D01*
X265575564Y-115298835D01*
G37*
D10*
%TO.C,D424*%
X183667777Y-116801495D02*
X184364106Y-112852416D01*
X185637392Y-117148791D02*
X186333721Y-113199712D01*
X186333721Y-113199712D02*
X184364106Y-112852416D01*
%TO.C,D420*%
X162499307Y-127437210D02*
X163195636Y-123488131D01*
X164468922Y-127784506D02*
X165165251Y-123835427D01*
X165165251Y-123835427D02*
X163195636Y-123488131D01*
%TO.C,D421*%
X159174813Y-146291353D02*
X159871142Y-142342274D01*
X161144428Y-146638649D02*
X161840757Y-142689570D01*
X161840757Y-142689570D02*
X159871142Y-142342274D01*
%TO.C,D528*%
X236233043Y-103113294D02*
X243126698Y-101897757D01*
X236570170Y-105313173D02*
X236756842Y-106371842D01*
X236756842Y-106371842D02*
X243699737Y-105147622D01*
D11*
X244229192Y-103654175D02*
X244316016Y-104146579D01*
D12*
X244402840Y-104638983D02*
X243823612Y-104233403D01*
X244808420Y-104059755D01*
X244402840Y-104638983D01*
G36*
X244402840Y-104638983D02*
G01*
X243823612Y-104233403D01*
X244808420Y-104059755D01*
X244402840Y-104638983D01*
G37*
D10*
%TO.C,D545*%
X298373980Y-125842450D02*
X305267635Y-124626913D01*
X298711107Y-128042329D02*
X298897779Y-129100998D01*
X298897779Y-129100998D02*
X305840674Y-127876778D01*
D11*
X306370129Y-126383331D02*
X306456953Y-126875735D01*
D12*
X306543777Y-127368139D02*
X305964549Y-126962559D01*
X306949357Y-126788911D01*
X306543777Y-127368139D01*
G36*
X306543777Y-127368139D02*
G01*
X305964549Y-126962559D01*
X306949357Y-126788911D01*
X306543777Y-127368139D01*
G37*
D10*
%TO.C,D449*%
X310193900Y-122331606D02*
X309497571Y-118382527D01*
X311467186Y-118035231D02*
X309497571Y-118382527D01*
X312163515Y-121984310D02*
X311467186Y-118035231D01*
%TO.C,D423*%
X187002691Y-97888262D02*
X187699020Y-93939183D01*
X188972306Y-98235558D02*
X189668635Y-94286479D01*
X189668635Y-94286479D02*
X187699020Y-93939183D01*
%TO.C,D409*%
X131498502Y-82978549D02*
X132194831Y-79029470D01*
X133468117Y-83325845D02*
X134164446Y-79376766D01*
X134164446Y-79376766D02*
X132194831Y-79029470D01*
%TO.C,D439*%
X267533486Y-100665350D02*
X266837157Y-96716271D01*
X268806772Y-96368975D02*
X266837157Y-96716271D01*
X269503101Y-100318054D02*
X268806772Y-96368975D01*
%TO.C,D452*%
X325482883Y-100086483D02*
X324786554Y-96137404D01*
X326756169Y-95790108D02*
X324786554Y-96137404D01*
X327452498Y-99739187D02*
X326756169Y-95790108D01*
%TO.C,D430*%
X235145721Y-135818480D02*
X234449392Y-131869401D01*
X236419007Y-131522105D02*
X234449392Y-131869401D01*
X237115336Y-135471184D02*
X236419007Y-131522105D01*
%TO.C,D540*%
X278604713Y-124581684D02*
X285498368Y-123366147D01*
X278941840Y-126781563D02*
X279128512Y-127840232D01*
X279128512Y-127840232D02*
X286071407Y-126616012D01*
D11*
X286600862Y-125122565D02*
X286687686Y-125614969D01*
D12*
X286774510Y-126107373D02*
X286195282Y-125701793D01*
X287180090Y-125528145D01*
X286774510Y-126107373D01*
G36*
X286774510Y-126107373D02*
G01*
X286195282Y-125701793D01*
X287180090Y-125528145D01*
X286774510Y-126107373D01*
G37*
%TD*%
M02*
