M48
; DRILL file {KiCad 8.0.5} date 2024-10-09T17:31:27+0200
; FORMAT={-:-/ absolute / metric / decimal}
; #@! TF.CreationDate,2024-10-09T17:31:27+02:00
; #@! TF.GenerationSoftware,Kicad,Pcbnew,8.0.5
; #@! TF.FileFunction,NonPlated,1,4,NPTH
FMAT,2
METRIC
; #@! TA.AperFunction,NonPlated,NPTH,ComponentDrill
T1C0.650
; #@! TA.AperFunction,NonPlated,NPTH,ComponentDrill
T2C0.991
; #@! TA.AperFunction,NonPlated,NPTH,ComponentDrill
T3C1.700
; #@! TA.AperFunction,NonPlated,NPTH,ComponentDrill
T4C2.200
; #@! TA.AperFunction,NonPlated,NPTH,ComponentDrill
T5C4.000
%
G90
G05
T1
X206.156Y-104.232
X211.936Y-104.232
T2
X206.67Y-147.119
X206.67Y-149.151
X211.75Y-148.135
T3
X72.852Y-120.162
X76.16Y-101.401
X82.857Y-121.926
X86.165Y-103.165
X88.298Y-142.23
X91.606Y-123.469
X94.914Y-104.708
X98.222Y-85.948
X98.304Y-143.994
X101.612Y-125.233
X104.92Y-106.473
X107.886Y-140.847
X108.228Y-87.712
X111.194Y-122.087
X114.502Y-103.326
X117.81Y-84.566
X117.892Y-142.612
X121.2Y-123.851
X124.508Y-105.091
X127.474Y-139.465
X127.816Y-86.33
X130.782Y-120.705
X134.09Y-101.944
X136.453Y-167.102
X137.398Y-83.184
X137.479Y-141.23
X140.787Y-122.469
X144.095Y-103.708
X145.407Y-147.463
X146.001Y-170.577
X147.403Y-84.948
X148.715Y-128.703
X152.023Y-109.942
X155.331Y-91.182
X155.413Y-149.228
X156.117Y-175.435
X158.721Y-130.467
X162.029Y-111.707
X163.341Y-155.462
X164.916Y-180.515
X165.337Y-92.946
X166.649Y-136.701
X169.957Y-117.94
X173.265Y-99.18
X173.346Y-157.226
X174.167Y-186.983
X176.654Y-138.465
X179.962Y-119.705
X181.95Y-193.513
X183.27Y-100.944
X234.247Y-100.851
X235.457Y-193.353
X237.555Y-119.611
X240.863Y-138.372
X243.24Y-186.822
X244.171Y-157.132
X244.253Y-99.086
X247.561Y-117.847
X250.869Y-136.608
X252.181Y-92.853
X252.394Y-180.429
X254.177Y-155.368
X255.489Y-111.613
X258.797Y-130.374
X261.193Y-175.349
X262.105Y-149.134
X262.187Y-91.088
X265.495Y-109.849
X268.803Y-128.609
X270.115Y-84.854
X271.381Y-170.609
X272.111Y-147.37
X273.423Y-103.615
X276.731Y-122.376
X280.039Y-141.136
X280.12Y-83.09
X280.929Y-167.134
X283.428Y-101.851
X286.736Y-120.611
X289.702Y-86.237
X290.044Y-139.372
X293.01Y-104.997
X296.318Y-123.758
X299.626Y-142.518
X299.708Y-84.472
X303.016Y-103.233
X306.324Y-121.993
X309.29Y-87.619
X309.632Y-140.754
X312.598Y-106.379
X315.906Y-125.14
X319.214Y-143.9
X319.295Y-85.854
X322.603Y-104.615
X325.911Y-123.376
X329.219Y-142.136
X331.352Y-103.065
X334.66Y-121.826
X341.357Y-101.301
X344.665Y-120.061
T4
X107.724Y-115.881
X192.5Y-172.5
X198.271Y-103.707
X219.821Y-103.707
X226.726Y-172.5
X309.781Y-115.881
T5
X77.855Y-121.044
X81.163Y-102.283
X93.301Y-143.112
X96.609Y-124.351
X99.917Y-105.591
X103.225Y-86.83
X112.889Y-141.73
X116.197Y-122.969
X119.505Y-104.208
X122.813Y-85.448
X132.476Y-140.347
X135.784Y-121.587
X139.092Y-102.826
X141.227Y-168.84
X142.4Y-84.066
X150.41Y-148.346
X153.718Y-129.585
X157.026Y-110.824
X160.334Y-92.064
X160.517Y-177.975
X168.344Y-156.344
X171.652Y-137.583
X174.96Y-118.823
X178.058Y-190.248
X178.268Y-100.062
X239.25Y-99.969
X239.349Y-190.088
X242.558Y-118.729
X245.866Y-137.49
X249.174Y-156.25
X256.793Y-177.889
X257.184Y-91.97
X260.492Y-110.731
X263.8Y-129.492
X267.108Y-148.252
X275.117Y-83.972
X276.155Y-168.871
X278.425Y-102.733
X281.733Y-121.493
X285.041Y-140.254
X294.705Y-85.354
X298.013Y-104.115
X301.321Y-122.876
X304.629Y-141.636
X314.293Y-86.737
X317.601Y-105.497
X320.909Y-124.258
X324.217Y-143.018
X336.355Y-102.183
X339.663Y-120.944
M30
