%TF.GenerationSoftware,KiCad,Pcbnew,8.0.5*%
%TF.CreationDate,2024-10-09T17:31:26+02:00*%
%TF.ProjectId,phnx,70686e78-2e6b-4696-9361-645f70636258,A*%
%TF.SameCoordinates,Original*%
%TF.FileFunction,Drillmap*%
%TF.FilePolarity,Positive*%
%FSLAX45Y45*%
G04 Gerber Fmt 4.5, Leading zero omitted, Abs format (unit mm)*
G04 Created by KiCad (PCBNEW 8.0.5) date 2024-10-09 17:31:26*
%MOMM*%
%LPD*%
G01*
G04 APERTURE LIST*
%ADD10C,0.100000*%
%ADD11C,0.050000*%
%ADD12C,0.200000*%
%ADD13C,0.170000*%
%ADD14C,0.220000*%
%ADD15C,0.400000*%
G04 APERTURE END LIST*
D10*
X28299496Y-15293967D02*
G75*
G02*
X28380611Y-15178116I98484J17367D01*
G01*
X32188157Y-7500617D02*
X30559630Y-7787458D01*
X7348148Y-9002682D02*
X9050000Y-9300000D01*
X23733355Y-20462692D02*
X22499720Y-19016205D01*
X29394264Y-14999387D02*
X28380612Y-15178121D01*
X10424362Y-15063379D02*
X12098535Y-15358581D01*
X9459223Y-7582827D02*
G75*
G02*
X9575070Y-7501706I98477J-17353D01*
G01*
X6649503Y-12967519D02*
G75*
G02*
X6568383Y-12851672I17357J98479D01*
G01*
X26267154Y-7630454D02*
G75*
G02*
X26348270Y-7514605I98486J17364D01*
G01*
X31618644Y-15521053D02*
G75*
G02*
X31502798Y-15439937I-17364J98483D01*
G01*
X22316105Y-9493332D02*
G75*
G02*
X21998436Y-9793898I-333245J34052D01*
G01*
X35113723Y-12966424D02*
X33411337Y-13266267D01*
X33330221Y-13382112D02*
G75*
G02*
X33411337Y-13266271I98479J17362D01*
G01*
X15410950Y-7514608D02*
G75*
G02*
X15492063Y-7630453I-17370J-98482D01*
G01*
X8351889Y-13267361D02*
G75*
G02*
X8433008Y-13383207I-17359J-98479D01*
G01*
X31334858Y-15063379D02*
G75*
G02*
X31450701Y-15144495I17362J-98481D01*
G01*
X7232302Y-9083798D02*
G75*
G02*
X7348148Y-9002683I98478J-17363D01*
G01*
X13273394Y-7543870D02*
X13325489Y-7248428D01*
X32304003Y-7581733D02*
X32597380Y-9217790D01*
X24482844Y-8452789D02*
G75*
G02*
X24563959Y-8336942I98476J17369D01*
G01*
X12214381Y-15277465D02*
X12249110Y-15080503D01*
X30275845Y-7329784D02*
G75*
G02*
X30391687Y-7410900I17365J-98476D01*
G01*
X32188157Y-7500617D02*
G75*
G02*
X32304005Y-7581733I17373J-98473D01*
G01*
X8212649Y-15181339D02*
X10140576Y-15521053D01*
X8433005Y-13383207D02*
X8131533Y-15065493D01*
X22316105Y-9493332D02*
G75*
G02*
X22596917Y-9187960I355945J-45518D01*
G01*
X11315435Y-7706342D02*
X11367530Y-7410900D01*
X18025865Y-20462691D02*
X19260280Y-19015728D01*
X23856948Y-20485692D02*
G75*
G02*
X29028903Y-17518049I8306462J-8485738D01*
G01*
X26238133Y-8041741D02*
X24563960Y-8336943D01*
X28485826Y-7543870D02*
X28433731Y-7248428D01*
X30275845Y-7329784D02*
X28601671Y-7624986D01*
X32713226Y-9298906D02*
G75*
G02*
X32597383Y-9217789I-17366J98476D01*
G01*
X18025865Y-20462691D02*
G75*
G02*
X17902274Y-20485689I-73515J51481D01*
G01*
X26267154Y-7630454D02*
X26319249Y-7925896D01*
X17195260Y-8336943D02*
G75*
G02*
X17276375Y-8452789I-17360J-98477D01*
G01*
X33330221Y-13382112D02*
X33631693Y-15064398D01*
X33631693Y-15064398D02*
G75*
G02*
X33550577Y-15180245I-98473J-17372D01*
G01*
X29088670Y-17389877D02*
G75*
G02*
X29028903Y-17518050I-93970J-34203D01*
G01*
X6649503Y-12967519D02*
X8351889Y-13267361D01*
X15492066Y-7630454D02*
X15439971Y-7925896D01*
X23856948Y-20485692D02*
G75*
G02*
X23733353Y-20462693I-50078J74482D01*
G01*
X28317886Y-7167312D02*
G75*
G02*
X28433729Y-7248428I17364J-98478D01*
G01*
X10256422Y-15439937D02*
X10308516Y-15144495D01*
X13273394Y-7543870D02*
G75*
G02*
X13157547Y-7624994I-98484J17360D01*
G01*
X12730317Y-17518048D02*
G75*
G02*
X17902272Y-20485692I-3134509J-11453382D01*
G01*
X12730317Y-17518048D02*
G75*
G02*
X12670552Y-17389877I34203J93968D01*
G01*
X11315435Y-7706342D02*
G75*
G02*
X11199588Y-7787465I-98485J17362D01*
G01*
X34530923Y-9082703D02*
X35194838Y-12850579D01*
X13459724Y-15293967D02*
X12670550Y-17389877D01*
X17276376Y-8452789D02*
X17224282Y-8748231D01*
X17305398Y-8864077D02*
X19162013Y-9189570D01*
X17305398Y-8864077D02*
G75*
G02*
X17224284Y-8748232I17362J98477D01*
G01*
X19760494Y-9795507D02*
X21998436Y-9793898D01*
X28317886Y-7167312D02*
X26348270Y-7514608D01*
X30443785Y-7706342D02*
X30391690Y-7410900D01*
X34415078Y-9001587D02*
G75*
G02*
X34530926Y-9082703I17372J-98473D01*
G01*
X10308516Y-15144495D02*
G75*
G02*
X10424362Y-15063376I98484J-17365D01*
G01*
X30559630Y-7787458D02*
G75*
G02*
X30443792Y-7706341I-17360J98478D01*
G01*
X11367530Y-7410900D02*
G75*
G02*
X11483376Y-7329781I98480J-17360D01*
G01*
X10256422Y-15439937D02*
G75*
G02*
X10140576Y-15521052I-98482J17367D01*
G01*
X12214381Y-15277465D02*
G75*
G02*
X12098535Y-15358581I-98481J17365D01*
G01*
X12249110Y-15080503D02*
G75*
G02*
X12364955Y-14999390I98480J-17367D01*
G01*
X29660685Y-15358581D02*
G75*
G02*
X29544839Y-15277465I-17365J98481D01*
G01*
X28601671Y-7624986D02*
G75*
G02*
X28485834Y-7543868I-17362J98476D01*
G01*
X9459223Y-7582827D02*
X9165846Y-9218884D01*
X26319249Y-7925896D02*
G75*
G02*
X26238132Y-8041739I-98479J-17364D01*
G01*
X8212649Y-15181339D02*
G75*
G02*
X8131532Y-15065493I17361J98479D01*
G01*
X7232302Y-9083798D02*
X6568387Y-12851673D01*
X31334858Y-15063379D02*
X29660685Y-15358581D01*
X9575069Y-7501712D02*
X11199590Y-7787458D01*
X13325489Y-7248428D02*
G75*
G02*
X13441335Y-7167309I98481J-17362D01*
G01*
X15521087Y-8041741D02*
X17195260Y-8336943D01*
X13378608Y-15178121D02*
G75*
G02*
X13459719Y-15293966I-17368J-98479D01*
G01*
X22288377Y-18920238D02*
G75*
G02*
X22499721Y-19016204I-14557J-312762D01*
G01*
X19760494Y-9795507D02*
G75*
G02*
X19442826Y-9494942I15576J334617D01*
G01*
X15521087Y-8041741D02*
G75*
G02*
X15439969Y-7925895I17363J98482D01*
G01*
X33550577Y-15180244D02*
X31618644Y-15521053D01*
X35194838Y-12850579D02*
G75*
G02*
X35113722Y-12966422I-98468J-17371D01*
G01*
X9165846Y-9218884D02*
G75*
G02*
X9050001Y-9299995I-98476J17364D01*
G01*
X12364956Y-14999387D02*
X13378608Y-15178121D01*
X31502798Y-15439937D02*
X31450704Y-15144495D01*
X19471623Y-18919762D02*
X22288377Y-18920238D01*
X11483375Y-7329784D02*
X13157548Y-7624986D01*
X29394264Y-14999387D02*
G75*
G02*
X29510112Y-15080503I17366J-98483D01*
G01*
X34415078Y-9001587D02*
X32713226Y-9298906D01*
X19260280Y-19015728D02*
G75*
G02*
X19471623Y-18919762I225900J-216792D01*
G01*
X28299496Y-15293967D02*
X29088670Y-17389877D01*
X24482844Y-8452789D02*
X24534938Y-8748231D01*
X19162013Y-9189570D02*
G75*
G02*
X19442825Y-9494942I-75133J-350890D01*
G01*
X24453822Y-8864077D02*
X22596917Y-9187961D01*
X24534938Y-8748231D02*
G75*
G02*
X24453823Y-8864079I-98478J-17369D01*
G01*
X13441334Y-7167312D02*
X15410950Y-7514608D01*
X29544839Y-15277465D02*
X29510110Y-15080503D01*
D11*
X26965788Y-15360066D02*
X26640801Y-15417370D01*
X26590443Y-15131775D01*
X26915430Y-15074471D01*
X26965788Y-15360066D01*
X15132535Y-15136032D02*
X15082177Y-15421626D01*
X14757190Y-15364322D01*
X14807548Y-15078728D01*
X15132535Y-15136032D01*
X12050128Y-10733899D02*
X11999770Y-11019493D01*
X11674784Y-10962189D01*
X11725142Y-10676595D01*
X12050128Y-10733899D01*
X26111865Y-18221644D02*
X25826077Y-18386644D01*
X25681077Y-18135496D01*
X25966865Y-17970496D01*
X26111865Y-18221644D01*
X28754440Y-14562351D02*
X28429453Y-14619654D01*
X28379095Y-14334060D01*
X28704082Y-14276756D01*
X28754440Y-14562351D01*
X32023402Y-11074258D02*
X31698415Y-11131562D01*
X31648057Y-10845968D01*
X31973044Y-10788664D01*
X32023402Y-11074258D01*
X25177136Y-16157781D02*
X24852150Y-16215085D01*
X24801792Y-15929491D01*
X25126778Y-15872187D01*
X25177136Y-16157781D01*
X34224372Y-12632461D02*
X33899386Y-12689765D01*
X33849028Y-12404171D01*
X34174014Y-12346867D01*
X34224372Y-12632461D01*
X33894441Y-10761326D02*
X33569454Y-10818630D01*
X33519096Y-10533036D01*
X33844083Y-10475732D01*
X33894441Y-10761326D01*
X12380060Y-8862764D02*
X12329702Y-9148359D01*
X12004715Y-9091055D01*
X12055073Y-8805461D01*
X12380060Y-8862764D01*
X31693470Y-9203124D02*
X31368484Y-9260427D01*
X31318126Y-8974833D01*
X31643112Y-8917529D01*
X31693470Y-9203124D01*
X26631515Y-13464311D02*
X26306529Y-13521615D01*
X26256171Y-13236021D01*
X26581157Y-13178717D01*
X26631515Y-13464311D01*
X16037084Y-18107817D02*
X15892084Y-18358964D01*
X15606296Y-18193964D01*
X15751296Y-17942817D01*
X16037084Y-18107817D01*
X9766579Y-12742886D02*
X9716221Y-13028480D01*
X9391234Y-12971177D01*
X9441592Y-12685582D01*
X9766579Y-12742886D01*
X10426442Y-9000616D02*
X10376084Y-9286211D01*
X10051098Y-9228907D01*
X10101456Y-8943313D01*
X10426442Y-9000616D01*
X27761615Y-8931760D02*
X27436628Y-8989064D01*
X27386270Y-8703470D01*
X27711257Y-8646166D01*
X27761615Y-8931760D01*
X14166480Y-17194968D02*
X14067294Y-17467478D01*
X13757195Y-17354612D01*
X13856381Y-17082101D01*
X14166480Y-17194968D01*
X11720197Y-12605034D02*
X11669839Y-12890628D01*
X11344852Y-12833324D01*
X11395210Y-12547730D01*
X11720197Y-12605034D01*
X25971652Y-9722041D02*
X25646666Y-9779345D01*
X25596308Y-9493751D01*
X25921294Y-9436447D01*
X25971652Y-9722041D01*
X10096511Y-10871751D02*
X10046153Y-11157346D01*
X9721166Y-11100042D01*
X9771524Y-10814447D01*
X10096511Y-10871751D01*
X17605670Y-12195818D02*
X17555312Y-12481413D01*
X17230325Y-12424109D01*
X17280683Y-12138514D01*
X17605670Y-12195818D01*
X16126670Y-9498007D02*
X16076312Y-9783602D01*
X15751326Y-9726298D01*
X15801684Y-9440703D01*
X16126670Y-9498007D01*
X32353333Y-12945393D02*
X32028347Y-13002697D01*
X31977989Y-12717103D01*
X32302975Y-12659799D01*
X32353333Y-12945393D01*
X14003746Y-10596047D02*
X13953388Y-10881641D01*
X13628401Y-10824337D01*
X13678759Y-10538743D01*
X14003746Y-10596047D01*
X29739853Y-9065272D02*
X29414866Y-9122575D01*
X29364508Y-8836981D01*
X29689495Y-8779677D01*
X29739853Y-9065272D01*
X17753703Y-19339717D02*
X17567295Y-19561870D01*
X17314500Y-19349750D01*
X17500909Y-19127597D01*
X17753703Y-19339717D01*
X7898498Y-12413467D02*
X7848140Y-12699061D01*
X7523153Y-12641757D01*
X7573511Y-12356163D01*
X7898498Y-12413467D01*
X13673814Y-12467181D02*
X13623456Y-12752776D01*
X13298470Y-12695472D01*
X13348828Y-12409878D01*
X13673814Y-12467181D01*
X17939942Y-10300064D02*
X17889584Y-10585658D01*
X17564598Y-10528354D01*
X17614956Y-10242760D01*
X17939942Y-10300064D01*
X17275738Y-14066953D02*
X17225380Y-14352548D01*
X16900394Y-14295244D01*
X16950752Y-14009649D01*
X17275738Y-14066953D01*
X32686295Y-14833714D02*
X32361309Y-14891018D01*
X32310951Y-14605423D01*
X32635937Y-14548119D01*
X32686295Y-14833714D01*
X13343883Y-14338316D02*
X13293525Y-14623911D01*
X12968538Y-14566607D01*
X13018896Y-14281013D01*
X13343883Y-14338316D01*
X27970618Y-17414746D02*
X27660519Y-17527613D01*
X27561333Y-17255102D01*
X27871432Y-17142236D01*
X27970618Y-17414746D01*
X24512932Y-12390891D02*
X24187945Y-12448195D01*
X24137587Y-12162601D01*
X24462574Y-12105297D01*
X24512932Y-12390891D01*
X30732678Y-14695862D02*
X30407691Y-14753166D01*
X30357333Y-14467571D01*
X30682320Y-14410267D01*
X30732678Y-14695862D01*
X24455069Y-19374745D02*
X24202275Y-19586865D01*
X24015866Y-19364712D01*
X24268661Y-19152592D01*
X24455069Y-19374745D01*
X9436648Y-14614020D02*
X9386290Y-14899615D01*
X9061303Y-14842311D01*
X9111661Y-14556717D01*
X9436648Y-14614020D01*
X24842863Y-14262026D02*
X24517877Y-14319330D01*
X24467519Y-14033736D01*
X24792505Y-13976432D01*
X24842863Y-14262026D01*
X15792398Y-11393762D02*
X15742040Y-11679357D01*
X15417053Y-11622053D01*
X15467411Y-11336458D01*
X15792398Y-11393762D01*
X16945807Y-15938088D02*
X16895449Y-16223683D01*
X16570462Y-16166379D01*
X16620820Y-15880784D01*
X16945807Y-15938088D01*
X30068473Y-10928972D02*
X29743487Y-10986276D01*
X29693129Y-10700682D01*
X30018115Y-10643378D01*
X30068473Y-10928972D01*
X11390265Y-14476169D02*
X11339907Y-14761763D01*
X11014921Y-14704459D01*
X11065279Y-14418865D01*
X11390265Y-14476169D01*
X8235816Y-10543634D02*
X8185458Y-10829229D01*
X7860471Y-10771925D01*
X7910829Y-10486331D01*
X8235816Y-10543634D01*
X28090236Y-10795461D02*
X27765249Y-10852765D01*
X27714891Y-10567171D01*
X28039878Y-10509867D01*
X28090236Y-10795461D01*
X14333677Y-8724912D02*
X14283319Y-9010507D01*
X13958333Y-8953203D01*
X14008691Y-8667608D01*
X14333677Y-8724912D01*
X15462466Y-13264897D02*
X15412108Y-13550491D01*
X15087122Y-13493187D01*
X15137480Y-13207593D01*
X15462466Y-13264897D01*
X26301584Y-11593176D02*
X25976597Y-11650480D01*
X25926239Y-11364886D01*
X26251226Y-11307582D01*
X26301584Y-11593176D01*
X24184311Y-10527191D02*
X23859325Y-10584495D01*
X23808967Y-10298901D01*
X24133953Y-10241597D01*
X24184311Y-10527191D01*
X30398405Y-12800107D02*
X30073418Y-12857410D01*
X30023060Y-12571816D01*
X30348047Y-12514512D01*
X30398405Y-12800107D01*
X28421478Y-12674030D02*
X28096492Y-12731334D01*
X28046134Y-12445740D01*
X28371120Y-12388436D01*
X28421478Y-12674030D01*
D12*
D10*
X20583110Y-10390664D02*
X20648110Y-10455664D01*
X20648110Y-10390664D02*
X20583110Y-10455664D01*
X21161110Y-10390664D02*
X21226110Y-10455664D01*
X21226110Y-10390664D02*
X21161110Y-10455664D01*
X20716530Y-14711900D02*
G75*
G02*
X20617470Y-14711900I-49530J0D01*
G01*
X20617470Y-14711900D02*
G75*
G02*
X20716530Y-14711900I49530J0D01*
G01*
X20716530Y-14915100D02*
G75*
G02*
X20617470Y-14915100I-49530J0D01*
G01*
X20617470Y-14915100D02*
G75*
G02*
X20716530Y-14915100I49530J0D01*
G01*
X21224530Y-14813500D02*
G75*
G02*
X21125470Y-14813500I-49530J0D01*
G01*
X21125470Y-14813500D02*
G75*
G02*
X21224530Y-14813500I49530J0D01*
G01*
D13*
X7285169Y-11931178D02*
X7285169Y-12101178D01*
X7200169Y-12016178D02*
X7370169Y-12016178D01*
X7615968Y-10055119D02*
X7615968Y-10225119D01*
X7530968Y-10140119D02*
X7700968Y-10140119D01*
X8285733Y-12107604D02*
X8285733Y-12277604D01*
X8200733Y-12192604D02*
X8370733Y-12192604D01*
X8616533Y-10231545D02*
X8616533Y-10401545D01*
X8531533Y-10316545D02*
X8701533Y-10316545D01*
X8829836Y-14137958D02*
X8829836Y-14307958D01*
X8744836Y-14222958D02*
X8914836Y-14222958D01*
X9160636Y-12261899D02*
X9160636Y-12431899D01*
X9075636Y-12346899D02*
X9245636Y-12346899D01*
X9491436Y-10385840D02*
X9491436Y-10555840D01*
X9406436Y-10470840D02*
X9576436Y-10470840D01*
X9822235Y-8509782D02*
X9822235Y-8679782D01*
X9737235Y-8594782D02*
X9907235Y-8594782D01*
X9830401Y-14314384D02*
X9830401Y-14484384D01*
X9745401Y-14399384D02*
X9915401Y-14399384D01*
X10161201Y-12438325D02*
X10161201Y-12608325D01*
X10076201Y-12523325D02*
X10246201Y-12523325D01*
X10492000Y-10562267D02*
X10492000Y-10732267D01*
X10407000Y-10647267D02*
X10577000Y-10647267D01*
X10788595Y-13999743D02*
X10788595Y-14169743D01*
X10703595Y-14084743D02*
X10873595Y-14084743D01*
X10822800Y-8686208D02*
X10822800Y-8856208D01*
X10737800Y-8771208D02*
X10907800Y-8771208D01*
X11119395Y-12123684D02*
X11119395Y-12293684D01*
X11034395Y-12208684D02*
X11204394Y-12208684D01*
X11450194Y-10247626D02*
X11450194Y-10417626D01*
X11365194Y-10332626D02*
X11535194Y-10332626D01*
X11780994Y-8371567D02*
X11780994Y-8541567D01*
X11695994Y-8456567D02*
X11865994Y-8456567D01*
X11789160Y-14176170D02*
X11789160Y-14346170D01*
X11704160Y-14261170D02*
X11874160Y-14261170D01*
X12119959Y-12300111D02*
X12119959Y-12470111D01*
X12034959Y-12385111D02*
X12204959Y-12385111D01*
X12450759Y-10424052D02*
X12450759Y-10594052D01*
X12365759Y-10509052D02*
X12535759Y-10509052D01*
X12747353Y-13861528D02*
X12747353Y-14031528D01*
X12662353Y-13946528D02*
X12832353Y-13946528D01*
X12781559Y-8547993D02*
X12781559Y-8717993D01*
X12696559Y-8632993D02*
X12866559Y-8632993D01*
X13078153Y-11985469D02*
X13078153Y-12155469D01*
X12993153Y-12070469D02*
X13163153Y-12070469D01*
X13408953Y-10109411D02*
X13408953Y-10279411D01*
X13323953Y-10194411D02*
X13493953Y-10194411D01*
X13645336Y-16625244D02*
X13645336Y-16795244D01*
X13560336Y-16710244D02*
X13730336Y-16710244D01*
X13739753Y-8233352D02*
X13739753Y-8403352D01*
X13654753Y-8318352D02*
X13824753Y-8318352D01*
X13747918Y-14037955D02*
X13747918Y-14207955D01*
X13662918Y-14122955D02*
X13832918Y-14122955D01*
X14078718Y-12161896D02*
X14078718Y-12331896D01*
X13993718Y-12246896D02*
X14163718Y-12246896D01*
X14409518Y-10285837D02*
X14409518Y-10455837D01*
X14324518Y-10370837D02*
X14494518Y-10370837D01*
X14540712Y-14661343D02*
X14540712Y-14831343D01*
X14455712Y-14746343D02*
X14625712Y-14746343D01*
X14600064Y-16972736D02*
X14600064Y-17142736D01*
X14515064Y-17057736D02*
X14685064Y-17057736D01*
X14740317Y-8409778D02*
X14740317Y-8579778D01*
X14655317Y-8494778D02*
X14825317Y-8494778D01*
X14871512Y-12785284D02*
X14871512Y-12955284D01*
X14786512Y-12870284D02*
X14956512Y-12870284D01*
X15202312Y-10909225D02*
X15202312Y-11079225D01*
X15117312Y-10994225D02*
X15287312Y-10994225D01*
X15533112Y-9033166D02*
X15533112Y-9203166D01*
X15448112Y-9118166D02*
X15618112Y-9118166D01*
X15541277Y-14837769D02*
X15541277Y-15007769D01*
X15456277Y-14922769D02*
X15626277Y-14922769D01*
X15611734Y-17458544D02*
X15611734Y-17628544D01*
X15526734Y-17543544D02*
X15696734Y-17543544D01*
X15872077Y-12961711D02*
X15872077Y-13131711D01*
X15787077Y-13046711D02*
X15957077Y-13046711D01*
X16202877Y-11085652D02*
X16202877Y-11255651D01*
X16117877Y-11170652D02*
X16287877Y-11170652D01*
X16334071Y-15461157D02*
X16334071Y-15631157D01*
X16249071Y-15546157D02*
X16419071Y-15546157D01*
X16491616Y-17966544D02*
X16491616Y-18136544D01*
X16406616Y-18051544D02*
X16576616Y-18051544D01*
X16533676Y-9209593D02*
X16533676Y-9379593D01*
X16448676Y-9294593D02*
X16618676Y-9294593D01*
X16664871Y-13585098D02*
X16664871Y-13755098D01*
X16579871Y-13670098D02*
X16749871Y-13670098D01*
X16995671Y-11709039D02*
X16995671Y-11879039D01*
X16910671Y-11794039D02*
X17080671Y-11794039D01*
X17326471Y-9832981D02*
X17326471Y-10002981D01*
X17241471Y-9917981D02*
X17411471Y-9917981D01*
X17334636Y-15637584D02*
X17334636Y-15807584D01*
X17249636Y-15722584D02*
X17419636Y-15722584D01*
X17416677Y-18613258D02*
X17416677Y-18783258D01*
X17331677Y-18698258D02*
X17501677Y-18698258D01*
X17665436Y-13761525D02*
X17665436Y-13931525D01*
X17580436Y-13846525D02*
X17750436Y-13846525D01*
X17996235Y-11885466D02*
X17996235Y-12055466D01*
X17911235Y-11970466D02*
X18081235Y-11970466D01*
X18194978Y-19266330D02*
X18194978Y-19436330D01*
X18109978Y-19351330D02*
X18279978Y-19351330D01*
X18327035Y-10009407D02*
X18327035Y-10179407D01*
X18242035Y-10094407D02*
X18412035Y-10094407D01*
X23424749Y-10000072D02*
X23424749Y-10170072D01*
X23339749Y-10085072D02*
X23509749Y-10085072D01*
X23545709Y-19250290D02*
X23545709Y-19420290D01*
X23460709Y-19335290D02*
X23630709Y-19335290D01*
X23755548Y-11876131D02*
X23755548Y-12046131D01*
X23670548Y-11961131D02*
X23840548Y-11961131D01*
X24086348Y-13752189D02*
X24086348Y-13922189D01*
X24001348Y-13837189D02*
X24171348Y-13837189D01*
X24324010Y-18597218D02*
X24324010Y-18767218D01*
X24239010Y-18682218D02*
X24409010Y-18682218D01*
X24417148Y-15628248D02*
X24417148Y-15798248D01*
X24332148Y-15713248D02*
X24502148Y-15713248D01*
X24425313Y-9823645D02*
X24425313Y-9993645D01*
X24340313Y-9908645D02*
X24510313Y-9908645D01*
X24756113Y-11699704D02*
X24756113Y-11869704D01*
X24671113Y-11784704D02*
X24841113Y-11784704D01*
X25086913Y-13575763D02*
X25086913Y-13745763D01*
X25001913Y-13660763D02*
X25171913Y-13660763D01*
X25218107Y-9200257D02*
X25218107Y-9370257D01*
X25133107Y-9285257D02*
X25303107Y-9285257D01*
X25239376Y-17957948D02*
X25239376Y-18127948D01*
X25154376Y-18042948D02*
X25324376Y-18042948D01*
X25417713Y-15451822D02*
X25417713Y-15621822D01*
X25332713Y-15536822D02*
X25502713Y-15536822D01*
X25548907Y-11076316D02*
X25548907Y-11246316D01*
X25463907Y-11161316D02*
X25633907Y-11161316D01*
X25879707Y-12952375D02*
X25879707Y-13122375D01*
X25794707Y-13037375D02*
X25964707Y-13037375D01*
X26119257Y-17449948D02*
X26119257Y-17619948D01*
X26034257Y-17534948D02*
X26204257Y-17534948D01*
X26210507Y-14828434D02*
X26210507Y-14998434D01*
X26125507Y-14913434D02*
X26295507Y-14913434D01*
X26218672Y-9023831D02*
X26218672Y-9193831D01*
X26133672Y-9108831D02*
X26303672Y-9108831D01*
X26549472Y-10899890D02*
X26549472Y-11069890D01*
X26464472Y-10984890D02*
X26634472Y-10984890D01*
X26880272Y-12775948D02*
X26880272Y-12945948D01*
X26795272Y-12860948D02*
X26965272Y-12860948D01*
X27011466Y-8400443D02*
X27011466Y-8570443D01*
X26926466Y-8485443D02*
X27096466Y-8485443D01*
X27138134Y-16975882D02*
X27138134Y-17145882D01*
X27053134Y-17060882D02*
X27223134Y-17060882D01*
X27211071Y-14652007D02*
X27211071Y-14822007D01*
X27126071Y-14737007D02*
X27296071Y-14737007D01*
X27342266Y-10276502D02*
X27342266Y-10446502D01*
X27257266Y-10361502D02*
X27427266Y-10361502D01*
X27673066Y-12152560D02*
X27673066Y-12322560D01*
X27588066Y-12237560D02*
X27758066Y-12237560D01*
X28003866Y-14028619D02*
X28003866Y-14198619D01*
X27918866Y-14113619D02*
X28088866Y-14113619D01*
X28012031Y-8224016D02*
X28012031Y-8394016D01*
X27927031Y-8309016D02*
X28097031Y-8309016D01*
X28092862Y-16628390D02*
X28092862Y-16798390D01*
X28007862Y-16713390D02*
X28177862Y-16713390D01*
X28342831Y-10100075D02*
X28342831Y-10270075D01*
X28257831Y-10185075D02*
X28427831Y-10185075D01*
X28673630Y-11976134D02*
X28673630Y-12146134D01*
X28588630Y-12061134D02*
X28758630Y-12061134D01*
X28970225Y-8538658D02*
X28970225Y-8708658D01*
X28885225Y-8623658D02*
X29055225Y-8623658D01*
X29004430Y-13852193D02*
X29004430Y-14022193D01*
X28919430Y-13937193D02*
X29089430Y-13937193D01*
X29301025Y-10414716D02*
X29301025Y-10584716D01*
X29216025Y-10499716D02*
X29386025Y-10499716D01*
X29631824Y-12290775D02*
X29631824Y-12460775D01*
X29546824Y-12375775D02*
X29716824Y-12375775D01*
X29962624Y-14166834D02*
X29962624Y-14336834D01*
X29877624Y-14251834D02*
X30047624Y-14251834D01*
X29970790Y-8362231D02*
X29970790Y-8532232D01*
X29885790Y-8447232D02*
X30055790Y-8447232D01*
X30301589Y-10238290D02*
X30301589Y-10408290D01*
X30216589Y-10323290D02*
X30386589Y-10323290D01*
X30632389Y-12114349D02*
X30632389Y-12284349D01*
X30547389Y-12199349D02*
X30717389Y-12199349D01*
X30928984Y-8676873D02*
X30928984Y-8846873D01*
X30843984Y-8761873D02*
X31013984Y-8761873D01*
X30963189Y-13990408D02*
X30963189Y-14160408D01*
X30878189Y-14075408D02*
X31048189Y-14075408D01*
X31259783Y-10552932D02*
X31259783Y-10722932D01*
X31174783Y-10637932D02*
X31344783Y-10637932D01*
X31590583Y-12428990D02*
X31590583Y-12598990D01*
X31505583Y-12513990D02*
X31675583Y-12513990D01*
X31921383Y-14305049D02*
X31921383Y-14475049D01*
X31836383Y-14390049D02*
X32006383Y-14390049D01*
X31929548Y-8500446D02*
X31929548Y-8670446D01*
X31844548Y-8585446D02*
X32014548Y-8585446D01*
X32260348Y-10376505D02*
X32260348Y-10546505D01*
X32175348Y-10461505D02*
X32345348Y-10461505D01*
X32591148Y-12252564D02*
X32591148Y-12422564D01*
X32506148Y-12337564D02*
X32676148Y-12337564D01*
X32921948Y-14128623D02*
X32921948Y-14298623D01*
X32836948Y-14213623D02*
X33006948Y-14213623D01*
X33135178Y-10221512D02*
X33135178Y-10391512D01*
X33050178Y-10306512D02*
X33220178Y-10306512D01*
X33465978Y-12097570D02*
X33465978Y-12267570D01*
X33380978Y-12182570D02*
X33550978Y-12182570D01*
X34135742Y-10045085D02*
X34135742Y-10215085D01*
X34050742Y-10130085D02*
X34220742Y-10130085D01*
X34466542Y-11921143D02*
X34466542Y-12091143D01*
X34381542Y-12006143D02*
X34551542Y-12006143D01*
D14*
X10850156Y-11665914D02*
X10850156Y-11510349D01*
X10694591Y-11510349D01*
X10694591Y-11665914D01*
X10850156Y-11665914D01*
X19327783Y-17327783D02*
X19327783Y-17172218D01*
X19172218Y-17172218D01*
X19172218Y-17327783D01*
X19327783Y-17327783D01*
X19904893Y-10448447D02*
X19904893Y-10292882D01*
X19749328Y-10292882D01*
X19749328Y-10448447D01*
X19904893Y-10448447D01*
X22059893Y-10448447D02*
X22059893Y-10292882D01*
X21904328Y-10292882D01*
X21904328Y-10448447D01*
X22059893Y-10448447D01*
X22750382Y-17327783D02*
X22750382Y-17172218D01*
X22594817Y-17172218D01*
X22594817Y-17327783D01*
X22750382Y-17327783D01*
X31055896Y-11665914D02*
X31055896Y-11510349D01*
X30900331Y-11510349D01*
X30900331Y-11665914D01*
X31055896Y-11665914D01*
D15*
X7785451Y-12304391D02*
X7985451Y-12104391D01*
X7785451Y-11904391D01*
X7585451Y-12104391D01*
X7785451Y-12304391D01*
X8116251Y-10428332D02*
X8316251Y-10228332D01*
X8116251Y-10028332D01*
X7916251Y-10228332D01*
X8116251Y-10428332D01*
X9330119Y-14511171D02*
X9530119Y-14311171D01*
X9330119Y-14111171D01*
X9130119Y-14311171D01*
X9330119Y-14511171D01*
X9660918Y-12635112D02*
X9860918Y-12435112D01*
X9660918Y-12235112D01*
X9460918Y-12435112D01*
X9660918Y-12635112D01*
X9991718Y-10759054D02*
X10191718Y-10559054D01*
X9991718Y-10359054D01*
X9791718Y-10559054D01*
X9991718Y-10759054D01*
X10322518Y-8882995D02*
X10522518Y-8682995D01*
X10322518Y-8482995D01*
X10122518Y-8682995D01*
X10322518Y-8882995D01*
X11288877Y-14372956D02*
X11488877Y-14172956D01*
X11288877Y-13972956D01*
X11088877Y-14172956D01*
X11288877Y-14372956D01*
X11619677Y-12496897D02*
X11819677Y-12296897D01*
X11619677Y-12096897D01*
X11419677Y-12296897D01*
X11619677Y-12496897D01*
X11950477Y-10620839D02*
X12150477Y-10420839D01*
X11950477Y-10220839D01*
X11750477Y-10420839D01*
X11950477Y-10620839D01*
X12281276Y-8744780D02*
X12481276Y-8544780D01*
X12281276Y-8344780D01*
X12081276Y-8544780D01*
X12281276Y-8744780D01*
X13247636Y-14234741D02*
X13447636Y-14034741D01*
X13247636Y-13834741D01*
X13047636Y-14034741D01*
X13247636Y-14234741D01*
X13578436Y-12358683D02*
X13778436Y-12158683D01*
X13578436Y-11958683D01*
X13378436Y-12158683D01*
X13578436Y-12358683D01*
X13909236Y-10482624D02*
X14109236Y-10282624D01*
X13909236Y-10082624D01*
X13709236Y-10282624D01*
X13909236Y-10482624D01*
X14122700Y-17083990D02*
X14322700Y-16883990D01*
X14122700Y-16683990D01*
X13922700Y-16883990D01*
X14122700Y-17083990D01*
X14240035Y-8606565D02*
X14440035Y-8406565D01*
X14240035Y-8206565D01*
X14040035Y-8406565D01*
X14240035Y-8606565D01*
X15040995Y-15034556D02*
X15240995Y-14834556D01*
X15040995Y-14634556D01*
X14840995Y-14834556D01*
X15040995Y-15034556D01*
X15371794Y-13158497D02*
X15571794Y-12958497D01*
X15371794Y-12758497D01*
X15171794Y-12958497D01*
X15371794Y-13158497D01*
X15702594Y-11282438D02*
X15902594Y-11082438D01*
X15702594Y-10882438D01*
X15502594Y-11082438D01*
X15702594Y-11282438D01*
X16033394Y-9406380D02*
X16233394Y-9206380D01*
X16033394Y-9006380D01*
X15833394Y-9206380D01*
X16033394Y-9406380D01*
X16051675Y-17997544D02*
X16251675Y-17797544D01*
X16051675Y-17597544D01*
X15851675Y-17797544D01*
X16051675Y-17997544D01*
X16834354Y-15834370D02*
X17034354Y-15634370D01*
X16834354Y-15434370D01*
X16634354Y-15634370D01*
X16834354Y-15834370D01*
X17165153Y-13958311D02*
X17365153Y-13758311D01*
X17165153Y-13558311D01*
X16965153Y-13758311D01*
X17165153Y-13958311D01*
X17495953Y-12082253D02*
X17695953Y-11882253D01*
X17495953Y-11682253D01*
X17295953Y-11882253D01*
X17495953Y-12082253D01*
X17805827Y-19224794D02*
X18005827Y-19024794D01*
X17805827Y-18824794D01*
X17605827Y-19024794D01*
X17805827Y-19224794D01*
X17826753Y-10206194D02*
X18026753Y-10006194D01*
X17826753Y-9806194D01*
X17626753Y-10006194D01*
X17826753Y-10206194D01*
X23925031Y-10196859D02*
X24125031Y-9996859D01*
X23925031Y-9796859D01*
X23725031Y-9996859D01*
X23925031Y-10196859D01*
X23934859Y-19208754D02*
X24134859Y-19008754D01*
X23934859Y-18808754D01*
X23734859Y-19008754D01*
X23934859Y-19208754D01*
X24255831Y-12072917D02*
X24455831Y-11872917D01*
X24255831Y-11672917D01*
X24055831Y-11872917D01*
X24255831Y-12072917D01*
X24586630Y-13948976D02*
X24786630Y-13748976D01*
X24586630Y-13548976D01*
X24386630Y-13748976D01*
X24586630Y-13948976D01*
X24917430Y-15825035D02*
X25117430Y-15625035D01*
X24917430Y-15425035D01*
X24717430Y-15625035D01*
X24917430Y-15825035D01*
X25679316Y-17988948D02*
X25879316Y-17788948D01*
X25679316Y-17588948D01*
X25479316Y-17788948D01*
X25679316Y-17988948D01*
X25718390Y-9397044D02*
X25918390Y-9197044D01*
X25718390Y-8997044D01*
X25518390Y-9197044D01*
X25718390Y-9397044D01*
X26049189Y-11273103D02*
X26249189Y-11073103D01*
X26049189Y-10873103D01*
X25849189Y-11073103D01*
X26049189Y-11273103D01*
X26379989Y-13149162D02*
X26579989Y-12949162D01*
X26379989Y-12749162D01*
X26179989Y-12949162D01*
X26379989Y-13149162D01*
X26710789Y-15025220D02*
X26910789Y-14825220D01*
X26710789Y-14625220D01*
X26510789Y-14825220D01*
X26710789Y-15025220D01*
X27511749Y-8597230D02*
X27711749Y-8397230D01*
X27511749Y-8197230D01*
X27311749Y-8397230D01*
X27511749Y-8597230D01*
X27615498Y-17087136D02*
X27815498Y-16887136D01*
X27615498Y-16687136D01*
X27415498Y-16887136D01*
X27615498Y-17087136D01*
X27842548Y-10473289D02*
X28042548Y-10273289D01*
X27842548Y-10073289D01*
X27642548Y-10273289D01*
X27842548Y-10473289D01*
X28173348Y-12349347D02*
X28373348Y-12149347D01*
X28173348Y-11949347D01*
X27973348Y-12149347D01*
X28173348Y-12349347D01*
X28504148Y-14225406D02*
X28704148Y-14025406D01*
X28504148Y-13825406D01*
X28304148Y-14025406D01*
X28504148Y-14225406D01*
X29470507Y-8735445D02*
X29670507Y-8535445D01*
X29470507Y-8335445D01*
X29270507Y-8535445D01*
X29470507Y-8735445D01*
X29801307Y-10611503D02*
X30001307Y-10411503D01*
X29801307Y-10211503D01*
X29601307Y-10411503D01*
X29801307Y-10611503D01*
X30132107Y-12487562D02*
X30332107Y-12287562D01*
X30132107Y-12087562D01*
X29932107Y-12287562D01*
X30132107Y-12487562D01*
X30462907Y-14363621D02*
X30662907Y-14163621D01*
X30462907Y-13963621D01*
X30262907Y-14163621D01*
X30462907Y-14363621D01*
X31429266Y-8873660D02*
X31629266Y-8673660D01*
X31429266Y-8473660D01*
X31229266Y-8673660D01*
X31429266Y-8873660D01*
X31760066Y-10749718D02*
X31960066Y-10549718D01*
X31760066Y-10349718D01*
X31560066Y-10549718D01*
X31760066Y-10749718D01*
X32090865Y-12625777D02*
X32290865Y-12425777D01*
X32090865Y-12225777D01*
X31890865Y-12425777D01*
X32090865Y-12625777D01*
X32421665Y-14501836D02*
X32621665Y-14301836D01*
X32421665Y-14101836D01*
X32221665Y-14301836D01*
X32421665Y-14501836D01*
X33635460Y-10418298D02*
X33835460Y-10218298D01*
X33635460Y-10018298D01*
X33435460Y-10218298D01*
X33635460Y-10418298D01*
X33966260Y-12294357D02*
X34166260Y-12094357D01*
X33966260Y-11894357D01*
X33766260Y-12094357D01*
X33966260Y-12294357D01*
D12*
X6822640Y-20817445D02*
X6822640Y-20617445D01*
X6822640Y-20617445D02*
X6870259Y-20617445D01*
X6870259Y-20617445D02*
X6898831Y-20626969D01*
X6898831Y-20626969D02*
X6917878Y-20646016D01*
X6917878Y-20646016D02*
X6927402Y-20665064D01*
X6927402Y-20665064D02*
X6936926Y-20703159D01*
X6936926Y-20703159D02*
X6936926Y-20731731D01*
X6936926Y-20731731D02*
X6927402Y-20769826D01*
X6927402Y-20769826D02*
X6917878Y-20788874D01*
X6917878Y-20788874D02*
X6898831Y-20807921D01*
X6898831Y-20807921D02*
X6870259Y-20817445D01*
X6870259Y-20817445D02*
X6822640Y-20817445D01*
X7022640Y-20817445D02*
X7022640Y-20684112D01*
X7022640Y-20722207D02*
X7032164Y-20703159D01*
X7032164Y-20703159D02*
X7041688Y-20693635D01*
X7041688Y-20693635D02*
X7060735Y-20684112D01*
X7060735Y-20684112D02*
X7079783Y-20684112D01*
X7146450Y-20817445D02*
X7146450Y-20684112D01*
X7146450Y-20617445D02*
X7136926Y-20626969D01*
X7136926Y-20626969D02*
X7146450Y-20636493D01*
X7146450Y-20636493D02*
X7155973Y-20626969D01*
X7155973Y-20626969D02*
X7146450Y-20617445D01*
X7146450Y-20617445D02*
X7146450Y-20636493D01*
X7270259Y-20817445D02*
X7251212Y-20807921D01*
X7251212Y-20807921D02*
X7241688Y-20788874D01*
X7241688Y-20788874D02*
X7241688Y-20617445D01*
X7375021Y-20817445D02*
X7355973Y-20807921D01*
X7355973Y-20807921D02*
X7346450Y-20788874D01*
X7346450Y-20788874D02*
X7346450Y-20617445D01*
X7603593Y-20817445D02*
X7603593Y-20617445D01*
X7603593Y-20617445D02*
X7670259Y-20760302D01*
X7670259Y-20760302D02*
X7736926Y-20617445D01*
X7736926Y-20617445D02*
X7736926Y-20817445D01*
X7917878Y-20817445D02*
X7917878Y-20712683D01*
X7917878Y-20712683D02*
X7908354Y-20693635D01*
X7908354Y-20693635D02*
X7889307Y-20684112D01*
X7889307Y-20684112D02*
X7851212Y-20684112D01*
X7851212Y-20684112D02*
X7832164Y-20693635D01*
X7917878Y-20807921D02*
X7898831Y-20817445D01*
X7898831Y-20817445D02*
X7851212Y-20817445D01*
X7851212Y-20817445D02*
X7832164Y-20807921D01*
X7832164Y-20807921D02*
X7822640Y-20788874D01*
X7822640Y-20788874D02*
X7822640Y-20769826D01*
X7822640Y-20769826D02*
X7832164Y-20750778D01*
X7832164Y-20750778D02*
X7851212Y-20741255D01*
X7851212Y-20741255D02*
X7898831Y-20741255D01*
X7898831Y-20741255D02*
X7917878Y-20731731D01*
X8013116Y-20684112D02*
X8013116Y-20884112D01*
X8013116Y-20693635D02*
X8032164Y-20684112D01*
X8032164Y-20684112D02*
X8070259Y-20684112D01*
X8070259Y-20684112D02*
X8089307Y-20693635D01*
X8089307Y-20693635D02*
X8098831Y-20703159D01*
X8098831Y-20703159D02*
X8108354Y-20722207D01*
X8108354Y-20722207D02*
X8108354Y-20779350D01*
X8108354Y-20779350D02*
X8098831Y-20798397D01*
X8098831Y-20798397D02*
X8089307Y-20807921D01*
X8089307Y-20807921D02*
X8070259Y-20817445D01*
X8070259Y-20817445D02*
X8032164Y-20817445D01*
X8032164Y-20817445D02*
X8013116Y-20807921D01*
X8194069Y-20798397D02*
X8203593Y-20807921D01*
X8203593Y-20807921D02*
X8194069Y-20817445D01*
X8194069Y-20817445D02*
X8184545Y-20807921D01*
X8184545Y-20807921D02*
X8194069Y-20798397D01*
X8194069Y-20798397D02*
X8194069Y-20817445D01*
X8194069Y-20693635D02*
X8203593Y-20703159D01*
X8203593Y-20703159D02*
X8194069Y-20712683D01*
X8194069Y-20712683D02*
X8184545Y-20703159D01*
X8184545Y-20703159D02*
X8194069Y-20693635D01*
X8194069Y-20693635D02*
X8194069Y-20712683D01*
D10*
X6496863Y-21113461D02*
X6561863Y-21178461D01*
X6561863Y-21113461D02*
X6496863Y-21178461D01*
D12*
X6860735Y-21037445D02*
X6879783Y-21037445D01*
X6879783Y-21037445D02*
X6898831Y-21046969D01*
X6898831Y-21046969D02*
X6908354Y-21056493D01*
X6908354Y-21056493D02*
X6917878Y-21075540D01*
X6917878Y-21075540D02*
X6927402Y-21113635D01*
X6927402Y-21113635D02*
X6927402Y-21161255D01*
X6927402Y-21161255D02*
X6917878Y-21199350D01*
X6917878Y-21199350D02*
X6908354Y-21218397D01*
X6908354Y-21218397D02*
X6898831Y-21227921D01*
X6898831Y-21227921D02*
X6879783Y-21237445D01*
X6879783Y-21237445D02*
X6860735Y-21237445D01*
X6860735Y-21237445D02*
X6841688Y-21227921D01*
X6841688Y-21227921D02*
X6832164Y-21218397D01*
X6832164Y-21218397D02*
X6822640Y-21199350D01*
X6822640Y-21199350D02*
X6813116Y-21161255D01*
X6813116Y-21161255D02*
X6813116Y-21113635D01*
X6813116Y-21113635D02*
X6822640Y-21075540D01*
X6822640Y-21075540D02*
X6832164Y-21056493D01*
X6832164Y-21056493D02*
X6841688Y-21046969D01*
X6841688Y-21046969D02*
X6860735Y-21037445D01*
X7013116Y-21218397D02*
X7022640Y-21227921D01*
X7022640Y-21227921D02*
X7013116Y-21237445D01*
X7013116Y-21237445D02*
X7003593Y-21227921D01*
X7003593Y-21227921D02*
X7013116Y-21218397D01*
X7013116Y-21218397D02*
X7013116Y-21237445D01*
X7194069Y-21037445D02*
X7155973Y-21037445D01*
X7155973Y-21037445D02*
X7136926Y-21046969D01*
X7136926Y-21046969D02*
X7127402Y-21056493D01*
X7127402Y-21056493D02*
X7108354Y-21085064D01*
X7108354Y-21085064D02*
X7098831Y-21123159D01*
X7098831Y-21123159D02*
X7098831Y-21199350D01*
X7098831Y-21199350D02*
X7108354Y-21218397D01*
X7108354Y-21218397D02*
X7117878Y-21227921D01*
X7117878Y-21227921D02*
X7136926Y-21237445D01*
X7136926Y-21237445D02*
X7175021Y-21237445D01*
X7175021Y-21237445D02*
X7194069Y-21227921D01*
X7194069Y-21227921D02*
X7203593Y-21218397D01*
X7203593Y-21218397D02*
X7213116Y-21199350D01*
X7213116Y-21199350D02*
X7213116Y-21151731D01*
X7213116Y-21151731D02*
X7203593Y-21132683D01*
X7203593Y-21132683D02*
X7194069Y-21123159D01*
X7194069Y-21123159D02*
X7175021Y-21113635D01*
X7175021Y-21113635D02*
X7136926Y-21113635D01*
X7136926Y-21113635D02*
X7117878Y-21123159D01*
X7117878Y-21123159D02*
X7108354Y-21132683D01*
X7108354Y-21132683D02*
X7098831Y-21151731D01*
X7394069Y-21037445D02*
X7298831Y-21037445D01*
X7298831Y-21037445D02*
X7289307Y-21132683D01*
X7289307Y-21132683D02*
X7298831Y-21123159D01*
X7298831Y-21123159D02*
X7317878Y-21113635D01*
X7317878Y-21113635D02*
X7365497Y-21113635D01*
X7365497Y-21113635D02*
X7384545Y-21123159D01*
X7384545Y-21123159D02*
X7394069Y-21132683D01*
X7394069Y-21132683D02*
X7403593Y-21151731D01*
X7403593Y-21151731D02*
X7403593Y-21199350D01*
X7403593Y-21199350D02*
X7394069Y-21218397D01*
X7394069Y-21218397D02*
X7384545Y-21227921D01*
X7384545Y-21227921D02*
X7365497Y-21237445D01*
X7365497Y-21237445D02*
X7317878Y-21237445D01*
X7317878Y-21237445D02*
X7298831Y-21227921D01*
X7298831Y-21227921D02*
X7289307Y-21218397D01*
X7527402Y-21037445D02*
X7546450Y-21037445D01*
X7546450Y-21037445D02*
X7565497Y-21046969D01*
X7565497Y-21046969D02*
X7575021Y-21056493D01*
X7575021Y-21056493D02*
X7584545Y-21075540D01*
X7584545Y-21075540D02*
X7594069Y-21113635D01*
X7594069Y-21113635D02*
X7594069Y-21161255D01*
X7594069Y-21161255D02*
X7584545Y-21199350D01*
X7584545Y-21199350D02*
X7575021Y-21218397D01*
X7575021Y-21218397D02*
X7565497Y-21227921D01*
X7565497Y-21227921D02*
X7546450Y-21237445D01*
X7546450Y-21237445D02*
X7527402Y-21237445D01*
X7527402Y-21237445D02*
X7508354Y-21227921D01*
X7508354Y-21227921D02*
X7498831Y-21218397D01*
X7498831Y-21218397D02*
X7489307Y-21199350D01*
X7489307Y-21199350D02*
X7479783Y-21161255D01*
X7479783Y-21161255D02*
X7479783Y-21113635D01*
X7479783Y-21113635D02*
X7489307Y-21075540D01*
X7489307Y-21075540D02*
X7498831Y-21056493D01*
X7498831Y-21056493D02*
X7508354Y-21046969D01*
X7508354Y-21046969D02*
X7527402Y-21037445D01*
X7679783Y-21237445D02*
X7679783Y-21104112D01*
X7679783Y-21123159D02*
X7689307Y-21113635D01*
X7689307Y-21113635D02*
X7708354Y-21104112D01*
X7708354Y-21104112D02*
X7736926Y-21104112D01*
X7736926Y-21104112D02*
X7755974Y-21113635D01*
X7755974Y-21113635D02*
X7765497Y-21132683D01*
X7765497Y-21132683D02*
X7765497Y-21237445D01*
X7765497Y-21132683D02*
X7775021Y-21113635D01*
X7775021Y-21113635D02*
X7794069Y-21104112D01*
X7794069Y-21104112D02*
X7822640Y-21104112D01*
X7822640Y-21104112D02*
X7841688Y-21113635D01*
X7841688Y-21113635D02*
X7851212Y-21132683D01*
X7851212Y-21132683D02*
X7851212Y-21237445D01*
X7946450Y-21237445D02*
X7946450Y-21104112D01*
X7946450Y-21123159D02*
X7955974Y-21113635D01*
X7955974Y-21113635D02*
X7975021Y-21104112D01*
X7975021Y-21104112D02*
X8003593Y-21104112D01*
X8003593Y-21104112D02*
X8022640Y-21113635D01*
X8022640Y-21113635D02*
X8032164Y-21132683D01*
X8032164Y-21132683D02*
X8032164Y-21237445D01*
X8032164Y-21132683D02*
X8041688Y-21113635D01*
X8041688Y-21113635D02*
X8060735Y-21104112D01*
X8060735Y-21104112D02*
X8089307Y-21104112D01*
X8089307Y-21104112D02*
X8108355Y-21113635D01*
X8108355Y-21113635D02*
X8117878Y-21132683D01*
X8117878Y-21132683D02*
X8117878Y-21237445D01*
X8508355Y-21027921D02*
X8336926Y-21285064D01*
X8765498Y-21037445D02*
X8784545Y-21037445D01*
X8784545Y-21037445D02*
X8803593Y-21046969D01*
X8803593Y-21046969D02*
X8813117Y-21056493D01*
X8813117Y-21056493D02*
X8822640Y-21075540D01*
X8822640Y-21075540D02*
X8832164Y-21113635D01*
X8832164Y-21113635D02*
X8832164Y-21161255D01*
X8832164Y-21161255D02*
X8822640Y-21199350D01*
X8822640Y-21199350D02*
X8813117Y-21218397D01*
X8813117Y-21218397D02*
X8803593Y-21227921D01*
X8803593Y-21227921D02*
X8784545Y-21237445D01*
X8784545Y-21237445D02*
X8765498Y-21237445D01*
X8765498Y-21237445D02*
X8746450Y-21227921D01*
X8746450Y-21227921D02*
X8736926Y-21218397D01*
X8736926Y-21218397D02*
X8727402Y-21199350D01*
X8727402Y-21199350D02*
X8717879Y-21161255D01*
X8717879Y-21161255D02*
X8717879Y-21113635D01*
X8717879Y-21113635D02*
X8727402Y-21075540D01*
X8727402Y-21075540D02*
X8736926Y-21056493D01*
X8736926Y-21056493D02*
X8746450Y-21046969D01*
X8746450Y-21046969D02*
X8765498Y-21037445D01*
X8917879Y-21218397D02*
X8927402Y-21227921D01*
X8927402Y-21227921D02*
X8917879Y-21237445D01*
X8917879Y-21237445D02*
X8908355Y-21227921D01*
X8908355Y-21227921D02*
X8917879Y-21218397D01*
X8917879Y-21218397D02*
X8917879Y-21237445D01*
X9051212Y-21037445D02*
X9070260Y-21037445D01*
X9070260Y-21037445D02*
X9089307Y-21046969D01*
X9089307Y-21046969D02*
X9098831Y-21056493D01*
X9098831Y-21056493D02*
X9108355Y-21075540D01*
X9108355Y-21075540D02*
X9117879Y-21113635D01*
X9117879Y-21113635D02*
X9117879Y-21161255D01*
X9117879Y-21161255D02*
X9108355Y-21199350D01*
X9108355Y-21199350D02*
X9098831Y-21218397D01*
X9098831Y-21218397D02*
X9089307Y-21227921D01*
X9089307Y-21227921D02*
X9070260Y-21237445D01*
X9070260Y-21237445D02*
X9051212Y-21237445D01*
X9051212Y-21237445D02*
X9032164Y-21227921D01*
X9032164Y-21227921D02*
X9022640Y-21218397D01*
X9022640Y-21218397D02*
X9013117Y-21199350D01*
X9013117Y-21199350D02*
X9003593Y-21161255D01*
X9003593Y-21161255D02*
X9003593Y-21113635D01*
X9003593Y-21113635D02*
X9013117Y-21075540D01*
X9013117Y-21075540D02*
X9022640Y-21056493D01*
X9022640Y-21056493D02*
X9032164Y-21046969D01*
X9032164Y-21046969D02*
X9051212Y-21037445D01*
X9194069Y-21056493D02*
X9203593Y-21046969D01*
X9203593Y-21046969D02*
X9222640Y-21037445D01*
X9222640Y-21037445D02*
X9270260Y-21037445D01*
X9270260Y-21037445D02*
X9289307Y-21046969D01*
X9289307Y-21046969D02*
X9298831Y-21056493D01*
X9298831Y-21056493D02*
X9308355Y-21075540D01*
X9308355Y-21075540D02*
X9308355Y-21094588D01*
X9308355Y-21094588D02*
X9298831Y-21123159D01*
X9298831Y-21123159D02*
X9184545Y-21237445D01*
X9184545Y-21237445D02*
X9308355Y-21237445D01*
X9489307Y-21037445D02*
X9394069Y-21037445D01*
X9394069Y-21037445D02*
X9384545Y-21132683D01*
X9384545Y-21132683D02*
X9394069Y-21123159D01*
X9394069Y-21123159D02*
X9413117Y-21113635D01*
X9413117Y-21113635D02*
X9460736Y-21113635D01*
X9460736Y-21113635D02*
X9479783Y-21123159D01*
X9479783Y-21123159D02*
X9489307Y-21132683D01*
X9489307Y-21132683D02*
X9498831Y-21151731D01*
X9498831Y-21151731D02*
X9498831Y-21199350D01*
X9498831Y-21199350D02*
X9489307Y-21218397D01*
X9489307Y-21218397D02*
X9479783Y-21227921D01*
X9479783Y-21227921D02*
X9460736Y-21237445D01*
X9460736Y-21237445D02*
X9413117Y-21237445D01*
X9413117Y-21237445D02*
X9394069Y-21227921D01*
X9394069Y-21227921D02*
X9384545Y-21218397D01*
X9670260Y-21037445D02*
X9632164Y-21037445D01*
X9632164Y-21037445D02*
X9613117Y-21046969D01*
X9613117Y-21046969D02*
X9603593Y-21056493D01*
X9603593Y-21056493D02*
X9584545Y-21085064D01*
X9584545Y-21085064D02*
X9575021Y-21123159D01*
X9575021Y-21123159D02*
X9575021Y-21199350D01*
X9575021Y-21199350D02*
X9584545Y-21218397D01*
X9584545Y-21218397D02*
X9594069Y-21227921D01*
X9594069Y-21227921D02*
X9613117Y-21237445D01*
X9613117Y-21237445D02*
X9651212Y-21237445D01*
X9651212Y-21237445D02*
X9670260Y-21227921D01*
X9670260Y-21227921D02*
X9679783Y-21218397D01*
X9679783Y-21218397D02*
X9689307Y-21199350D01*
X9689307Y-21199350D02*
X9689307Y-21151731D01*
X9689307Y-21151731D02*
X9679783Y-21132683D01*
X9679783Y-21132683D02*
X9670260Y-21123159D01*
X9670260Y-21123159D02*
X9651212Y-21113635D01*
X9651212Y-21113635D02*
X9613117Y-21113635D01*
X9613117Y-21113635D02*
X9594069Y-21123159D01*
X9594069Y-21123159D02*
X9584545Y-21132683D01*
X9584545Y-21132683D02*
X9575021Y-21151731D01*
X9765498Y-21037445D02*
X9765498Y-21075540D01*
X9841688Y-21037445D02*
X9841688Y-21075540D01*
X10136926Y-21313635D02*
X10127402Y-21304112D01*
X10127402Y-21304112D02*
X10108355Y-21275540D01*
X10108355Y-21275540D02*
X10098831Y-21256493D01*
X10098831Y-21256493D02*
X10089307Y-21227921D01*
X10089307Y-21227921D02*
X10079783Y-21180302D01*
X10079783Y-21180302D02*
X10079783Y-21142207D01*
X10079783Y-21142207D02*
X10089307Y-21094588D01*
X10089307Y-21094588D02*
X10098831Y-21066016D01*
X10098831Y-21066016D02*
X10108355Y-21046969D01*
X10108355Y-21046969D02*
X10127402Y-21018397D01*
X10127402Y-21018397D02*
X10136926Y-21008874D01*
X10203593Y-21056493D02*
X10213117Y-21046969D01*
X10213117Y-21046969D02*
X10232164Y-21037445D01*
X10232164Y-21037445D02*
X10279783Y-21037445D01*
X10279783Y-21037445D02*
X10298831Y-21046969D01*
X10298831Y-21046969D02*
X10308355Y-21056493D01*
X10308355Y-21056493D02*
X10317879Y-21075540D01*
X10317879Y-21075540D02*
X10317879Y-21094588D01*
X10317879Y-21094588D02*
X10308355Y-21123159D01*
X10308355Y-21123159D02*
X10194069Y-21237445D01*
X10194069Y-21237445D02*
X10317879Y-21237445D01*
X10555974Y-21237445D02*
X10555974Y-21037445D01*
X10641688Y-21237445D02*
X10641688Y-21132683D01*
X10641688Y-21132683D02*
X10632164Y-21113635D01*
X10632164Y-21113635D02*
X10613117Y-21104112D01*
X10613117Y-21104112D02*
X10584545Y-21104112D01*
X10584545Y-21104112D02*
X10565498Y-21113635D01*
X10565498Y-21113635D02*
X10555974Y-21123159D01*
X10765498Y-21237445D02*
X10746450Y-21227921D01*
X10746450Y-21227921D02*
X10736926Y-21218397D01*
X10736926Y-21218397D02*
X10727403Y-21199350D01*
X10727403Y-21199350D02*
X10727403Y-21142207D01*
X10727403Y-21142207D02*
X10736926Y-21123159D01*
X10736926Y-21123159D02*
X10746450Y-21113635D01*
X10746450Y-21113635D02*
X10765498Y-21104112D01*
X10765498Y-21104112D02*
X10794069Y-21104112D01*
X10794069Y-21104112D02*
X10813117Y-21113635D01*
X10813117Y-21113635D02*
X10822641Y-21123159D01*
X10822641Y-21123159D02*
X10832164Y-21142207D01*
X10832164Y-21142207D02*
X10832164Y-21199350D01*
X10832164Y-21199350D02*
X10822641Y-21218397D01*
X10822641Y-21218397D02*
X10813117Y-21227921D01*
X10813117Y-21227921D02*
X10794069Y-21237445D01*
X10794069Y-21237445D02*
X10765498Y-21237445D01*
X10946450Y-21237445D02*
X10927403Y-21227921D01*
X10927403Y-21227921D02*
X10917879Y-21208874D01*
X10917879Y-21208874D02*
X10917879Y-21037445D01*
X11098831Y-21227921D02*
X11079784Y-21237445D01*
X11079784Y-21237445D02*
X11041688Y-21237445D01*
X11041688Y-21237445D02*
X11022641Y-21227921D01*
X11022641Y-21227921D02*
X11013117Y-21208874D01*
X11013117Y-21208874D02*
X11013117Y-21132683D01*
X11013117Y-21132683D02*
X11022641Y-21113635D01*
X11022641Y-21113635D02*
X11041688Y-21104112D01*
X11041688Y-21104112D02*
X11079784Y-21104112D01*
X11079784Y-21104112D02*
X11098831Y-21113635D01*
X11098831Y-21113635D02*
X11108355Y-21132683D01*
X11108355Y-21132683D02*
X11108355Y-21151731D01*
X11108355Y-21151731D02*
X11013117Y-21170778D01*
X11184545Y-21227921D02*
X11203593Y-21237445D01*
X11203593Y-21237445D02*
X11241688Y-21237445D01*
X11241688Y-21237445D02*
X11260736Y-21227921D01*
X11260736Y-21227921D02*
X11270260Y-21208874D01*
X11270260Y-21208874D02*
X11270260Y-21199350D01*
X11270260Y-21199350D02*
X11260736Y-21180302D01*
X11260736Y-21180302D02*
X11241688Y-21170778D01*
X11241688Y-21170778D02*
X11213117Y-21170778D01*
X11213117Y-21170778D02*
X11194069Y-21161255D01*
X11194069Y-21161255D02*
X11184545Y-21142207D01*
X11184545Y-21142207D02*
X11184545Y-21132683D01*
X11184545Y-21132683D02*
X11194069Y-21113635D01*
X11194069Y-21113635D02*
X11213117Y-21104112D01*
X11213117Y-21104112D02*
X11241688Y-21104112D01*
X11241688Y-21104112D02*
X11260736Y-21113635D01*
X11336926Y-21313635D02*
X11346450Y-21304112D01*
X11346450Y-21304112D02*
X11365498Y-21275540D01*
X11365498Y-21275540D02*
X11375022Y-21256493D01*
X11375022Y-21256493D02*
X11384545Y-21227921D01*
X11384545Y-21227921D02*
X11394069Y-21180302D01*
X11394069Y-21180302D02*
X11394069Y-21142207D01*
X11394069Y-21142207D02*
X11384545Y-21094588D01*
X11384545Y-21094588D02*
X11375022Y-21066016D01*
X11375022Y-21066016D02*
X11365498Y-21046969D01*
X11365498Y-21046969D02*
X11346450Y-21018397D01*
X11346450Y-21018397D02*
X11336926Y-21008874D01*
X11698831Y-21313635D02*
X11689307Y-21304112D01*
X11689307Y-21304112D02*
X11670260Y-21275540D01*
X11670260Y-21275540D02*
X11660736Y-21256493D01*
X11660736Y-21256493D02*
X11651212Y-21227921D01*
X11651212Y-21227921D02*
X11641688Y-21180302D01*
X11641688Y-21180302D02*
X11641688Y-21142207D01*
X11641688Y-21142207D02*
X11651212Y-21094588D01*
X11651212Y-21094588D02*
X11660736Y-21066016D01*
X11660736Y-21066016D02*
X11670260Y-21046969D01*
X11670260Y-21046969D02*
X11689307Y-21018397D01*
X11689307Y-21018397D02*
X11698831Y-21008874D01*
X11775022Y-21104112D02*
X11775022Y-21237445D01*
X11775022Y-21123159D02*
X11784545Y-21113635D01*
X11784545Y-21113635D02*
X11803593Y-21104112D01*
X11803593Y-21104112D02*
X11832164Y-21104112D01*
X11832164Y-21104112D02*
X11851212Y-21113635D01*
X11851212Y-21113635D02*
X11860736Y-21132683D01*
X11860736Y-21132683D02*
X11860736Y-21237445D01*
X11984545Y-21237445D02*
X11965498Y-21227921D01*
X11965498Y-21227921D02*
X11955974Y-21218397D01*
X11955974Y-21218397D02*
X11946450Y-21199350D01*
X11946450Y-21199350D02*
X11946450Y-21142207D01*
X11946450Y-21142207D02*
X11955974Y-21123159D01*
X11955974Y-21123159D02*
X11965498Y-21113635D01*
X11965498Y-21113635D02*
X11984545Y-21104112D01*
X11984545Y-21104112D02*
X12013117Y-21104112D01*
X12013117Y-21104112D02*
X12032164Y-21113635D01*
X12032164Y-21113635D02*
X12041688Y-21123159D01*
X12041688Y-21123159D02*
X12051212Y-21142207D01*
X12051212Y-21142207D02*
X12051212Y-21199350D01*
X12051212Y-21199350D02*
X12041688Y-21218397D01*
X12041688Y-21218397D02*
X12032164Y-21227921D01*
X12032164Y-21227921D02*
X12013117Y-21237445D01*
X12013117Y-21237445D02*
X11984545Y-21237445D01*
X12108355Y-21104112D02*
X12184545Y-21104112D01*
X12136926Y-21037445D02*
X12136926Y-21208874D01*
X12136926Y-21208874D02*
X12146450Y-21227921D01*
X12146450Y-21227921D02*
X12165498Y-21237445D01*
X12165498Y-21237445D02*
X12184545Y-21237445D01*
X12403593Y-21104112D02*
X12403593Y-21304112D01*
X12403593Y-21113635D02*
X12422641Y-21104112D01*
X12422641Y-21104112D02*
X12460736Y-21104112D01*
X12460736Y-21104112D02*
X12479784Y-21113635D01*
X12479784Y-21113635D02*
X12489307Y-21123159D01*
X12489307Y-21123159D02*
X12498831Y-21142207D01*
X12498831Y-21142207D02*
X12498831Y-21199350D01*
X12498831Y-21199350D02*
X12489307Y-21218397D01*
X12489307Y-21218397D02*
X12479784Y-21227921D01*
X12479784Y-21227921D02*
X12460736Y-21237445D01*
X12460736Y-21237445D02*
X12422641Y-21237445D01*
X12422641Y-21237445D02*
X12403593Y-21227921D01*
X12613117Y-21237445D02*
X12594069Y-21227921D01*
X12594069Y-21227921D02*
X12584545Y-21208874D01*
X12584545Y-21208874D02*
X12584545Y-21037445D01*
X12775022Y-21237445D02*
X12775022Y-21132683D01*
X12775022Y-21132683D02*
X12765498Y-21113635D01*
X12765498Y-21113635D02*
X12746450Y-21104112D01*
X12746450Y-21104112D02*
X12708355Y-21104112D01*
X12708355Y-21104112D02*
X12689307Y-21113635D01*
X12775022Y-21227921D02*
X12755974Y-21237445D01*
X12755974Y-21237445D02*
X12708355Y-21237445D01*
X12708355Y-21237445D02*
X12689307Y-21227921D01*
X12689307Y-21227921D02*
X12679784Y-21208874D01*
X12679784Y-21208874D02*
X12679784Y-21189826D01*
X12679784Y-21189826D02*
X12689307Y-21170778D01*
X12689307Y-21170778D02*
X12708355Y-21161255D01*
X12708355Y-21161255D02*
X12755974Y-21161255D01*
X12755974Y-21161255D02*
X12775022Y-21151731D01*
X12841688Y-21104112D02*
X12917879Y-21104112D01*
X12870260Y-21037445D02*
X12870260Y-21208874D01*
X12870260Y-21208874D02*
X12879784Y-21227921D01*
X12879784Y-21227921D02*
X12898831Y-21237445D01*
X12898831Y-21237445D02*
X12917879Y-21237445D01*
X13060736Y-21227921D02*
X13041688Y-21237445D01*
X13041688Y-21237445D02*
X13003593Y-21237445D01*
X13003593Y-21237445D02*
X12984545Y-21227921D01*
X12984545Y-21227921D02*
X12975022Y-21208874D01*
X12975022Y-21208874D02*
X12975022Y-21132683D01*
X12975022Y-21132683D02*
X12984545Y-21113635D01*
X12984545Y-21113635D02*
X13003593Y-21104112D01*
X13003593Y-21104112D02*
X13041688Y-21104112D01*
X13041688Y-21104112D02*
X13060736Y-21113635D01*
X13060736Y-21113635D02*
X13070260Y-21132683D01*
X13070260Y-21132683D02*
X13070260Y-21151731D01*
X13070260Y-21151731D02*
X12975022Y-21170778D01*
X13241688Y-21237445D02*
X13241688Y-21037445D01*
X13241688Y-21227921D02*
X13222641Y-21237445D01*
X13222641Y-21237445D02*
X13184545Y-21237445D01*
X13184545Y-21237445D02*
X13165498Y-21227921D01*
X13165498Y-21227921D02*
X13155974Y-21218397D01*
X13155974Y-21218397D02*
X13146450Y-21199350D01*
X13146450Y-21199350D02*
X13146450Y-21142207D01*
X13146450Y-21142207D02*
X13155974Y-21123159D01*
X13155974Y-21123159D02*
X13165498Y-21113635D01*
X13165498Y-21113635D02*
X13184545Y-21104112D01*
X13184545Y-21104112D02*
X13222641Y-21104112D01*
X13222641Y-21104112D02*
X13241688Y-21113635D01*
X13317879Y-21313635D02*
X13327403Y-21304112D01*
X13327403Y-21304112D02*
X13346450Y-21275540D01*
X13346450Y-21275540D02*
X13355974Y-21256493D01*
X13355974Y-21256493D02*
X13365498Y-21227921D01*
X13365498Y-21227921D02*
X13375022Y-21180302D01*
X13375022Y-21180302D02*
X13375022Y-21142207D01*
X13375022Y-21142207D02*
X13365498Y-21094588D01*
X13365498Y-21094588D02*
X13355974Y-21066016D01*
X13355974Y-21066016D02*
X13346450Y-21046969D01*
X13346450Y-21046969D02*
X13327403Y-21018397D01*
X13327403Y-21018397D02*
X13317879Y-21008874D01*
D10*
X6561863Y-21409961D02*
G75*
G02*
X6462803Y-21409961I-49530J0D01*
G01*
X6462803Y-21409961D02*
G75*
G02*
X6561863Y-21409961I49530J0D01*
G01*
D12*
X6860735Y-21301445D02*
X6879783Y-21301445D01*
X6879783Y-21301445D02*
X6898831Y-21310969D01*
X6898831Y-21310969D02*
X6908354Y-21320493D01*
X6908354Y-21320493D02*
X6917878Y-21339540D01*
X6917878Y-21339540D02*
X6927402Y-21377635D01*
X6927402Y-21377635D02*
X6927402Y-21425255D01*
X6927402Y-21425255D02*
X6917878Y-21463350D01*
X6917878Y-21463350D02*
X6908354Y-21482397D01*
X6908354Y-21482397D02*
X6898831Y-21491921D01*
X6898831Y-21491921D02*
X6879783Y-21501445D01*
X6879783Y-21501445D02*
X6860735Y-21501445D01*
X6860735Y-21501445D02*
X6841688Y-21491921D01*
X6841688Y-21491921D02*
X6832164Y-21482397D01*
X6832164Y-21482397D02*
X6822640Y-21463350D01*
X6822640Y-21463350D02*
X6813116Y-21425255D01*
X6813116Y-21425255D02*
X6813116Y-21377635D01*
X6813116Y-21377635D02*
X6822640Y-21339540D01*
X6822640Y-21339540D02*
X6832164Y-21320493D01*
X6832164Y-21320493D02*
X6841688Y-21310969D01*
X6841688Y-21310969D02*
X6860735Y-21301445D01*
X7013116Y-21482397D02*
X7022640Y-21491921D01*
X7022640Y-21491921D02*
X7013116Y-21501445D01*
X7013116Y-21501445D02*
X7003593Y-21491921D01*
X7003593Y-21491921D02*
X7013116Y-21482397D01*
X7013116Y-21482397D02*
X7013116Y-21501445D01*
X7117878Y-21501445D02*
X7155973Y-21501445D01*
X7155973Y-21501445D02*
X7175021Y-21491921D01*
X7175021Y-21491921D02*
X7184545Y-21482397D01*
X7184545Y-21482397D02*
X7203593Y-21453826D01*
X7203593Y-21453826D02*
X7213116Y-21415731D01*
X7213116Y-21415731D02*
X7213116Y-21339540D01*
X7213116Y-21339540D02*
X7203593Y-21320493D01*
X7203593Y-21320493D02*
X7194069Y-21310969D01*
X7194069Y-21310969D02*
X7175021Y-21301445D01*
X7175021Y-21301445D02*
X7136926Y-21301445D01*
X7136926Y-21301445D02*
X7117878Y-21310969D01*
X7117878Y-21310969D02*
X7108354Y-21320493D01*
X7108354Y-21320493D02*
X7098831Y-21339540D01*
X7098831Y-21339540D02*
X7098831Y-21387159D01*
X7098831Y-21387159D02*
X7108354Y-21406207D01*
X7108354Y-21406207D02*
X7117878Y-21415731D01*
X7117878Y-21415731D02*
X7136926Y-21425255D01*
X7136926Y-21425255D02*
X7175021Y-21425255D01*
X7175021Y-21425255D02*
X7194069Y-21415731D01*
X7194069Y-21415731D02*
X7203593Y-21406207D01*
X7203593Y-21406207D02*
X7213116Y-21387159D01*
X7308354Y-21501445D02*
X7346450Y-21501445D01*
X7346450Y-21501445D02*
X7365497Y-21491921D01*
X7365497Y-21491921D02*
X7375021Y-21482397D01*
X7375021Y-21482397D02*
X7394069Y-21453826D01*
X7394069Y-21453826D02*
X7403593Y-21415731D01*
X7403593Y-21415731D02*
X7403593Y-21339540D01*
X7403593Y-21339540D02*
X7394069Y-21320493D01*
X7394069Y-21320493D02*
X7384545Y-21310969D01*
X7384545Y-21310969D02*
X7365497Y-21301445D01*
X7365497Y-21301445D02*
X7327402Y-21301445D01*
X7327402Y-21301445D02*
X7308354Y-21310969D01*
X7308354Y-21310969D02*
X7298831Y-21320493D01*
X7298831Y-21320493D02*
X7289307Y-21339540D01*
X7289307Y-21339540D02*
X7289307Y-21387159D01*
X7289307Y-21387159D02*
X7298831Y-21406207D01*
X7298831Y-21406207D02*
X7308354Y-21415731D01*
X7308354Y-21415731D02*
X7327402Y-21425255D01*
X7327402Y-21425255D02*
X7365497Y-21425255D01*
X7365497Y-21425255D02*
X7384545Y-21415731D01*
X7384545Y-21415731D02*
X7394069Y-21406207D01*
X7394069Y-21406207D02*
X7403593Y-21387159D01*
X7594069Y-21501445D02*
X7479783Y-21501445D01*
X7536926Y-21501445D02*
X7536926Y-21301445D01*
X7536926Y-21301445D02*
X7517878Y-21330016D01*
X7517878Y-21330016D02*
X7498831Y-21349064D01*
X7498831Y-21349064D02*
X7479783Y-21358588D01*
X7679783Y-21501445D02*
X7679783Y-21368112D01*
X7679783Y-21387159D02*
X7689307Y-21377635D01*
X7689307Y-21377635D02*
X7708354Y-21368112D01*
X7708354Y-21368112D02*
X7736926Y-21368112D01*
X7736926Y-21368112D02*
X7755974Y-21377635D01*
X7755974Y-21377635D02*
X7765497Y-21396683D01*
X7765497Y-21396683D02*
X7765497Y-21501445D01*
X7765497Y-21396683D02*
X7775021Y-21377635D01*
X7775021Y-21377635D02*
X7794069Y-21368112D01*
X7794069Y-21368112D02*
X7822640Y-21368112D01*
X7822640Y-21368112D02*
X7841688Y-21377635D01*
X7841688Y-21377635D02*
X7851212Y-21396683D01*
X7851212Y-21396683D02*
X7851212Y-21501445D01*
X7946450Y-21501445D02*
X7946450Y-21368112D01*
X7946450Y-21387159D02*
X7955974Y-21377635D01*
X7955974Y-21377635D02*
X7975021Y-21368112D01*
X7975021Y-21368112D02*
X8003593Y-21368112D01*
X8003593Y-21368112D02*
X8022640Y-21377635D01*
X8022640Y-21377635D02*
X8032164Y-21396683D01*
X8032164Y-21396683D02*
X8032164Y-21501445D01*
X8032164Y-21396683D02*
X8041688Y-21377635D01*
X8041688Y-21377635D02*
X8060735Y-21368112D01*
X8060735Y-21368112D02*
X8089307Y-21368112D01*
X8089307Y-21368112D02*
X8108355Y-21377635D01*
X8108355Y-21377635D02*
X8117878Y-21396683D01*
X8117878Y-21396683D02*
X8117878Y-21501445D01*
X8508355Y-21291921D02*
X8336926Y-21549064D01*
X8765498Y-21301445D02*
X8784545Y-21301445D01*
X8784545Y-21301445D02*
X8803593Y-21310969D01*
X8803593Y-21310969D02*
X8813117Y-21320493D01*
X8813117Y-21320493D02*
X8822640Y-21339540D01*
X8822640Y-21339540D02*
X8832164Y-21377635D01*
X8832164Y-21377635D02*
X8832164Y-21425255D01*
X8832164Y-21425255D02*
X8822640Y-21463350D01*
X8822640Y-21463350D02*
X8813117Y-21482397D01*
X8813117Y-21482397D02*
X8803593Y-21491921D01*
X8803593Y-21491921D02*
X8784545Y-21501445D01*
X8784545Y-21501445D02*
X8765498Y-21501445D01*
X8765498Y-21501445D02*
X8746450Y-21491921D01*
X8746450Y-21491921D02*
X8736926Y-21482397D01*
X8736926Y-21482397D02*
X8727402Y-21463350D01*
X8727402Y-21463350D02*
X8717879Y-21425255D01*
X8717879Y-21425255D02*
X8717879Y-21377635D01*
X8717879Y-21377635D02*
X8727402Y-21339540D01*
X8727402Y-21339540D02*
X8736926Y-21320493D01*
X8736926Y-21320493D02*
X8746450Y-21310969D01*
X8746450Y-21310969D02*
X8765498Y-21301445D01*
X8917879Y-21482397D02*
X8927402Y-21491921D01*
X8927402Y-21491921D02*
X8917879Y-21501445D01*
X8917879Y-21501445D02*
X8908355Y-21491921D01*
X8908355Y-21491921D02*
X8917879Y-21482397D01*
X8917879Y-21482397D02*
X8917879Y-21501445D01*
X9051212Y-21301445D02*
X9070260Y-21301445D01*
X9070260Y-21301445D02*
X9089307Y-21310969D01*
X9089307Y-21310969D02*
X9098831Y-21320493D01*
X9098831Y-21320493D02*
X9108355Y-21339540D01*
X9108355Y-21339540D02*
X9117879Y-21377635D01*
X9117879Y-21377635D02*
X9117879Y-21425255D01*
X9117879Y-21425255D02*
X9108355Y-21463350D01*
X9108355Y-21463350D02*
X9098831Y-21482397D01*
X9098831Y-21482397D02*
X9089307Y-21491921D01*
X9089307Y-21491921D02*
X9070260Y-21501445D01*
X9070260Y-21501445D02*
X9051212Y-21501445D01*
X9051212Y-21501445D02*
X9032164Y-21491921D01*
X9032164Y-21491921D02*
X9022640Y-21482397D01*
X9022640Y-21482397D02*
X9013117Y-21463350D01*
X9013117Y-21463350D02*
X9003593Y-21425255D01*
X9003593Y-21425255D02*
X9003593Y-21377635D01*
X9003593Y-21377635D02*
X9013117Y-21339540D01*
X9013117Y-21339540D02*
X9022640Y-21320493D01*
X9022640Y-21320493D02*
X9032164Y-21310969D01*
X9032164Y-21310969D02*
X9051212Y-21301445D01*
X9184545Y-21301445D02*
X9308355Y-21301445D01*
X9308355Y-21301445D02*
X9241688Y-21377635D01*
X9241688Y-21377635D02*
X9270260Y-21377635D01*
X9270260Y-21377635D02*
X9289307Y-21387159D01*
X9289307Y-21387159D02*
X9298831Y-21396683D01*
X9298831Y-21396683D02*
X9308355Y-21415731D01*
X9308355Y-21415731D02*
X9308355Y-21463350D01*
X9308355Y-21463350D02*
X9298831Y-21482397D01*
X9298831Y-21482397D02*
X9289307Y-21491921D01*
X9289307Y-21491921D02*
X9270260Y-21501445D01*
X9270260Y-21501445D02*
X9213117Y-21501445D01*
X9213117Y-21501445D02*
X9194069Y-21491921D01*
X9194069Y-21491921D02*
X9184545Y-21482397D01*
X9403593Y-21501445D02*
X9441688Y-21501445D01*
X9441688Y-21501445D02*
X9460736Y-21491921D01*
X9460736Y-21491921D02*
X9470260Y-21482397D01*
X9470260Y-21482397D02*
X9489307Y-21453826D01*
X9489307Y-21453826D02*
X9498831Y-21415731D01*
X9498831Y-21415731D02*
X9498831Y-21339540D01*
X9498831Y-21339540D02*
X9489307Y-21320493D01*
X9489307Y-21320493D02*
X9479783Y-21310969D01*
X9479783Y-21310969D02*
X9460736Y-21301445D01*
X9460736Y-21301445D02*
X9422640Y-21301445D01*
X9422640Y-21301445D02*
X9403593Y-21310969D01*
X9403593Y-21310969D02*
X9394069Y-21320493D01*
X9394069Y-21320493D02*
X9384545Y-21339540D01*
X9384545Y-21339540D02*
X9384545Y-21387159D01*
X9384545Y-21387159D02*
X9394069Y-21406207D01*
X9394069Y-21406207D02*
X9403593Y-21415731D01*
X9403593Y-21415731D02*
X9422640Y-21425255D01*
X9422640Y-21425255D02*
X9460736Y-21425255D01*
X9460736Y-21425255D02*
X9479783Y-21415731D01*
X9479783Y-21415731D02*
X9489307Y-21406207D01*
X9489307Y-21406207D02*
X9498831Y-21387159D01*
X9622640Y-21301445D02*
X9641688Y-21301445D01*
X9641688Y-21301445D02*
X9660736Y-21310969D01*
X9660736Y-21310969D02*
X9670260Y-21320493D01*
X9670260Y-21320493D02*
X9679783Y-21339540D01*
X9679783Y-21339540D02*
X9689307Y-21377635D01*
X9689307Y-21377635D02*
X9689307Y-21425255D01*
X9689307Y-21425255D02*
X9679783Y-21463350D01*
X9679783Y-21463350D02*
X9670260Y-21482397D01*
X9670260Y-21482397D02*
X9660736Y-21491921D01*
X9660736Y-21491921D02*
X9641688Y-21501445D01*
X9641688Y-21501445D02*
X9622640Y-21501445D01*
X9622640Y-21501445D02*
X9603593Y-21491921D01*
X9603593Y-21491921D02*
X9594069Y-21482397D01*
X9594069Y-21482397D02*
X9584545Y-21463350D01*
X9584545Y-21463350D02*
X9575021Y-21425255D01*
X9575021Y-21425255D02*
X9575021Y-21377635D01*
X9575021Y-21377635D02*
X9584545Y-21339540D01*
X9584545Y-21339540D02*
X9594069Y-21320493D01*
X9594069Y-21320493D02*
X9603593Y-21310969D01*
X9603593Y-21310969D02*
X9622640Y-21301445D01*
X9765498Y-21301445D02*
X9765498Y-21339540D01*
X9841688Y-21301445D02*
X9841688Y-21339540D01*
X10136926Y-21577635D02*
X10127402Y-21568112D01*
X10127402Y-21568112D02*
X10108355Y-21539540D01*
X10108355Y-21539540D02*
X10098831Y-21520493D01*
X10098831Y-21520493D02*
X10089307Y-21491921D01*
X10089307Y-21491921D02*
X10079783Y-21444302D01*
X10079783Y-21444302D02*
X10079783Y-21406207D01*
X10079783Y-21406207D02*
X10089307Y-21358588D01*
X10089307Y-21358588D02*
X10098831Y-21330016D01*
X10098831Y-21330016D02*
X10108355Y-21310969D01*
X10108355Y-21310969D02*
X10127402Y-21282397D01*
X10127402Y-21282397D02*
X10136926Y-21272874D01*
X10194069Y-21301445D02*
X10317879Y-21301445D01*
X10317879Y-21301445D02*
X10251212Y-21377635D01*
X10251212Y-21377635D02*
X10279783Y-21377635D01*
X10279783Y-21377635D02*
X10298831Y-21387159D01*
X10298831Y-21387159D02*
X10308355Y-21396683D01*
X10308355Y-21396683D02*
X10317879Y-21415731D01*
X10317879Y-21415731D02*
X10317879Y-21463350D01*
X10317879Y-21463350D02*
X10308355Y-21482397D01*
X10308355Y-21482397D02*
X10298831Y-21491921D01*
X10298831Y-21491921D02*
X10279783Y-21501445D01*
X10279783Y-21501445D02*
X10222641Y-21501445D01*
X10222641Y-21501445D02*
X10203593Y-21491921D01*
X10203593Y-21491921D02*
X10194069Y-21482397D01*
X10555974Y-21501445D02*
X10555974Y-21301445D01*
X10641688Y-21501445D02*
X10641688Y-21396683D01*
X10641688Y-21396683D02*
X10632164Y-21377635D01*
X10632164Y-21377635D02*
X10613117Y-21368112D01*
X10613117Y-21368112D02*
X10584545Y-21368112D01*
X10584545Y-21368112D02*
X10565498Y-21377635D01*
X10565498Y-21377635D02*
X10555974Y-21387159D01*
X10765498Y-21501445D02*
X10746450Y-21491921D01*
X10746450Y-21491921D02*
X10736926Y-21482397D01*
X10736926Y-21482397D02*
X10727403Y-21463350D01*
X10727403Y-21463350D02*
X10727403Y-21406207D01*
X10727403Y-21406207D02*
X10736926Y-21387159D01*
X10736926Y-21387159D02*
X10746450Y-21377635D01*
X10746450Y-21377635D02*
X10765498Y-21368112D01*
X10765498Y-21368112D02*
X10794069Y-21368112D01*
X10794069Y-21368112D02*
X10813117Y-21377635D01*
X10813117Y-21377635D02*
X10822641Y-21387159D01*
X10822641Y-21387159D02*
X10832164Y-21406207D01*
X10832164Y-21406207D02*
X10832164Y-21463350D01*
X10832164Y-21463350D02*
X10822641Y-21482397D01*
X10822641Y-21482397D02*
X10813117Y-21491921D01*
X10813117Y-21491921D02*
X10794069Y-21501445D01*
X10794069Y-21501445D02*
X10765498Y-21501445D01*
X10946450Y-21501445D02*
X10927403Y-21491921D01*
X10927403Y-21491921D02*
X10917879Y-21472874D01*
X10917879Y-21472874D02*
X10917879Y-21301445D01*
X11098831Y-21491921D02*
X11079784Y-21501445D01*
X11079784Y-21501445D02*
X11041688Y-21501445D01*
X11041688Y-21501445D02*
X11022641Y-21491921D01*
X11022641Y-21491921D02*
X11013117Y-21472874D01*
X11013117Y-21472874D02*
X11013117Y-21396683D01*
X11013117Y-21396683D02*
X11022641Y-21377635D01*
X11022641Y-21377635D02*
X11041688Y-21368112D01*
X11041688Y-21368112D02*
X11079784Y-21368112D01*
X11079784Y-21368112D02*
X11098831Y-21377635D01*
X11098831Y-21377635D02*
X11108355Y-21396683D01*
X11108355Y-21396683D02*
X11108355Y-21415731D01*
X11108355Y-21415731D02*
X11013117Y-21434778D01*
X11184545Y-21491921D02*
X11203593Y-21501445D01*
X11203593Y-21501445D02*
X11241688Y-21501445D01*
X11241688Y-21501445D02*
X11260736Y-21491921D01*
X11260736Y-21491921D02*
X11270260Y-21472874D01*
X11270260Y-21472874D02*
X11270260Y-21463350D01*
X11270260Y-21463350D02*
X11260736Y-21444302D01*
X11260736Y-21444302D02*
X11241688Y-21434778D01*
X11241688Y-21434778D02*
X11213117Y-21434778D01*
X11213117Y-21434778D02*
X11194069Y-21425255D01*
X11194069Y-21425255D02*
X11184545Y-21406207D01*
X11184545Y-21406207D02*
X11184545Y-21396683D01*
X11184545Y-21396683D02*
X11194069Y-21377635D01*
X11194069Y-21377635D02*
X11213117Y-21368112D01*
X11213117Y-21368112D02*
X11241688Y-21368112D01*
X11241688Y-21368112D02*
X11260736Y-21377635D01*
X11336926Y-21577635D02*
X11346450Y-21568112D01*
X11346450Y-21568112D02*
X11365498Y-21539540D01*
X11365498Y-21539540D02*
X11375022Y-21520493D01*
X11375022Y-21520493D02*
X11384545Y-21491921D01*
X11384545Y-21491921D02*
X11394069Y-21444302D01*
X11394069Y-21444302D02*
X11394069Y-21406207D01*
X11394069Y-21406207D02*
X11384545Y-21358588D01*
X11384545Y-21358588D02*
X11375022Y-21330016D01*
X11375022Y-21330016D02*
X11365498Y-21310969D01*
X11365498Y-21310969D02*
X11346450Y-21282397D01*
X11346450Y-21282397D02*
X11336926Y-21272874D01*
X11698831Y-21577635D02*
X11689307Y-21568112D01*
X11689307Y-21568112D02*
X11670260Y-21539540D01*
X11670260Y-21539540D02*
X11660736Y-21520493D01*
X11660736Y-21520493D02*
X11651212Y-21491921D01*
X11651212Y-21491921D02*
X11641688Y-21444302D01*
X11641688Y-21444302D02*
X11641688Y-21406207D01*
X11641688Y-21406207D02*
X11651212Y-21358588D01*
X11651212Y-21358588D02*
X11660736Y-21330016D01*
X11660736Y-21330016D02*
X11670260Y-21310969D01*
X11670260Y-21310969D02*
X11689307Y-21282397D01*
X11689307Y-21282397D02*
X11698831Y-21272874D01*
X11775022Y-21368112D02*
X11775022Y-21501445D01*
X11775022Y-21387159D02*
X11784545Y-21377635D01*
X11784545Y-21377635D02*
X11803593Y-21368112D01*
X11803593Y-21368112D02*
X11832164Y-21368112D01*
X11832164Y-21368112D02*
X11851212Y-21377635D01*
X11851212Y-21377635D02*
X11860736Y-21396683D01*
X11860736Y-21396683D02*
X11860736Y-21501445D01*
X11984545Y-21501445D02*
X11965498Y-21491921D01*
X11965498Y-21491921D02*
X11955974Y-21482397D01*
X11955974Y-21482397D02*
X11946450Y-21463350D01*
X11946450Y-21463350D02*
X11946450Y-21406207D01*
X11946450Y-21406207D02*
X11955974Y-21387159D01*
X11955974Y-21387159D02*
X11965498Y-21377635D01*
X11965498Y-21377635D02*
X11984545Y-21368112D01*
X11984545Y-21368112D02*
X12013117Y-21368112D01*
X12013117Y-21368112D02*
X12032164Y-21377635D01*
X12032164Y-21377635D02*
X12041688Y-21387159D01*
X12041688Y-21387159D02*
X12051212Y-21406207D01*
X12051212Y-21406207D02*
X12051212Y-21463350D01*
X12051212Y-21463350D02*
X12041688Y-21482397D01*
X12041688Y-21482397D02*
X12032164Y-21491921D01*
X12032164Y-21491921D02*
X12013117Y-21501445D01*
X12013117Y-21501445D02*
X11984545Y-21501445D01*
X12108355Y-21368112D02*
X12184545Y-21368112D01*
X12136926Y-21301445D02*
X12136926Y-21472874D01*
X12136926Y-21472874D02*
X12146450Y-21491921D01*
X12146450Y-21491921D02*
X12165498Y-21501445D01*
X12165498Y-21501445D02*
X12184545Y-21501445D01*
X12403593Y-21368112D02*
X12403593Y-21568112D01*
X12403593Y-21377635D02*
X12422641Y-21368112D01*
X12422641Y-21368112D02*
X12460736Y-21368112D01*
X12460736Y-21368112D02*
X12479784Y-21377635D01*
X12479784Y-21377635D02*
X12489307Y-21387159D01*
X12489307Y-21387159D02*
X12498831Y-21406207D01*
X12498831Y-21406207D02*
X12498831Y-21463350D01*
X12498831Y-21463350D02*
X12489307Y-21482397D01*
X12489307Y-21482397D02*
X12479784Y-21491921D01*
X12479784Y-21491921D02*
X12460736Y-21501445D01*
X12460736Y-21501445D02*
X12422641Y-21501445D01*
X12422641Y-21501445D02*
X12403593Y-21491921D01*
X12613117Y-21501445D02*
X12594069Y-21491921D01*
X12594069Y-21491921D02*
X12584545Y-21472874D01*
X12584545Y-21472874D02*
X12584545Y-21301445D01*
X12775022Y-21501445D02*
X12775022Y-21396683D01*
X12775022Y-21396683D02*
X12765498Y-21377635D01*
X12765498Y-21377635D02*
X12746450Y-21368112D01*
X12746450Y-21368112D02*
X12708355Y-21368112D01*
X12708355Y-21368112D02*
X12689307Y-21377635D01*
X12775022Y-21491921D02*
X12755974Y-21501445D01*
X12755974Y-21501445D02*
X12708355Y-21501445D01*
X12708355Y-21501445D02*
X12689307Y-21491921D01*
X12689307Y-21491921D02*
X12679784Y-21472874D01*
X12679784Y-21472874D02*
X12679784Y-21453826D01*
X12679784Y-21453826D02*
X12689307Y-21434778D01*
X12689307Y-21434778D02*
X12708355Y-21425255D01*
X12708355Y-21425255D02*
X12755974Y-21425255D01*
X12755974Y-21425255D02*
X12775022Y-21415731D01*
X12841688Y-21368112D02*
X12917879Y-21368112D01*
X12870260Y-21301445D02*
X12870260Y-21472874D01*
X12870260Y-21472874D02*
X12879784Y-21491921D01*
X12879784Y-21491921D02*
X12898831Y-21501445D01*
X12898831Y-21501445D02*
X12917879Y-21501445D01*
X13060736Y-21491921D02*
X13041688Y-21501445D01*
X13041688Y-21501445D02*
X13003593Y-21501445D01*
X13003593Y-21501445D02*
X12984545Y-21491921D01*
X12984545Y-21491921D02*
X12975022Y-21472874D01*
X12975022Y-21472874D02*
X12975022Y-21396683D01*
X12975022Y-21396683D02*
X12984545Y-21377635D01*
X12984545Y-21377635D02*
X13003593Y-21368112D01*
X13003593Y-21368112D02*
X13041688Y-21368112D01*
X13041688Y-21368112D02*
X13060736Y-21377635D01*
X13060736Y-21377635D02*
X13070260Y-21396683D01*
X13070260Y-21396683D02*
X13070260Y-21415731D01*
X13070260Y-21415731D02*
X12975022Y-21434778D01*
X13241688Y-21501445D02*
X13241688Y-21301445D01*
X13241688Y-21491921D02*
X13222641Y-21501445D01*
X13222641Y-21501445D02*
X13184545Y-21501445D01*
X13184545Y-21501445D02*
X13165498Y-21491921D01*
X13165498Y-21491921D02*
X13155974Y-21482397D01*
X13155974Y-21482397D02*
X13146450Y-21463350D01*
X13146450Y-21463350D02*
X13146450Y-21406207D01*
X13146450Y-21406207D02*
X13155974Y-21387159D01*
X13155974Y-21387159D02*
X13165498Y-21377635D01*
X13165498Y-21377635D02*
X13184545Y-21368112D01*
X13184545Y-21368112D02*
X13222641Y-21368112D01*
X13222641Y-21368112D02*
X13241688Y-21377635D01*
X13317879Y-21577635D02*
X13327403Y-21568112D01*
X13327403Y-21568112D02*
X13346450Y-21539540D01*
X13346450Y-21539540D02*
X13355974Y-21520493D01*
X13355974Y-21520493D02*
X13365498Y-21491921D01*
X13365498Y-21491921D02*
X13375022Y-21444302D01*
X13375022Y-21444302D02*
X13375022Y-21406207D01*
X13375022Y-21406207D02*
X13365498Y-21358588D01*
X13365498Y-21358588D02*
X13355974Y-21330016D01*
X13355974Y-21330016D02*
X13346450Y-21310969D01*
X13346450Y-21310969D02*
X13327403Y-21282397D01*
X13327403Y-21282397D02*
X13317879Y-21272874D01*
D13*
X6476863Y-21588961D02*
X6476863Y-21758961D01*
X6391863Y-21673961D02*
X6561863Y-21673961D01*
D12*
X6927402Y-21765445D02*
X6813116Y-21765445D01*
X6870259Y-21765445D02*
X6870259Y-21565445D01*
X6870259Y-21565445D02*
X6851212Y-21594016D01*
X6851212Y-21594016D02*
X6832164Y-21613064D01*
X6832164Y-21613064D02*
X6813116Y-21622588D01*
X7013116Y-21746397D02*
X7022640Y-21755921D01*
X7022640Y-21755921D02*
X7013116Y-21765445D01*
X7013116Y-21765445D02*
X7003593Y-21755921D01*
X7003593Y-21755921D02*
X7013116Y-21746397D01*
X7013116Y-21746397D02*
X7013116Y-21765445D01*
X7089307Y-21565445D02*
X7222640Y-21565445D01*
X7222640Y-21565445D02*
X7136926Y-21765445D01*
X7336926Y-21565445D02*
X7355974Y-21565445D01*
X7355974Y-21565445D02*
X7375021Y-21574969D01*
X7375021Y-21574969D02*
X7384545Y-21584493D01*
X7384545Y-21584493D02*
X7394069Y-21603540D01*
X7394069Y-21603540D02*
X7403593Y-21641635D01*
X7403593Y-21641635D02*
X7403593Y-21689255D01*
X7403593Y-21689255D02*
X7394069Y-21727350D01*
X7394069Y-21727350D02*
X7384545Y-21746397D01*
X7384545Y-21746397D02*
X7375021Y-21755921D01*
X7375021Y-21755921D02*
X7355974Y-21765445D01*
X7355974Y-21765445D02*
X7336926Y-21765445D01*
X7336926Y-21765445D02*
X7317878Y-21755921D01*
X7317878Y-21755921D02*
X7308354Y-21746397D01*
X7308354Y-21746397D02*
X7298831Y-21727350D01*
X7298831Y-21727350D02*
X7289307Y-21689255D01*
X7289307Y-21689255D02*
X7289307Y-21641635D01*
X7289307Y-21641635D02*
X7298831Y-21603540D01*
X7298831Y-21603540D02*
X7308354Y-21584493D01*
X7308354Y-21584493D02*
X7317878Y-21574969D01*
X7317878Y-21574969D02*
X7336926Y-21565445D01*
X7527402Y-21565445D02*
X7546450Y-21565445D01*
X7546450Y-21565445D02*
X7565497Y-21574969D01*
X7565497Y-21574969D02*
X7575021Y-21584493D01*
X7575021Y-21584493D02*
X7584545Y-21603540D01*
X7584545Y-21603540D02*
X7594069Y-21641635D01*
X7594069Y-21641635D02*
X7594069Y-21689255D01*
X7594069Y-21689255D02*
X7584545Y-21727350D01*
X7584545Y-21727350D02*
X7575021Y-21746397D01*
X7575021Y-21746397D02*
X7565497Y-21755921D01*
X7565497Y-21755921D02*
X7546450Y-21765445D01*
X7546450Y-21765445D02*
X7527402Y-21765445D01*
X7527402Y-21765445D02*
X7508354Y-21755921D01*
X7508354Y-21755921D02*
X7498831Y-21746397D01*
X7498831Y-21746397D02*
X7489307Y-21727350D01*
X7489307Y-21727350D02*
X7479783Y-21689255D01*
X7479783Y-21689255D02*
X7479783Y-21641635D01*
X7479783Y-21641635D02*
X7489307Y-21603540D01*
X7489307Y-21603540D02*
X7498831Y-21584493D01*
X7498831Y-21584493D02*
X7508354Y-21574969D01*
X7508354Y-21574969D02*
X7527402Y-21565445D01*
X7679783Y-21765445D02*
X7679783Y-21632112D01*
X7679783Y-21651159D02*
X7689307Y-21641635D01*
X7689307Y-21641635D02*
X7708354Y-21632112D01*
X7708354Y-21632112D02*
X7736926Y-21632112D01*
X7736926Y-21632112D02*
X7755974Y-21641635D01*
X7755974Y-21641635D02*
X7765497Y-21660683D01*
X7765497Y-21660683D02*
X7765497Y-21765445D01*
X7765497Y-21660683D02*
X7775021Y-21641635D01*
X7775021Y-21641635D02*
X7794069Y-21632112D01*
X7794069Y-21632112D02*
X7822640Y-21632112D01*
X7822640Y-21632112D02*
X7841688Y-21641635D01*
X7841688Y-21641635D02*
X7851212Y-21660683D01*
X7851212Y-21660683D02*
X7851212Y-21765445D01*
X7946450Y-21765445D02*
X7946450Y-21632112D01*
X7946450Y-21651159D02*
X7955974Y-21641635D01*
X7955974Y-21641635D02*
X7975021Y-21632112D01*
X7975021Y-21632112D02*
X8003593Y-21632112D01*
X8003593Y-21632112D02*
X8022640Y-21641635D01*
X8022640Y-21641635D02*
X8032164Y-21660683D01*
X8032164Y-21660683D02*
X8032164Y-21765445D01*
X8032164Y-21660683D02*
X8041688Y-21641635D01*
X8041688Y-21641635D02*
X8060735Y-21632112D01*
X8060735Y-21632112D02*
X8089307Y-21632112D01*
X8089307Y-21632112D02*
X8108355Y-21641635D01*
X8108355Y-21641635D02*
X8117878Y-21660683D01*
X8117878Y-21660683D02*
X8117878Y-21765445D01*
X8508355Y-21555921D02*
X8336926Y-21813064D01*
X8765498Y-21565445D02*
X8784545Y-21565445D01*
X8784545Y-21565445D02*
X8803593Y-21574969D01*
X8803593Y-21574969D02*
X8813117Y-21584493D01*
X8813117Y-21584493D02*
X8822640Y-21603540D01*
X8822640Y-21603540D02*
X8832164Y-21641635D01*
X8832164Y-21641635D02*
X8832164Y-21689255D01*
X8832164Y-21689255D02*
X8822640Y-21727350D01*
X8822640Y-21727350D02*
X8813117Y-21746397D01*
X8813117Y-21746397D02*
X8803593Y-21755921D01*
X8803593Y-21755921D02*
X8784545Y-21765445D01*
X8784545Y-21765445D02*
X8765498Y-21765445D01*
X8765498Y-21765445D02*
X8746450Y-21755921D01*
X8746450Y-21755921D02*
X8736926Y-21746397D01*
X8736926Y-21746397D02*
X8727402Y-21727350D01*
X8727402Y-21727350D02*
X8717879Y-21689255D01*
X8717879Y-21689255D02*
X8717879Y-21641635D01*
X8717879Y-21641635D02*
X8727402Y-21603540D01*
X8727402Y-21603540D02*
X8736926Y-21584493D01*
X8736926Y-21584493D02*
X8746450Y-21574969D01*
X8746450Y-21574969D02*
X8765498Y-21565445D01*
X8917879Y-21746397D02*
X8927402Y-21755921D01*
X8927402Y-21755921D02*
X8917879Y-21765445D01*
X8917879Y-21765445D02*
X8908355Y-21755921D01*
X8908355Y-21755921D02*
X8917879Y-21746397D01*
X8917879Y-21746397D02*
X8917879Y-21765445D01*
X9051212Y-21565445D02*
X9070260Y-21565445D01*
X9070260Y-21565445D02*
X9089307Y-21574969D01*
X9089307Y-21574969D02*
X9098831Y-21584493D01*
X9098831Y-21584493D02*
X9108355Y-21603540D01*
X9108355Y-21603540D02*
X9117879Y-21641635D01*
X9117879Y-21641635D02*
X9117879Y-21689255D01*
X9117879Y-21689255D02*
X9108355Y-21727350D01*
X9108355Y-21727350D02*
X9098831Y-21746397D01*
X9098831Y-21746397D02*
X9089307Y-21755921D01*
X9089307Y-21755921D02*
X9070260Y-21765445D01*
X9070260Y-21765445D02*
X9051212Y-21765445D01*
X9051212Y-21765445D02*
X9032164Y-21755921D01*
X9032164Y-21755921D02*
X9022640Y-21746397D01*
X9022640Y-21746397D02*
X9013117Y-21727350D01*
X9013117Y-21727350D02*
X9003593Y-21689255D01*
X9003593Y-21689255D02*
X9003593Y-21641635D01*
X9003593Y-21641635D02*
X9013117Y-21603540D01*
X9013117Y-21603540D02*
X9022640Y-21584493D01*
X9022640Y-21584493D02*
X9032164Y-21574969D01*
X9032164Y-21574969D02*
X9051212Y-21565445D01*
X9289307Y-21565445D02*
X9251212Y-21565445D01*
X9251212Y-21565445D02*
X9232164Y-21574969D01*
X9232164Y-21574969D02*
X9222640Y-21584493D01*
X9222640Y-21584493D02*
X9203593Y-21613064D01*
X9203593Y-21613064D02*
X9194069Y-21651159D01*
X9194069Y-21651159D02*
X9194069Y-21727350D01*
X9194069Y-21727350D02*
X9203593Y-21746397D01*
X9203593Y-21746397D02*
X9213117Y-21755921D01*
X9213117Y-21755921D02*
X9232164Y-21765445D01*
X9232164Y-21765445D02*
X9270260Y-21765445D01*
X9270260Y-21765445D02*
X9289307Y-21755921D01*
X9289307Y-21755921D02*
X9298831Y-21746397D01*
X9298831Y-21746397D02*
X9308355Y-21727350D01*
X9308355Y-21727350D02*
X9308355Y-21679731D01*
X9308355Y-21679731D02*
X9298831Y-21660683D01*
X9298831Y-21660683D02*
X9289307Y-21651159D01*
X9289307Y-21651159D02*
X9270260Y-21641635D01*
X9270260Y-21641635D02*
X9232164Y-21641635D01*
X9232164Y-21641635D02*
X9213117Y-21651159D01*
X9213117Y-21651159D02*
X9203593Y-21660683D01*
X9203593Y-21660683D02*
X9194069Y-21679731D01*
X9479783Y-21565445D02*
X9441688Y-21565445D01*
X9441688Y-21565445D02*
X9422640Y-21574969D01*
X9422640Y-21574969D02*
X9413117Y-21584493D01*
X9413117Y-21584493D02*
X9394069Y-21613064D01*
X9394069Y-21613064D02*
X9384545Y-21651159D01*
X9384545Y-21651159D02*
X9384545Y-21727350D01*
X9384545Y-21727350D02*
X9394069Y-21746397D01*
X9394069Y-21746397D02*
X9403593Y-21755921D01*
X9403593Y-21755921D02*
X9422640Y-21765445D01*
X9422640Y-21765445D02*
X9460736Y-21765445D01*
X9460736Y-21765445D02*
X9479783Y-21755921D01*
X9479783Y-21755921D02*
X9489307Y-21746397D01*
X9489307Y-21746397D02*
X9498831Y-21727350D01*
X9498831Y-21727350D02*
X9498831Y-21679731D01*
X9498831Y-21679731D02*
X9489307Y-21660683D01*
X9489307Y-21660683D02*
X9479783Y-21651159D01*
X9479783Y-21651159D02*
X9460736Y-21641635D01*
X9460736Y-21641635D02*
X9422640Y-21641635D01*
X9422640Y-21641635D02*
X9403593Y-21651159D01*
X9403593Y-21651159D02*
X9394069Y-21660683D01*
X9394069Y-21660683D02*
X9384545Y-21679731D01*
X9594069Y-21765445D02*
X9632164Y-21765445D01*
X9632164Y-21765445D02*
X9651212Y-21755921D01*
X9651212Y-21755921D02*
X9660736Y-21746397D01*
X9660736Y-21746397D02*
X9679783Y-21717826D01*
X9679783Y-21717826D02*
X9689307Y-21679731D01*
X9689307Y-21679731D02*
X9689307Y-21603540D01*
X9689307Y-21603540D02*
X9679783Y-21584493D01*
X9679783Y-21584493D02*
X9670260Y-21574969D01*
X9670260Y-21574969D02*
X9651212Y-21565445D01*
X9651212Y-21565445D02*
X9613117Y-21565445D01*
X9613117Y-21565445D02*
X9594069Y-21574969D01*
X9594069Y-21574969D02*
X9584545Y-21584493D01*
X9584545Y-21584493D02*
X9575021Y-21603540D01*
X9575021Y-21603540D02*
X9575021Y-21651159D01*
X9575021Y-21651159D02*
X9584545Y-21670207D01*
X9584545Y-21670207D02*
X9594069Y-21679731D01*
X9594069Y-21679731D02*
X9613117Y-21689255D01*
X9613117Y-21689255D02*
X9651212Y-21689255D01*
X9651212Y-21689255D02*
X9670260Y-21679731D01*
X9670260Y-21679731D02*
X9679783Y-21670207D01*
X9679783Y-21670207D02*
X9689307Y-21651159D01*
X9765498Y-21565445D02*
X9765498Y-21603540D01*
X9841688Y-21565445D02*
X9841688Y-21603540D01*
X10136926Y-21841635D02*
X10127402Y-21832112D01*
X10127402Y-21832112D02*
X10108355Y-21803540D01*
X10108355Y-21803540D02*
X10098831Y-21784493D01*
X10098831Y-21784493D02*
X10089307Y-21755921D01*
X10089307Y-21755921D02*
X10079783Y-21708302D01*
X10079783Y-21708302D02*
X10079783Y-21670207D01*
X10079783Y-21670207D02*
X10089307Y-21622588D01*
X10089307Y-21622588D02*
X10098831Y-21594016D01*
X10098831Y-21594016D02*
X10108355Y-21574969D01*
X10108355Y-21574969D02*
X10127402Y-21546397D01*
X10127402Y-21546397D02*
X10136926Y-21536874D01*
X10317879Y-21765445D02*
X10203593Y-21765445D01*
X10260736Y-21765445D02*
X10260736Y-21565445D01*
X10260736Y-21565445D02*
X10241688Y-21594016D01*
X10241688Y-21594016D02*
X10222641Y-21613064D01*
X10222641Y-21613064D02*
X10203593Y-21622588D01*
X10441688Y-21565445D02*
X10460736Y-21565445D01*
X10460736Y-21565445D02*
X10479783Y-21574969D01*
X10479783Y-21574969D02*
X10489307Y-21584493D01*
X10489307Y-21584493D02*
X10498831Y-21603540D01*
X10498831Y-21603540D02*
X10508355Y-21641635D01*
X10508355Y-21641635D02*
X10508355Y-21689255D01*
X10508355Y-21689255D02*
X10498831Y-21727350D01*
X10498831Y-21727350D02*
X10489307Y-21746397D01*
X10489307Y-21746397D02*
X10479783Y-21755921D01*
X10479783Y-21755921D02*
X10460736Y-21765445D01*
X10460736Y-21765445D02*
X10441688Y-21765445D01*
X10441688Y-21765445D02*
X10422641Y-21755921D01*
X10422641Y-21755921D02*
X10413117Y-21746397D01*
X10413117Y-21746397D02*
X10403593Y-21727350D01*
X10403593Y-21727350D02*
X10394069Y-21689255D01*
X10394069Y-21689255D02*
X10394069Y-21641635D01*
X10394069Y-21641635D02*
X10403593Y-21603540D01*
X10403593Y-21603540D02*
X10413117Y-21584493D01*
X10413117Y-21584493D02*
X10422641Y-21574969D01*
X10422641Y-21574969D02*
X10441688Y-21565445D01*
X10632164Y-21565445D02*
X10651212Y-21565445D01*
X10651212Y-21565445D02*
X10670260Y-21574969D01*
X10670260Y-21574969D02*
X10679783Y-21584493D01*
X10679783Y-21584493D02*
X10689307Y-21603540D01*
X10689307Y-21603540D02*
X10698831Y-21641635D01*
X10698831Y-21641635D02*
X10698831Y-21689255D01*
X10698831Y-21689255D02*
X10689307Y-21727350D01*
X10689307Y-21727350D02*
X10679783Y-21746397D01*
X10679783Y-21746397D02*
X10670260Y-21755921D01*
X10670260Y-21755921D02*
X10651212Y-21765445D01*
X10651212Y-21765445D02*
X10632164Y-21765445D01*
X10632164Y-21765445D02*
X10613117Y-21755921D01*
X10613117Y-21755921D02*
X10603593Y-21746397D01*
X10603593Y-21746397D02*
X10594069Y-21727350D01*
X10594069Y-21727350D02*
X10584545Y-21689255D01*
X10584545Y-21689255D02*
X10584545Y-21641635D01*
X10584545Y-21641635D02*
X10594069Y-21603540D01*
X10594069Y-21603540D02*
X10603593Y-21584493D01*
X10603593Y-21584493D02*
X10613117Y-21574969D01*
X10613117Y-21574969D02*
X10632164Y-21565445D01*
X10936926Y-21765445D02*
X10936926Y-21565445D01*
X11022641Y-21765445D02*
X11022641Y-21660683D01*
X11022641Y-21660683D02*
X11013117Y-21641635D01*
X11013117Y-21641635D02*
X10994069Y-21632112D01*
X10994069Y-21632112D02*
X10965498Y-21632112D01*
X10965498Y-21632112D02*
X10946450Y-21641635D01*
X10946450Y-21641635D02*
X10936926Y-21651159D01*
X11146450Y-21765445D02*
X11127403Y-21755921D01*
X11127403Y-21755921D02*
X11117879Y-21746397D01*
X11117879Y-21746397D02*
X11108355Y-21727350D01*
X11108355Y-21727350D02*
X11108355Y-21670207D01*
X11108355Y-21670207D02*
X11117879Y-21651159D01*
X11117879Y-21651159D02*
X11127403Y-21641635D01*
X11127403Y-21641635D02*
X11146450Y-21632112D01*
X11146450Y-21632112D02*
X11175022Y-21632112D01*
X11175022Y-21632112D02*
X11194069Y-21641635D01*
X11194069Y-21641635D02*
X11203593Y-21651159D01*
X11203593Y-21651159D02*
X11213117Y-21670207D01*
X11213117Y-21670207D02*
X11213117Y-21727350D01*
X11213117Y-21727350D02*
X11203593Y-21746397D01*
X11203593Y-21746397D02*
X11194069Y-21755921D01*
X11194069Y-21755921D02*
X11175022Y-21765445D01*
X11175022Y-21765445D02*
X11146450Y-21765445D01*
X11327402Y-21765445D02*
X11308355Y-21755921D01*
X11308355Y-21755921D02*
X11298831Y-21736874D01*
X11298831Y-21736874D02*
X11298831Y-21565445D01*
X11479783Y-21755921D02*
X11460736Y-21765445D01*
X11460736Y-21765445D02*
X11422641Y-21765445D01*
X11422641Y-21765445D02*
X11403593Y-21755921D01*
X11403593Y-21755921D02*
X11394069Y-21736874D01*
X11394069Y-21736874D02*
X11394069Y-21660683D01*
X11394069Y-21660683D02*
X11403593Y-21641635D01*
X11403593Y-21641635D02*
X11422641Y-21632112D01*
X11422641Y-21632112D02*
X11460736Y-21632112D01*
X11460736Y-21632112D02*
X11479783Y-21641635D01*
X11479783Y-21641635D02*
X11489307Y-21660683D01*
X11489307Y-21660683D02*
X11489307Y-21679731D01*
X11489307Y-21679731D02*
X11394069Y-21698778D01*
X11565498Y-21755921D02*
X11584545Y-21765445D01*
X11584545Y-21765445D02*
X11622641Y-21765445D01*
X11622641Y-21765445D02*
X11641688Y-21755921D01*
X11641688Y-21755921D02*
X11651212Y-21736874D01*
X11651212Y-21736874D02*
X11651212Y-21727350D01*
X11651212Y-21727350D02*
X11641688Y-21708302D01*
X11641688Y-21708302D02*
X11622641Y-21698778D01*
X11622641Y-21698778D02*
X11594069Y-21698778D01*
X11594069Y-21698778D02*
X11575022Y-21689255D01*
X11575022Y-21689255D02*
X11565498Y-21670207D01*
X11565498Y-21670207D02*
X11565498Y-21660683D01*
X11565498Y-21660683D02*
X11575022Y-21641635D01*
X11575022Y-21641635D02*
X11594069Y-21632112D01*
X11594069Y-21632112D02*
X11622641Y-21632112D01*
X11622641Y-21632112D02*
X11641688Y-21641635D01*
X11717879Y-21841635D02*
X11727403Y-21832112D01*
X11727403Y-21832112D02*
X11746450Y-21803540D01*
X11746450Y-21803540D02*
X11755974Y-21784493D01*
X11755974Y-21784493D02*
X11765498Y-21755921D01*
X11765498Y-21755921D02*
X11775022Y-21708302D01*
X11775022Y-21708302D02*
X11775022Y-21670207D01*
X11775022Y-21670207D02*
X11765498Y-21622588D01*
X11765498Y-21622588D02*
X11755974Y-21594016D01*
X11755974Y-21594016D02*
X11746450Y-21574969D01*
X11746450Y-21574969D02*
X11727403Y-21546397D01*
X11727403Y-21546397D02*
X11717879Y-21536874D01*
X12079784Y-21841635D02*
X12070260Y-21832112D01*
X12070260Y-21832112D02*
X12051212Y-21803540D01*
X12051212Y-21803540D02*
X12041688Y-21784493D01*
X12041688Y-21784493D02*
X12032164Y-21755921D01*
X12032164Y-21755921D02*
X12022641Y-21708302D01*
X12022641Y-21708302D02*
X12022641Y-21670207D01*
X12022641Y-21670207D02*
X12032164Y-21622588D01*
X12032164Y-21622588D02*
X12041688Y-21594016D01*
X12041688Y-21594016D02*
X12051212Y-21574969D01*
X12051212Y-21574969D02*
X12070260Y-21546397D01*
X12070260Y-21546397D02*
X12079784Y-21536874D01*
X12155974Y-21632112D02*
X12155974Y-21765445D01*
X12155974Y-21651159D02*
X12165498Y-21641635D01*
X12165498Y-21641635D02*
X12184545Y-21632112D01*
X12184545Y-21632112D02*
X12213117Y-21632112D01*
X12213117Y-21632112D02*
X12232164Y-21641635D01*
X12232164Y-21641635D02*
X12241688Y-21660683D01*
X12241688Y-21660683D02*
X12241688Y-21765445D01*
X12365498Y-21765445D02*
X12346450Y-21755921D01*
X12346450Y-21755921D02*
X12336926Y-21746397D01*
X12336926Y-21746397D02*
X12327403Y-21727350D01*
X12327403Y-21727350D02*
X12327403Y-21670207D01*
X12327403Y-21670207D02*
X12336926Y-21651159D01*
X12336926Y-21651159D02*
X12346450Y-21641635D01*
X12346450Y-21641635D02*
X12365498Y-21632112D01*
X12365498Y-21632112D02*
X12394069Y-21632112D01*
X12394069Y-21632112D02*
X12413117Y-21641635D01*
X12413117Y-21641635D02*
X12422641Y-21651159D01*
X12422641Y-21651159D02*
X12432164Y-21670207D01*
X12432164Y-21670207D02*
X12432164Y-21727350D01*
X12432164Y-21727350D02*
X12422641Y-21746397D01*
X12422641Y-21746397D02*
X12413117Y-21755921D01*
X12413117Y-21755921D02*
X12394069Y-21765445D01*
X12394069Y-21765445D02*
X12365498Y-21765445D01*
X12489307Y-21632112D02*
X12565498Y-21632112D01*
X12517879Y-21565445D02*
X12517879Y-21736874D01*
X12517879Y-21736874D02*
X12527403Y-21755921D01*
X12527403Y-21755921D02*
X12546450Y-21765445D01*
X12546450Y-21765445D02*
X12565498Y-21765445D01*
X12784545Y-21632112D02*
X12784545Y-21832112D01*
X12784545Y-21641635D02*
X12803593Y-21632112D01*
X12803593Y-21632112D02*
X12841688Y-21632112D01*
X12841688Y-21632112D02*
X12860736Y-21641635D01*
X12860736Y-21641635D02*
X12870260Y-21651159D01*
X12870260Y-21651159D02*
X12879784Y-21670207D01*
X12879784Y-21670207D02*
X12879784Y-21727350D01*
X12879784Y-21727350D02*
X12870260Y-21746397D01*
X12870260Y-21746397D02*
X12860736Y-21755921D01*
X12860736Y-21755921D02*
X12841688Y-21765445D01*
X12841688Y-21765445D02*
X12803593Y-21765445D01*
X12803593Y-21765445D02*
X12784545Y-21755921D01*
X12994069Y-21765445D02*
X12975022Y-21755921D01*
X12975022Y-21755921D02*
X12965498Y-21736874D01*
X12965498Y-21736874D02*
X12965498Y-21565445D01*
X13155974Y-21765445D02*
X13155974Y-21660683D01*
X13155974Y-21660683D02*
X13146450Y-21641635D01*
X13146450Y-21641635D02*
X13127403Y-21632112D01*
X13127403Y-21632112D02*
X13089307Y-21632112D01*
X13089307Y-21632112D02*
X13070260Y-21641635D01*
X13155974Y-21755921D02*
X13136926Y-21765445D01*
X13136926Y-21765445D02*
X13089307Y-21765445D01*
X13089307Y-21765445D02*
X13070260Y-21755921D01*
X13070260Y-21755921D02*
X13060736Y-21736874D01*
X13060736Y-21736874D02*
X13060736Y-21717826D01*
X13060736Y-21717826D02*
X13070260Y-21698778D01*
X13070260Y-21698778D02*
X13089307Y-21689255D01*
X13089307Y-21689255D02*
X13136926Y-21689255D01*
X13136926Y-21689255D02*
X13155974Y-21679731D01*
X13222641Y-21632112D02*
X13298831Y-21632112D01*
X13251212Y-21565445D02*
X13251212Y-21736874D01*
X13251212Y-21736874D02*
X13260736Y-21755921D01*
X13260736Y-21755921D02*
X13279784Y-21765445D01*
X13279784Y-21765445D02*
X13298831Y-21765445D01*
X13441688Y-21755921D02*
X13422641Y-21765445D01*
X13422641Y-21765445D02*
X13384545Y-21765445D01*
X13384545Y-21765445D02*
X13365498Y-21755921D01*
X13365498Y-21755921D02*
X13355974Y-21736874D01*
X13355974Y-21736874D02*
X13355974Y-21660683D01*
X13355974Y-21660683D02*
X13365498Y-21641635D01*
X13365498Y-21641635D02*
X13384545Y-21632112D01*
X13384545Y-21632112D02*
X13422641Y-21632112D01*
X13422641Y-21632112D02*
X13441688Y-21641635D01*
X13441688Y-21641635D02*
X13451212Y-21660683D01*
X13451212Y-21660683D02*
X13451212Y-21679731D01*
X13451212Y-21679731D02*
X13355974Y-21698778D01*
X13622641Y-21765445D02*
X13622641Y-21565445D01*
X13622641Y-21755921D02*
X13603593Y-21765445D01*
X13603593Y-21765445D02*
X13565498Y-21765445D01*
X13565498Y-21765445D02*
X13546450Y-21755921D01*
X13546450Y-21755921D02*
X13536926Y-21746397D01*
X13536926Y-21746397D02*
X13527403Y-21727350D01*
X13527403Y-21727350D02*
X13527403Y-21670207D01*
X13527403Y-21670207D02*
X13536926Y-21651159D01*
X13536926Y-21651159D02*
X13546450Y-21641635D01*
X13546450Y-21641635D02*
X13565498Y-21632112D01*
X13565498Y-21632112D02*
X13603593Y-21632112D01*
X13603593Y-21632112D02*
X13622641Y-21641635D01*
X13698831Y-21841635D02*
X13708355Y-21832112D01*
X13708355Y-21832112D02*
X13727403Y-21803540D01*
X13727403Y-21803540D02*
X13736926Y-21784493D01*
X13736926Y-21784493D02*
X13746450Y-21755921D01*
X13746450Y-21755921D02*
X13755974Y-21708302D01*
X13755974Y-21708302D02*
X13755974Y-21670207D01*
X13755974Y-21670207D02*
X13746450Y-21622588D01*
X13746450Y-21622588D02*
X13736926Y-21594016D01*
X13736926Y-21594016D02*
X13727403Y-21574969D01*
X13727403Y-21574969D02*
X13708355Y-21546397D01*
X13708355Y-21546397D02*
X13698831Y-21536874D01*
X6532575Y-22034673D02*
X6532575Y-21893250D01*
X6391152Y-21893250D01*
X6391152Y-22034673D01*
X6532575Y-22034673D01*
X6813116Y-21874493D02*
X6822640Y-21864969D01*
X6822640Y-21864969D02*
X6841688Y-21855445D01*
X6841688Y-21855445D02*
X6889307Y-21855445D01*
X6889307Y-21855445D02*
X6908354Y-21864969D01*
X6908354Y-21864969D02*
X6917878Y-21874493D01*
X6917878Y-21874493D02*
X6927402Y-21893540D01*
X6927402Y-21893540D02*
X6927402Y-21912588D01*
X6927402Y-21912588D02*
X6917878Y-21941159D01*
X6917878Y-21941159D02*
X6803593Y-22055445D01*
X6803593Y-22055445D02*
X6927402Y-22055445D01*
X7013116Y-22036397D02*
X7022640Y-22045921D01*
X7022640Y-22045921D02*
X7013116Y-22055445D01*
X7013116Y-22055445D02*
X7003593Y-22045921D01*
X7003593Y-22045921D02*
X7013116Y-22036397D01*
X7013116Y-22036397D02*
X7013116Y-22055445D01*
X7098831Y-21874493D02*
X7108354Y-21864969D01*
X7108354Y-21864969D02*
X7127402Y-21855445D01*
X7127402Y-21855445D02*
X7175021Y-21855445D01*
X7175021Y-21855445D02*
X7194069Y-21864969D01*
X7194069Y-21864969D02*
X7203593Y-21874493D01*
X7203593Y-21874493D02*
X7213116Y-21893540D01*
X7213116Y-21893540D02*
X7213116Y-21912588D01*
X7213116Y-21912588D02*
X7203593Y-21941159D01*
X7203593Y-21941159D02*
X7089307Y-22055445D01*
X7089307Y-22055445D02*
X7213116Y-22055445D01*
X7336926Y-21855445D02*
X7355974Y-21855445D01*
X7355974Y-21855445D02*
X7375021Y-21864969D01*
X7375021Y-21864969D02*
X7384545Y-21874493D01*
X7384545Y-21874493D02*
X7394069Y-21893540D01*
X7394069Y-21893540D02*
X7403593Y-21931635D01*
X7403593Y-21931635D02*
X7403593Y-21979255D01*
X7403593Y-21979255D02*
X7394069Y-22017350D01*
X7394069Y-22017350D02*
X7384545Y-22036397D01*
X7384545Y-22036397D02*
X7375021Y-22045921D01*
X7375021Y-22045921D02*
X7355974Y-22055445D01*
X7355974Y-22055445D02*
X7336926Y-22055445D01*
X7336926Y-22055445D02*
X7317878Y-22045921D01*
X7317878Y-22045921D02*
X7308354Y-22036397D01*
X7308354Y-22036397D02*
X7298831Y-22017350D01*
X7298831Y-22017350D02*
X7289307Y-21979255D01*
X7289307Y-21979255D02*
X7289307Y-21931635D01*
X7289307Y-21931635D02*
X7298831Y-21893540D01*
X7298831Y-21893540D02*
X7308354Y-21874493D01*
X7308354Y-21874493D02*
X7317878Y-21864969D01*
X7317878Y-21864969D02*
X7336926Y-21855445D01*
X7527402Y-21855445D02*
X7546450Y-21855445D01*
X7546450Y-21855445D02*
X7565497Y-21864969D01*
X7565497Y-21864969D02*
X7575021Y-21874493D01*
X7575021Y-21874493D02*
X7584545Y-21893540D01*
X7584545Y-21893540D02*
X7594069Y-21931635D01*
X7594069Y-21931635D02*
X7594069Y-21979255D01*
X7594069Y-21979255D02*
X7584545Y-22017350D01*
X7584545Y-22017350D02*
X7575021Y-22036397D01*
X7575021Y-22036397D02*
X7565497Y-22045921D01*
X7565497Y-22045921D02*
X7546450Y-22055445D01*
X7546450Y-22055445D02*
X7527402Y-22055445D01*
X7527402Y-22055445D02*
X7508354Y-22045921D01*
X7508354Y-22045921D02*
X7498831Y-22036397D01*
X7498831Y-22036397D02*
X7489307Y-22017350D01*
X7489307Y-22017350D02*
X7479783Y-21979255D01*
X7479783Y-21979255D02*
X7479783Y-21931635D01*
X7479783Y-21931635D02*
X7489307Y-21893540D01*
X7489307Y-21893540D02*
X7498831Y-21874493D01*
X7498831Y-21874493D02*
X7508354Y-21864969D01*
X7508354Y-21864969D02*
X7527402Y-21855445D01*
X7679783Y-22055445D02*
X7679783Y-21922112D01*
X7679783Y-21941159D02*
X7689307Y-21931635D01*
X7689307Y-21931635D02*
X7708354Y-21922112D01*
X7708354Y-21922112D02*
X7736926Y-21922112D01*
X7736926Y-21922112D02*
X7755974Y-21931635D01*
X7755974Y-21931635D02*
X7765497Y-21950683D01*
X7765497Y-21950683D02*
X7765497Y-22055445D01*
X7765497Y-21950683D02*
X7775021Y-21931635D01*
X7775021Y-21931635D02*
X7794069Y-21922112D01*
X7794069Y-21922112D02*
X7822640Y-21922112D01*
X7822640Y-21922112D02*
X7841688Y-21931635D01*
X7841688Y-21931635D02*
X7851212Y-21950683D01*
X7851212Y-21950683D02*
X7851212Y-22055445D01*
X7946450Y-22055445D02*
X7946450Y-21922112D01*
X7946450Y-21941159D02*
X7955974Y-21931635D01*
X7955974Y-21931635D02*
X7975021Y-21922112D01*
X7975021Y-21922112D02*
X8003593Y-21922112D01*
X8003593Y-21922112D02*
X8022640Y-21931635D01*
X8022640Y-21931635D02*
X8032164Y-21950683D01*
X8032164Y-21950683D02*
X8032164Y-22055445D01*
X8032164Y-21950683D02*
X8041688Y-21931635D01*
X8041688Y-21931635D02*
X8060735Y-21922112D01*
X8060735Y-21922112D02*
X8089307Y-21922112D01*
X8089307Y-21922112D02*
X8108355Y-21931635D01*
X8108355Y-21931635D02*
X8117878Y-21950683D01*
X8117878Y-21950683D02*
X8117878Y-22055445D01*
X8508355Y-21845921D02*
X8336926Y-22103064D01*
X8765498Y-21855445D02*
X8784545Y-21855445D01*
X8784545Y-21855445D02*
X8803593Y-21864969D01*
X8803593Y-21864969D02*
X8813117Y-21874493D01*
X8813117Y-21874493D02*
X8822640Y-21893540D01*
X8822640Y-21893540D02*
X8832164Y-21931635D01*
X8832164Y-21931635D02*
X8832164Y-21979255D01*
X8832164Y-21979255D02*
X8822640Y-22017350D01*
X8822640Y-22017350D02*
X8813117Y-22036397D01*
X8813117Y-22036397D02*
X8803593Y-22045921D01*
X8803593Y-22045921D02*
X8784545Y-22055445D01*
X8784545Y-22055445D02*
X8765498Y-22055445D01*
X8765498Y-22055445D02*
X8746450Y-22045921D01*
X8746450Y-22045921D02*
X8736926Y-22036397D01*
X8736926Y-22036397D02*
X8727402Y-22017350D01*
X8727402Y-22017350D02*
X8717879Y-21979255D01*
X8717879Y-21979255D02*
X8717879Y-21931635D01*
X8717879Y-21931635D02*
X8727402Y-21893540D01*
X8727402Y-21893540D02*
X8736926Y-21874493D01*
X8736926Y-21874493D02*
X8746450Y-21864969D01*
X8746450Y-21864969D02*
X8765498Y-21855445D01*
X8917879Y-22036397D02*
X8927402Y-22045921D01*
X8927402Y-22045921D02*
X8917879Y-22055445D01*
X8917879Y-22055445D02*
X8908355Y-22045921D01*
X8908355Y-22045921D02*
X8917879Y-22036397D01*
X8917879Y-22036397D02*
X8917879Y-22055445D01*
X9051212Y-21855445D02*
X9070260Y-21855445D01*
X9070260Y-21855445D02*
X9089307Y-21864969D01*
X9089307Y-21864969D02*
X9098831Y-21874493D01*
X9098831Y-21874493D02*
X9108355Y-21893540D01*
X9108355Y-21893540D02*
X9117879Y-21931635D01*
X9117879Y-21931635D02*
X9117879Y-21979255D01*
X9117879Y-21979255D02*
X9108355Y-22017350D01*
X9108355Y-22017350D02*
X9098831Y-22036397D01*
X9098831Y-22036397D02*
X9089307Y-22045921D01*
X9089307Y-22045921D02*
X9070260Y-22055445D01*
X9070260Y-22055445D02*
X9051212Y-22055445D01*
X9051212Y-22055445D02*
X9032164Y-22045921D01*
X9032164Y-22045921D02*
X9022640Y-22036397D01*
X9022640Y-22036397D02*
X9013117Y-22017350D01*
X9013117Y-22017350D02*
X9003593Y-21979255D01*
X9003593Y-21979255D02*
X9003593Y-21931635D01*
X9003593Y-21931635D02*
X9013117Y-21893540D01*
X9013117Y-21893540D02*
X9022640Y-21874493D01*
X9022640Y-21874493D02*
X9032164Y-21864969D01*
X9032164Y-21864969D02*
X9051212Y-21855445D01*
X9232164Y-21941159D02*
X9213117Y-21931635D01*
X9213117Y-21931635D02*
X9203593Y-21922112D01*
X9203593Y-21922112D02*
X9194069Y-21903064D01*
X9194069Y-21903064D02*
X9194069Y-21893540D01*
X9194069Y-21893540D02*
X9203593Y-21874493D01*
X9203593Y-21874493D02*
X9213117Y-21864969D01*
X9213117Y-21864969D02*
X9232164Y-21855445D01*
X9232164Y-21855445D02*
X9270260Y-21855445D01*
X9270260Y-21855445D02*
X9289307Y-21864969D01*
X9289307Y-21864969D02*
X9298831Y-21874493D01*
X9298831Y-21874493D02*
X9308355Y-21893540D01*
X9308355Y-21893540D02*
X9308355Y-21903064D01*
X9308355Y-21903064D02*
X9298831Y-21922112D01*
X9298831Y-21922112D02*
X9289307Y-21931635D01*
X9289307Y-21931635D02*
X9270260Y-21941159D01*
X9270260Y-21941159D02*
X9232164Y-21941159D01*
X9232164Y-21941159D02*
X9213117Y-21950683D01*
X9213117Y-21950683D02*
X9203593Y-21960207D01*
X9203593Y-21960207D02*
X9194069Y-21979255D01*
X9194069Y-21979255D02*
X9194069Y-22017350D01*
X9194069Y-22017350D02*
X9203593Y-22036397D01*
X9203593Y-22036397D02*
X9213117Y-22045921D01*
X9213117Y-22045921D02*
X9232164Y-22055445D01*
X9232164Y-22055445D02*
X9270260Y-22055445D01*
X9270260Y-22055445D02*
X9289307Y-22045921D01*
X9289307Y-22045921D02*
X9298831Y-22036397D01*
X9298831Y-22036397D02*
X9308355Y-22017350D01*
X9308355Y-22017350D02*
X9308355Y-21979255D01*
X9308355Y-21979255D02*
X9298831Y-21960207D01*
X9298831Y-21960207D02*
X9289307Y-21950683D01*
X9289307Y-21950683D02*
X9270260Y-21941159D01*
X9479783Y-21855445D02*
X9441688Y-21855445D01*
X9441688Y-21855445D02*
X9422640Y-21864969D01*
X9422640Y-21864969D02*
X9413117Y-21874493D01*
X9413117Y-21874493D02*
X9394069Y-21903064D01*
X9394069Y-21903064D02*
X9384545Y-21941159D01*
X9384545Y-21941159D02*
X9384545Y-22017350D01*
X9384545Y-22017350D02*
X9394069Y-22036397D01*
X9394069Y-22036397D02*
X9403593Y-22045921D01*
X9403593Y-22045921D02*
X9422640Y-22055445D01*
X9422640Y-22055445D02*
X9460736Y-22055445D01*
X9460736Y-22055445D02*
X9479783Y-22045921D01*
X9479783Y-22045921D02*
X9489307Y-22036397D01*
X9489307Y-22036397D02*
X9498831Y-22017350D01*
X9498831Y-22017350D02*
X9498831Y-21969731D01*
X9498831Y-21969731D02*
X9489307Y-21950683D01*
X9489307Y-21950683D02*
X9479783Y-21941159D01*
X9479783Y-21941159D02*
X9460736Y-21931635D01*
X9460736Y-21931635D02*
X9422640Y-21931635D01*
X9422640Y-21931635D02*
X9403593Y-21941159D01*
X9403593Y-21941159D02*
X9394069Y-21950683D01*
X9394069Y-21950683D02*
X9384545Y-21969731D01*
X9670260Y-21855445D02*
X9632164Y-21855445D01*
X9632164Y-21855445D02*
X9613117Y-21864969D01*
X9613117Y-21864969D02*
X9603593Y-21874493D01*
X9603593Y-21874493D02*
X9584545Y-21903064D01*
X9584545Y-21903064D02*
X9575021Y-21941159D01*
X9575021Y-21941159D02*
X9575021Y-22017350D01*
X9575021Y-22017350D02*
X9584545Y-22036397D01*
X9584545Y-22036397D02*
X9594069Y-22045921D01*
X9594069Y-22045921D02*
X9613117Y-22055445D01*
X9613117Y-22055445D02*
X9651212Y-22055445D01*
X9651212Y-22055445D02*
X9670260Y-22045921D01*
X9670260Y-22045921D02*
X9679783Y-22036397D01*
X9679783Y-22036397D02*
X9689307Y-22017350D01*
X9689307Y-22017350D02*
X9689307Y-21969731D01*
X9689307Y-21969731D02*
X9679783Y-21950683D01*
X9679783Y-21950683D02*
X9670260Y-21941159D01*
X9670260Y-21941159D02*
X9651212Y-21931635D01*
X9651212Y-21931635D02*
X9613117Y-21931635D01*
X9613117Y-21931635D02*
X9594069Y-21941159D01*
X9594069Y-21941159D02*
X9584545Y-21950683D01*
X9584545Y-21950683D02*
X9575021Y-21969731D01*
X9765498Y-21855445D02*
X9765498Y-21893540D01*
X9841688Y-21855445D02*
X9841688Y-21893540D01*
X10136926Y-22131635D02*
X10127402Y-22122112D01*
X10127402Y-22122112D02*
X10108355Y-22093540D01*
X10108355Y-22093540D02*
X10098831Y-22074493D01*
X10098831Y-22074493D02*
X10089307Y-22045921D01*
X10089307Y-22045921D02*
X10079783Y-21998302D01*
X10079783Y-21998302D02*
X10079783Y-21960207D01*
X10079783Y-21960207D02*
X10089307Y-21912588D01*
X10089307Y-21912588D02*
X10098831Y-21884016D01*
X10098831Y-21884016D02*
X10108355Y-21864969D01*
X10108355Y-21864969D02*
X10127402Y-21836397D01*
X10127402Y-21836397D02*
X10136926Y-21826874D01*
X10298831Y-21855445D02*
X10260736Y-21855445D01*
X10260736Y-21855445D02*
X10241688Y-21864969D01*
X10241688Y-21864969D02*
X10232164Y-21874493D01*
X10232164Y-21874493D02*
X10213117Y-21903064D01*
X10213117Y-21903064D02*
X10203593Y-21941159D01*
X10203593Y-21941159D02*
X10203593Y-22017350D01*
X10203593Y-22017350D02*
X10213117Y-22036397D01*
X10213117Y-22036397D02*
X10222641Y-22045921D01*
X10222641Y-22045921D02*
X10241688Y-22055445D01*
X10241688Y-22055445D02*
X10279783Y-22055445D01*
X10279783Y-22055445D02*
X10298831Y-22045921D01*
X10298831Y-22045921D02*
X10308355Y-22036397D01*
X10308355Y-22036397D02*
X10317879Y-22017350D01*
X10317879Y-22017350D02*
X10317879Y-21969731D01*
X10317879Y-21969731D02*
X10308355Y-21950683D01*
X10308355Y-21950683D02*
X10298831Y-21941159D01*
X10298831Y-21941159D02*
X10279783Y-21931635D01*
X10279783Y-21931635D02*
X10241688Y-21931635D01*
X10241688Y-21931635D02*
X10222641Y-21941159D01*
X10222641Y-21941159D02*
X10213117Y-21950683D01*
X10213117Y-21950683D02*
X10203593Y-21969731D01*
X10555974Y-22055445D02*
X10555974Y-21855445D01*
X10641688Y-22055445D02*
X10641688Y-21950683D01*
X10641688Y-21950683D02*
X10632164Y-21931635D01*
X10632164Y-21931635D02*
X10613117Y-21922112D01*
X10613117Y-21922112D02*
X10584545Y-21922112D01*
X10584545Y-21922112D02*
X10565498Y-21931635D01*
X10565498Y-21931635D02*
X10555974Y-21941159D01*
X10765498Y-22055445D02*
X10746450Y-22045921D01*
X10746450Y-22045921D02*
X10736926Y-22036397D01*
X10736926Y-22036397D02*
X10727403Y-22017350D01*
X10727403Y-22017350D02*
X10727403Y-21960207D01*
X10727403Y-21960207D02*
X10736926Y-21941159D01*
X10736926Y-21941159D02*
X10746450Y-21931635D01*
X10746450Y-21931635D02*
X10765498Y-21922112D01*
X10765498Y-21922112D02*
X10794069Y-21922112D01*
X10794069Y-21922112D02*
X10813117Y-21931635D01*
X10813117Y-21931635D02*
X10822641Y-21941159D01*
X10822641Y-21941159D02*
X10832164Y-21960207D01*
X10832164Y-21960207D02*
X10832164Y-22017350D01*
X10832164Y-22017350D02*
X10822641Y-22036397D01*
X10822641Y-22036397D02*
X10813117Y-22045921D01*
X10813117Y-22045921D02*
X10794069Y-22055445D01*
X10794069Y-22055445D02*
X10765498Y-22055445D01*
X10946450Y-22055445D02*
X10927403Y-22045921D01*
X10927403Y-22045921D02*
X10917879Y-22026874D01*
X10917879Y-22026874D02*
X10917879Y-21855445D01*
X11098831Y-22045921D02*
X11079784Y-22055445D01*
X11079784Y-22055445D02*
X11041688Y-22055445D01*
X11041688Y-22055445D02*
X11022641Y-22045921D01*
X11022641Y-22045921D02*
X11013117Y-22026874D01*
X11013117Y-22026874D02*
X11013117Y-21950683D01*
X11013117Y-21950683D02*
X11022641Y-21931635D01*
X11022641Y-21931635D02*
X11041688Y-21922112D01*
X11041688Y-21922112D02*
X11079784Y-21922112D01*
X11079784Y-21922112D02*
X11098831Y-21931635D01*
X11098831Y-21931635D02*
X11108355Y-21950683D01*
X11108355Y-21950683D02*
X11108355Y-21969731D01*
X11108355Y-21969731D02*
X11013117Y-21988778D01*
X11184545Y-22045921D02*
X11203593Y-22055445D01*
X11203593Y-22055445D02*
X11241688Y-22055445D01*
X11241688Y-22055445D02*
X11260736Y-22045921D01*
X11260736Y-22045921D02*
X11270260Y-22026874D01*
X11270260Y-22026874D02*
X11270260Y-22017350D01*
X11270260Y-22017350D02*
X11260736Y-21998302D01*
X11260736Y-21998302D02*
X11241688Y-21988778D01*
X11241688Y-21988778D02*
X11213117Y-21988778D01*
X11213117Y-21988778D02*
X11194069Y-21979255D01*
X11194069Y-21979255D02*
X11184545Y-21960207D01*
X11184545Y-21960207D02*
X11184545Y-21950683D01*
X11184545Y-21950683D02*
X11194069Y-21931635D01*
X11194069Y-21931635D02*
X11213117Y-21922112D01*
X11213117Y-21922112D02*
X11241688Y-21922112D01*
X11241688Y-21922112D02*
X11260736Y-21931635D01*
X11336926Y-22131635D02*
X11346450Y-22122112D01*
X11346450Y-22122112D02*
X11365498Y-22093540D01*
X11365498Y-22093540D02*
X11375022Y-22074493D01*
X11375022Y-22074493D02*
X11384545Y-22045921D01*
X11384545Y-22045921D02*
X11394069Y-21998302D01*
X11394069Y-21998302D02*
X11394069Y-21960207D01*
X11394069Y-21960207D02*
X11384545Y-21912588D01*
X11384545Y-21912588D02*
X11375022Y-21884016D01*
X11375022Y-21884016D02*
X11365498Y-21864969D01*
X11365498Y-21864969D02*
X11346450Y-21836397D01*
X11346450Y-21836397D02*
X11336926Y-21826874D01*
X11698831Y-22131635D02*
X11689307Y-22122112D01*
X11689307Y-22122112D02*
X11670260Y-22093540D01*
X11670260Y-22093540D02*
X11660736Y-22074493D01*
X11660736Y-22074493D02*
X11651212Y-22045921D01*
X11651212Y-22045921D02*
X11641688Y-21998302D01*
X11641688Y-21998302D02*
X11641688Y-21960207D01*
X11641688Y-21960207D02*
X11651212Y-21912588D01*
X11651212Y-21912588D02*
X11660736Y-21884016D01*
X11660736Y-21884016D02*
X11670260Y-21864969D01*
X11670260Y-21864969D02*
X11689307Y-21836397D01*
X11689307Y-21836397D02*
X11698831Y-21826874D01*
X11775022Y-21922112D02*
X11775022Y-22055445D01*
X11775022Y-21941159D02*
X11784545Y-21931635D01*
X11784545Y-21931635D02*
X11803593Y-21922112D01*
X11803593Y-21922112D02*
X11832164Y-21922112D01*
X11832164Y-21922112D02*
X11851212Y-21931635D01*
X11851212Y-21931635D02*
X11860736Y-21950683D01*
X11860736Y-21950683D02*
X11860736Y-22055445D01*
X11984545Y-22055445D02*
X11965498Y-22045921D01*
X11965498Y-22045921D02*
X11955974Y-22036397D01*
X11955974Y-22036397D02*
X11946450Y-22017350D01*
X11946450Y-22017350D02*
X11946450Y-21960207D01*
X11946450Y-21960207D02*
X11955974Y-21941159D01*
X11955974Y-21941159D02*
X11965498Y-21931635D01*
X11965498Y-21931635D02*
X11984545Y-21922112D01*
X11984545Y-21922112D02*
X12013117Y-21922112D01*
X12013117Y-21922112D02*
X12032164Y-21931635D01*
X12032164Y-21931635D02*
X12041688Y-21941159D01*
X12041688Y-21941159D02*
X12051212Y-21960207D01*
X12051212Y-21960207D02*
X12051212Y-22017350D01*
X12051212Y-22017350D02*
X12041688Y-22036397D01*
X12041688Y-22036397D02*
X12032164Y-22045921D01*
X12032164Y-22045921D02*
X12013117Y-22055445D01*
X12013117Y-22055445D02*
X11984545Y-22055445D01*
X12108355Y-21922112D02*
X12184545Y-21922112D01*
X12136926Y-21855445D02*
X12136926Y-22026874D01*
X12136926Y-22026874D02*
X12146450Y-22045921D01*
X12146450Y-22045921D02*
X12165498Y-22055445D01*
X12165498Y-22055445D02*
X12184545Y-22055445D01*
X12403593Y-21922112D02*
X12403593Y-22122112D01*
X12403593Y-21931635D02*
X12422641Y-21922112D01*
X12422641Y-21922112D02*
X12460736Y-21922112D01*
X12460736Y-21922112D02*
X12479784Y-21931635D01*
X12479784Y-21931635D02*
X12489307Y-21941159D01*
X12489307Y-21941159D02*
X12498831Y-21960207D01*
X12498831Y-21960207D02*
X12498831Y-22017350D01*
X12498831Y-22017350D02*
X12489307Y-22036397D01*
X12489307Y-22036397D02*
X12479784Y-22045921D01*
X12479784Y-22045921D02*
X12460736Y-22055445D01*
X12460736Y-22055445D02*
X12422641Y-22055445D01*
X12422641Y-22055445D02*
X12403593Y-22045921D01*
X12613117Y-22055445D02*
X12594069Y-22045921D01*
X12594069Y-22045921D02*
X12584545Y-22026874D01*
X12584545Y-22026874D02*
X12584545Y-21855445D01*
X12775022Y-22055445D02*
X12775022Y-21950683D01*
X12775022Y-21950683D02*
X12765498Y-21931635D01*
X12765498Y-21931635D02*
X12746450Y-21922112D01*
X12746450Y-21922112D02*
X12708355Y-21922112D01*
X12708355Y-21922112D02*
X12689307Y-21931635D01*
X12775022Y-22045921D02*
X12755974Y-22055445D01*
X12755974Y-22055445D02*
X12708355Y-22055445D01*
X12708355Y-22055445D02*
X12689307Y-22045921D01*
X12689307Y-22045921D02*
X12679784Y-22026874D01*
X12679784Y-22026874D02*
X12679784Y-22007826D01*
X12679784Y-22007826D02*
X12689307Y-21988778D01*
X12689307Y-21988778D02*
X12708355Y-21979255D01*
X12708355Y-21979255D02*
X12755974Y-21979255D01*
X12755974Y-21979255D02*
X12775022Y-21969731D01*
X12841688Y-21922112D02*
X12917879Y-21922112D01*
X12870260Y-21855445D02*
X12870260Y-22026874D01*
X12870260Y-22026874D02*
X12879784Y-22045921D01*
X12879784Y-22045921D02*
X12898831Y-22055445D01*
X12898831Y-22055445D02*
X12917879Y-22055445D01*
X13060736Y-22045921D02*
X13041688Y-22055445D01*
X13041688Y-22055445D02*
X13003593Y-22055445D01*
X13003593Y-22055445D02*
X12984545Y-22045921D01*
X12984545Y-22045921D02*
X12975022Y-22026874D01*
X12975022Y-22026874D02*
X12975022Y-21950683D01*
X12975022Y-21950683D02*
X12984545Y-21931635D01*
X12984545Y-21931635D02*
X13003593Y-21922112D01*
X13003593Y-21922112D02*
X13041688Y-21922112D01*
X13041688Y-21922112D02*
X13060736Y-21931635D01*
X13060736Y-21931635D02*
X13070260Y-21950683D01*
X13070260Y-21950683D02*
X13070260Y-21969731D01*
X13070260Y-21969731D02*
X12975022Y-21988778D01*
X13241688Y-22055445D02*
X13241688Y-21855445D01*
X13241688Y-22045921D02*
X13222641Y-22055445D01*
X13222641Y-22055445D02*
X13184545Y-22055445D01*
X13184545Y-22055445D02*
X13165498Y-22045921D01*
X13165498Y-22045921D02*
X13155974Y-22036397D01*
X13155974Y-22036397D02*
X13146450Y-22017350D01*
X13146450Y-22017350D02*
X13146450Y-21960207D01*
X13146450Y-21960207D02*
X13155974Y-21941159D01*
X13155974Y-21941159D02*
X13165498Y-21931635D01*
X13165498Y-21931635D02*
X13184545Y-21922112D01*
X13184545Y-21922112D02*
X13222641Y-21922112D01*
X13222641Y-21922112D02*
X13241688Y-21931635D01*
X13317879Y-22131635D02*
X13327403Y-22122112D01*
X13327403Y-22122112D02*
X13346450Y-22093540D01*
X13346450Y-22093540D02*
X13355974Y-22074493D01*
X13355974Y-22074493D02*
X13365498Y-22045921D01*
X13365498Y-22045921D02*
X13375022Y-21998302D01*
X13375022Y-21998302D02*
X13375022Y-21960207D01*
X13375022Y-21960207D02*
X13365498Y-21912588D01*
X13365498Y-21912588D02*
X13355974Y-21884016D01*
X13355974Y-21884016D02*
X13346450Y-21864969D01*
X13346450Y-21864969D02*
X13327403Y-21836397D01*
X13327403Y-21836397D02*
X13317879Y-21826874D01*
X6461863Y-22383961D02*
X6561863Y-22283961D01*
X6461863Y-22183961D01*
X6361863Y-22283961D01*
X6461863Y-22383961D01*
X6908354Y-22242112D02*
X6908354Y-22375445D01*
X6860735Y-22165921D02*
X6813116Y-22308778D01*
X6813116Y-22308778D02*
X6936926Y-22308778D01*
X7013116Y-22356397D02*
X7022640Y-22365921D01*
X7022640Y-22365921D02*
X7013116Y-22375445D01*
X7013116Y-22375445D02*
X7003593Y-22365921D01*
X7003593Y-22365921D02*
X7013116Y-22356397D01*
X7013116Y-22356397D02*
X7013116Y-22375445D01*
X7146450Y-22175445D02*
X7165497Y-22175445D01*
X7165497Y-22175445D02*
X7184545Y-22184969D01*
X7184545Y-22184969D02*
X7194069Y-22194493D01*
X7194069Y-22194493D02*
X7203593Y-22213540D01*
X7203593Y-22213540D02*
X7213116Y-22251635D01*
X7213116Y-22251635D02*
X7213116Y-22299255D01*
X7213116Y-22299255D02*
X7203593Y-22337350D01*
X7203593Y-22337350D02*
X7194069Y-22356397D01*
X7194069Y-22356397D02*
X7184545Y-22365921D01*
X7184545Y-22365921D02*
X7165497Y-22375445D01*
X7165497Y-22375445D02*
X7146450Y-22375445D01*
X7146450Y-22375445D02*
X7127402Y-22365921D01*
X7127402Y-22365921D02*
X7117878Y-22356397D01*
X7117878Y-22356397D02*
X7108354Y-22337350D01*
X7108354Y-22337350D02*
X7098831Y-22299255D01*
X7098831Y-22299255D02*
X7098831Y-22251635D01*
X7098831Y-22251635D02*
X7108354Y-22213540D01*
X7108354Y-22213540D02*
X7117878Y-22194493D01*
X7117878Y-22194493D02*
X7127402Y-22184969D01*
X7127402Y-22184969D02*
X7146450Y-22175445D01*
X7336926Y-22175445D02*
X7355974Y-22175445D01*
X7355974Y-22175445D02*
X7375021Y-22184969D01*
X7375021Y-22184969D02*
X7384545Y-22194493D01*
X7384545Y-22194493D02*
X7394069Y-22213540D01*
X7394069Y-22213540D02*
X7403593Y-22251635D01*
X7403593Y-22251635D02*
X7403593Y-22299255D01*
X7403593Y-22299255D02*
X7394069Y-22337350D01*
X7394069Y-22337350D02*
X7384545Y-22356397D01*
X7384545Y-22356397D02*
X7375021Y-22365921D01*
X7375021Y-22365921D02*
X7355974Y-22375445D01*
X7355974Y-22375445D02*
X7336926Y-22375445D01*
X7336926Y-22375445D02*
X7317878Y-22365921D01*
X7317878Y-22365921D02*
X7308354Y-22356397D01*
X7308354Y-22356397D02*
X7298831Y-22337350D01*
X7298831Y-22337350D02*
X7289307Y-22299255D01*
X7289307Y-22299255D02*
X7289307Y-22251635D01*
X7289307Y-22251635D02*
X7298831Y-22213540D01*
X7298831Y-22213540D02*
X7308354Y-22194493D01*
X7308354Y-22194493D02*
X7317878Y-22184969D01*
X7317878Y-22184969D02*
X7336926Y-22175445D01*
X7527402Y-22175445D02*
X7546450Y-22175445D01*
X7546450Y-22175445D02*
X7565497Y-22184969D01*
X7565497Y-22184969D02*
X7575021Y-22194493D01*
X7575021Y-22194493D02*
X7584545Y-22213540D01*
X7584545Y-22213540D02*
X7594069Y-22251635D01*
X7594069Y-22251635D02*
X7594069Y-22299255D01*
X7594069Y-22299255D02*
X7584545Y-22337350D01*
X7584545Y-22337350D02*
X7575021Y-22356397D01*
X7575021Y-22356397D02*
X7565497Y-22365921D01*
X7565497Y-22365921D02*
X7546450Y-22375445D01*
X7546450Y-22375445D02*
X7527402Y-22375445D01*
X7527402Y-22375445D02*
X7508354Y-22365921D01*
X7508354Y-22365921D02*
X7498831Y-22356397D01*
X7498831Y-22356397D02*
X7489307Y-22337350D01*
X7489307Y-22337350D02*
X7479783Y-22299255D01*
X7479783Y-22299255D02*
X7479783Y-22251635D01*
X7479783Y-22251635D02*
X7489307Y-22213540D01*
X7489307Y-22213540D02*
X7498831Y-22194493D01*
X7498831Y-22194493D02*
X7508354Y-22184969D01*
X7508354Y-22184969D02*
X7527402Y-22175445D01*
X7679783Y-22375445D02*
X7679783Y-22242112D01*
X7679783Y-22261159D02*
X7689307Y-22251635D01*
X7689307Y-22251635D02*
X7708354Y-22242112D01*
X7708354Y-22242112D02*
X7736926Y-22242112D01*
X7736926Y-22242112D02*
X7755974Y-22251635D01*
X7755974Y-22251635D02*
X7765497Y-22270683D01*
X7765497Y-22270683D02*
X7765497Y-22375445D01*
X7765497Y-22270683D02*
X7775021Y-22251635D01*
X7775021Y-22251635D02*
X7794069Y-22242112D01*
X7794069Y-22242112D02*
X7822640Y-22242112D01*
X7822640Y-22242112D02*
X7841688Y-22251635D01*
X7841688Y-22251635D02*
X7851212Y-22270683D01*
X7851212Y-22270683D02*
X7851212Y-22375445D01*
X7946450Y-22375445D02*
X7946450Y-22242112D01*
X7946450Y-22261159D02*
X7955974Y-22251635D01*
X7955974Y-22251635D02*
X7975021Y-22242112D01*
X7975021Y-22242112D02*
X8003593Y-22242112D01*
X8003593Y-22242112D02*
X8022640Y-22251635D01*
X8022640Y-22251635D02*
X8032164Y-22270683D01*
X8032164Y-22270683D02*
X8032164Y-22375445D01*
X8032164Y-22270683D02*
X8041688Y-22251635D01*
X8041688Y-22251635D02*
X8060735Y-22242112D01*
X8060735Y-22242112D02*
X8089307Y-22242112D01*
X8089307Y-22242112D02*
X8108355Y-22251635D01*
X8108355Y-22251635D02*
X8117878Y-22270683D01*
X8117878Y-22270683D02*
X8117878Y-22375445D01*
X8508355Y-22165921D02*
X8336926Y-22423064D01*
X8765498Y-22175445D02*
X8784545Y-22175445D01*
X8784545Y-22175445D02*
X8803593Y-22184969D01*
X8803593Y-22184969D02*
X8813117Y-22194493D01*
X8813117Y-22194493D02*
X8822640Y-22213540D01*
X8822640Y-22213540D02*
X8832164Y-22251635D01*
X8832164Y-22251635D02*
X8832164Y-22299255D01*
X8832164Y-22299255D02*
X8822640Y-22337350D01*
X8822640Y-22337350D02*
X8813117Y-22356397D01*
X8813117Y-22356397D02*
X8803593Y-22365921D01*
X8803593Y-22365921D02*
X8784545Y-22375445D01*
X8784545Y-22375445D02*
X8765498Y-22375445D01*
X8765498Y-22375445D02*
X8746450Y-22365921D01*
X8746450Y-22365921D02*
X8736926Y-22356397D01*
X8736926Y-22356397D02*
X8727402Y-22337350D01*
X8727402Y-22337350D02*
X8717879Y-22299255D01*
X8717879Y-22299255D02*
X8717879Y-22251635D01*
X8717879Y-22251635D02*
X8727402Y-22213540D01*
X8727402Y-22213540D02*
X8736926Y-22194493D01*
X8736926Y-22194493D02*
X8746450Y-22184969D01*
X8746450Y-22184969D02*
X8765498Y-22175445D01*
X8917879Y-22356397D02*
X8927402Y-22365921D01*
X8927402Y-22365921D02*
X8917879Y-22375445D01*
X8917879Y-22375445D02*
X8908355Y-22365921D01*
X8908355Y-22365921D02*
X8917879Y-22356397D01*
X8917879Y-22356397D02*
X8917879Y-22375445D01*
X9117879Y-22375445D02*
X9003593Y-22375445D01*
X9060736Y-22375445D02*
X9060736Y-22175445D01*
X9060736Y-22175445D02*
X9041688Y-22204016D01*
X9041688Y-22204016D02*
X9022640Y-22223064D01*
X9022640Y-22223064D02*
X9003593Y-22232588D01*
X9298831Y-22175445D02*
X9203593Y-22175445D01*
X9203593Y-22175445D02*
X9194069Y-22270683D01*
X9194069Y-22270683D02*
X9203593Y-22261159D01*
X9203593Y-22261159D02*
X9222640Y-22251635D01*
X9222640Y-22251635D02*
X9270260Y-22251635D01*
X9270260Y-22251635D02*
X9289307Y-22261159D01*
X9289307Y-22261159D02*
X9298831Y-22270683D01*
X9298831Y-22270683D02*
X9308355Y-22289731D01*
X9308355Y-22289731D02*
X9308355Y-22337350D01*
X9308355Y-22337350D02*
X9298831Y-22356397D01*
X9298831Y-22356397D02*
X9289307Y-22365921D01*
X9289307Y-22365921D02*
X9270260Y-22375445D01*
X9270260Y-22375445D02*
X9222640Y-22375445D01*
X9222640Y-22375445D02*
X9203593Y-22365921D01*
X9203593Y-22365921D02*
X9194069Y-22356397D01*
X9375021Y-22175445D02*
X9508355Y-22175445D01*
X9508355Y-22175445D02*
X9422640Y-22375445D01*
X9679783Y-22175445D02*
X9584545Y-22175445D01*
X9584545Y-22175445D02*
X9575021Y-22270683D01*
X9575021Y-22270683D02*
X9584545Y-22261159D01*
X9584545Y-22261159D02*
X9603593Y-22251635D01*
X9603593Y-22251635D02*
X9651212Y-22251635D01*
X9651212Y-22251635D02*
X9670260Y-22261159D01*
X9670260Y-22261159D02*
X9679783Y-22270683D01*
X9679783Y-22270683D02*
X9689307Y-22289731D01*
X9689307Y-22289731D02*
X9689307Y-22337350D01*
X9689307Y-22337350D02*
X9679783Y-22356397D01*
X9679783Y-22356397D02*
X9670260Y-22365921D01*
X9670260Y-22365921D02*
X9651212Y-22375445D01*
X9651212Y-22375445D02*
X9603593Y-22375445D01*
X9603593Y-22375445D02*
X9584545Y-22365921D01*
X9584545Y-22365921D02*
X9575021Y-22356397D01*
X9765498Y-22175445D02*
X9765498Y-22213540D01*
X9841688Y-22175445D02*
X9841688Y-22213540D01*
X10136926Y-22451635D02*
X10127402Y-22442112D01*
X10127402Y-22442112D02*
X10108355Y-22413540D01*
X10108355Y-22413540D02*
X10098831Y-22394493D01*
X10098831Y-22394493D02*
X10089307Y-22365921D01*
X10089307Y-22365921D02*
X10079783Y-22318302D01*
X10079783Y-22318302D02*
X10079783Y-22280207D01*
X10079783Y-22280207D02*
X10089307Y-22232588D01*
X10089307Y-22232588D02*
X10098831Y-22204016D01*
X10098831Y-22204016D02*
X10108355Y-22184969D01*
X10108355Y-22184969D02*
X10127402Y-22156397D01*
X10127402Y-22156397D02*
X10136926Y-22146874D01*
X10308355Y-22175445D02*
X10213117Y-22175445D01*
X10213117Y-22175445D02*
X10203593Y-22270683D01*
X10203593Y-22270683D02*
X10213117Y-22261159D01*
X10213117Y-22261159D02*
X10232164Y-22251635D01*
X10232164Y-22251635D02*
X10279783Y-22251635D01*
X10279783Y-22251635D02*
X10298831Y-22261159D01*
X10298831Y-22261159D02*
X10308355Y-22270683D01*
X10308355Y-22270683D02*
X10317879Y-22289731D01*
X10317879Y-22289731D02*
X10317879Y-22337350D01*
X10317879Y-22337350D02*
X10308355Y-22356397D01*
X10308355Y-22356397D02*
X10298831Y-22365921D01*
X10298831Y-22365921D02*
X10279783Y-22375445D01*
X10279783Y-22375445D02*
X10232164Y-22375445D01*
X10232164Y-22375445D02*
X10213117Y-22365921D01*
X10213117Y-22365921D02*
X10203593Y-22356397D01*
X10441688Y-22175445D02*
X10460736Y-22175445D01*
X10460736Y-22175445D02*
X10479783Y-22184969D01*
X10479783Y-22184969D02*
X10489307Y-22194493D01*
X10489307Y-22194493D02*
X10498831Y-22213540D01*
X10498831Y-22213540D02*
X10508355Y-22251635D01*
X10508355Y-22251635D02*
X10508355Y-22299255D01*
X10508355Y-22299255D02*
X10498831Y-22337350D01*
X10498831Y-22337350D02*
X10489307Y-22356397D01*
X10489307Y-22356397D02*
X10479783Y-22365921D01*
X10479783Y-22365921D02*
X10460736Y-22375445D01*
X10460736Y-22375445D02*
X10441688Y-22375445D01*
X10441688Y-22375445D02*
X10422641Y-22365921D01*
X10422641Y-22365921D02*
X10413117Y-22356397D01*
X10413117Y-22356397D02*
X10403593Y-22337350D01*
X10403593Y-22337350D02*
X10394069Y-22299255D01*
X10394069Y-22299255D02*
X10394069Y-22251635D01*
X10394069Y-22251635D02*
X10403593Y-22213540D01*
X10403593Y-22213540D02*
X10413117Y-22194493D01*
X10413117Y-22194493D02*
X10422641Y-22184969D01*
X10422641Y-22184969D02*
X10441688Y-22175445D01*
X10746450Y-22375445D02*
X10746450Y-22175445D01*
X10832164Y-22375445D02*
X10832164Y-22270683D01*
X10832164Y-22270683D02*
X10822641Y-22251635D01*
X10822641Y-22251635D02*
X10803593Y-22242112D01*
X10803593Y-22242112D02*
X10775022Y-22242112D01*
X10775022Y-22242112D02*
X10755974Y-22251635D01*
X10755974Y-22251635D02*
X10746450Y-22261159D01*
X10955974Y-22375445D02*
X10936926Y-22365921D01*
X10936926Y-22365921D02*
X10927403Y-22356397D01*
X10927403Y-22356397D02*
X10917879Y-22337350D01*
X10917879Y-22337350D02*
X10917879Y-22280207D01*
X10917879Y-22280207D02*
X10927403Y-22261159D01*
X10927403Y-22261159D02*
X10936926Y-22251635D01*
X10936926Y-22251635D02*
X10955974Y-22242112D01*
X10955974Y-22242112D02*
X10984545Y-22242112D01*
X10984545Y-22242112D02*
X11003593Y-22251635D01*
X11003593Y-22251635D02*
X11013117Y-22261159D01*
X11013117Y-22261159D02*
X11022641Y-22280207D01*
X11022641Y-22280207D02*
X11022641Y-22337350D01*
X11022641Y-22337350D02*
X11013117Y-22356397D01*
X11013117Y-22356397D02*
X11003593Y-22365921D01*
X11003593Y-22365921D02*
X10984545Y-22375445D01*
X10984545Y-22375445D02*
X10955974Y-22375445D01*
X11136926Y-22375445D02*
X11117879Y-22365921D01*
X11117879Y-22365921D02*
X11108355Y-22346874D01*
X11108355Y-22346874D02*
X11108355Y-22175445D01*
X11289307Y-22365921D02*
X11270260Y-22375445D01*
X11270260Y-22375445D02*
X11232164Y-22375445D01*
X11232164Y-22375445D02*
X11213117Y-22365921D01*
X11213117Y-22365921D02*
X11203593Y-22346874D01*
X11203593Y-22346874D02*
X11203593Y-22270683D01*
X11203593Y-22270683D02*
X11213117Y-22251635D01*
X11213117Y-22251635D02*
X11232164Y-22242112D01*
X11232164Y-22242112D02*
X11270260Y-22242112D01*
X11270260Y-22242112D02*
X11289307Y-22251635D01*
X11289307Y-22251635D02*
X11298831Y-22270683D01*
X11298831Y-22270683D02*
X11298831Y-22289731D01*
X11298831Y-22289731D02*
X11203593Y-22308778D01*
X11375022Y-22365921D02*
X11394069Y-22375445D01*
X11394069Y-22375445D02*
X11432164Y-22375445D01*
X11432164Y-22375445D02*
X11451212Y-22365921D01*
X11451212Y-22365921D02*
X11460736Y-22346874D01*
X11460736Y-22346874D02*
X11460736Y-22337350D01*
X11460736Y-22337350D02*
X11451212Y-22318302D01*
X11451212Y-22318302D02*
X11432164Y-22308778D01*
X11432164Y-22308778D02*
X11403593Y-22308778D01*
X11403593Y-22308778D02*
X11384545Y-22299255D01*
X11384545Y-22299255D02*
X11375022Y-22280207D01*
X11375022Y-22280207D02*
X11375022Y-22270683D01*
X11375022Y-22270683D02*
X11384545Y-22251635D01*
X11384545Y-22251635D02*
X11403593Y-22242112D01*
X11403593Y-22242112D02*
X11432164Y-22242112D01*
X11432164Y-22242112D02*
X11451212Y-22251635D01*
X11527403Y-22451635D02*
X11536926Y-22442112D01*
X11536926Y-22442112D02*
X11555974Y-22413540D01*
X11555974Y-22413540D02*
X11565498Y-22394493D01*
X11565498Y-22394493D02*
X11575022Y-22365921D01*
X11575022Y-22365921D02*
X11584545Y-22318302D01*
X11584545Y-22318302D02*
X11584545Y-22280207D01*
X11584545Y-22280207D02*
X11575022Y-22232588D01*
X11575022Y-22232588D02*
X11565498Y-22204016D01*
X11565498Y-22204016D02*
X11555974Y-22184969D01*
X11555974Y-22184969D02*
X11536926Y-22156397D01*
X11536926Y-22156397D02*
X11527403Y-22146874D01*
X11889307Y-22451635D02*
X11879783Y-22442112D01*
X11879783Y-22442112D02*
X11860736Y-22413540D01*
X11860736Y-22413540D02*
X11851212Y-22394493D01*
X11851212Y-22394493D02*
X11841688Y-22365921D01*
X11841688Y-22365921D02*
X11832164Y-22318302D01*
X11832164Y-22318302D02*
X11832164Y-22280207D01*
X11832164Y-22280207D02*
X11841688Y-22232588D01*
X11841688Y-22232588D02*
X11851212Y-22204016D01*
X11851212Y-22204016D02*
X11860736Y-22184969D01*
X11860736Y-22184969D02*
X11879783Y-22156397D01*
X11879783Y-22156397D02*
X11889307Y-22146874D01*
X11965498Y-22242112D02*
X11965498Y-22375445D01*
X11965498Y-22261159D02*
X11975022Y-22251635D01*
X11975022Y-22251635D02*
X11994069Y-22242112D01*
X11994069Y-22242112D02*
X12022641Y-22242112D01*
X12022641Y-22242112D02*
X12041688Y-22251635D01*
X12041688Y-22251635D02*
X12051212Y-22270683D01*
X12051212Y-22270683D02*
X12051212Y-22375445D01*
X12175022Y-22375445D02*
X12155974Y-22365921D01*
X12155974Y-22365921D02*
X12146450Y-22356397D01*
X12146450Y-22356397D02*
X12136926Y-22337350D01*
X12136926Y-22337350D02*
X12136926Y-22280207D01*
X12136926Y-22280207D02*
X12146450Y-22261159D01*
X12146450Y-22261159D02*
X12155974Y-22251635D01*
X12155974Y-22251635D02*
X12175022Y-22242112D01*
X12175022Y-22242112D02*
X12203593Y-22242112D01*
X12203593Y-22242112D02*
X12222641Y-22251635D01*
X12222641Y-22251635D02*
X12232164Y-22261159D01*
X12232164Y-22261159D02*
X12241688Y-22280207D01*
X12241688Y-22280207D02*
X12241688Y-22337350D01*
X12241688Y-22337350D02*
X12232164Y-22356397D01*
X12232164Y-22356397D02*
X12222641Y-22365921D01*
X12222641Y-22365921D02*
X12203593Y-22375445D01*
X12203593Y-22375445D02*
X12175022Y-22375445D01*
X12298831Y-22242112D02*
X12375022Y-22242112D01*
X12327403Y-22175445D02*
X12327403Y-22346874D01*
X12327403Y-22346874D02*
X12336926Y-22365921D01*
X12336926Y-22365921D02*
X12355974Y-22375445D01*
X12355974Y-22375445D02*
X12375022Y-22375445D01*
X12594069Y-22242112D02*
X12594069Y-22442112D01*
X12594069Y-22251635D02*
X12613117Y-22242112D01*
X12613117Y-22242112D02*
X12651212Y-22242112D01*
X12651212Y-22242112D02*
X12670260Y-22251635D01*
X12670260Y-22251635D02*
X12679784Y-22261159D01*
X12679784Y-22261159D02*
X12689307Y-22280207D01*
X12689307Y-22280207D02*
X12689307Y-22337350D01*
X12689307Y-22337350D02*
X12679784Y-22356397D01*
X12679784Y-22356397D02*
X12670260Y-22365921D01*
X12670260Y-22365921D02*
X12651212Y-22375445D01*
X12651212Y-22375445D02*
X12613117Y-22375445D01*
X12613117Y-22375445D02*
X12594069Y-22365921D01*
X12803593Y-22375445D02*
X12784545Y-22365921D01*
X12784545Y-22365921D02*
X12775022Y-22346874D01*
X12775022Y-22346874D02*
X12775022Y-22175445D01*
X12965498Y-22375445D02*
X12965498Y-22270683D01*
X12965498Y-22270683D02*
X12955974Y-22251635D01*
X12955974Y-22251635D02*
X12936926Y-22242112D01*
X12936926Y-22242112D02*
X12898831Y-22242112D01*
X12898831Y-22242112D02*
X12879784Y-22251635D01*
X12965498Y-22365921D02*
X12946450Y-22375445D01*
X12946450Y-22375445D02*
X12898831Y-22375445D01*
X12898831Y-22375445D02*
X12879784Y-22365921D01*
X12879784Y-22365921D02*
X12870260Y-22346874D01*
X12870260Y-22346874D02*
X12870260Y-22327826D01*
X12870260Y-22327826D02*
X12879784Y-22308778D01*
X12879784Y-22308778D02*
X12898831Y-22299255D01*
X12898831Y-22299255D02*
X12946450Y-22299255D01*
X12946450Y-22299255D02*
X12965498Y-22289731D01*
X13032165Y-22242112D02*
X13108355Y-22242112D01*
X13060736Y-22175445D02*
X13060736Y-22346874D01*
X13060736Y-22346874D02*
X13070260Y-22365921D01*
X13070260Y-22365921D02*
X13089307Y-22375445D01*
X13089307Y-22375445D02*
X13108355Y-22375445D01*
X13251212Y-22365921D02*
X13232165Y-22375445D01*
X13232165Y-22375445D02*
X13194069Y-22375445D01*
X13194069Y-22375445D02*
X13175022Y-22365921D01*
X13175022Y-22365921D02*
X13165498Y-22346874D01*
X13165498Y-22346874D02*
X13165498Y-22270683D01*
X13165498Y-22270683D02*
X13175022Y-22251635D01*
X13175022Y-22251635D02*
X13194069Y-22242112D01*
X13194069Y-22242112D02*
X13232165Y-22242112D01*
X13232165Y-22242112D02*
X13251212Y-22251635D01*
X13251212Y-22251635D02*
X13260736Y-22270683D01*
X13260736Y-22270683D02*
X13260736Y-22289731D01*
X13260736Y-22289731D02*
X13165498Y-22308778D01*
X13432165Y-22375445D02*
X13432165Y-22175445D01*
X13432165Y-22365921D02*
X13413117Y-22375445D01*
X13413117Y-22375445D02*
X13375022Y-22375445D01*
X13375022Y-22375445D02*
X13355974Y-22365921D01*
X13355974Y-22365921D02*
X13346450Y-22356397D01*
X13346450Y-22356397D02*
X13336926Y-22337350D01*
X13336926Y-22337350D02*
X13336926Y-22280207D01*
X13336926Y-22280207D02*
X13346450Y-22261159D01*
X13346450Y-22261159D02*
X13355974Y-22251635D01*
X13355974Y-22251635D02*
X13375022Y-22242112D01*
X13375022Y-22242112D02*
X13413117Y-22242112D01*
X13413117Y-22242112D02*
X13432165Y-22251635D01*
X13508355Y-22451635D02*
X13517879Y-22442112D01*
X13517879Y-22442112D02*
X13536926Y-22413540D01*
X13536926Y-22413540D02*
X13546450Y-22394493D01*
X13546450Y-22394493D02*
X13555974Y-22365921D01*
X13555974Y-22365921D02*
X13565498Y-22318302D01*
X13565498Y-22318302D02*
X13565498Y-22280207D01*
X13565498Y-22280207D02*
X13555974Y-22232588D01*
X13555974Y-22232588D02*
X13546450Y-22204016D01*
X13546450Y-22204016D02*
X13536926Y-22184969D01*
X13536926Y-22184969D02*
X13517879Y-22156397D01*
X13517879Y-22156397D02*
X13508355Y-22146874D01*
M02*
