M48
; DRILL file {KiCad 8.0.5} date 2024-10-09T17:31:27+0200
; FORMAT={-:-/ absolute / metric / decimal}
; #@! TF.CreationDate,2024-10-09T17:31:27+02:00
; #@! TF.GenerationSoftware,Kicad,Pcbnew,8.0.5
; #@! TF.FileFunction,Plated,1,4,PTH
FMAT,2
METRIC
; #@! TA.AperFunction,Plated,PTH,ViaDrill
T1C0.400
; #@! TA.AperFunction,Plated,PTH,ComponentDrill
T2C0.600
; #@! TA.AperFunction,Plated,PTH,ComponentDrill
T3C1.500
%
G90
G05
T1
X71.605Y-124.813
X72.59Y-124.987
X74.904Y-106.102
X75.889Y-106.276
X80.983Y-96.556
X82.0Y-96.75
X84.293Y-119.08
X84.469Y-118.095
X86.986Y-146.819
X87.619Y-100.221
X87.735Y-99.227
X87.971Y-146.993
X89.287Y-149.822
X90.269Y-150.012
X90.286Y-128.108
X91.271Y-128.281
X92.601Y-131.044
X93.579Y-131.253
X93.585Y-109.396
X94.57Y-109.57
X95.975Y-112.346
X96.884Y-90.685
X96.954Y-112.546
X97.869Y-90.859
X99.677Y-141.073
X99.877Y-140.093
X100.277Y-128.6
X101.26Y-128.786
X102.976Y-122.362
X103.159Y-121.378
X103.576Y-109.889
X104.56Y-110.066
X106.276Y-103.65
X106.461Y-102.667
X106.523Y-145.44
X106.95Y-91.19
X107.177Y-90.217
X107.507Y-145.614
X109.822Y-126.729
X110.807Y-126.903
X111.823Y-135.967
X112.329Y-130.218
X112.808Y-136.141
X113.121Y-108.018
X113.314Y-130.391
X114.106Y-108.191
X115.123Y-117.256
X115.629Y-111.506
X116.107Y-117.429
X116.421Y-89.306
X116.613Y-111.68
X117.405Y-89.48
X118.348Y-98.531
X118.798Y-92.67
X119.333Y-98.705
X119.509Y-139.746
X119.646Y-138.746
X119.781Y-92.852
X122.71Y-121.018
X122.884Y-120.033
X125.91Y-102.289
X126.053Y-101.299
X126.059Y-144.062
X127.044Y-144.236
X128.408Y-147.076
X129.358Y-125.351
X129.391Y-147.259
X130.343Y-125.524
X131.723Y-128.296
X132.657Y-106.639
X132.688Y-128.557
X133.642Y-106.813
X134.679Y-170.122
X134.885Y-172.966
X135.022Y-109.584
X135.083Y-169.149
X135.25Y-172.0
X135.632Y-144.481
X135.822Y-143.499
X135.957Y-87.928
X136.007Y-109.757
X136.942Y-88.102
X137.337Y-149.869
X137.511Y-148.884
X138.996Y-138.359
X139.146Y-137.346
X139.399Y-125.852
X140.384Y-126.021
X142.295Y-119.648
X142.48Y-118.665
X142.698Y-107.14
X143.446Y-174.446
X143.675Y-107.352
X143.84Y-173.456
X143.945Y-152.039
X144.93Y-152.213
X145.351Y-155.104
X145.594Y-100.937
X145.762Y-99.951
X145.997Y-88.429
X146.328Y-155.313
X146.972Y-88.652
X147.245Y-133.328
X148.229Y-133.501
X149.139Y-142.597
X149.588Y-136.737
X150.124Y-142.771
X150.544Y-114.616
X150.6Y-137.0
X151.529Y-114.79
X152.455Y-123.788
X152.905Y-117.927
X153.44Y-123.961
X153.453Y-179.704
X153.694Y-178.037
X153.839Y-95.618
X153.9Y-118.1
X154.203Y-177.176
X154.332Y-180.18
X154.875Y-95.785
X155.79Y-104.879
X156.239Y-99.018
X156.774Y-105.053
X156.888Y-146.591
X157.053Y-145.605
X157.3Y-99.2
X160.187Y-127.88
X160.374Y-126.898
X161.715Y-183.837
X162.078Y-160.06
X162.263Y-183.0
X163.063Y-160.233
X163.53Y-108.922
X163.661Y-107.931
X164.492Y-163.013
X165.377Y-141.348
X165.464Y-163.25
X166.362Y-141.522
X167.791Y-144.302
X168.677Y-122.637
X168.76Y-144.549
X169.662Y-122.811
X170.818Y-165.003
X170.874Y-192.04
X171.091Y-125.591
X171.428Y-189.186
X171.556Y-191.25
X171.801Y-165.186
X171.98Y-103.627
X172.07Y-125.792
X172.111Y-188.455
X173.007Y-103.796
X174.793Y-154.178
X174.998Y-153.199
X175.467Y-141.858
X176.439Y-142.092
X178.092Y-135.467
X178.277Y-134.484
X178.766Y-123.147
X178.849Y-195.5
X179.544Y-194.75
X179.752Y-123.315
X181.391Y-116.755
X181.579Y-115.773
X182.066Y-104.435
X183.053Y-104.596
X183.446Y-134.146
X183.546Y-133.146
X187.046Y-112.946
X189.5Y-137.0
X190.5Y-137.0
X191.3Y-106.6
X191.3Y-107.7
X196.846Y-178.913
X196.846Y-179.913
X199.2Y-133.496
X199.25Y-146.75
X200.296Y-146.75
X200.3Y-133.496
X200.906Y-123.773
X200.908Y-124.773
X203.546Y-121.946
X203.546Y-122.946
X203.696Y-143.257
X203.75Y-146.25
X204.25Y-148.0
X204.25Y-149.025
X204.75Y-143.25
X204.75Y-146.25
X204.996Y-126.157
X205.096Y-115.183
X205.25Y-139.25
X205.6Y-109.0
X205.996Y-126.157
X206.096Y-115.195
X206.2Y-110.9
X206.25Y-139.25
X206.6Y-101.6
X206.946Y-130.246
X206.946Y-131.246
X206.996Y-126.157
X207.504Y-136.016
X207.6Y-106.5
X207.721Y-125.45
X207.746Y-135.046
X208.116Y-151.132
X208.147Y-128.677
X208.48Y-124.799
X208.516Y-130.216
X208.546Y-131.246
X208.961Y-128.096
X209.0Y-103.4
X209.1Y-113.6
X209.246Y-134.996
X209.346Y-136.046
X209.546Y-124.746
X209.715Y-127.44
X210.529Y-106.467
X210.546Y-126.746
X210.547Y-137.17
X211.2Y-101.6
X211.571Y-137.146
X211.596Y-139.523
X211.9Y-110.9
X212.096Y-116.195
X212.096Y-115.195
X212.296Y-138.75
X212.4Y-106.6
X212.5Y-145.25
X212.5Y-146.25
X213.146Y-130.646
X213.146Y-131.646
X213.496Y-118.557
X213.546Y-117.546
X213.546Y-124.546
X216.398Y-130.92
X216.946Y-131.757
X218.296Y-123.457
X219.296Y-123.445
X221.3Y-131.3
X230.346Y-112.746
X233.946Y-133.346
X234.146Y-134.346
X234.667Y-105.75
X235.652Y-105.576
X236.955Y-195.979
X237.61Y-196.734
X237.966Y-124.461
X238.041Y-107.897
X238.937Y-197.643
X238.951Y-124.287
X239.021Y-107.697
X239.63Y-113.592
X239.684Y-196.977
X240.146Y-147.346
X240.608Y-113.384
X241.222Y-142.926
X241.323Y-126.509
X242.207Y-142.753
X242.304Y-126.314
X242.846Y-132.146
X243.89Y-131.997
X244.0Y-101.7
X244.2Y-102.7
X244.565Y-161.884
X244.657Y-145.418
X245.275Y-190.102
X245.55Y-161.71
X245.646Y-145.246
X245.966Y-190.825
X246.207Y-150.752
X247.197Y-150.606
X248.453Y-164.359
X249.446Y-164.146
X252.597Y-98.019
X253.186Y-183.103
X253.582Y-97.845
X253.734Y-183.94
X254.819Y-185.12
X255.68Y-184.612
X255.853Y-116.484
X256.838Y-116.31
X258.766Y-118.467
X259.109Y-134.949
X260.094Y-134.775
X260.139Y-118.115
X261.966Y-137.167
X262.215Y-94.546
X262.452Y-153.907
X262.5Y-179.0
X263.246Y-94.346
X263.336Y-136.846
X263.436Y-153.733
X263.445Y-178.489
X263.946Y-142.746
X265.333Y-156.14
X265.416Y-113.275
X265.546Y-157.146
X266.38Y-113.009
X268.715Y-131.986
X269.704Y-131.837
X270.484Y-90.042
X271.468Y-89.868
X271.769Y-173.664
X271.944Y-151.014
X272.092Y-174.61
X272.125Y-151.998
X272.913Y-175.783
X273.733Y-92.058
X273.739Y-108.507
X273.877Y-175.514
X274.724Y-108.333
X274.746Y-91.846
X275.246Y-97.746
X276.3Y-97.546
X276.995Y-126.972
X277.113Y-110.654
X277.98Y-126.798
X278.105Y-110.525
X278.709Y-116.379
X279.485Y-170.463
X279.68Y-116.141
X280.295Y-145.683
X280.423Y-170.117
X280.43Y-129.463
X281.279Y-145.51
X281.446Y-129.346
X281.954Y-134.648
X282.935Y-134.454
X283.815Y-148.376
X284.805Y-148.238
X290.222Y-91.131
X291.207Y-90.957
X293.478Y-109.596
X294.463Y-109.422
X296.266Y-111.867
X296.778Y-128.307
X297.657Y-111.502
X297.763Y-128.133
X299.566Y-130.567
X299.736Y-87.93
X300.12Y-147.265
X300.746Y-87.746
X300.959Y-130.21
X301.105Y-147.091
X302.866Y-149.367
X303.036Y-106.641
X304.027Y-106.508
X304.157Y-148.95
X306.236Y-125.37
X307.211Y-125.145
X309.759Y-92.509
X310.743Y-92.335
X311.012Y-148.86
X312.003Y-148.724
X313.015Y-110.974
X313.057Y-94.517
X313.999Y-110.801
X314.046Y-94.346
X314.646Y-100.346
X315.65Y-100.152
X316.357Y-129.932
X316.365Y-113.277
X317.342Y-129.758
X317.346Y-113.046
X317.953Y-118.965
X318.932Y-118.765
X319.657Y-148.643
X319.699Y-132.186
X320.641Y-148.47
X320.689Y-132.04
X321.283Y-137.858
X322.266Y-137.673
X331.781Y-108.165
X332.766Y-107.992
X335.017Y-109.869
X335.037Y-126.631
X336.022Y-126.457
X336.059Y-109.694
X338.316Y-128.581
X339.297Y-128.386
X341.394Y-104.947
X342.378Y-104.772
T3
X74.543Y-117.881
X77.851Y-99.12
X81.238Y-116.482
X84.546Y-97.722
X89.99Y-139.949
X93.298Y-121.188
X96.606Y-102.428
X96.685Y-138.55
X99.914Y-83.667
X99.993Y-119.789
X103.301Y-101.029
X106.609Y-82.268
X109.578Y-138.567
X112.886Y-119.806
X116.194Y-101.045
X116.272Y-137.168
X119.502Y-82.285
X119.58Y-118.407
X122.888Y-99.647
X126.196Y-80.886
X129.165Y-137.184
X132.473Y-118.424
X135.781Y-99.663
X135.86Y-135.786
X138.516Y-165.15
X139.089Y-80.903
X139.168Y-117.025
X142.476Y-98.264
X145.351Y-164.935
X145.784Y-79.504
X147.099Y-145.183
X150.407Y-126.422
X153.715Y-107.661
X153.793Y-143.784
X157.023Y-88.901
X157.101Y-125.023
X158.487Y-173.871
X160.409Y-106.263
X163.717Y-87.502
X165.032Y-153.181
X165.256Y-174.846
X168.34Y-134.42
X171.648Y-115.66
X171.727Y-151.782
X174.956Y-96.899
X175.035Y-133.021
X176.772Y-185.853
X178.343Y-114.261
X181.651Y-95.5
X183.269Y-187.989
X234.797Y-190.591
X235.057Y-98.129
X238.029Y-184.563
X238.365Y-116.889
X240.87Y-94.525
X241.673Y-135.65
X244.178Y-113.285
X244.981Y-154.411
X247.486Y-132.046
X250.794Y-150.806
X252.224Y-177.595
X252.991Y-90.131
X256.299Y-108.891
X256.453Y-172.22
X258.803Y-86.527
X259.607Y-127.652
X262.111Y-105.287
X262.915Y-146.412
X265.419Y-124.048
X268.727Y-142.808
X270.924Y-82.132
X271.706Y-167.788
X274.232Y-100.893
X276.737Y-78.528
X276.804Y-163.229
X277.54Y-119.654
X280.045Y-97.289
X280.848Y-138.414
X283.353Y-116.05
X286.661Y-134.81
X290.512Y-83.515
X293.82Y-102.275
X296.324Y-79.911
X297.128Y-121.036
X299.632Y-98.671
X300.436Y-139.796
X302.94Y-117.432
X306.248Y-136.192
X310.099Y-84.897
X313.407Y-103.657
X315.912Y-81.293
X316.715Y-122.418
X319.22Y-100.053
X320.023Y-141.179
X322.528Y-118.814
X325.836Y-137.574
X332.161Y-100.343
X335.469Y-119.104
X337.974Y-96.739
X341.282Y-115.5
T2
G00X204.726Y-100.952
M15
G01X204.726Y-100.152
M16
G05
G00X204.726Y-105.282
M15
G01X204.726Y-104.182
M16
G05
G00X213.366Y-100.952
M15
G01X213.366Y-100.152
M16
G05
G00X213.366Y-105.282
M15
G01X213.366Y-104.182
M16
G05
M30
