%TF.GenerationSoftware,KiCad,Pcbnew,8.0.5*%
%TF.CreationDate,2024-10-09T17:29:06+02:00*%
%TF.ProjectId,plate,706c6174-652e-46b6-9963-61645f706362,A*%
%TF.SameCoordinates,Original*%
%TF.FileFunction,Profile,NP*%
%FSLAX46Y46*%
G04 Gerber Fmt 4.6, Leading zero omitted, Abs format (unit mm)*
G04 Created by KiCad (PCBNEW 8.0.5) date 2024-10-09 17:29:06*
%MOMM*%
%LPD*%
G01*
G04 APERTURE LIST*
%TA.AperFunction,Profile*%
%ADD10C,0.100000*%
%TD*%
G04 APERTURE END LIST*
D10*
X282994961Y-152939670D02*
G75*
G02*
X283806111Y-151781164I984839J173670D01*
G01*
X321881571Y-75006172D02*
X305596303Y-77874582D01*
X73481481Y-90026815D02*
X90500000Y-93000000D01*
X237333552Y-204626915D02*
X224997202Y-190162045D01*
X293942641Y-149993873D02*
X283806120Y-151781214D01*
X104243619Y-150633789D02*
X120985350Y-153585808D01*
X94592230Y-75828275D02*
G75*
G02*
X95750697Y-75017060I984770J-173525D01*
G01*
X66495033Y-129675188D02*
G75*
G02*
X65683831Y-128516723I173567J984788D01*
G01*
X262671544Y-76304536D02*
G75*
G02*
X263482699Y-75146055I984856J173636D01*
G01*
X316186438Y-155210530D02*
G75*
G02*
X315027976Y-154399372I-173638J984830D01*
G01*
X223161054Y-94933318D02*
G75*
G02*
X219984358Y-97938983I-3332454J340518D01*
G01*
X351137225Y-129664244D02*
X334113366Y-132662667D01*
X333302206Y-133821123D02*
G75*
G02*
X334113373Y-132662707I984794J173623D01*
G01*
X154109497Y-75146079D02*
G75*
G02*
X154920632Y-76304532I-173697J-984821D01*
G01*
X83518892Y-132673611D02*
G75*
G02*
X84330075Y-133832071I-173592J-984789D01*
G01*
X313348581Y-150633789D02*
G75*
G02*
X314507006Y-151444954I173619J-984811D01*
G01*
X72323025Y-90837975D02*
G75*
G02*
X73481478Y-90026834I984775J-173625D01*
G01*
X132733941Y-75438699D02*
X133254886Y-72484276D01*
X323040028Y-75817331D02*
X325973802Y-92177896D01*
X244828438Y-84527889D02*
G75*
G02*
X245639595Y-83369423I984762J173689D01*
G01*
X122143807Y-152774647D02*
X122491103Y-150805033D01*
X302758447Y-73297840D02*
G75*
G02*
X303916870Y-74109005I173653J-984760D01*
G01*
X321881571Y-75006172D02*
G75*
G02*
X323040055Y-75817326I173729J-984728D01*
G01*
X82126492Y-151813386D02*
X101405762Y-155210530D01*
X84330052Y-133832067D02*
X81315333Y-150654929D01*
X223161054Y-94933318D02*
G75*
G02*
X225969174Y-91879603I3559446J-455182D01*
G01*
X113154353Y-77063423D02*
X113675297Y-74108999D01*
X180258648Y-204626914D02*
X192602797Y-190157278D01*
X238569476Y-204856916D02*
G75*
G02*
X290289028Y-175180489I83064624J-84857384D01*
G01*
X262381329Y-80417415D02*
X245639597Y-83369433D01*
X284858259Y-75438699D02*
X284337314Y-72484276D01*
X302758447Y-73297840D02*
X286016715Y-76249859D01*
X327132258Y-92989056D02*
G75*
G02*
X325973832Y-92177891I-173658J984756D01*
G01*
X180258648Y-204626914D02*
G75*
G02*
X179022740Y-204856892I-735148J514814D01*
G01*
X262671544Y-76304536D02*
X263192488Y-79258959D01*
X171952603Y-83369433D02*
G75*
G02*
X172763752Y-84527887I-173603J-984767D01*
G01*
X333302206Y-133821123D02*
X336316925Y-150643985D01*
X336316925Y-150643985D02*
G75*
G02*
X335505768Y-151802451I-984725J-173715D01*
G01*
X290886700Y-173898767D02*
G75*
G02*
X290289033Y-175180500I-939700J-342033D01*
G01*
X66495033Y-129675188D02*
X83518892Y-132673611D01*
X154920656Y-76304536D02*
X154399712Y-79258959D01*
X238569476Y-204856916D02*
G75*
G02*
X237333529Y-204626931I-500776J744816D01*
G01*
X283178859Y-71673116D02*
G75*
G02*
X284337288Y-72484281I173641J-984784D01*
G01*
X102564218Y-154399371D02*
X103085163Y-151444949D01*
X132733941Y-75438699D02*
G75*
G02*
X131575471Y-76249936I-984841J173599D01*
G01*
X127303174Y-175180480D02*
G75*
G02*
X179022724Y-204856915I-31345094J-114533820D01*
G01*
X127303174Y-175180480D02*
G75*
G02*
X126705520Y-173898774I342026J939680D01*
G01*
X113154353Y-77063423D02*
G75*
G02*
X111995884Y-77874654I-984853J173623D01*
G01*
X345309233Y-90827031D02*
X351948384Y-128505787D01*
X134597239Y-152939670D02*
X126705500Y-173898767D01*
X172763762Y-84527889D02*
X172242818Y-87482312D01*
X173053978Y-88640769D02*
X191620128Y-91895703D01*
X173053978Y-88640769D02*
G75*
G02*
X172242842Y-87482316I173622J984769D01*
G01*
X197604944Y-97955074D02*
X219984358Y-97938976D01*
X283178859Y-71673116D02*
X263482703Y-75146079D01*
X304437847Y-77063423D02*
X303916903Y-74108999D01*
X344150777Y-90015871D02*
G75*
G02*
X345309255Y-90827027I173723J-984729D01*
G01*
X103085163Y-151444949D02*
G75*
G02*
X104243624Y-150633758I984837J-173651D01*
G01*
X305596303Y-77874582D02*
G75*
G02*
X304437919Y-77063410I-173603J984782D01*
G01*
X113675297Y-74108999D02*
G75*
G02*
X114833759Y-73297807I984803J-173601D01*
G01*
X102564218Y-154399371D02*
G75*
G02*
X101405763Y-155210524I-984818J173671D01*
G01*
X122143807Y-152774647D02*
G75*
G02*
X120985350Y-153585807I-984807J173647D01*
G01*
X122491103Y-150805033D02*
G75*
G02*
X123649554Y-149993901I984797J-173667D01*
G01*
X296606850Y-153585808D02*
G75*
G02*
X295448392Y-152774647I-173650J984808D01*
G01*
X286016715Y-76249859D02*
G75*
G02*
X284858336Y-75438685I-173615J984759D01*
G01*
X94592230Y-75828275D02*
X91658456Y-92188840D01*
X263192488Y-79258959D02*
G75*
G02*
X262381325Y-80417391I-984788J-173641D01*
G01*
X82126492Y-151813386D02*
G75*
G02*
X81315325Y-150654928I173608J984786D01*
G01*
X72323025Y-90837975D02*
X65683874Y-128516731D01*
X313348581Y-150633789D02*
X296606850Y-153585808D01*
X95750687Y-75017116D02*
X111995897Y-77874582D01*
X133254886Y-72484276D02*
G75*
G02*
X134413346Y-71673090I984814J-173624D01*
G01*
X155210871Y-80417415D02*
X171952603Y-83369433D01*
X133786080Y-151781214D02*
G75*
G02*
X134597189Y-152939661I-173680J-984786D01*
G01*
X222883771Y-189202383D02*
G75*
G02*
X224997209Y-190162038I-145571J-3127617D01*
G01*
X197604944Y-97955074D02*
G75*
G02*
X194428255Y-94949415I155756J3346174D01*
G01*
X155210871Y-80417415D02*
G75*
G02*
X154399688Y-79258955I173629J984815D01*
G01*
X335505766Y-151802442D02*
X316186438Y-155210530D01*
X351948384Y-128505787D02*
G75*
G02*
X351137220Y-129664218I-984684J-173713D01*
G01*
X91658456Y-92188840D02*
G75*
G02*
X90500009Y-92999947I-984756J173640D01*
G01*
X123649559Y-149993873D02*
X133786080Y-151781214D01*
X315027982Y-154399371D02*
X314507037Y-151444949D01*
X194716228Y-189197616D02*
X222883771Y-189202383D01*
X114833753Y-73297840D02*
X131575485Y-76249859D01*
X293942641Y-149993873D02*
G75*
G02*
X295101125Y-150805028I173659J-984827D01*
G01*
X344150777Y-90015871D02*
X327132258Y-92989056D01*
X192602797Y-190157278D02*
G75*
G02*
X194716228Y-189197615I2259003J-2167922D01*
G01*
X282994961Y-152939670D02*
X290886700Y-173898767D01*
X244828438Y-84527889D02*
X245349382Y-87482312D01*
X191620128Y-91895703D02*
G75*
G02*
X194428247Y-94949416I-751328J-3508897D01*
G01*
X244538222Y-88640769D02*
X225969174Y-91879605D01*
X245349382Y-87482312D02*
G75*
G02*
X244538226Y-88640793I-984782J-173688D01*
G01*
X134413341Y-71673116D02*
X154109497Y-75146079D01*
X295448393Y-152774647D02*
X295101097Y-150805033D01*
%TO.C,SW452*%
X344458000Y-107857044D02*
X330670692Y-110288118D01*
X328239617Y-96500810D01*
X342026926Y-94069735D01*
X344458000Y-107857044D01*
%TO.C,SW412*%
X120993908Y-136045656D02*
X118562834Y-149832964D01*
X104775525Y-147401890D01*
X107206600Y-133614581D01*
X120993908Y-136045656D01*
%TO.C,SW442*%
X285120560Y-173052079D02*
X271964863Y-177840361D01*
X267176581Y-164684664D01*
X280332278Y-159896382D01*
X285120560Y-173052079D01*
%TO.C,SW420*%
X161823080Y-123901064D02*
X159392006Y-137688372D01*
X145604697Y-135257298D01*
X148035772Y-121469989D01*
X161823080Y-123901064D01*
%TO.C,SW422*%
X170077102Y-175406433D02*
X163077102Y-187530789D01*
X150952747Y-180530789D01*
X157952747Y-168406433D01*
X170077102Y-175406433D01*
%TO.C,SW405*%
X111330312Y-81146041D02*
X108899238Y-94933349D01*
X95111929Y-92502275D01*
X97543004Y-78714966D01*
X111330312Y-81146041D01*
%TO.C,SW445*%
X309424467Y-128549683D02*
X295637159Y-130980757D01*
X293206084Y-117193449D01*
X306993393Y-114762374D01*
X309424467Y-128549683D01*
%TO.C,SW407*%
X104714318Y-118667213D02*
X102283244Y-132454521D01*
X88495935Y-130023447D01*
X90927010Y-116236138D01*
X104714318Y-118667213D01*
%TO.C,SW441*%
X293144879Y-145928120D02*
X279357571Y-148359194D01*
X276926496Y-134571886D01*
X290713805Y-132140811D01*
X293144879Y-145928120D01*
%TO.C,SW453*%
X347766000Y-126617629D02*
X333978692Y-129048703D01*
X331547617Y-115261395D01*
X345334926Y-112830320D01*
X347766000Y-126617629D01*
%TO.C,SW432*%
X249203370Y-190949719D02*
X238478748Y-199948745D01*
X229479722Y-189224123D01*
X240204344Y-180225097D01*
X249203370Y-190949719D01*
%TO.C,SW402*%
X89267643Y-96599412D02*
X86836569Y-110386720D01*
X73049260Y-107955646D01*
X75480335Y-94168337D01*
X89267643Y-96599412D01*
%TO.C,SW446*%
X312732465Y-147310272D02*
X298945157Y-149741346D01*
X296514082Y-135954038D01*
X310301391Y-133522963D01*
X312732465Y-147310272D01*
%TO.C,SW433*%
X265287296Y-97644503D02*
X251499988Y-100075577D01*
X249068913Y-86288269D01*
X262856222Y-83857194D01*
X265287296Y-97644503D01*
%TO.C,SW428*%
X247353708Y-105642647D02*
X233566400Y-108073721D01*
X231135325Y-94286413D01*
X244922634Y-91855338D01*
X247353708Y-105642647D01*
%TO.C,SW424*%
X183064665Y-113138619D02*
X180633591Y-126925927D01*
X166846282Y-124494853D01*
X169277357Y-110707544D01*
X183064665Y-113138619D01*
%TO.C,SW416*%
X140581494Y-134663505D02*
X138150420Y-148450813D01*
X124363111Y-146019739D01*
X126794186Y-132232430D01*
X140581494Y-134663505D01*
%TO.C,SW443*%
X302808472Y-91028509D02*
X289021164Y-93459583D01*
X286590089Y-79672275D01*
X300377398Y-77241200D01*
X302808472Y-91028509D01*
%TO.C,SW437*%
X266348512Y-180449829D02*
X254224157Y-187449829D01*
X247224157Y-175325473D01*
X259348512Y-168325473D01*
X266348512Y-180449829D01*
%TO.C,SW403*%
X85959645Y-115360003D02*
X83528571Y-129147311D01*
X69741262Y-126716237D01*
X72172337Y-112928928D01*
X85959645Y-115360003D01*
%TO.C,SW406*%
X108022314Y-99906628D02*
X105591240Y-113693936D01*
X91803931Y-111262862D01*
X94235006Y-97475553D01*
X108022314Y-99906628D01*
%TO.C,SW447*%
X322396058Y-92410656D02*
X308608750Y-94841730D01*
X306177675Y-81054422D01*
X319964984Y-78623347D01*
X322396058Y-92410656D01*
%TO.C,SW440*%
X289836881Y-127167534D02*
X276049573Y-129598608D01*
X273618498Y-115811300D01*
X287405807Y-113380225D01*
X289836881Y-127167534D01*
%TO.C,SW450*%
X332320052Y-148692420D02*
X318532744Y-151123494D01*
X316101669Y-137336186D01*
X329888978Y-134905111D01*
X332320052Y-148692420D01*
%TO.C,SW444*%
X306116469Y-109789093D02*
X292329161Y-112220167D01*
X289898086Y-98432859D01*
X303685395Y-96001784D01*
X306116469Y-109789093D01*
%TO.C,SW429*%
X250661706Y-124403236D02*
X236874398Y-126834310D01*
X234443323Y-113047002D01*
X248230632Y-110615927D01*
X250661706Y-124403236D01*
%TO.C,SW439*%
X286528883Y-108406946D02*
X272741575Y-110838020D01*
X270310500Y-97050712D01*
X284097809Y-94619637D01*
X286528883Y-108406946D01*
%TO.C,SW436*%
X275211290Y-153926265D02*
X261423982Y-156357339D01*
X258992907Y-142570031D01*
X272780216Y-140138956D01*
X275211290Y-153926265D01*
%TO.C,SW417*%
X150196001Y-164649784D02*
X145407720Y-177805481D01*
X132252024Y-173017199D01*
X137040306Y-159861501D01*
X150196001Y-164649784D01*
%TO.C,SW414*%
X147197491Y-97142329D02*
X144766417Y-110929637D01*
X130979108Y-108498563D01*
X133410183Y-94711254D01*
X147197491Y-97142329D01*
%TO.C,SW438*%
X283220885Y-89646357D02*
X269433577Y-92077431D01*
X267002502Y-78290123D01*
X280789811Y-75859048D01*
X283220885Y-89646357D01*
%TO.C,SW434*%
X268595294Y-116405091D02*
X254807986Y-118836165D01*
X252376911Y-105048857D01*
X266164220Y-102617782D01*
X268595294Y-116405091D01*
%TO.C,SW430*%
X253969704Y-143163822D02*
X240182396Y-145594896D01*
X237751321Y-131807588D01*
X251538630Y-129376513D01*
X253969704Y-143163822D01*
%TO.C,SW421*%
X158515081Y-142661650D02*
X156084007Y-156448958D01*
X142296698Y-154017884D01*
X144727773Y-140230575D01*
X158515081Y-142661650D01*
%TO.C,SW411*%
X124301904Y-117285065D02*
X121870830Y-131072373D01*
X108083521Y-128641299D01*
X110514596Y-114853990D01*
X124301904Y-117285065D01*
%TO.C,SW427*%
X187919480Y-189378095D02*
X178920454Y-200102717D01*
X168195831Y-191103691D01*
X177194858Y-180379069D01*
X187919480Y-189378095D01*
%TO.C,SW448*%
X325704056Y-111171245D02*
X311916748Y-113602319D01*
X309485673Y-99815011D01*
X323272982Y-97383936D01*
X325704056Y-111171245D01*
%TO.C,SW431*%
X257277702Y-161924410D02*
X243490394Y-164355484D01*
X241059319Y-150568176D01*
X254846628Y-148137101D01*
X257277702Y-161924410D01*
%TO.C,SW408*%
X101406321Y-137427803D02*
X98975247Y-151215111D01*
X85187938Y-148784037D01*
X87619013Y-134996728D01*
X101406321Y-137427803D01*
%TO.C,SW435*%
X271903292Y-135165677D02*
X258115984Y-137596751D01*
X255684909Y-123809443D01*
X269472218Y-121378368D01*
X271903292Y-135165677D01*
%TO.C,SW410*%
X127609901Y-98524479D02*
X125178827Y-112311787D01*
X111391518Y-109880713D01*
X113822593Y-96093404D01*
X127609901Y-98524479D01*
%TO.C,SW409*%
X130917899Y-79763892D02*
X128486825Y-93551200D01*
X114699516Y-91120126D01*
X117130591Y-77332817D01*
X130917899Y-79763892D01*
%TO.C,SW423*%
X186372664Y-94378030D02*
X183941590Y-108165338D01*
X170154281Y-105734264D01*
X172585356Y-91946955D01*
X186372664Y-94378030D01*
%TO.C,SW418*%
X168439076Y-86379886D02*
X166008002Y-100167194D01*
X152220693Y-97736120D01*
X154651768Y-83948811D01*
X168439076Y-86379886D01*
%TO.C,SW413*%
X150505486Y-78381742D02*
X148074412Y-92169050D01*
X134287103Y-89737976D01*
X136718178Y-75950667D01*
X150505486Y-78381742D01*
%TO.C,SW425*%
X179756667Y-131899206D02*
X177325593Y-145686514D01*
X163538284Y-143255440D01*
X165969359Y-129468131D01*
X179756667Y-131899206D01*
%TO.C,SW426*%
X176448671Y-150659794D02*
X174017597Y-164447102D01*
X160230288Y-162016028D01*
X162661363Y-148228719D01*
X176448671Y-150659794D01*
%TO.C,SW449*%
X329012054Y-129931831D02*
X315224746Y-132362905D01*
X312793671Y-118575597D01*
X326580980Y-116144522D01*
X329012054Y-129931831D01*
%TO.C,SW415*%
X143889493Y-115902917D02*
X141458419Y-129690225D01*
X127671110Y-127259151D01*
X130102185Y-113471842D01*
X143889493Y-115902917D01*
%TO.C,SW419*%
X165131078Y-105140473D02*
X162700004Y-118927781D01*
X148912695Y-116496707D01*
X151343770Y-102709398D01*
X165131078Y-105140473D01*
%TD*%
M02*
