%TF.GenerationSoftware,KiCad,Pcbnew,8.0.0*%
%TF.CreationDate,2024-04-28T13:48:32+02:00*%
%TF.ProjectId,phnx,70686e78-2e6b-4696-9361-645f70636258,A*%
%TF.SameCoordinates,Original*%
%TF.FileFunction,Profile,NP*%
%FSLAX46Y46*%
G04 Gerber Fmt 4.6, Leading zero omitted, Abs format (unit mm)*
G04 Created by KiCad (PCBNEW 8.0.0) date 2024-04-28 13:48:32*
%MOMM*%
%LPD*%
G01*
G04 APERTURE LIST*
%TA.AperFunction,Profile*%
%ADD10C,0.100000*%
%TD*%
%TA.AperFunction,Profile*%
%ADD11C,0.050000*%
%TD*%
G04 APERTURE END LIST*
D10*
X282994962Y-152939670D02*
G75*
G02*
X283806111Y-151781165I984838J173670D01*
G01*
X237333552Y-204626915D02*
X224997202Y-190162045D01*
X293942641Y-149993873D02*
X283806120Y-151781214D01*
X104243619Y-150633789D02*
X120985350Y-153585808D01*
X262671544Y-76304536D02*
G75*
G02*
X263482699Y-75146056I984856J173636D01*
G01*
X316186438Y-155210530D02*
G75*
G02*
X315027976Y-154399372I-173638J984830D01*
G01*
X223161054Y-94933318D02*
G75*
G02*
X219984358Y-97938983I-3332454J340518D01*
G01*
X154109497Y-75146080D02*
G75*
G02*
X154920632Y-76304532I-173697J-984820D01*
G01*
X313348581Y-150633789D02*
G75*
G02*
X314507006Y-151444954I173619J-984811D01*
G01*
X132733941Y-75438699D02*
X133254886Y-72484276D01*
X349912652Y-70060415D02*
G75*
G02*
X351071090Y-70871577I173648J-984785D01*
G01*
X244828438Y-84527889D02*
G75*
G02*
X245639595Y-83369423I984762J173689D01*
G01*
X122143807Y-152774647D02*
X122491103Y-150805033D01*
X302758447Y-73297841D02*
G75*
G02*
X303916869Y-74109005I173653J-984759D01*
G01*
X54134990Y-146875419D02*
X101405762Y-155210530D01*
X223161054Y-94933318D02*
G75*
G02*
X225969174Y-91879604I3559446J-455182D01*
G01*
X113154353Y-77063423D02*
X113675297Y-74108999D01*
X351071108Y-70871574D02*
X364268369Y-145716962D01*
X180258648Y-204626914D02*
X192602797Y-190157278D01*
X238569476Y-204856916D02*
G75*
G02*
X290289028Y-175180489I83064624J-84857384D01*
G01*
X262381329Y-80417415D02*
X245639597Y-83369433D01*
X284858259Y-75438699D02*
X284337314Y-72484276D01*
X302758447Y-73297840D02*
X286016715Y-76249859D01*
X180258648Y-204626914D02*
G75*
G02*
X179022740Y-204856892I-735148J514814D01*
G01*
X262671544Y-76304536D02*
X263192488Y-79258959D01*
X171952603Y-83369433D02*
G75*
G02*
X172763752Y-84527887I-173603J-984767D01*
G01*
X290886700Y-173898767D02*
G75*
G02*
X290289033Y-175180500I-939700J-342033D01*
G01*
X154920656Y-76304536D02*
X154399712Y-79258959D01*
X238569476Y-204856915D02*
G75*
G02*
X237333530Y-204626931I-500776J744815D01*
G01*
X283178859Y-71673116D02*
G75*
G02*
X284337287Y-72484281I173641J-984784D01*
G01*
X102564218Y-154399371D02*
X103085163Y-151444949D01*
X132733941Y-75438699D02*
G75*
G02*
X131575471Y-76249936I-984841J173599D01*
G01*
X127303174Y-175180481D02*
G75*
G02*
X179022723Y-204856916I-31345094J-114533819D01*
G01*
X66521092Y-70871574D02*
G75*
G02*
X67679551Y-70060397I984808J-173626D01*
G01*
X127303174Y-175180480D02*
G75*
G02*
X126705520Y-173898774I342026J939680D01*
G01*
X113154353Y-77063423D02*
G75*
G02*
X111995884Y-77874654I-984853J173623D01*
G01*
X134597239Y-152939670D02*
X126705500Y-173898767D01*
X172763762Y-84527889D02*
X172242818Y-87482312D01*
X173053978Y-88640769D02*
X191620128Y-91895703D01*
X173053978Y-88640769D02*
G75*
G02*
X172242842Y-87482316I173622J984769D01*
G01*
X197604944Y-97955074D02*
X219984358Y-97938976D01*
X283178859Y-71673116D02*
X263482703Y-75146079D01*
X304437847Y-77063423D02*
X303916903Y-74108999D01*
X103085163Y-151444949D02*
G75*
G02*
X104243624Y-150633759I984837J-173651D01*
G01*
X305596303Y-77874581D02*
G75*
G02*
X304437920Y-77063410I-173603J984781D01*
G01*
X364268369Y-145716962D02*
G75*
G02*
X363457202Y-146875375I-984769J-173638D01*
G01*
X113675297Y-74108999D02*
G75*
G02*
X114833759Y-73297807I984803J-173601D01*
G01*
X102564218Y-154399371D02*
G75*
G02*
X101405763Y-155210524I-984818J173671D01*
G01*
X122143807Y-152774647D02*
G75*
G02*
X120985350Y-153585806I-984807J173647D01*
G01*
X122491104Y-150805033D02*
G75*
G02*
X123649554Y-149993901I984796J-173667D01*
G01*
X296606850Y-153585807D02*
G75*
G02*
X295448392Y-152774647I-173650J984807D01*
G01*
X286016715Y-76249859D02*
G75*
G02*
X284858336Y-75438685I-173615J984759D01*
G01*
X66521092Y-70871574D02*
X53323831Y-145716962D01*
X263192488Y-79258959D02*
G75*
G02*
X262381325Y-80417391I-984788J-173641D01*
G01*
X313348581Y-150633789D02*
X296606850Y-153585808D01*
X67679548Y-70060414D02*
X111995897Y-77874582D01*
X363457210Y-146875419D02*
X316186438Y-155210530D01*
X133254887Y-72484276D02*
G75*
G02*
X134413345Y-71673091I984813J-173624D01*
G01*
X155210871Y-80417415D02*
X171952603Y-83369433D01*
X133786080Y-151781214D02*
G75*
G02*
X134597189Y-152939661I-173680J-984786D01*
G01*
X222883771Y-189202384D02*
G75*
G02*
X224997208Y-190162039I-145571J-3127616D01*
G01*
X197604944Y-97955074D02*
G75*
G02*
X194428255Y-94949415I155756J3346174D01*
G01*
X155210871Y-80417414D02*
G75*
G02*
X154399689Y-79258955I173629J984814D01*
G01*
X349912652Y-70060414D02*
X305596303Y-77874582D01*
X123649559Y-149993873D02*
X133786080Y-151781214D01*
X315027982Y-154399371D02*
X314507037Y-151444949D01*
X194716228Y-189197616D02*
X222883771Y-189202383D01*
X114833753Y-73297840D02*
X131575485Y-76249859D01*
X293942641Y-149993874D02*
G75*
G02*
X295101124Y-150805028I173659J-984826D01*
G01*
X54134990Y-146875419D02*
G75*
G02*
X53323788Y-145716954I173610J984819D01*
G01*
X192602797Y-190157278D02*
G75*
G02*
X194716228Y-189197615I2259003J-2167922D01*
G01*
X282994961Y-152939670D02*
X290886700Y-173898767D01*
X244828438Y-84527889D02*
X245349382Y-87482312D01*
X191620128Y-91895703D02*
G75*
G02*
X194428246Y-94949416I-751328J-3508897D01*
G01*
X244538222Y-88640769D02*
X225969174Y-91879605D01*
X245349381Y-87482312D02*
G75*
G02*
X244538226Y-88640792I-984781J-173688D01*
G01*
X134413341Y-71673116D02*
X154109497Y-75146079D01*
X295448393Y-152774647D02*
X295101097Y-150805033D01*
D11*
%TO.C,D536*%
X269657881Y-153600658D02*
X266408015Y-154173697D01*
X265904435Y-151317754D01*
X269154301Y-150744715D01*
X269657881Y-153600658D01*
%TO.C,D521*%
X151325348Y-151360317D02*
X150821768Y-154216260D01*
X147571902Y-153643221D01*
X148075482Y-150787278D01*
X151325348Y-151360317D01*
%TO.C,D510*%
X120501282Y-107338990D02*
X119997702Y-110194933D01*
X116747836Y-109621894D01*
X117251416Y-106765951D01*
X120501282Y-107338990D01*
%TO.C,D537*%
X261118650Y-182216438D02*
X258260766Y-183866438D01*
X256810766Y-181354964D01*
X259668650Y-179704964D01*
X261118650Y-182216438D01*
%TO.C,D541*%
X287544399Y-145623506D02*
X284294533Y-146196545D01*
X283790953Y-143340602D01*
X287040819Y-142767563D01*
X287544399Y-145623506D01*
%TO.C,D548*%
X320234020Y-110742583D02*
X316984154Y-111315622D01*
X316480574Y-108459679D01*
X319730440Y-107886640D01*
X320234020Y-110742583D01*
%TO.C,D531*%
X251771362Y-161577811D02*
X248521496Y-162150850D01*
X248017916Y-159294907D01*
X251267782Y-158721868D01*
X251771362Y-161577811D01*
%TO.C,D553*%
X351630660Y-124676818D02*
X348380794Y-125249857D01*
X347877214Y-122393914D01*
X351127080Y-121820875D01*
X351630660Y-124676818D01*
%TO.C,D554*%
X354934316Y-143412783D02*
X351684450Y-143985822D01*
X351180870Y-141129879D01*
X354430736Y-140556840D01*
X354934316Y-143412783D01*
%TO.C,D552*%
X348331344Y-105965469D02*
X345081478Y-106538508D01*
X344577898Y-103682565D01*
X347827764Y-103109526D01*
X348331344Y-105965469D01*
%TO.C,D509*%
X123800598Y-88627644D02*
X123297018Y-91483587D01*
X120047152Y-90910548D01*
X120550732Y-88054605D01*
X123800598Y-88627644D01*
%TO.C,D547*%
X316934703Y-92031235D02*
X313684837Y-92604274D01*
X313181257Y-89748331D01*
X316431123Y-89175292D01*
X316934703Y-92031235D01*
%TO.C,D535*%
X266315153Y-134643110D02*
X263065287Y-135216149D01*
X262561707Y-132360206D01*
X265811573Y-131787167D01*
X266315153Y-134643110D01*
%TO.C,D522*%
X160370840Y-181078170D02*
X158920840Y-183589644D01*
X156062956Y-181939644D01*
X157512956Y-179428170D01*
X160370840Y-181078170D01*
%TO.C,D507*%
X97665790Y-127428862D02*
X97162210Y-130284805D01*
X93912344Y-129711766D01*
X94415924Y-126855823D01*
X97665790Y-127428862D01*
%TO.C,D505*%
X104264423Y-90006164D02*
X103760843Y-92862107D01*
X100510977Y-92289068D01*
X101014557Y-89433125D01*
X104264423Y-90006164D01*
%TO.C,D538*%
X277616150Y-89317604D02*
X274366284Y-89890643D01*
X273862704Y-87034700D01*
X277112570Y-86461661D01*
X277616150Y-89317604D01*
%TO.C,D517*%
X141664799Y-171949675D02*
X140672942Y-174674784D01*
X137571955Y-173546117D01*
X138563812Y-170821008D01*
X141664799Y-171949675D01*
%TO.C,D511*%
X117201967Y-126050339D02*
X116698387Y-128906282D01*
X113448521Y-128333243D01*
X113952101Y-125477300D01*
X117201967Y-126050339D01*
%TO.C,D533*%
X259716523Y-97220414D02*
X256466657Y-97793453D01*
X255963077Y-94937510D01*
X259212943Y-94364471D01*
X259716523Y-97220414D01*
%TO.C,D506*%
X100965108Y-108717513D02*
X100461528Y-111573456D01*
X97211662Y-111000417D01*
X97715242Y-108144474D01*
X100965108Y-108717513D01*
%TO.C,D524*%
X176056698Y-121958184D02*
X175553118Y-124814127D01*
X172303252Y-124241088D01*
X172806832Y-121385145D01*
X176056698Y-121958184D01*
%TO.C,D518*%
X161266705Y-94980073D02*
X160763125Y-97836016D01*
X157513259Y-97262977D01*
X158016839Y-94407034D01*
X161266705Y-94980073D01*
%TO.C,D549*%
X323533335Y-129453932D02*
X320283469Y-130026971D01*
X319779889Y-127171028D01*
X323029755Y-126597989D01*
X323533335Y-129453932D01*
%TO.C,D514*%
X140037458Y-105960470D02*
X139533878Y-108816413D01*
X136284012Y-108243374D01*
X136787592Y-105387431D01*
X140037458Y-105960470D01*
%TO.C,D543*%
X297398528Y-90652715D02*
X294148662Y-91225754D01*
X293645082Y-88369811D01*
X296894948Y-87796772D01*
X297398528Y-90652715D01*
%TO.C,D527*%
X177537034Y-193397173D02*
X175672950Y-195618702D01*
X173145004Y-193497503D01*
X175009088Y-191275974D01*
X177537034Y-193397173D01*
%TO.C,D503*%
X69598770Y-122479889D02*
X69095190Y-125335832D01*
X65845324Y-124762793D01*
X66348904Y-121906850D01*
X69598770Y-122479889D01*
%TO.C,D515*%
X136738144Y-124671815D02*
X136234564Y-127527758D01*
X132984698Y-126954719D01*
X133488278Y-124098776D01*
X136738144Y-124671815D01*
%TO.C,D523*%
X179399424Y-103000639D02*
X178895844Y-105856582D01*
X175645978Y-105283543D01*
X176149558Y-102427600D01*
X179399424Y-103000639D01*
%TO.C,D525*%
X172757384Y-140669534D02*
X172253804Y-143525477D01*
X169003938Y-142952438D01*
X169507518Y-140096495D01*
X172757384Y-140669534D01*
%TO.C,D550*%
X326862955Y-148337137D02*
X323613089Y-148910176D01*
X323109509Y-146054233D01*
X326359375Y-145481194D01*
X326862955Y-148337137D01*
%TO.C,D516*%
X133438827Y-143383165D02*
X132935247Y-146239108D01*
X129685381Y-145666069D01*
X130188961Y-142810126D01*
X133438827Y-143383165D01*
%TO.C,D542*%
X279706178Y-174147464D02*
X276605191Y-175276131D01*
X275613334Y-172551022D01*
X278714321Y-171422355D01*
X279706178Y-174147464D01*
%TO.C,D501*%
X76197402Y-85057190D02*
X75693822Y-87913133D01*
X72443956Y-87340094D01*
X72947536Y-84484151D01*
X76197402Y-85057190D01*
%TO.C,D529*%
X245129319Y-123908915D02*
X241879453Y-124481954D01*
X241375873Y-121626011D01*
X244625739Y-121052972D01*
X245129319Y-123908915D01*
%TO.C,D546*%
X307326777Y-146958617D02*
X304076911Y-147531656D01*
X303573331Y-144675713D01*
X306823197Y-144102674D01*
X307326777Y-146958617D01*
%TO.C,D532*%
X244550694Y-193747447D02*
X242022748Y-195868646D01*
X240158664Y-193647117D01*
X242686610Y-191525918D01*
X244550694Y-193747447D01*
%TO.C,D508*%
X94366476Y-146140205D02*
X93862896Y-148996148D01*
X90613030Y-148423109D01*
X91116610Y-145567166D01*
X94366476Y-146140205D01*
%TO.C,D530*%
X248428635Y-142620261D02*
X245178769Y-143193300D01*
X244675189Y-140337357D01*
X247925055Y-139764318D01*
X248428635Y-142620261D01*
%TO.C,D519*%
X157923976Y-113937624D02*
X157420396Y-116793567D01*
X154170530Y-116220528D01*
X154674110Y-113364585D01*
X157923976Y-113937624D01*
%TO.C,D526*%
X169458066Y-159380883D02*
X168954486Y-162236826D01*
X165704620Y-161663787D01*
X166208200Y-158807844D01*
X169458066Y-159380883D01*
%TO.C,D544*%
X300684735Y-109289719D02*
X297434869Y-109862758D01*
X296931289Y-107006815D01*
X300181155Y-106433776D01*
X300684735Y-109289719D01*
%TO.C,D512*%
X113902651Y-144761687D02*
X113399071Y-147617630D01*
X110149205Y-147044591D01*
X110652785Y-144188648D01*
X113902651Y-144761687D01*
%TO.C,D502*%
X72971947Y-103781562D02*
X72468367Y-106637505D01*
X69218501Y-106064466D01*
X69722081Y-103208523D01*
X72971947Y-103781562D01*
%TO.C,D539*%
X280902356Y-107954611D02*
X277652490Y-108527650D01*
X277148910Y-105671707D01*
X280398776Y-105098668D01*
X280902356Y-107954611D01*
%TO.C,D513*%
X143336774Y-87249123D02*
X142833194Y-90105066D01*
X139583328Y-89532027D01*
X140086908Y-86676084D01*
X143336774Y-87249123D01*
%TO.C,D504*%
X66299455Y-141191232D02*
X65795875Y-144047175D01*
X62546009Y-143474136D01*
X63049589Y-140618193D01*
X66299455Y-141191232D01*
%TO.C,D520*%
X154624662Y-132648968D02*
X154121082Y-135504911D01*
X150871216Y-134931872D01*
X151374796Y-132075929D01*
X154624662Y-132648968D01*
%TO.C,D534*%
X263015837Y-115931762D02*
X259765971Y-116504801D01*
X259262391Y-113648858D01*
X262512257Y-113075819D01*
X263015837Y-115931762D01*
%TO.C,D551*%
X345122638Y-87228711D02*
X341872772Y-87801750D01*
X341369192Y-84945807D01*
X344619058Y-84372768D01*
X345122638Y-87228711D01*
%TO.C,D528*%
X241843113Y-105271910D02*
X238593247Y-105844949D01*
X238089667Y-102989006D01*
X241339533Y-102415967D01*
X241843113Y-105271910D01*
%TO.C,D545*%
X303984050Y-128001066D02*
X300734184Y-128574105D01*
X300230604Y-125718162D01*
X303480470Y-125145123D01*
X303984050Y-128001066D01*
%TO.C,D540*%
X284214783Y-126740300D02*
X280964917Y-127313339D01*
X280461337Y-124457396D01*
X283711203Y-123884357D01*
X284214783Y-126740300D01*
%TD*%
M02*
