%TF.GenerationSoftware,KiCad,Pcbnew,8.0.0*%
%TF.CreationDate,2024-04-28T13:48:32+02:00*%
%TF.ProjectId,phnx,70686e78-2e6b-4696-9361-645f70636258,A*%
%TF.SameCoordinates,Original*%
%TF.FileFunction,Legend,Top*%
%TF.FilePolarity,Positive*%
%FSLAX46Y46*%
G04 Gerber Fmt 4.6, Leading zero omitted, Abs format (unit mm)*
G04 Created by KiCad (PCBNEW 8.0.0) date 2024-04-28 13:48:32*
%MOMM*%
%LPD*%
G01*
G04 APERTURE LIST*
%ADD10C,0.150000*%
%ADD11C,0.120000*%
%ADD12C,0.000000*%
G04 APERTURE END LIST*
D10*
G36*
X210760440Y-153093538D02*
G01*
X210827655Y-153101971D01*
X210889265Y-153120525D01*
X210945270Y-153149198D01*
X210995670Y-153187991D01*
X211040464Y-153236903D01*
X211078624Y-153294551D01*
X211108890Y-153359549D01*
X211128079Y-153419328D01*
X211141786Y-153484212D01*
X211150011Y-153554200D01*
X211152752Y-153629292D01*
X211150011Y-153704205D01*
X211141786Y-153774044D01*
X211128079Y-153838810D01*
X211108890Y-153898501D01*
X211078624Y-153963434D01*
X211040464Y-154021060D01*
X211026155Y-154038488D01*
X210979493Y-154084028D01*
X210927225Y-154119448D01*
X210869351Y-154144747D01*
X210805873Y-154159927D01*
X210736789Y-154164987D01*
X210713098Y-154164425D01*
X210645730Y-154155992D01*
X210583924Y-154137439D01*
X210527679Y-154108765D01*
X210476996Y-154069973D01*
X210431874Y-154021060D01*
X210393503Y-153963434D01*
X210363071Y-153898501D01*
X210343775Y-153838810D01*
X210329992Y-153774044D01*
X210321722Y-153704205D01*
X210318966Y-153629292D01*
X210321722Y-153554200D01*
X210329992Y-153484212D01*
X210343775Y-153419328D01*
X210363071Y-153359549D01*
X210393503Y-153294551D01*
X210431874Y-153236903D01*
X210446297Y-153219475D01*
X210493272Y-153173935D01*
X210545809Y-153138516D01*
X210603908Y-153113216D01*
X210667568Y-153098036D01*
X210736789Y-153092976D01*
X210760440Y-153093538D01*
G37*
G36*
X206677949Y-153113080D02*
G01*
X206740803Y-153120452D01*
X206800223Y-153140614D01*
X206852920Y-153177347D01*
X206861071Y-153185624D01*
X206896501Y-153238728D01*
X206914907Y-153298136D01*
X206920231Y-153360669D01*
X206920165Y-153368079D01*
X206913658Y-153429946D01*
X206891243Y-153493766D01*
X206852920Y-153544610D01*
X206844326Y-153552423D01*
X206789216Y-153586384D01*
X206727603Y-153604026D01*
X206662775Y-153609130D01*
X206440990Y-153609130D01*
X206440990Y-153112828D01*
X206662775Y-153112828D01*
X206677949Y-153113080D01*
G37*
G36*
X208314503Y-153113080D02*
G01*
X208377357Y-153120452D01*
X208436777Y-153140614D01*
X208489474Y-153177347D01*
X208497625Y-153185624D01*
X208533056Y-153238728D01*
X208551461Y-153298136D01*
X208556785Y-153360669D01*
X208556720Y-153368079D01*
X208550212Y-153429946D01*
X208527797Y-153493766D01*
X208489474Y-153544610D01*
X208480880Y-153552423D01*
X208425770Y-153586384D01*
X208364157Y-153604026D01*
X208299329Y-153609130D01*
X208077544Y-153609130D01*
X208077544Y-153112828D01*
X208299329Y-153112828D01*
X208314503Y-153113080D01*
G37*
G36*
X209387031Y-153113062D02*
G01*
X209451584Y-153119902D01*
X209511683Y-153138610D01*
X209563657Y-153172694D01*
X209600743Y-153220530D01*
X209622435Y-153282147D01*
X209628796Y-153350122D01*
X209623644Y-153411910D01*
X209603351Y-153475167D01*
X209563657Y-153528791D01*
X209555308Y-153536115D01*
X209500642Y-153567954D01*
X209438095Y-153584493D01*
X209371340Y-153589277D01*
X209149555Y-153589277D01*
X209149555Y-153112828D01*
X209371340Y-153112828D01*
X209387031Y-153113062D01*
G37*
G36*
X212811305Y-154445063D02*
G01*
X204472249Y-154445063D01*
X204472249Y-152973864D01*
X204613360Y-152973864D01*
X204613360Y-154284100D01*
X204789547Y-154284100D01*
X204789547Y-153327168D01*
X205079573Y-153327168D01*
X205082670Y-153381039D01*
X205096435Y-153445675D01*
X205125082Y-153508564D01*
X205167667Y-153561050D01*
X205197854Y-153586229D01*
X205257211Y-153621978D01*
X205320313Y-153648679D01*
X205382694Y-153668162D01*
X205452730Y-153684505D01*
X205560055Y-153705598D01*
X205576550Y-153709078D01*
X205636639Y-153725130D01*
X205698501Y-153749994D01*
X205753302Y-153786867D01*
X205776267Y-153812484D01*
X205803950Y-153870691D01*
X205812238Y-153936688D01*
X205804211Y-154000380D01*
X205776838Y-154059035D01*
X205730038Y-154105741D01*
X205684790Y-154131661D01*
X205623596Y-154151969D01*
X205560056Y-154162152D01*
X205497397Y-154164987D01*
X205484937Y-154164871D01*
X205422239Y-154160800D01*
X205358875Y-154150912D01*
X205294844Y-154135209D01*
X205262645Y-154125095D01*
X205204115Y-154103301D01*
X205144849Y-154076894D01*
X205084846Y-154045875D01*
X205084846Y-154224543D01*
X205112647Y-154234091D01*
X205174348Y-154253377D01*
X205234871Y-154269620D01*
X205300737Y-154284100D01*
X205364726Y-154294568D01*
X205432454Y-154301606D01*
X205497397Y-154303952D01*
X205542360Y-154303098D01*
X205612671Y-154297883D01*
X205677195Y-154287928D01*
X205746988Y-154269724D01*
X205808449Y-154244693D01*
X205869623Y-154206863D01*
X205912738Y-154167132D01*
X205951765Y-154112675D01*
X205978649Y-154049490D01*
X205992030Y-153988386D01*
X205996490Y-153920869D01*
X205996398Y-153911063D01*
X205990616Y-153845900D01*
X205972993Y-153778880D01*
X205943622Y-153719809D01*
X205902503Y-153668686D01*
X205863732Y-153635331D01*
X205809292Y-153601489D01*
X205744937Y-153573109D01*
X205681884Y-153553131D01*
X205611546Y-153537166D01*
X205505152Y-153515142D01*
X205496189Y-153513419D01*
X205431030Y-153498414D01*
X205365939Y-153476604D01*
X205308492Y-153443179D01*
X205296351Y-153431270D01*
X205265240Y-153374787D01*
X205256691Y-153310728D01*
X205262849Y-153255731D01*
X205290221Y-153194234D01*
X205334548Y-153149740D01*
X205360588Y-153133387D01*
X205422347Y-153108996D01*
X205488964Y-153096524D01*
X205556953Y-153092976D01*
X205604030Y-153094939D01*
X205668327Y-153103663D01*
X205728797Y-153117791D01*
X205734372Y-153119347D01*
X205797136Y-153139747D01*
X205856484Y-153163507D01*
X205918012Y-153192236D01*
X205918012Y-153013568D01*
X205911794Y-153011721D01*
X205850071Y-152994855D01*
X205789196Y-152980896D01*
X205750514Y-152973864D01*
X206264803Y-152973864D01*
X206264803Y-153112828D01*
X206264803Y-154284100D01*
X206440990Y-154284100D01*
X206440990Y-153748094D01*
X206662775Y-153748094D01*
X206676357Y-153747998D01*
X206741135Y-153744648D01*
X206811971Y-153734310D01*
X206875282Y-153717080D01*
X206939635Y-153688268D01*
X206993746Y-153650074D01*
X207031906Y-153610035D01*
X207066448Y-153555024D01*
X207090244Y-153491079D01*
X207102086Y-153429156D01*
X207106034Y-153360669D01*
X207103293Y-153303490D01*
X207092766Y-153240793D01*
X207070505Y-153175806D01*
X207037499Y-153119606D01*
X206993746Y-153072193D01*
X206986643Y-153066144D01*
X206931068Y-153029174D01*
X206865252Y-153001615D01*
X206800687Y-152985483D01*
X206728597Y-152976264D01*
X206662775Y-152973864D01*
X207901357Y-152973864D01*
X207901357Y-153112828D01*
X207901357Y-154284100D01*
X208077544Y-154284100D01*
X208077544Y-153748094D01*
X208299329Y-153748094D01*
X208312911Y-153747998D01*
X208377689Y-153744648D01*
X208448525Y-153734310D01*
X208511836Y-153717080D01*
X208576189Y-153688268D01*
X208630300Y-153650074D01*
X208668460Y-153610035D01*
X208703002Y-153555024D01*
X208726798Y-153491079D01*
X208738641Y-153429156D01*
X208742588Y-153360669D01*
X208739847Y-153303490D01*
X208729320Y-153240793D01*
X208707059Y-153175806D01*
X208674053Y-153119606D01*
X208630300Y-153072193D01*
X208623197Y-153066144D01*
X208567622Y-153029174D01*
X208501807Y-153001615D01*
X208437241Y-152985483D01*
X208365152Y-152976264D01*
X208299329Y-152973864D01*
X208973368Y-152973864D01*
X208973368Y-153112828D01*
X208973368Y-154284100D01*
X209149555Y-154284100D01*
X209149555Y-153728242D01*
X209341562Y-153728242D01*
X209385309Y-153730305D01*
X209450426Y-153743442D01*
X209506892Y-153771358D01*
X209522150Y-153783528D01*
X209564707Y-153831340D01*
X209600182Y-153886108D01*
X209632209Y-153946615D01*
X209798780Y-154284100D01*
X209987995Y-154284100D01*
X209809326Y-153924591D01*
X209805953Y-153917793D01*
X209775623Y-153860730D01*
X209741981Y-153806017D01*
X209701691Y-153752437D01*
X209694971Y-153744774D01*
X209647253Y-153700635D01*
X209591264Y-153670547D01*
X209598037Y-153668521D01*
X209660172Y-153642894D01*
X209680146Y-153629292D01*
X210132853Y-153629292D01*
X210133495Y-153667381D01*
X210138632Y-153740614D01*
X210148907Y-153809922D01*
X210164320Y-153875304D01*
X210184870Y-153936760D01*
X210210557Y-153994290D01*
X210249891Y-154060682D01*
X210297252Y-154120940D01*
X210340078Y-154163834D01*
X210398462Y-154209408D01*
X210462239Y-154246046D01*
X210531407Y-154273748D01*
X210605968Y-154292513D01*
X210669498Y-154301092D01*
X210736479Y-154303952D01*
X210786870Y-154302340D01*
X210851055Y-154295179D01*
X210926460Y-154278172D01*
X210996504Y-154252213D01*
X211061186Y-154217304D01*
X211120506Y-154173443D01*
X211174465Y-154120630D01*
X211203790Y-154085109D01*
X211246255Y-154021060D01*
X211274457Y-153965458D01*
X211297533Y-153905980D01*
X211315480Y-153842624D01*
X211328299Y-153775390D01*
X211335991Y-153704280D01*
X211338555Y-153629292D01*
X211532423Y-153629292D01*
X211533936Y-153687735D01*
X211540661Y-153761833D01*
X211552765Y-153831560D01*
X211570250Y-153896916D01*
X211593114Y-153957899D01*
X211621358Y-154014511D01*
X211654982Y-154066751D01*
X211704577Y-154125903D01*
X211726655Y-154147464D01*
X211786398Y-154195280D01*
X211852639Y-154234401D01*
X211910310Y-154259440D01*
X211972139Y-154278914D01*
X212038127Y-154292824D01*
X212108273Y-154301170D01*
X212182578Y-154303952D01*
X212251323Y-154301722D01*
X212317975Y-154295034D01*
X212382533Y-154283886D01*
X212444997Y-154268280D01*
X212490435Y-154253714D01*
X212548711Y-154230596D01*
X212611121Y-154199535D01*
X212670194Y-154163126D01*
X212670194Y-153609130D01*
X212207703Y-153609130D01*
X212207703Y-153748094D01*
X212495558Y-153748094D01*
X212495558Y-154098607D01*
X212484490Y-154104846D01*
X212425144Y-154131300D01*
X212363728Y-154148857D01*
X212330736Y-154155142D01*
X212264346Y-154162719D01*
X212197157Y-154164987D01*
X212139302Y-154162884D01*
X212072204Y-154154338D01*
X212010907Y-154139220D01*
X211945007Y-154112401D01*
X211887461Y-154076116D01*
X211838269Y-154030365D01*
X211830902Y-154021804D01*
X211791615Y-153965054D01*
X211760746Y-153899078D01*
X211741453Y-153837051D01*
X211728007Y-153768618D01*
X211720407Y-153693777D01*
X211718536Y-153629292D01*
X211718653Y-153612748D01*
X211721459Y-153549155D01*
X211730228Y-153475470D01*
X211744844Y-153408237D01*
X211765306Y-153347456D01*
X211797578Y-153283037D01*
X211838269Y-153227908D01*
X211878690Y-153189036D01*
X211934873Y-153151086D01*
X211999431Y-153122624D01*
X212059627Y-153106153D01*
X212125639Y-153096270D01*
X212197467Y-153092976D01*
X212235088Y-153093953D01*
X212301393Y-153100635D01*
X212365883Y-153113647D01*
X212428557Y-153132990D01*
X212462576Y-153146360D01*
X212522322Y-153175272D01*
X212580155Y-153210416D01*
X212636073Y-153251792D01*
X212636073Y-153073124D01*
X212605391Y-153055500D01*
X212547948Y-153027289D01*
X212487659Y-153003592D01*
X212424525Y-152984410D01*
X212381039Y-152974079D01*
X212314134Y-152962591D01*
X212245216Y-152955911D01*
X212182267Y-152954012D01*
X212144633Y-152954708D01*
X212072475Y-152960282D01*
X212004467Y-152971429D01*
X211940606Y-152988150D01*
X211880895Y-153010445D01*
X211825333Y-153038314D01*
X211761714Y-153080987D01*
X211704577Y-153132370D01*
X211673811Y-153166992D01*
X211629260Y-153230196D01*
X211599671Y-153285710D01*
X211575461Y-153345624D01*
X211556632Y-153409940D01*
X211543182Y-153478657D01*
X211535113Y-153551774D01*
X211532423Y-153629292D01*
X211338555Y-153629292D01*
X211337914Y-153591239D01*
X211332786Y-153518064D01*
X211322531Y-153448795D01*
X211307147Y-153383432D01*
X211286636Y-153321976D01*
X211260997Y-153264427D01*
X211221737Y-153197983D01*
X211174465Y-153137643D01*
X211131727Y-153094604D01*
X211073479Y-153048876D01*
X211009869Y-153012114D01*
X210940898Y-152984318D01*
X210866565Y-152965489D01*
X210803238Y-152956881D01*
X210736479Y-152954012D01*
X210685920Y-152955626D01*
X210621527Y-152962799D01*
X210545888Y-152979835D01*
X210475641Y-153005837D01*
X210410786Y-153040806D01*
X210351323Y-153084741D01*
X210297252Y-153137643D01*
X210267872Y-153173115D01*
X210225328Y-153237117D01*
X210197071Y-153292713D01*
X210173953Y-153352216D01*
X210155971Y-153415625D01*
X210143128Y-153482941D01*
X210135421Y-153554163D01*
X210132853Y-153629292D01*
X209680146Y-153629292D01*
X209712128Y-153607513D01*
X209757525Y-153557328D01*
X209767725Y-153541606D01*
X209794478Y-153483882D01*
X209810085Y-153417979D01*
X209814599Y-153351673D01*
X209811911Y-153294690D01*
X209801587Y-153232487D01*
X209779758Y-153168435D01*
X209747389Y-153113557D01*
X209704482Y-153067851D01*
X209697509Y-153062068D01*
X209642484Y-153026731D01*
X209576593Y-153000389D01*
X209511468Y-152984970D01*
X209438361Y-152976158D01*
X209371340Y-152973864D01*
X208973368Y-152973864D01*
X208299329Y-152973864D01*
X207901357Y-152973864D01*
X206662775Y-152973864D01*
X206264803Y-152973864D01*
X205750514Y-152973864D01*
X205723214Y-152968901D01*
X205664224Y-152961049D01*
X205600104Y-152955771D01*
X205536791Y-152954012D01*
X205510435Y-152954402D01*
X205447682Y-152958791D01*
X205378297Y-152970496D01*
X205315367Y-152989223D01*
X205258894Y-153014974D01*
X205201167Y-153053892D01*
X205166138Y-153086900D01*
X205127071Y-153139141D01*
X205099641Y-153198417D01*
X205083848Y-153264729D01*
X205079573Y-153327168D01*
X204789547Y-153327168D01*
X204789547Y-152973864D01*
X204613360Y-152973864D01*
X204472249Y-152973864D01*
X204472249Y-152812901D01*
X212811305Y-152812901D01*
X212811305Y-154445063D01*
G37*
G36*
X197411910Y-136574468D02*
G01*
X197475167Y-136594760D01*
X197528791Y-136634454D01*
X197536115Y-136642803D01*
X197567954Y-136697469D01*
X197584493Y-136760016D01*
X197589277Y-136826771D01*
X197589277Y-137048556D01*
X197112828Y-137048556D01*
X197112828Y-136826771D01*
X197113062Y-136811080D01*
X197119902Y-136746528D01*
X197138610Y-136686429D01*
X197172694Y-136634454D01*
X197220530Y-136597368D01*
X197282147Y-136575676D01*
X197350122Y-136569315D01*
X197411910Y-136574468D01*
G37*
G36*
X198445063Y-137365854D02*
G01*
X196812901Y-137365854D01*
X196812901Y-137224743D01*
X196973864Y-137224743D01*
X198284100Y-137224743D01*
X198284100Y-137048556D01*
X197728242Y-137048556D01*
X197728242Y-136856549D01*
X197730305Y-136812803D01*
X197743442Y-136747685D01*
X197771358Y-136691219D01*
X197783528Y-136675962D01*
X197831340Y-136633404D01*
X197886108Y-136597930D01*
X197946615Y-136565903D01*
X198284100Y-136399332D01*
X198284100Y-136210117D01*
X197924591Y-136388785D01*
X197917793Y-136392158D01*
X197860730Y-136422488D01*
X197806017Y-136456130D01*
X197752437Y-136496421D01*
X197744774Y-136503141D01*
X197700635Y-136550859D01*
X197670547Y-136606848D01*
X197668521Y-136600074D01*
X197642894Y-136537940D01*
X197607513Y-136485983D01*
X197557328Y-136440587D01*
X197541606Y-136430387D01*
X197483882Y-136403633D01*
X197417979Y-136388027D01*
X197351673Y-136383512D01*
X197294690Y-136386200D01*
X197232487Y-136396524D01*
X197168435Y-136418354D01*
X197113557Y-136450722D01*
X197067851Y-136493629D01*
X197062068Y-136500603D01*
X197026731Y-136555628D01*
X197000389Y-136621518D01*
X196984970Y-136686643D01*
X196976158Y-136759751D01*
X196973864Y-136826771D01*
X196973864Y-137048556D01*
X196973864Y-137224743D01*
X196812901Y-137224743D01*
X196812901Y-135990193D01*
X196973864Y-135990193D01*
X198284100Y-135990193D01*
X198284100Y-135150823D01*
X198145135Y-135150823D01*
X198145135Y-135814006D01*
X197648834Y-135814006D01*
X197648834Y-135193629D01*
X197509869Y-135193629D01*
X197509869Y-135814006D01*
X197112828Y-135814006D01*
X197112828Y-135166643D01*
X196973864Y-135166643D01*
X196973864Y-135990193D01*
X196812901Y-135990193D01*
X196812901Y-134467478D01*
X196954012Y-134467478D01*
X196954402Y-134493835D01*
X196958791Y-134556587D01*
X196970496Y-134625972D01*
X196989223Y-134688902D01*
X197014974Y-134745376D01*
X197053892Y-134803102D01*
X197086900Y-134838132D01*
X197139141Y-134877198D01*
X197198417Y-134904628D01*
X197264729Y-134920421D01*
X197327168Y-134924696D01*
X197381039Y-134921599D01*
X197445675Y-134907834D01*
X197508564Y-134879187D01*
X197561050Y-134836602D01*
X197586229Y-134806415D01*
X197621978Y-134747058D01*
X197648679Y-134683956D01*
X197668162Y-134621575D01*
X197684505Y-134551539D01*
X197705598Y-134444214D01*
X197709078Y-134427720D01*
X197725130Y-134367630D01*
X197749994Y-134305768D01*
X197786867Y-134250967D01*
X197812484Y-134228002D01*
X197870691Y-134200319D01*
X197936688Y-134192031D01*
X198000380Y-134200058D01*
X198059035Y-134227431D01*
X198105741Y-134274231D01*
X198131661Y-134319480D01*
X198151969Y-134380673D01*
X198162152Y-134444213D01*
X198164987Y-134506872D01*
X198164871Y-134519332D01*
X198160800Y-134582030D01*
X198150912Y-134645394D01*
X198135209Y-134709425D01*
X198125095Y-134741624D01*
X198103301Y-134800154D01*
X198076894Y-134859420D01*
X198045875Y-134919423D01*
X198224543Y-134919423D01*
X198234091Y-134891622D01*
X198253377Y-134829921D01*
X198269620Y-134769398D01*
X198284100Y-134703532D01*
X198294568Y-134639543D01*
X198301606Y-134571815D01*
X198303952Y-134506872D01*
X198303098Y-134461909D01*
X198297883Y-134391598D01*
X198287928Y-134327074D01*
X198269724Y-134257281D01*
X198244693Y-134195820D01*
X198206863Y-134134646D01*
X198167132Y-134091531D01*
X198112675Y-134052505D01*
X198049490Y-134025620D01*
X197988386Y-134012239D01*
X197920869Y-134007779D01*
X197911063Y-134007871D01*
X197845900Y-134013653D01*
X197778880Y-134031276D01*
X197719809Y-134060647D01*
X197668686Y-134101766D01*
X197635331Y-134140537D01*
X197601489Y-134194977D01*
X197573109Y-134259332D01*
X197553131Y-134322385D01*
X197537166Y-134392723D01*
X197515142Y-134499117D01*
X197513419Y-134508080D01*
X197498414Y-134573239D01*
X197476604Y-134638330D01*
X197443179Y-134695777D01*
X197431270Y-134707918D01*
X197374787Y-134739029D01*
X197310728Y-134747578D01*
X197255731Y-134741420D01*
X197194234Y-134714048D01*
X197149740Y-134669721D01*
X197133387Y-134643681D01*
X197108996Y-134581922D01*
X197096524Y-134515305D01*
X197092976Y-134447316D01*
X197094939Y-134400239D01*
X197103663Y-134335943D01*
X197117791Y-134275472D01*
X197119347Y-134269897D01*
X197139747Y-134207133D01*
X197163507Y-134147785D01*
X197192236Y-134086257D01*
X197013568Y-134086257D01*
X197011721Y-134092476D01*
X196994855Y-134154198D01*
X196980896Y-134215073D01*
X196968901Y-134281055D01*
X196961049Y-134340045D01*
X196955771Y-134404165D01*
X196954012Y-134467478D01*
X196812901Y-134467478D01*
X196812901Y-133739466D01*
X196973864Y-133739466D01*
X198284100Y-133739466D01*
X198284100Y-132900096D01*
X198145135Y-132900096D01*
X198145135Y-133563279D01*
X197648834Y-133563279D01*
X197648834Y-132942902D01*
X197509869Y-132942902D01*
X197509869Y-133563279D01*
X197112828Y-133563279D01*
X197112828Y-132915916D01*
X196973864Y-132915916D01*
X196973864Y-133739466D01*
X196812901Y-133739466D01*
X196812901Y-131695324D01*
X196973864Y-131695324D01*
X196973864Y-132797114D01*
X197112828Y-132797114D01*
X197112828Y-132334623D01*
X198284100Y-132334623D01*
X198284100Y-132157505D01*
X197112828Y-132157505D01*
X197112828Y-131695324D01*
X196973864Y-131695324D01*
X196812901Y-131695324D01*
X196812901Y-131554213D01*
X198445063Y-131554213D01*
X198445063Y-137365854D01*
G37*
D11*
%TO.C,FB1*%
X216247500Y-107850378D02*
X216247500Y-108649622D01*
X215127500Y-107850378D02*
X215127500Y-108649622D01*
%TO.C,C6*%
X200986100Y-126566064D02*
X200986100Y-126847224D01*
X202006100Y-126566064D02*
X202006100Y-126847224D01*
%TO.C,R9*%
X209639155Y-162581161D02*
X210113671Y-162581161D01*
X209639155Y-163626161D02*
X210113671Y-163626161D01*
%TO.C,SW452*%
X337649724Y-94869238D02*
X351407489Y-92443373D01*
X340075589Y-108627002D02*
X337649724Y-94869238D01*
X351407489Y-92443373D02*
X353833354Y-106201138D01*
X353833354Y-106201138D02*
X340075589Y-108627002D01*
%TO.C,SW412*%
X104796958Y-147395515D02*
X107222823Y-133637750D01*
X107222823Y-133637750D02*
X120980587Y-136063615D01*
X118554722Y-149821380D02*
X104796958Y-147395515D01*
X120980587Y-136063615D02*
X118554722Y-149821380D01*
%TO.C,SW442*%
X267202215Y-164696616D02*
X280329722Y-159918596D01*
X271980236Y-177824123D02*
X267202215Y-164696616D01*
X280329722Y-159918596D02*
X285107743Y-173046102D01*
X285107743Y-173046102D02*
X271980236Y-177824123D01*
%TO.C,SW420*%
X145626130Y-135250923D02*
X148051995Y-121493158D01*
X148051995Y-121493158D02*
X161809759Y-123919023D01*
X159383894Y-137676788D02*
X145626130Y-135250923D01*
X161809759Y-123919023D02*
X159383894Y-137676788D01*
%TO.C,SW422*%
X150975067Y-180532128D02*
X157960068Y-168433754D01*
X157960068Y-168433754D02*
X170058442Y-175418754D01*
X163073441Y-187517128D02*
X150975067Y-180532128D01*
X170058442Y-175418754D02*
X163073441Y-187517128D01*
%TO.C,C10*%
X204030520Y-138396644D02*
X204311680Y-138396644D01*
X204030520Y-139416644D02*
X204311680Y-139416644D01*
%TO.C,C9*%
X208407351Y-118971644D02*
X207884847Y-118971644D01*
X208407351Y-120441644D02*
X207884847Y-120441644D01*
%TO.C,R1*%
X201968526Y-108014267D02*
X201968526Y-108488783D01*
X203013526Y-108014267D02*
X203013526Y-108488783D01*
%TO.C,SW405*%
X95133362Y-92495900D02*
X97559227Y-78738135D01*
X97559227Y-78738135D02*
X111316991Y-81164000D01*
X108891126Y-94921765D02*
X95133362Y-92495900D01*
X111316991Y-81164000D02*
X108891126Y-94921765D01*
%TO.C,SW445*%
X293229253Y-117209672D02*
X306987018Y-114783807D01*
X295655118Y-130967436D02*
X293229253Y-117209672D01*
X306987018Y-114783807D02*
X309412883Y-128541572D01*
X309412883Y-128541572D02*
X295655118Y-130967436D01*
%TO.C,C11*%
X214411680Y-138396644D02*
X214130520Y-138396644D01*
X214411680Y-139416644D02*
X214130520Y-139416644D01*
%TO.C,SW407*%
X88517368Y-130017072D02*
X90943233Y-116259307D01*
X90943233Y-116259307D02*
X104700997Y-118685172D01*
X102275132Y-132442937D02*
X88517368Y-130017072D01*
X104700997Y-118685172D02*
X102275132Y-132442937D01*
%TO.C,SW441*%
X276949665Y-134588109D02*
X290707430Y-132162244D01*
X279375530Y-148345873D02*
X276949665Y-134588109D01*
X290707430Y-132162244D02*
X293133295Y-145920009D01*
X293133295Y-145920009D02*
X279375530Y-148345873D01*
%TO.C,SW453*%
X340957724Y-113629823D02*
X354715489Y-111203958D01*
X343383589Y-127387587D02*
X340957724Y-113629823D01*
X354715489Y-111203958D02*
X357141354Y-124961723D01*
X357141354Y-124961723D02*
X343383589Y-127387587D01*
%TO.C,SW404*%
X57068487Y-143815665D02*
X59494352Y-130057900D01*
X59494352Y-130057900D02*
X73252116Y-132483765D01*
X70826251Y-146241530D02*
X57068487Y-143815665D01*
X73252116Y-132483765D02*
X70826251Y-146241530D01*
%TO.C,SW432*%
X229507898Y-189226588D02*
X240209540Y-180246845D01*
X238487640Y-199928229D02*
X229507898Y-189226588D01*
X240209540Y-180246845D02*
X249189282Y-190948486D01*
X249189282Y-190948486D02*
X238487640Y-199928229D01*
%TO.C,SW402*%
X63684484Y-106294489D02*
X66110349Y-92536724D01*
X66110349Y-92536724D02*
X79868113Y-94962589D01*
X77442248Y-108720354D02*
X63684484Y-106294489D01*
X79868113Y-94962589D02*
X77442248Y-108720354D01*
%TO.C,R3*%
X207177500Y-113319386D02*
X207177500Y-113793902D01*
X208222500Y-113319386D02*
X208222500Y-113793902D01*
%TO.C,SW446*%
X296537251Y-135970261D02*
X310295016Y-133544396D01*
X298963116Y-149728025D02*
X296537251Y-135970261D01*
X310295016Y-133544396D02*
X312720881Y-147302161D01*
X312720881Y-147302161D02*
X298963116Y-149728025D01*
%TO.C,C8*%
X202861100Y-118695392D02*
X202861100Y-119217896D01*
X204331100Y-118695392D02*
X204331100Y-119217896D01*
%TO.C,U2*%
X207536100Y-109569144D02*
X207536100Y-108769144D01*
X207536100Y-109569144D02*
X207536100Y-110369144D01*
X210656100Y-109569144D02*
X210656100Y-108769144D01*
X210656100Y-109569144D02*
X210656100Y-110369144D01*
X207586100Y-110869144D02*
X207256100Y-111109144D01*
X207256100Y-110629144D01*
X207586100Y-110869144D01*
G36*
X207586100Y-110869144D02*
G01*
X207256100Y-111109144D01*
X207256100Y-110629144D01*
X207586100Y-110869144D01*
G37*
%TO.C,R2*%
X215123600Y-104469386D02*
X215123600Y-104943902D01*
X216168600Y-104469386D02*
X216168600Y-104943902D01*
%TO.C,C7*%
X214130520Y-119396644D02*
X214411680Y-119396644D01*
X214130520Y-120416644D02*
X214411680Y-120416644D01*
%TO.C,SW433*%
X249092082Y-86304492D02*
X262849847Y-83878627D01*
X251517947Y-100062256D02*
X249092082Y-86304492D01*
X262849847Y-83878627D02*
X265275712Y-97636392D01*
X265275712Y-97636392D02*
X251517947Y-100062256D01*
%TO.C,SW401*%
X66992483Y-87533900D02*
X69418348Y-73776135D01*
X69418348Y-73776135D02*
X83176112Y-76202000D01*
X80750247Y-89959765D02*
X66992483Y-87533900D01*
X83176112Y-76202000D02*
X80750247Y-89959765D01*
%TO.C,SW428*%
X231158494Y-94302636D02*
X244916259Y-91876771D01*
X233584359Y-108060400D02*
X231158494Y-94302636D01*
X244916259Y-91876771D02*
X247342124Y-105634536D01*
X247342124Y-105634536D02*
X233584359Y-108060400D01*
%TO.C,SW424*%
X166867715Y-124488478D02*
X169293580Y-110730713D01*
X169293580Y-110730713D02*
X183051344Y-113156578D01*
X180625479Y-126914343D02*
X166867715Y-124488478D01*
X183051344Y-113156578D02*
X180625479Y-126914343D01*
%TO.C,D110*%
X208215000Y-160040000D02*
X208215000Y-161960000D01*
X208215000Y-161960000D02*
X210900000Y-161960000D01*
X210900000Y-160040000D02*
X208215000Y-160040000D01*
%TO.C,SW416*%
X124384544Y-146013364D02*
X126810409Y-132255599D01*
X126810409Y-132255599D02*
X140568173Y-134681464D01*
X138142308Y-148439229D02*
X124384544Y-146013364D01*
X140568173Y-134681464D02*
X138142308Y-148439229D01*
%TO.C,SW443*%
X286613258Y-79688498D02*
X300371023Y-77262633D01*
X289039123Y-93446262D02*
X286613258Y-79688498D01*
X300371023Y-77262633D02*
X302796888Y-91020398D01*
X302796888Y-91020398D02*
X289039123Y-93446262D01*
%TO.C,R5*%
X201948600Y-104469386D02*
X201948600Y-104943902D01*
X202993600Y-104469386D02*
X202993600Y-104943902D01*
%TO.C,SW437*%
X247251476Y-175332792D02*
X259349853Y-168347793D01*
X254236476Y-187431168D02*
X247251476Y-175332792D01*
X259349853Y-168347793D02*
X266334852Y-180446168D01*
X266334852Y-180446168D02*
X254236476Y-187431168D01*
%TO.C,SW403*%
X60376486Y-125055080D02*
X62802351Y-111297315D01*
X62802351Y-111297315D02*
X76560115Y-113723180D01*
X74134250Y-127480945D02*
X60376486Y-125055080D01*
X76560115Y-113723180D02*
X74134250Y-127480945D01*
%TO.C,SW406*%
X91825364Y-111256487D02*
X94251229Y-97498722D01*
X94251229Y-97498722D02*
X108008993Y-99924587D01*
X105583128Y-113682352D02*
X91825364Y-111256487D01*
X108008993Y-99924587D02*
X105583128Y-113682352D01*
%TO.C,C3*%
X214911100Y-111751393D02*
X214911100Y-112273897D01*
X216381100Y-111751393D02*
X216381100Y-112273897D01*
%TO.C,SW447*%
X306200844Y-81070645D02*
X319958609Y-78644780D01*
X308626709Y-94828409D02*
X306200844Y-81070645D01*
X319958609Y-78644780D02*
X322384474Y-92402545D01*
X322384474Y-92402545D02*
X308626709Y-94828409D01*
%TO.C,D109*%
X201436100Y-110271644D02*
X201436100Y-112956644D01*
X203356100Y-110271644D02*
X201436100Y-110271644D01*
X203356100Y-112956644D02*
X203356100Y-110271644D01*
%TO.C,R4*%
X210177500Y-113319386D02*
X210177500Y-113793902D01*
X211222500Y-113319386D02*
X211222500Y-113793902D01*
%TO.C,SW440*%
X273641667Y-115827523D02*
X287399432Y-113401658D01*
X276067532Y-129585287D02*
X273641667Y-115827523D01*
X287399432Y-113401658D02*
X289825297Y-127159423D01*
X289825297Y-127159423D02*
X276067532Y-129585287D01*
D12*
%TO.C,G\u002A\u002A\u002A*%
G36*
X218129331Y-163004002D02*
G01*
X218131478Y-163025290D01*
X218129331Y-163027919D01*
X218118667Y-163025457D01*
X218117373Y-163015960D01*
X218123936Y-163001195D01*
X218129331Y-163004002D01*
G37*
G36*
X209650706Y-156770486D02*
G01*
X209016595Y-157035209D01*
X208415239Y-157313737D01*
X207846679Y-157606032D01*
X207310954Y-157912059D01*
X206808106Y-158231782D01*
X206338176Y-158565165D01*
X205901203Y-158912173D01*
X205497228Y-159272768D01*
X205126293Y-159646917D01*
X204788437Y-160034582D01*
X204483702Y-160435727D01*
X204212128Y-160850318D01*
X203973755Y-161278318D01*
X203768625Y-161719690D01*
X203625044Y-162092161D01*
X203510947Y-162455608D01*
X203413844Y-162844552D01*
X203334399Y-163252545D01*
X203273275Y-163673141D01*
X203231137Y-164099891D01*
X203208647Y-164526350D01*
X203206470Y-164946071D01*
X203225269Y-165352605D01*
X203256696Y-165670763D01*
X203332886Y-166146542D01*
X203440390Y-166606113D01*
X203578899Y-167048826D01*
X203748106Y-167474032D01*
X203947703Y-167881083D01*
X204177383Y-168269329D01*
X204436838Y-168638122D01*
X204725761Y-168986813D01*
X204932866Y-169206047D01*
X205221724Y-169477476D01*
X205526385Y-169727707D01*
X205842345Y-169953669D01*
X206165099Y-170152290D01*
X206490144Y-170320498D01*
X206702617Y-170412913D01*
X206793915Y-170448395D01*
X206885478Y-170482004D01*
X206965328Y-170509447D01*
X207012045Y-170523883D01*
X207068516Y-170540919D01*
X207108033Y-170555116D01*
X207121469Y-170562832D01*
X207111821Y-170579542D01*
X207085003Y-170620995D01*
X207044201Y-170682397D01*
X206992600Y-170758950D01*
X206935305Y-170843059D01*
X206835919Y-170992361D01*
X206729787Y-171159057D01*
X206621141Y-171335964D01*
X206514213Y-171515904D01*
X206413236Y-171691694D01*
X206322443Y-171856156D01*
X206246064Y-172002107D01*
X206214742Y-172065607D01*
X206050582Y-172443069D01*
X205918924Y-172823651D01*
X205820357Y-173204923D01*
X205755468Y-173584454D01*
X205724846Y-173959815D01*
X205722316Y-174100918D01*
X205732303Y-174424420D01*
X205763316Y-174732594D01*
X205816937Y-175032353D01*
X205894747Y-175330606D01*
X205998326Y-175634264D01*
X206129254Y-175950236D01*
X206161669Y-176021619D01*
X206245260Y-176195333D01*
X206333030Y-176361265D01*
X206428548Y-176525013D01*
X206535381Y-176692176D01*
X206657095Y-176868355D01*
X206797260Y-177059147D01*
X206946925Y-177254131D01*
X206954223Y-177265709D01*
X206951606Y-177272278D01*
X206934805Y-177273240D01*
X206899550Y-177267994D01*
X206841570Y-177255938D01*
X206756595Y-177236474D01*
X206661276Y-177213969D01*
X206076674Y-177062517D01*
X205522142Y-176892764D01*
X204996647Y-176704288D01*
X204499155Y-176496670D01*
X204028633Y-176269489D01*
X203584049Y-176022325D01*
X203300706Y-175845682D01*
X202938043Y-175594184D01*
X202591131Y-175323798D01*
X202264665Y-175038690D01*
X201963339Y-174743027D01*
X201691847Y-174440976D01*
X201620905Y-174354694D01*
X201541882Y-174252545D01*
X201452885Y-174130823D01*
X201359010Y-173997090D01*
X201265354Y-173858904D01*
X201177013Y-173723828D01*
X201099084Y-173599421D01*
X201036662Y-173493244D01*
X201021014Y-173464760D01*
X200943922Y-173321257D01*
X201069187Y-173437853D01*
X201346471Y-173676940D01*
X201658663Y-173910598D01*
X202005144Y-174138397D01*
X202385296Y-174359906D01*
X202419104Y-174378410D01*
X202501334Y-174422260D01*
X202585757Y-174465679D01*
X202666438Y-174505807D01*
X202737438Y-174539785D01*
X202792819Y-174564753D01*
X202826646Y-174577852D01*
X202834322Y-174578371D01*
X202820840Y-174566268D01*
X202783785Y-174536577D01*
X202728247Y-174493291D01*
X202659314Y-174440401D01*
X202630605Y-174418569D01*
X202228584Y-174094992D01*
X201834837Y-173741340D01*
X201455282Y-173363336D01*
X201095834Y-172966705D01*
X200948848Y-172791755D01*
X200586396Y-172324498D01*
X200247105Y-171834049D01*
X199930179Y-171319020D01*
X199634823Y-170778020D01*
X199360241Y-170209662D01*
X199105637Y-169612554D01*
X199056690Y-169488655D01*
X199027117Y-169411002D01*
X198992200Y-169316371D01*
X198953627Y-169209651D01*
X198913091Y-169095729D01*
X198872280Y-168979494D01*
X198832886Y-168865835D01*
X198796597Y-168759640D01*
X198765105Y-168665798D01*
X198740100Y-168589197D01*
X198723271Y-168534727D01*
X198716308Y-168507274D01*
X198716587Y-168504943D01*
X198727972Y-168519306D01*
X198751443Y-168556910D01*
X198781049Y-168608086D01*
X198829186Y-168688871D01*
X198894659Y-168791677D01*
X198972980Y-168910050D01*
X199059662Y-169037536D01*
X199150218Y-169167682D01*
X199240160Y-169294032D01*
X199325002Y-169410134D01*
X199400257Y-169509532D01*
X199457591Y-169581188D01*
X199460971Y-169578013D01*
X199451802Y-169547602D01*
X199431964Y-169495561D01*
X199415454Y-169455650D01*
X199220249Y-168952193D01*
X199059834Y-168444108D01*
X198933497Y-167928475D01*
X198840524Y-167402375D01*
X198780202Y-166862890D01*
X198779187Y-166850225D01*
X198772354Y-166733454D01*
X198767784Y-166589025D01*
X198765373Y-166423615D01*
X198765014Y-166243896D01*
X198766602Y-166056543D01*
X198770031Y-165868230D01*
X198775194Y-165685632D01*
X198781986Y-165515423D01*
X198790302Y-165364277D01*
X198800035Y-165238869D01*
X198805573Y-165186441D01*
X198849615Y-164861524D01*
X198904150Y-164532798D01*
X198967641Y-164207244D01*
X199038553Y-163891841D01*
X199115353Y-163593568D01*
X199196504Y-163319407D01*
X199253324Y-163150494D01*
X199298016Y-163024929D01*
X199285837Y-163195339D01*
X199281010Y-163287814D01*
X199277363Y-163409406D01*
X199274855Y-163554353D01*
X199273446Y-163716895D01*
X199273094Y-163891269D01*
X199273759Y-164071715D01*
X199275398Y-164252470D01*
X199277971Y-164427774D01*
X199281438Y-164591865D01*
X199285756Y-164738981D01*
X199290885Y-164863361D01*
X199296784Y-164959244D01*
X199298564Y-164980155D01*
X199310704Y-165101235D01*
X199321927Y-165193747D01*
X199331920Y-165256479D01*
X199340367Y-165288220D01*
X199346953Y-165287758D01*
X199351362Y-165253880D01*
X199353241Y-165190415D01*
X199358401Y-165056794D01*
X199371180Y-164895484D01*
X199390596Y-164713625D01*
X199415664Y-164518359D01*
X199445402Y-164316824D01*
X199478827Y-164116161D01*
X199514955Y-163923511D01*
X199551100Y-163753480D01*
X199689854Y-163222054D01*
X199863778Y-162691576D01*
X200072166Y-162163335D01*
X200314312Y-161638617D01*
X200589511Y-161118710D01*
X200897058Y-160604900D01*
X201236247Y-160098476D01*
X201606375Y-159600724D01*
X202006734Y-159112933D01*
X202235016Y-158854378D01*
X202315257Y-158767453D01*
X202407543Y-158670351D01*
X202508758Y-158566098D01*
X202615784Y-158457723D01*
X202725502Y-158348252D01*
X202834797Y-158240712D01*
X202940550Y-158138130D01*
X203039643Y-158043532D01*
X203128960Y-157959946D01*
X203205382Y-157890398D01*
X203265793Y-157837915D01*
X203307074Y-157805525D01*
X203325032Y-157796045D01*
X203320671Y-157809022D01*
X203298783Y-157843275D01*
X203263902Y-157891793D01*
X203258344Y-157899188D01*
X203108503Y-158107292D01*
X202951899Y-158342932D01*
X202792465Y-158599400D01*
X202634135Y-158869988D01*
X202480843Y-159147987D01*
X202336522Y-159426690D01*
X202214168Y-159679849D01*
X202010201Y-160144338D01*
X201828878Y-160611365D01*
X201672737Y-161073904D01*
X201544319Y-161524927D01*
X201536904Y-161554025D01*
X201511819Y-161656075D01*
X201485322Y-161768838D01*
X201458653Y-161886476D01*
X201433053Y-162003152D01*
X201409765Y-162113029D01*
X201390030Y-162210269D01*
X201375090Y-162289034D01*
X201366185Y-162343488D01*
X201364253Y-162365830D01*
X201370471Y-162355816D01*
X201386675Y-162318420D01*
X201410271Y-162259859D01*
X201433552Y-162199788D01*
X201629571Y-161730830D01*
X201855483Y-161270990D01*
X202108253Y-160825504D01*
X202384845Y-160399610D01*
X202682224Y-159998542D01*
X202778810Y-159879283D01*
X202883700Y-159757542D01*
X203009422Y-159619788D01*
X203149179Y-159472893D01*
X203296173Y-159323728D01*
X203443606Y-159179163D01*
X203584681Y-159046070D01*
X203712600Y-158931319D01*
X203739509Y-158908190D01*
X204158626Y-158574306D01*
X204603951Y-158263353D01*
X205073172Y-157976504D01*
X205563975Y-157714928D01*
X206074047Y-157479796D01*
X206601075Y-157272279D01*
X207142745Y-157093547D01*
X207546016Y-156981938D01*
X208129865Y-156848951D01*
X208704643Y-156749669D01*
X209269541Y-156684216D01*
X209695551Y-156657016D01*
X209964618Y-156646070D01*
X209650706Y-156770486D01*
G37*
G36*
X214991790Y-159062896D02*
G01*
X215033786Y-159093979D01*
X215093670Y-159141163D01*
X215166902Y-159200669D01*
X215248942Y-159268716D01*
X215335252Y-159341523D01*
X215421292Y-159415310D01*
X215502523Y-159486297D01*
X215574406Y-159550703D01*
X215603118Y-159577112D01*
X215974400Y-159945846D01*
X216321946Y-160338909D01*
X216644043Y-160753650D01*
X216938981Y-161187418D01*
X217205046Y-161637561D01*
X217440527Y-162101429D01*
X217643712Y-162576371D01*
X217774119Y-162938983D01*
X217880670Y-163296247D01*
X217972537Y-163676633D01*
X218047481Y-164069617D01*
X218103268Y-164464675D01*
X218108787Y-164513710D01*
X218119361Y-164607648D01*
X218129002Y-164688040D01*
X218136905Y-164748566D01*
X218142265Y-164782905D01*
X218143742Y-164788281D01*
X218149415Y-164777104D01*
X218154281Y-164734143D01*
X218158337Y-164663480D01*
X218161582Y-164569198D01*
X218164013Y-164455379D01*
X218165628Y-164326107D01*
X218166425Y-164185463D01*
X218166402Y-164037529D01*
X218165557Y-163886390D01*
X218163887Y-163736126D01*
X218161390Y-163590821D01*
X218158065Y-163454557D01*
X218153909Y-163331416D01*
X218148919Y-163225482D01*
X218144605Y-163159463D01*
X218135667Y-163042867D01*
X218206752Y-163251542D01*
X218304990Y-163566213D01*
X218395390Y-163908497D01*
X218476317Y-164270673D01*
X218546136Y-164645018D01*
X218603213Y-165023810D01*
X218631559Y-165258192D01*
X218643460Y-165394914D01*
X218652813Y-165559018D01*
X218659615Y-165743716D01*
X218663865Y-165942218D01*
X218665563Y-166147737D01*
X218664707Y-166353484D01*
X218661296Y-166552670D01*
X218655330Y-166738506D01*
X218646807Y-166904204D01*
X218635726Y-167042976D01*
X218631839Y-167078884D01*
X218555792Y-167604956D01*
X218452875Y-168113238D01*
X218323651Y-168601528D01*
X218168681Y-169067625D01*
X218045709Y-169378266D01*
X218012546Y-169457518D01*
X217985656Y-169523697D01*
X217967555Y-169570464D01*
X217960761Y-169591479D01*
X217960851Y-169592001D01*
X217974547Y-169581873D01*
X218005176Y-169545841D01*
X218049915Y-169487949D01*
X218105945Y-169412240D01*
X218170444Y-169322759D01*
X218240590Y-169223550D01*
X218313565Y-169118655D01*
X218386545Y-169012121D01*
X218456712Y-168907989D01*
X218521243Y-168810305D01*
X218577318Y-168723113D01*
X218622116Y-168650455D01*
X218644056Y-168612571D01*
X218674795Y-168559806D01*
X218697716Y-168525220D01*
X218708707Y-168514886D01*
X218709116Y-168516423D01*
X218703247Y-168543495D01*
X218686556Y-168599312D01*
X218660749Y-168679005D01*
X218627534Y-168777702D01*
X218588618Y-168890533D01*
X218545708Y-169012627D01*
X218500511Y-169139113D01*
X218454734Y-169265121D01*
X218410085Y-169385780D01*
X218368270Y-169496219D01*
X218342214Y-169563277D01*
X218095370Y-170152694D01*
X217830232Y-170712740D01*
X217545383Y-171245704D01*
X217239404Y-171753873D01*
X216910878Y-172239535D01*
X216558388Y-172704978D01*
X216180514Y-173152491D01*
X215985932Y-173365630D01*
X215911924Y-173444979D01*
X215861119Y-173500442D01*
X215831995Y-173534128D01*
X215823032Y-173548150D01*
X215832712Y-173544617D01*
X215859512Y-173525642D01*
X215884110Y-173507008D01*
X216222893Y-173238722D01*
X216561832Y-172952957D01*
X216896754Y-172653853D01*
X217223488Y-172345552D01*
X217537862Y-172032195D01*
X217835703Y-171717922D01*
X218112840Y-171406875D01*
X218365101Y-171103194D01*
X218556218Y-170854802D01*
X218608677Y-170783955D01*
X218653281Y-170724010D01*
X218685803Y-170680627D01*
X218702015Y-170659466D01*
X218702864Y-170658465D01*
X218701517Y-170668730D01*
X218688520Y-170707048D01*
X218665840Y-170768282D01*
X218635439Y-170847290D01*
X218599283Y-170938936D01*
X218559336Y-171038080D01*
X218535640Y-171095933D01*
X218283773Y-171660778D01*
X218001414Y-172207666D01*
X217689408Y-172735470D01*
X217348599Y-173243059D01*
X216979832Y-173729306D01*
X216583954Y-174193082D01*
X216161807Y-174633259D01*
X215714238Y-175048706D01*
X215346460Y-175356114D01*
X214863962Y-175718753D01*
X214355723Y-176057927D01*
X213823921Y-176372701D01*
X213270735Y-176662141D01*
X212698342Y-176925310D01*
X212108922Y-177161274D01*
X211504653Y-177369098D01*
X210887713Y-177547846D01*
X210260281Y-177696583D01*
X209624535Y-177814374D01*
X209618048Y-177815408D01*
X209486732Y-177836296D01*
X209498368Y-177910697D01*
X209514253Y-177993099D01*
X209539163Y-178099749D01*
X209570447Y-178220972D01*
X209605455Y-178347096D01*
X209641534Y-178468446D01*
X209676034Y-178575347D01*
X209695742Y-178630861D01*
X209825921Y-178944372D01*
X209972131Y-179229336D01*
X210136897Y-179490443D01*
X210219737Y-179603990D01*
X210265615Y-179664940D01*
X210301167Y-179713696D01*
X210322173Y-179744373D01*
X210325840Y-179751977D01*
X210309745Y-179742432D01*
X210267714Y-179715495D01*
X210203636Y-179673715D01*
X210121398Y-179619640D01*
X210024890Y-179555817D01*
X209917998Y-179484796D01*
X209908432Y-179478425D01*
X209408966Y-179132505D01*
X208944797Y-178783704D01*
X208515975Y-178432076D01*
X208122544Y-178077676D01*
X207764554Y-177720559D01*
X207442052Y-177360780D01*
X207155083Y-176998393D01*
X206903697Y-176633454D01*
X206687939Y-176266017D01*
X206507858Y-175896137D01*
X206363501Y-175523870D01*
X206287555Y-175275936D01*
X206244338Y-175111943D01*
X206210472Y-174966401D01*
X206184911Y-174830918D01*
X206166610Y-174697104D01*
X206154525Y-174556568D01*
X206147610Y-174400920D01*
X206144819Y-174221768D01*
X206144634Y-174128460D01*
X206145228Y-173975306D01*
X206146875Y-173851364D01*
X206149957Y-173749979D01*
X206154853Y-173664494D01*
X206161946Y-173588254D01*
X206171615Y-173514601D01*
X206184166Y-173437313D01*
X206249468Y-173116383D01*
X206332552Y-172809612D01*
X206436643Y-172507156D01*
X206564964Y-172199173D01*
X206647250Y-172023418D01*
X206712906Y-171890379D01*
X206777154Y-171765647D01*
X206842980Y-171644176D01*
X206913371Y-171520919D01*
X206991312Y-171390828D01*
X207079787Y-171248858D01*
X207181784Y-171089960D01*
X207300286Y-170909087D01*
X207358137Y-170821678D01*
X207530418Y-170553795D01*
X207677289Y-170307051D01*
X207799935Y-170078506D01*
X207899543Y-169865224D01*
X207977300Y-169664266D01*
X208034391Y-169472695D01*
X208072005Y-169287573D01*
X208091326Y-169105962D01*
X208094631Y-168998234D01*
X208085081Y-168811673D01*
X208053468Y-168647345D01*
X207997307Y-168497423D01*
X207914114Y-168354080D01*
X207871624Y-168295405D01*
X207755190Y-168171056D01*
X207611552Y-168064006D01*
X207445845Y-167976020D01*
X207263203Y-167908866D01*
X207068761Y-167864309D01*
X206867656Y-167844118D01*
X206665021Y-167850057D01*
X206599906Y-167857878D01*
X206465002Y-167884487D01*
X206311973Y-167926763D01*
X206152770Y-167980821D01*
X205999347Y-168042775D01*
X205924469Y-168077481D01*
X205843021Y-168120300D01*
X205749003Y-168174512D01*
X205650352Y-168235037D01*
X205555002Y-168296795D01*
X205470890Y-168354706D01*
X205405951Y-168403690D01*
X205380515Y-168425707D01*
X205345914Y-168454775D01*
X205321564Y-168468829D01*
X205319743Y-168469068D01*
X205313626Y-168452604D01*
X205312859Y-168408092D01*
X205316784Y-168342854D01*
X205324741Y-168264211D01*
X205336069Y-168179483D01*
X205350109Y-168095992D01*
X205356091Y-168065764D01*
X205426481Y-167808335D01*
X205526581Y-167568095D01*
X205655114Y-167347435D01*
X205810808Y-167148742D01*
X205887854Y-167068633D01*
X206035459Y-166942075D01*
X206206299Y-166825136D01*
X206389975Y-166723686D01*
X206576088Y-166643595D01*
X206720423Y-166598675D01*
X206789464Y-166577614D01*
X206840254Y-166549771D01*
X206888988Y-166505278D01*
X206908381Y-166484142D01*
X207086488Y-166298871D01*
X207265710Y-166141940D01*
X207454909Y-166006663D01*
X207662946Y-165886351D01*
X207773088Y-165831481D01*
X207903844Y-165772648D01*
X208034364Y-165721576D01*
X208169056Y-165677347D01*
X208312330Y-165639040D01*
X208468594Y-165605737D01*
X208642256Y-165576520D01*
X208837726Y-165550470D01*
X209059412Y-165526667D01*
X209311724Y-165504193D01*
X209363700Y-165499981D01*
X209520716Y-165486907D01*
X209647149Y-165474904D01*
X209748234Y-165463056D01*
X209829208Y-165450448D01*
X209895309Y-165436164D01*
X209951772Y-165419286D01*
X210003835Y-165398900D01*
X210041945Y-165381337D01*
X210149643Y-165312299D01*
X210227141Y-165223980D01*
X210274395Y-165116536D01*
X210291360Y-164990119D01*
X210277992Y-164844886D01*
X210239288Y-164696069D01*
X210215716Y-164628822D01*
X210191846Y-164567980D01*
X210176669Y-164534526D01*
X210161192Y-164496677D01*
X210159565Y-164474382D01*
X210160018Y-164473833D01*
X210179884Y-164475983D01*
X210221868Y-164491295D01*
X210268712Y-164512570D01*
X210450934Y-164617210D01*
X210607731Y-164739409D01*
X210736905Y-164876624D01*
X210836261Y-165026312D01*
X210903600Y-165185931D01*
X210925309Y-165272397D01*
X210939695Y-165412128D01*
X210934092Y-165565966D01*
X210909657Y-165719038D01*
X210883157Y-165814265D01*
X210862774Y-165878116D01*
X210849119Y-165927607D01*
X210844509Y-165954114D01*
X210845066Y-165956166D01*
X210867560Y-165955413D01*
X210908543Y-165934182D01*
X210961114Y-165897344D01*
X211018371Y-165849768D01*
X211073415Y-165796325D01*
X211077032Y-165792463D01*
X211168684Y-165670238D01*
X211230298Y-165531588D01*
X211262201Y-165384643D01*
X211275038Y-165285099D01*
X211330712Y-165419633D01*
X211380706Y-165552558D01*
X211412674Y-165671023D01*
X211429635Y-165789621D01*
X211434607Y-165921893D01*
X211428455Y-166054554D01*
X211407216Y-166166408D01*
X211366864Y-166270772D01*
X211303377Y-166380967D01*
X211289600Y-166401825D01*
X211254232Y-166458303D01*
X211230761Y-166503223D01*
X211223113Y-166528800D01*
X211224266Y-166531376D01*
X211523622Y-166790027D01*
X211793784Y-167056329D01*
X212041417Y-167336907D01*
X212069677Y-167371531D01*
X212120289Y-167435755D01*
X212186029Y-167521698D01*
X212262458Y-167623320D01*
X212345140Y-167734578D01*
X212429636Y-167849433D01*
X212511510Y-167961843D01*
X212586324Y-168065768D01*
X212649641Y-168155166D01*
X212697023Y-168223996D01*
X212707954Y-168240474D01*
X212710159Y-168251467D01*
X212690913Y-168245949D01*
X212648567Y-168222972D01*
X212581471Y-168181590D01*
X212487978Y-168120852D01*
X212410789Y-168069553D01*
X212181525Y-167919076D01*
X211955087Y-167775925D01*
X211738522Y-167644420D01*
X211538875Y-167528880D01*
X211439252Y-167473930D01*
X211281541Y-167388725D01*
X211400698Y-167556686D01*
X211599719Y-167861163D01*
X211765977Y-168166934D01*
X211898273Y-168471705D01*
X211940524Y-168590156D01*
X211987330Y-168739285D01*
X212022952Y-168876827D01*
X212049002Y-169012615D01*
X212067097Y-169156485D01*
X212078850Y-169318272D01*
X212084827Y-169469103D01*
X212088121Y-169575951D01*
X212091344Y-169669358D01*
X212094278Y-169743855D01*
X212096705Y-169793970D01*
X212098410Y-169814233D01*
X212098530Y-169814407D01*
X212117577Y-169808527D01*
X212163601Y-169792500D01*
X212229976Y-169768748D01*
X212310076Y-169739690D01*
X212397275Y-169707748D01*
X212484948Y-169675340D01*
X212566468Y-169644889D01*
X212635210Y-169618814D01*
X212657277Y-169610294D01*
X213009661Y-169458520D01*
X213365925Y-169276886D01*
X213719258Y-169069778D01*
X214062850Y-168841582D01*
X214389890Y-168596684D01*
X214693569Y-168339470D01*
X214832973Y-168209113D01*
X215144308Y-167885911D01*
X215421996Y-167551307D01*
X215666822Y-167203780D01*
X215879566Y-166841813D01*
X216061012Y-166463885D01*
X216211943Y-166068477D01*
X216333140Y-165654069D01*
X216425387Y-165219142D01*
X216449762Y-165069845D01*
X216466373Y-164934561D01*
X216480038Y-164771746D01*
X216490542Y-164589642D01*
X216497671Y-164396488D01*
X216501210Y-164200526D01*
X216500943Y-164009995D01*
X216496657Y-163833138D01*
X216488138Y-163678194D01*
X216486536Y-163658013D01*
X216432086Y-163176118D01*
X216347881Y-162685935D01*
X216233491Y-162185767D01*
X216088490Y-161673919D01*
X215912448Y-161148694D01*
X215735510Y-160684039D01*
X215661365Y-160504234D01*
X215576939Y-160308216D01*
X215485606Y-160103246D01*
X215390740Y-159896584D01*
X215295715Y-159695491D01*
X215203904Y-159507227D01*
X215118681Y-159339054D01*
X215054104Y-159217620D01*
X215017751Y-159149799D01*
X214990080Y-159095371D01*
X214974268Y-159060774D01*
X214972220Y-159051695D01*
X214991790Y-159062896D01*
G37*
D11*
%TO.C,SW450*%
X316124838Y-137352409D02*
X329882603Y-134926544D01*
X318550703Y-151110173D02*
X316124838Y-137352409D01*
X329882603Y-134926544D02*
X332308468Y-148684309D01*
X332308468Y-148684309D02*
X318550703Y-151110173D01*
%TO.C,SW444*%
X289921255Y-98449082D02*
X303679020Y-96023217D01*
X292347120Y-112206846D02*
X289921255Y-98449082D01*
X303679020Y-96023217D02*
X306104885Y-109780982D01*
X306104885Y-109780982D02*
X292347120Y-112206846D01*
%TO.C,SW429*%
X234466492Y-113063225D02*
X248224257Y-110637360D01*
X236892357Y-126820989D02*
X234466492Y-113063225D01*
X248224257Y-110637360D02*
X250650122Y-124395125D01*
X250650122Y-124395125D02*
X236892357Y-126820989D01*
%TO.C,SW439*%
X270333669Y-97066935D02*
X284091434Y-94641070D01*
X272759534Y-110824699D02*
X270333669Y-97066935D01*
X284091434Y-94641070D02*
X286517299Y-108398835D01*
X286517299Y-108398835D02*
X272759534Y-110824699D01*
%TO.C,SW451*%
X334341726Y-76108649D02*
X348099491Y-73682784D01*
X336767591Y-89866413D02*
X334341726Y-76108649D01*
X348099491Y-73682784D02*
X350525356Y-87440549D01*
X350525356Y-87440549D02*
X336767591Y-89866413D01*
%TO.C,SW436*%
X259016076Y-142586254D02*
X272773841Y-140160389D01*
X261441941Y-156344018D02*
X259016076Y-142586254D01*
X272773841Y-140160389D02*
X275199706Y-153918154D01*
X275199706Y-153918154D02*
X261441941Y-156344018D01*
%TO.C,SW417*%
X132274238Y-173014643D02*
X137052260Y-159887137D01*
X137052260Y-159887137D02*
X150179765Y-164665158D01*
X145401743Y-177792664D02*
X132274238Y-173014643D01*
X150179765Y-164665158D02*
X145401743Y-177792664D01*
%TO.C,SW414*%
X131000541Y-108492188D02*
X133426406Y-94734423D01*
X133426406Y-94734423D02*
X147184170Y-97160288D01*
X144758305Y-110918053D02*
X131000541Y-108492188D01*
X147184170Y-97160288D02*
X144758305Y-110918053D01*
%TO.C,SW438*%
X267025671Y-78306346D02*
X280783436Y-75880481D01*
X269451536Y-92064110D02*
X267025671Y-78306346D01*
X280783436Y-75880481D02*
X283209301Y-89638246D01*
X283209301Y-89638246D02*
X269451536Y-92064110D01*
%TO.C,SW434*%
X252400080Y-105065080D02*
X266157845Y-102639215D01*
X254825945Y-118822844D02*
X252400080Y-105065080D01*
X266157845Y-102639215D02*
X268583710Y-116396980D01*
X268583710Y-116396980D02*
X254825945Y-118822844D01*
%TO.C,SW430*%
X237774490Y-131823811D02*
X251532255Y-129397946D01*
X240200355Y-145581575D02*
X237774490Y-131823811D01*
X251532255Y-129397946D02*
X253958120Y-143155711D01*
X253958120Y-143155711D02*
X240200355Y-145581575D01*
%TO.C,SW421*%
X142318131Y-154011509D02*
X144743996Y-140253744D01*
X144743996Y-140253744D02*
X158501760Y-142679609D01*
X156075895Y-156437374D02*
X142318131Y-154011509D01*
X158501760Y-142679609D02*
X156075895Y-156437374D01*
%TO.C,C5*%
X216546597Y-124098208D02*
X216546597Y-124379368D01*
X217566597Y-124098208D02*
X217566597Y-124379368D01*
%TO.C,F1*%
X215154678Y-114490145D02*
X214637522Y-114490145D01*
X215154678Y-115910145D02*
X214637522Y-115910145D01*
%TO.C,C4*%
X203886100Y-108113098D02*
X203886100Y-108394258D01*
X204906100Y-108113098D02*
X204906100Y-108394258D01*
%TO.C,SW411*%
X108104954Y-128634924D02*
X110530819Y-114877159D01*
X110530819Y-114877159D02*
X124288583Y-117303024D01*
X121862718Y-131060789D02*
X108104954Y-128634924D01*
X124288583Y-117303024D02*
X121862718Y-131060789D01*
%TO.C,SW427*%
X168217580Y-191108886D02*
X177197324Y-180407245D01*
X177197324Y-180407245D02*
X187898964Y-189386990D01*
X178919220Y-200088628D02*
X168217580Y-191108886D01*
X187898964Y-189386990D02*
X178919220Y-200088628D01*
%TO.C,SW448*%
X309508842Y-99831234D02*
X323266607Y-97405369D01*
X311934707Y-113588998D02*
X309508842Y-99831234D01*
X323266607Y-97405369D02*
X325692472Y-111163134D01*
X325692472Y-111163134D02*
X311934707Y-113588998D01*
%TO.C,SW431*%
X241082488Y-150584399D02*
X254840253Y-148158534D01*
X243508353Y-164342163D02*
X241082488Y-150584399D01*
X254840253Y-148158534D02*
X257266118Y-161916299D01*
X257266118Y-161916299D02*
X243508353Y-164342163D01*
%TO.C,C1*%
X213136100Y-108122065D02*
X213136100Y-108403225D01*
X214156100Y-108122065D02*
X214156100Y-108403225D01*
%TO.C,SW408*%
X85209371Y-148777662D02*
X87635236Y-135019897D01*
X87635236Y-135019897D02*
X101393000Y-137445762D01*
X98967135Y-151203527D02*
X85209371Y-148777662D01*
X101393000Y-137445762D02*
X98967135Y-151203527D01*
%TO.C,SW55*%
X198776100Y-132586644D02*
X199076100Y-132586644D01*
X198776100Y-136726644D02*
X198776100Y-132586644D01*
X199076100Y-136726644D02*
X198776100Y-136726644D01*
X201616100Y-132586644D02*
X201916100Y-132586644D01*
X201916100Y-132586644D02*
X201916100Y-136726644D01*
X201916100Y-136726644D02*
X201616100Y-136726644D01*
%TO.C,SW435*%
X255708078Y-123825666D02*
X269465843Y-121399801D01*
X258133943Y-137583430D02*
X255708078Y-123825666D01*
X269465843Y-121399801D02*
X271891708Y-135157566D01*
X271891708Y-135157566D02*
X258133943Y-137583430D01*
%TO.C,R8*%
X203873600Y-111469386D02*
X203873600Y-111943902D01*
X204918600Y-111469386D02*
X204918600Y-111943902D01*
%TO.C,SW410*%
X111412951Y-109874338D02*
X113838816Y-96116573D01*
X113838816Y-96116573D02*
X127596580Y-98542438D01*
X125170715Y-112300203D02*
X111412951Y-109874338D01*
X127596580Y-98542438D02*
X125170715Y-112300203D01*
%TO.C,Y1*%
X202546100Y-140406644D02*
X202546100Y-145506644D01*
X202546100Y-145506644D02*
X215146100Y-145506644D01*
X215146100Y-140406644D02*
X202546100Y-140406644D01*
%TO.C,SW409*%
X114720949Y-91113751D02*
X117146814Y-77355986D01*
X117146814Y-77355986D02*
X130904578Y-79781851D01*
X128478713Y-93539616D02*
X114720949Y-91113751D01*
X130904578Y-79781851D02*
X128478713Y-93539616D01*
%TO.C,J2*%
X204965603Y-146861682D02*
X212705603Y-146861682D01*
X204965603Y-149461682D02*
X204965603Y-146861682D01*
X204965603Y-152061682D02*
X204965603Y-150731682D01*
X206295603Y-152061682D02*
X204965603Y-152061682D01*
X207565603Y-149461682D02*
X204965603Y-149461682D01*
X207565603Y-152061682D02*
X207565603Y-149461682D01*
X207565603Y-152061682D02*
X212705603Y-152061682D01*
X212705603Y-152061682D02*
X212705603Y-146861682D01*
%TO.C,R7*%
X200108842Y-138359144D02*
X200583358Y-138359144D01*
X200108842Y-139404144D02*
X200583358Y-139404144D01*
%TO.C,SW423*%
X170175714Y-105727889D02*
X172601579Y-91970124D01*
X172601579Y-91970124D02*
X186359343Y-94395989D01*
X183933478Y-108153754D02*
X170175714Y-105727889D01*
X186359343Y-94395989D02*
X183933478Y-108153754D01*
D10*
%TO.C,U1*%
X204121100Y-122581644D02*
X204121100Y-123256644D01*
X204121100Y-122581644D02*
X204796100Y-122581644D01*
X204121100Y-132931644D02*
X204121100Y-132256644D01*
X204121100Y-132931644D02*
X204796100Y-132931644D01*
X214471100Y-122581644D02*
X213856100Y-122581644D01*
X214471100Y-122581644D02*
X214471100Y-123256644D01*
X214471100Y-132931644D02*
X213796100Y-132931644D01*
X214471100Y-132931644D02*
X214471100Y-132256644D01*
D11*
X214306100Y-122236644D02*
X213836100Y-121896644D01*
X214306100Y-121556644D01*
X214306100Y-122236644D01*
G36*
X214306100Y-122236644D02*
G01*
X213836100Y-121896644D01*
X214306100Y-121556644D01*
X214306100Y-122236644D01*
G37*
%TO.C,SW454*%
X344265719Y-132390410D02*
X358023484Y-129964545D01*
X346691584Y-146148174D02*
X344265719Y-132390410D01*
X358023484Y-129964545D02*
X360449349Y-143722310D01*
X360449349Y-143722310D02*
X346691584Y-146148174D01*
%TO.C,C2*%
X213136100Y-111872065D02*
X213136100Y-112153225D01*
X214156100Y-111872065D02*
X214156100Y-112153225D01*
%TO.C,SW418*%
X152242126Y-97729745D02*
X154667991Y-83971980D01*
X154667991Y-83971980D02*
X168425755Y-86397845D01*
X165999890Y-100155610D02*
X152242126Y-97729745D01*
X168425755Y-86397845D02*
X165999890Y-100155610D01*
%TO.C,R6*%
X214058842Y-135184144D02*
X214533358Y-135184144D01*
X214058842Y-136229144D02*
X214533358Y-136229144D01*
%TO.C,SW413*%
X134308536Y-89731601D02*
X136734401Y-75973836D01*
X136734401Y-75973836D02*
X150492165Y-78399701D01*
X148066300Y-92157466D02*
X134308536Y-89731601D01*
X150492165Y-78399701D02*
X148066300Y-92157466D01*
%TO.C,SW425*%
X163559717Y-143249065D02*
X165985582Y-129491300D01*
X165985582Y-129491300D02*
X179743346Y-131917165D01*
X177317481Y-145674930D02*
X163559717Y-143249065D01*
X179743346Y-131917165D02*
X177317481Y-145674930D01*
%TO.C,SW426*%
X160251721Y-162009653D02*
X162677586Y-148251888D01*
X162677586Y-148251888D02*
X176435350Y-150677753D01*
X174009485Y-164435518D02*
X160251721Y-162009653D01*
X176435350Y-150677753D02*
X174009485Y-164435518D01*
%TO.C,SW449*%
X312816840Y-118591820D02*
X326574605Y-116165955D01*
X315242705Y-132349584D02*
X312816840Y-118591820D01*
X326574605Y-116165955D02*
X329000470Y-129923720D01*
X329000470Y-129923720D02*
X315242705Y-132349584D01*
%TO.C,J1*%
X204376100Y-101726644D02*
X204376100Y-103426644D01*
X213716100Y-101726644D02*
X213716100Y-103426644D01*
%TO.C,SW415*%
X127692543Y-127252776D02*
X130118408Y-113495011D01*
X130118408Y-113495011D02*
X143876172Y-115920876D01*
X141450307Y-129678641D02*
X127692543Y-127252776D01*
X143876172Y-115920876D02*
X141450307Y-129678641D01*
%TO.C,SW419*%
X148934128Y-116490332D02*
X151359993Y-102732567D01*
X151359993Y-102732567D02*
X165117757Y-105158432D01*
X162691892Y-118916197D02*
X148934128Y-116490332D01*
X165117757Y-105158432D02*
X162691892Y-118916197D01*
%TD*%
M02*
