M48
; DRILL file {KiCad 8.0.0} date 2024-04-28T13:48:37+0200
; FORMAT={-:-/ absolute / inch / decimal}
; #@! TF.CreationDate,2024-04-28T13:48:37+02:00
; #@! TF.GenerationSoftware,Kicad,Pcbnew,8.0.0
; #@! TF.FileFunction,NonPlated,1,4,NPTH
FMAT,2
INCH
; #@! TA.AperFunction,NonPlated,NPTH,ComponentDrill
T1C0.0256
; #@! TA.AperFunction,NonPlated,NPTH,ComponentDrill
T2C0.0669
; #@! TA.AperFunction,NonPlated,NPTH,ComponentDrill
T3C0.0866
; #@! TA.AperFunction,NonPlated,NPTH,ComponentDrill
T4C0.1260
; #@! TA.AperFunction,NonPlated,NPTH,ComponentDrill
T5C0.1575
%
G90
G05
T1
X8.1164Y-4.1036
X8.3439Y-4.1036
T2
X2.3684Y-5.4042
X2.4986Y-4.6656
X2.6289Y-3.927
X2.7591Y-3.1884
X2.7623Y-5.4737
X2.8926Y-4.7351
X3.0228Y-3.9965
X3.153Y-3.2579
X3.4763Y-5.5996
X3.6065Y-4.861
X3.7368Y-4.1224
X3.867Y-3.3838
X3.8702Y-5.669
X4.0005Y-4.9304
X4.1307Y-4.1918
X4.2475Y-5.5452
X4.2609Y-3.4532
X4.3777Y-4.8066
X4.508Y-4.068
X4.6382Y-3.3294
X4.6414Y-5.6146
X4.7716Y-4.876
X4.9019Y-4.1374
X5.0186Y-5.4908
X5.0321Y-3.3988
X5.1489Y-4.7522
X5.2791Y-4.0135
X5.3722Y-6.5788
X5.4094Y-3.2749
X5.4126Y-5.5602
X5.5428Y-4.8216
X5.673Y-4.083
X5.7247Y-5.8056
X5.7481Y-6.7156
X5.8033Y-3.3444
X5.8549Y-5.067
X5.9852Y-4.3284
X6.1154Y-3.5898
X6.1186Y-5.8751
X6.1464Y-6.9069
X6.2488Y-5.1365
X6.3791Y-4.3979
X6.4307Y-6.1205
X6.4928Y-7.1069
X6.5093Y-3.6593
X6.561Y-5.3819
X6.6912Y-4.6433
X6.8214Y-3.9047
X6.8247Y-6.19
X6.857Y-7.3615
X6.9549Y-5.4514
X7.0851Y-4.7128
X7.1634Y-7.6186
X7.2154Y-3.9742
X9.2223Y-3.9705
X9.27Y-7.6123
X9.3526Y-4.7091
X9.4828Y-5.4477
X9.5764Y-7.3552
X9.6131Y-6.1863
X9.6163Y-3.901
X9.7465Y-4.6396
X9.8767Y-5.3783
X9.9284Y-3.6556
X9.9368Y-7.1035
X10.007Y-6.1169
X10.0586Y-4.3942
X10.1889Y-5.1328
X10.2832Y-6.9035
X10.3191Y-5.8714
X10.3223Y-3.5862
X10.4525Y-4.3248
X10.5828Y-5.0634
X10.6344Y-3.3407
X10.6843Y-6.7169
X10.713Y-5.802
X10.7647Y-4.0793
X10.8949Y-4.8179
X11.0251Y-5.5565
X11.0284Y-3.2713
X11.0602Y-6.5801
X11.1586Y-4.0099
X11.2888Y-4.7485
X11.4056Y-3.3951
X11.4191Y-5.4871
X11.5358Y-4.1337
X11.6661Y-4.8724
X11.7963Y-5.611
X11.7995Y-3.3257
X11.9298Y-4.0643
X12.06Y-4.8029
X12.1768Y-3.4496
X12.1902Y-5.5415
X12.307Y-4.1882
X12.4372Y-4.9268
X12.5675Y-5.6654
X12.5707Y-3.3801
X12.7009Y-4.1187
X12.8312Y-4.8573
X12.9614Y-5.5959
X13.2847Y-3.2542
X13.4149Y-3.9928
X13.5451Y-4.7314
X13.6754Y-5.47
X13.6786Y-3.1847
X13.8088Y-3.9233
X13.9391Y-4.662
X14.0693Y-5.4006
T3
X7.5787Y-6.7913
X7.8059Y-4.0829
X8.6544Y-4.0829
X8.9262Y-6.7876
T4
X3.0807Y-5.5512
X3.5039Y-3.3465
X12.9528Y-3.3465
X13.3071Y-5.5512
T5
X2.5654Y-5.439
X2.6956Y-4.7004
X2.8258Y-3.9618
X2.9561Y-3.2231
X3.6733Y-5.6343
X3.8035Y-4.8957
X3.9337Y-4.1571
X4.064Y-3.4185
X4.4444Y-5.5799
X4.5747Y-4.8413
X4.7049Y-4.1027
X4.8351Y-3.3641
X5.2156Y-5.5255
X5.3458Y-4.7869
X5.4761Y-4.0483
X5.5601Y-6.6472
X5.6063Y-3.3097
X5.9217Y-5.8404
X6.0519Y-5.1018
X6.1821Y-4.3632
X6.3124Y-3.6246
X6.3196Y-7.0069
X6.6277Y-6.1553
X6.7579Y-5.4167
X6.8882Y-4.6781
X7.0102Y-7.4901
X7.0184Y-3.9394
X9.4193Y-3.9358
X9.4232Y-7.4838
X9.5495Y-4.6744
X9.6798Y-5.413
X9.81Y-6.1516
X10.11Y-7.0035
X10.1254Y-3.6209
X10.2556Y-4.3595
X10.3858Y-5.0981
X10.5161Y-5.8367
X10.8314Y-3.306
X10.8722Y-6.6485
X10.9616Y-4.0446
X11.0919Y-4.7832
X11.2221Y-5.5218
X11.6026Y-3.3604
X11.7328Y-4.099
X11.863Y-4.8376
X11.9933Y-5.5762
X12.3737Y-3.4148
X12.504Y-4.1534
X12.6342Y-4.892
X12.7644Y-5.6306
X13.4816Y-3.2195
X13.6119Y-3.9581
X13.7421Y-4.6967
X13.8723Y-5.4353
M30
