%TF.GenerationSoftware,KiCad,Pcbnew,8.0.0*%
%TF.CreationDate,2024-04-28T13:48:32+02:00*%
%TF.ProjectId,phnx,70686e78-2e6b-4696-9361-645f70636258,A*%
%TF.SameCoordinates,Original*%
%TF.FileFunction,Soldermask,Bot*%
%TF.FilePolarity,Negative*%
%FSLAX46Y46*%
G04 Gerber Fmt 4.6, Leading zero omitted, Abs format (unit mm)*
G04 Created by KiCad (PCBNEW 8.0.0) date 2024-04-28 13:48:32*
%MOMM*%
%LPD*%
G01*
G04 APERTURE LIST*
G04 Aperture macros list*
%AMRoundRect*
0 Rectangle with rounded corners*
0 $1 Rounding radius*
0 $2 $3 $4 $5 $6 $7 $8 $9 X,Y pos of 4 corners*
0 Add a 4 corners polygon primitive as box body*
4,1,4,$2,$3,$4,$5,$6,$7,$8,$9,$2,$3,0*
0 Add four circle primitives for the rounded corners*
1,1,$1+$1,$2,$3*
1,1,$1+$1,$4,$5*
1,1,$1+$1,$6,$7*
1,1,$1+$1,$8,$9*
0 Add four rect primitives between the rounded corners*
20,1,$1+$1,$2,$3,$4,$5,0*
20,1,$1+$1,$4,$5,$6,$7,0*
20,1,$1+$1,$6,$7,$8,$9,0*
20,1,$1+$1,$8,$9,$2,$3,0*%
%AMRotRect*
0 Rectangle, with rotation*
0 The origin of the aperture is its center*
0 $1 length*
0 $2 width*
0 $3 Rotation angle, in degrees counterclockwise*
0 Add horizontal line*
21,1,$1,$2,0,0,$3*%
G04 Aperture macros list end*
%ADD10C,1.700000*%
%ADD11C,4.000000*%
%ADD12C,2.200000*%
%ADD13C,3.200000*%
%ADD14R,1.700000X1.700000*%
%ADD15O,1.700000X1.700000*%
%ADD16C,0.650000*%
%ADD17O,1.000000X2.100000*%
%ADD18O,1.000000X1.800000*%
%ADD19RoundRect,0.225000X-0.408374X0.156464X-0.330232X-0.286700X0.408374X-0.156464X0.330232X0.286700X0*%
%ADD20RoundRect,0.225000X0.207131X-0.264994X0.285273X0.178170X-0.207131X0.264994X-0.285273X-0.178170X0*%
%ADD21RotRect,1.800000X0.820000X190.000000*%
%ADD22RoundRect,0.225000X0.104006X-0.319856X0.329006X0.069856X-0.104006X0.319856X-0.329006X-0.069856X0*%
%ADD23RoundRect,0.225000X0.285273X-0.178170X0.207131X0.264994X-0.285273X0.178170X-0.207131X-0.264994X0*%
%ADD24RotRect,1.800000X0.820000X170.000000*%
%ADD25RoundRect,0.225000X-0.330232X0.286700X-0.408374X-0.156464X0.330232X-0.286700X0.408374X0.156464X0*%
%ADD26RoundRect,0.225000X-0.275430X0.339688X-0.429339X-0.083173X0.275430X-0.339688X0.429339X0.083173X0*%
%ADD27RotRect,1.800000X0.820000X210.000000*%
%ADD28RoundRect,0.225000X-0.437260X0.007356X-0.212260X-0.382356X0.437260X-0.007356X0.212260X0.382356X0*%
%ADD29RotRect,1.800000X0.820000X150.000000*%
%ADD30RotRect,1.800000X0.820000X160.000000*%
%ADD31RoundRect,0.225000X0.046884X-0.333057X0.336138X0.011663X-0.046884X0.333057X-0.336138X-0.011663X0*%
%ADD32RoundRect,0.225000X0.157969X-0.296936X0.311878X0.125926X-0.157969X0.296936X-0.311878X-0.125926X0*%
%ADD33RoundRect,0.225000X-0.212260X0.382356X-0.437260X-0.007356X0.212260X-0.382356X0.437260X0.007356X0*%
%ADD34RotRect,1.800000X0.820000X140.000000*%
%ADD35RoundRect,0.225000X-0.431894X-0.068685X-0.142639X-0.413405X0.431894X0.068685X0.142639X0.413405X0*%
%ADD36RoundRect,0.225000X0.329006X-0.069856X0.104006X0.319856X-0.329006X0.069856X-0.104006X-0.319856X0*%
%ADD37RotRect,1.800000X0.820000X200.000000*%
%ADD38RoundRect,0.225000X-0.142639X0.413405X-0.431894X0.068685X0.142639X-0.413405X0.431894X-0.068685X0*%
%ADD39RotRect,1.800000X0.820000X220.000000*%
%ADD40RoundRect,0.225000X0.336138X-0.011663X0.046884X0.333057X-0.336138X0.011663X-0.046884X-0.333057X0*%
%ADD41RoundRect,0.225000X-0.429339X0.083173X-0.275430X-0.339688X0.429339X-0.083173X0.275430X0.339688X0*%
%ADD42RoundRect,0.225000X0.311878X-0.125926X0.157969X0.296936X-0.311878X0.125926X-0.157969X-0.296936X0*%
G04 APERTURE END LIST*
D10*
%TO.C,SW452*%
X340738716Y-101417320D03*
D11*
X345741539Y-100535188D03*
D10*
X350744362Y-99653055D03*
D12*
X347360818Y-95091298D03*
X341548355Y-98695376D03*
%TD*%
D10*
%TO.C,SW412*%
X107885949Y-140847432D03*
D11*
X112888773Y-141729565D03*
D10*
X117891596Y-142611698D03*
D12*
X116272317Y-137167808D03*
X109577721Y-138566554D03*
%TD*%
D10*
%TO.C,SW442*%
X271381341Y-170608821D03*
D11*
X276154979Y-168871360D03*
D10*
X280928617Y-167133896D03*
D12*
X276804336Y-163228990D03*
X271706019Y-167787638D03*
%TD*%
D10*
%TO.C,SW420*%
X148715121Y-128702840D03*
D11*
X153717945Y-129584973D03*
D10*
X158720768Y-130467106D03*
D12*
X157101489Y-125023216D03*
X150406893Y-126421962D03*
%TD*%
D10*
%TO.C,SW422*%
X156117345Y-175435441D03*
D11*
X160516755Y-177975440D03*
D10*
X164916164Y-180515441D03*
D12*
X165256459Y-174846032D03*
X158487197Y-173870737D03*
%TD*%
%TO.C,H3*%
X192500000Y-172500000D03*
%TD*%
D10*
%TO.C,SW405*%
X98222353Y-85947817D03*
D11*
X103225177Y-86829950D03*
D10*
X108228000Y-87712083D03*
D12*
X106608721Y-82268193D03*
X99914125Y-83666939D03*
%TD*%
D13*
%TO.C,H8*%
X338000000Y-141000000D03*
%TD*%
D10*
%TO.C,SW445*%
X296318245Y-123757754D03*
D11*
X301321068Y-122875622D03*
D10*
X306323891Y-121993489D03*
D12*
X302940347Y-117431732D03*
X297127884Y-121035810D03*
%TD*%
D10*
%TO.C,SW407*%
X91606359Y-123468989D03*
D11*
X96609183Y-124351122D03*
D10*
X101612006Y-125233255D03*
D12*
X99992727Y-119789365D03*
X93298131Y-121188111D03*
%TD*%
D10*
%TO.C,SW441*%
X280038657Y-141136191D03*
D11*
X285041480Y-140254059D03*
D10*
X290044303Y-139371926D03*
D12*
X286660759Y-134810169D03*
X280848296Y-138414247D03*
%TD*%
D10*
%TO.C,SW453*%
X344046716Y-120177905D03*
D11*
X349049539Y-119295773D03*
D10*
X354052362Y-118413640D03*
D12*
X350668818Y-113851883D03*
X344856355Y-117455961D03*
%TD*%
%TO.C,H2*%
X219821100Y-103706644D03*
%TD*%
D10*
%TO.C,SW404*%
X60157478Y-137267582D03*
D11*
X65160302Y-138149715D03*
D10*
X70163125Y-139031848D03*
D12*
X68543846Y-133587958D03*
X61849250Y-134986704D03*
%TD*%
D10*
%TO.C,SW432*%
X235457086Y-193352897D03*
D11*
X239348590Y-190087537D03*
D10*
X243240096Y-186822176D03*
D12*
X238028982Y-184563351D03*
X234797281Y-190590806D03*
%TD*%
D10*
%TO.C,SW402*%
X66773475Y-99746406D03*
D11*
X71776299Y-100628539D03*
D10*
X76779122Y-101510672D03*
D12*
X75159843Y-96066782D03*
X68465247Y-97465528D03*
%TD*%
%TO.C,H4*%
X226726000Y-172406000D03*
%TD*%
D10*
%TO.C,SW446*%
X299626243Y-142518343D03*
D11*
X304629066Y-141636211D03*
D10*
X309631889Y-140754078D03*
D12*
X306248345Y-136192321D03*
X300435882Y-139796399D03*
%TD*%
D10*
%TO.C,SW433*%
X252181074Y-92852574D03*
D11*
X257183897Y-91970442D03*
D10*
X262186720Y-91088309D03*
D12*
X258803176Y-86526552D03*
X252990713Y-90130630D03*
%TD*%
D10*
%TO.C,SW401*%
X70081474Y-80985817D03*
D11*
X75084298Y-81867950D03*
D10*
X80087121Y-82750083D03*
D12*
X78467842Y-77306193D03*
X71773246Y-78704939D03*
%TD*%
D10*
%TO.C,SW428*%
X234247486Y-100850718D03*
D11*
X239250309Y-99968586D03*
D10*
X244253132Y-99086453D03*
D12*
X240869588Y-94524696D03*
X235057125Y-98128774D03*
%TD*%
D10*
%TO.C,SW424*%
X169956706Y-117940395D03*
D11*
X174959530Y-118822528D03*
D10*
X179962353Y-119704661D03*
D12*
X178343074Y-114260771D03*
X171648478Y-115659517D03*
%TD*%
D10*
%TO.C,SW416*%
X127473535Y-139465281D03*
D11*
X132476359Y-140347414D03*
D10*
X137479182Y-141229547D03*
D12*
X135859903Y-135785657D03*
X129165307Y-137184403D03*
%TD*%
D10*
%TO.C,SW443*%
X289702250Y-86236580D03*
D11*
X294705073Y-85354448D03*
D10*
X299707896Y-84472315D03*
D12*
X296324352Y-79910558D03*
X290511889Y-83514636D03*
%TD*%
D10*
%TO.C,SW437*%
X252393756Y-180429480D03*
D11*
X256793164Y-177889481D03*
D10*
X261192573Y-175349480D03*
D12*
X256452869Y-172220072D03*
X252223608Y-177594777D03*
%TD*%
D10*
%TO.C,SW403*%
X63465477Y-118506997D03*
D11*
X68468301Y-119389130D03*
D10*
X73471124Y-120271263D03*
D12*
X71851845Y-114827373D03*
X65157249Y-116226119D03*
%TD*%
D10*
%TO.C,SW406*%
X94914355Y-104708404D03*
D11*
X99917179Y-105590537D03*
D10*
X104920002Y-106472670D03*
D12*
X103300723Y-101028780D03*
X96606127Y-102427526D03*
%TD*%
D10*
%TO.C,SW447*%
X309289836Y-87618727D03*
D11*
X314292659Y-86736595D03*
D10*
X319295482Y-85854462D03*
D12*
X315911938Y-81292705D03*
X310099475Y-84896783D03*
%TD*%
D10*
%TO.C,SW440*%
X276730659Y-122375605D03*
D11*
X281733482Y-121493473D03*
D10*
X286736305Y-120611340D03*
D12*
X283352761Y-116049583D03*
X277540298Y-119653661D03*
%TD*%
D10*
%TO.C,SW450*%
X319213830Y-143900491D03*
D11*
X324216653Y-143018359D03*
D10*
X329219476Y-142136226D03*
D12*
X325835932Y-137574469D03*
X320023469Y-141178547D03*
%TD*%
D10*
%TO.C,SW444*%
X293010247Y-104997164D03*
D11*
X298013070Y-104115032D03*
D10*
X303015893Y-103232899D03*
D12*
X299632349Y-98671142D03*
X293819886Y-102275220D03*
%TD*%
D10*
%TO.C,SW429*%
X237555484Y-119611307D03*
D11*
X242558307Y-118729175D03*
D10*
X247561130Y-117847042D03*
D12*
X244177586Y-113285285D03*
X238365123Y-116889363D03*
%TD*%
D10*
%TO.C,SW439*%
X273422661Y-103615017D03*
D11*
X278425484Y-102732885D03*
D10*
X283428307Y-101850752D03*
D12*
X280044763Y-97288995D03*
X274232300Y-100893073D03*
%TD*%
D10*
%TO.C,SW451*%
X337430718Y-82656731D03*
D11*
X342433541Y-81774599D03*
D10*
X347436364Y-80892466D03*
D12*
X344052820Y-76330709D03*
X338240357Y-79934787D03*
%TD*%
D10*
%TO.C,SW436*%
X262105068Y-149134336D03*
D11*
X267107891Y-148252204D03*
D10*
X272110714Y-147370071D03*
D12*
X268727170Y-142808314D03*
X262914707Y-146412392D03*
%TD*%
D10*
%TO.C,SW417*%
X136453363Y-167102438D03*
D11*
X141227002Y-168839899D03*
D10*
X146000640Y-170577363D03*
D12*
X145351283Y-164934993D03*
X138515503Y-165149985D03*
%TD*%
D10*
%TO.C,SW414*%
X134089532Y-101944105D03*
D11*
X139092356Y-102826238D03*
D10*
X144095179Y-103708371D03*
D12*
X142475900Y-98264481D03*
X135781304Y-99663227D03*
%TD*%
D10*
%TO.C,SW438*%
X270114663Y-84854428D03*
D11*
X275117486Y-83972296D03*
D10*
X280120309Y-83090163D03*
D12*
X276736765Y-78528406D03*
X270924302Y-82132484D03*
%TD*%
D13*
%TO.C,H6*%
X78250000Y-141000000D03*
%TD*%
D10*
%TO.C,SW434*%
X255489072Y-111613162D03*
D11*
X260491895Y-110731030D03*
D10*
X265494718Y-109848897D03*
D12*
X262111174Y-105287140D03*
X256298711Y-108891218D03*
%TD*%
D10*
%TO.C,SW430*%
X240863482Y-138371893D03*
D11*
X245866305Y-137489761D03*
D10*
X250869128Y-136607628D03*
D12*
X247485584Y-132045871D03*
X241673121Y-135649949D03*
%TD*%
%TO.C,H1*%
X198271100Y-103706644D03*
%TD*%
D10*
%TO.C,SW421*%
X145407122Y-147463426D03*
D11*
X150409946Y-148345559D03*
D10*
X155412769Y-149227692D03*
D12*
X153793490Y-143783802D03*
X147098894Y-145182548D03*
%TD*%
D13*
%TO.C,H5*%
X89000000Y-85000000D03*
%TD*%
D10*
%TO.C,SW411*%
X111193945Y-122086841D03*
D11*
X116196769Y-122968974D03*
D10*
X121199592Y-123851107D03*
D12*
X119580313Y-118407217D03*
X112885717Y-119805963D03*
%TD*%
D10*
%TO.C,SW427*%
X174166766Y-186982576D03*
D11*
X178058272Y-190247937D03*
D10*
X181949778Y-193513298D03*
D12*
X183269386Y-187989112D03*
X176772322Y-185853164D03*
%TD*%
D10*
%TO.C,SW448*%
X312597834Y-106379316D03*
D11*
X317600657Y-105497184D03*
D10*
X322603480Y-104615051D03*
D12*
X319219936Y-100053294D03*
X313407473Y-103657372D03*
%TD*%
D10*
%TO.C,SW431*%
X244171480Y-157132481D03*
D11*
X249174303Y-156250349D03*
D10*
X254177126Y-155368216D03*
D12*
X250793582Y-150806459D03*
X244981119Y-154410537D03*
%TD*%
D10*
%TO.C,SW408*%
X88298362Y-142229579D03*
D11*
X93301186Y-143111712D03*
D10*
X98304009Y-143993845D03*
D12*
X96684730Y-138549955D03*
X89990134Y-139948701D03*
%TD*%
D10*
%TO.C,SW435*%
X258797070Y-130373748D03*
D11*
X263799893Y-129491616D03*
D10*
X268802716Y-128609483D03*
D12*
X265419172Y-124047726D03*
X259606709Y-127651804D03*
%TD*%
D10*
%TO.C,SW410*%
X114501942Y-103326255D03*
D11*
X119504766Y-104208388D03*
D10*
X124507589Y-105090521D03*
D12*
X122888310Y-99646631D03*
X116193714Y-101045377D03*
%TD*%
D10*
%TO.C,SW409*%
X117809940Y-84565668D03*
D11*
X122812764Y-85447801D03*
D10*
X127815587Y-86329934D03*
D12*
X126196308Y-80886044D03*
X119501712Y-82284790D03*
%TD*%
D14*
%TO.C,J2*%
X206295603Y-150731682D03*
D15*
X206295603Y-148191682D03*
X208835603Y-150731682D03*
X208835603Y-148191682D03*
X211375603Y-150731682D03*
X211375603Y-148191682D03*
%TD*%
D10*
%TO.C,SW423*%
X173264705Y-99179806D03*
D11*
X178267529Y-100061939D03*
D10*
X183270352Y-100944072D03*
D12*
X181651073Y-95500182D03*
X174956477Y-96898928D03*
%TD*%
D10*
%TO.C,SW454*%
X347354711Y-138938492D03*
D11*
X352357534Y-138056360D03*
D10*
X357360357Y-137174227D03*
D12*
X353976813Y-132612470D03*
X348164350Y-136216548D03*
%TD*%
D10*
%TO.C,SW418*%
X155331117Y-91181662D03*
D11*
X160333941Y-92063795D03*
D10*
X165336764Y-92945928D03*
D12*
X163717485Y-87502038D03*
X157022889Y-88900784D03*
%TD*%
D13*
%TO.C,H7*%
X329000000Y-85000000D03*
%TD*%
D10*
%TO.C,SW413*%
X137397527Y-83183518D03*
D11*
X142400351Y-84065651D03*
D10*
X147403174Y-84947784D03*
D12*
X145783895Y-79503894D03*
X139089299Y-80902640D03*
%TD*%
D10*
%TO.C,SW425*%
X166648708Y-136700982D03*
D11*
X171651532Y-137583115D03*
D10*
X176654355Y-138465248D03*
D12*
X175035076Y-133021358D03*
X168340480Y-134420104D03*
%TD*%
D10*
%TO.C,SW426*%
X163340712Y-155461570D03*
D11*
X168343536Y-156343703D03*
D10*
X173346359Y-157225836D03*
D12*
X171727080Y-151781946D03*
X165032484Y-153180692D03*
%TD*%
D10*
%TO.C,SW449*%
X315905832Y-125139902D03*
D11*
X320908655Y-124257770D03*
D10*
X325911478Y-123375637D03*
D12*
X322527934Y-118813880D03*
X316715471Y-122417958D03*
%TD*%
D16*
%TO.C,J1*%
X211936100Y-104231644D03*
X206156100Y-104231644D03*
D17*
X213366100Y-104731644D03*
D18*
X213366100Y-100551644D03*
D17*
X204726100Y-104731644D03*
D18*
X204726100Y-100551644D03*
%TD*%
D10*
%TO.C,SW415*%
X130781534Y-120704693D03*
D11*
X135784358Y-121586826D03*
D10*
X140787181Y-122468959D03*
D12*
X139167902Y-117025069D03*
X132473306Y-118423815D03*
%TD*%
D10*
%TO.C,SW419*%
X152023119Y-109942249D03*
D11*
X157025943Y-110824382D03*
D10*
X162028766Y-111706515D03*
D12*
X160409487Y-106262625D03*
X153714891Y-107661371D03*
%TD*%
D19*
%TO.C,D429*%
X232214762Y-113437418D03*
X232787800Y-116687284D03*
%TD*%
D20*
%TO.C,C506*%
X94786984Y-108338943D03*
X95056138Y-106812491D03*
%TD*%
D21*
%TO.C,D536*%
X265115042Y-152167744D03*
X265375514Y-153644956D03*
X270447274Y-152750668D03*
X270186802Y-151273456D03*
%TD*%
D22*
%TO.C,C522*%
X154694786Y-178609388D03*
X155469784Y-177267048D03*
%TD*%
D23*
%TO.C,C549*%
X317094739Y-128355288D03*
X316825585Y-126828836D03*
%TD*%
D24*
%TO.C,D521*%
X147042981Y-151316019D03*
X146782509Y-152793231D03*
X151854269Y-153687519D03*
X152114741Y-152210307D03*
%TD*%
D20*
%TO.C,C512*%
X107724531Y-144383115D03*
X107993685Y-142856663D03*
%TD*%
D25*
%TO.C,D415*%
X146196683Y-116236116D03*
X145623645Y-119485982D03*
%TD*%
D19*
%TO.C,D448*%
X307313049Y-99946785D03*
X307886087Y-103196651D03*
%TD*%
D23*
%TO.C,C550*%
X320424358Y-147238496D03*
X320155204Y-145712044D03*
%TD*%
D25*
%TO.C,D404*%
X75503977Y-132756440D03*
X74930939Y-136006306D03*
%TD*%
D24*
%TO.C,D510*%
X116218915Y-107294692D03*
X115958443Y-108771904D03*
X121030203Y-109666192D03*
X121290675Y-108188980D03*
%TD*%
D26*
%TO.C,D417*%
X142946662Y-162141602D03*
X141817996Y-165242588D03*
%TD*%
D20*
%TO.C,C501*%
X70019281Y-84678622D03*
X70288435Y-83152170D03*
%TD*%
D19*
%TO.C,D428*%
X228915447Y-94726070D03*
X229488485Y-97975936D03*
%TD*%
D27*
%TO.C,D537*%
X256359693Y-182423682D03*
X257109693Y-183722720D03*
X261569723Y-181147720D03*
X260819723Y-179848682D03*
%TD*%
D21*
%TO.C,D541*%
X283001560Y-144190592D03*
X283262032Y-145667804D03*
X288333792Y-144773516D03*
X288073320Y-143296304D03*
%TD*%
D25*
%TO.C,D403*%
X78828474Y-113902296D03*
X78255436Y-117152162D03*
%TD*%
D19*
%TO.C,D436*%
X256699911Y-142882961D03*
X257272949Y-146132827D03*
%TD*%
D21*
%TO.C,D548*%
X315691181Y-109309669D03*
X315951653Y-110786881D03*
X321023413Y-109892593D03*
X320762941Y-108415381D03*
%TD*%
D25*
%TO.C,D413*%
X152838727Y-78567222D03*
X152265689Y-81817088D03*
%TD*%
D21*
%TO.C,D531*%
X247228523Y-160144897D03*
X247488995Y-161622109D03*
X252560755Y-160727821D03*
X252300283Y-159250609D03*
%TD*%
D20*
%TO.C,C505*%
X98086302Y-89627595D03*
X98355456Y-88101143D03*
%TD*%
%TO.C,C503*%
X63420648Y-122101315D03*
X63689802Y-120574863D03*
%TD*%
D19*
%TO.C,D435*%
X253427511Y-124324260D03*
X254000549Y-127574126D03*
%TD*%
%TO.C,D445*%
X291093554Y-117378090D03*
X291666592Y-120627956D03*
%TD*%
%TO.C,D443*%
X284451512Y-79709193D03*
X285024550Y-82959059D03*
%TD*%
D21*
%TO.C,D553*%
X347087821Y-123243904D03*
X347348293Y-124721116D03*
X352420053Y-123826828D03*
X352159581Y-122349616D03*
%TD*%
%TO.C,D554*%
X350391477Y-141979869D03*
X350651949Y-143457081D03*
X355723709Y-142562793D03*
X355463237Y-141085581D03*
%TD*%
D20*
%TO.C,C519*%
X151745854Y-113559051D03*
X152015008Y-112032599D03*
%TD*%
D28*
%TO.C,D437*%
X252854196Y-172201983D03*
X254504196Y-175059867D03*
%TD*%
D21*
%TO.C,D552*%
X343788505Y-104532555D03*
X344048977Y-106009767D03*
X349120737Y-105115479D03*
X348860265Y-103638267D03*
%TD*%
D23*
%TO.C,C540*%
X277776185Y-125641659D03*
X277507031Y-124115207D03*
%TD*%
D20*
%TO.C,C502*%
X66719963Y-103389971D03*
X66989117Y-101863519D03*
%TD*%
%TO.C,C524*%
X169878576Y-121579616D03*
X170147730Y-120053164D03*
%TD*%
D24*
%TO.C,D509*%
X119518231Y-88583346D03*
X119257759Y-90060558D03*
X124329519Y-90954846D03*
X124589991Y-89477634D03*
%TD*%
D21*
%TO.C,D547*%
X312391864Y-90598321D03*
X312652336Y-92075533D03*
X317724096Y-91181245D03*
X317463624Y-89704033D03*
%TD*%
%TO.C,D535*%
X261772314Y-133210196D03*
X262032786Y-134687408D03*
X267104546Y-133793120D03*
X266844074Y-132315908D03*
%TD*%
D23*
%TO.C,C536*%
X263223628Y-152526638D03*
X262954474Y-151000186D03*
%TD*%
D25*
%TO.C,D414*%
X149469951Y-97672491D03*
X148896913Y-100922357D03*
%TD*%
%TO.C,D406*%
X110151396Y-100386124D03*
X109578358Y-103635990D03*
%TD*%
D19*
%TO.C,D454*%
X341955508Y-132576908D03*
X342528546Y-135826774D03*
%TD*%
%TO.C,D447*%
X303964494Y-81244117D03*
X304537532Y-84493983D03*
%TD*%
D25*
%TO.C,D416*%
X142889552Y-134991784D03*
X142316514Y-138241650D03*
%TD*%
D29*
%TO.C,D522*%
X156361883Y-179571888D03*
X155611883Y-180870926D03*
X160071913Y-183445926D03*
X160821913Y-182146888D03*
%TD*%
D24*
%TO.C,D507*%
X93383423Y-127384564D03*
X93122951Y-128861776D03*
X98194711Y-129756064D03*
X98455183Y-128278852D03*
%TD*%
D25*
%TO.C,D425*%
X181943674Y-132338144D03*
X181370636Y-135588010D03*
%TD*%
D20*
%TO.C,C510*%
X114347783Y-106964763D03*
X114616937Y-105438311D03*
%TD*%
D24*
%TO.C,D505*%
X99982056Y-89961866D03*
X99721584Y-91439078D03*
X104793344Y-92333366D03*
X105053816Y-90856154D03*
%TD*%
D25*
%TO.C,D411*%
X126677873Y-117516159D03*
X126104835Y-120766025D03*
%TD*%
D20*
%TO.C,C507*%
X91487669Y-127050289D03*
X91756823Y-125523837D03*
%TD*%
D21*
%TO.C,D538*%
X273073311Y-87884690D03*
X273333783Y-89361902D03*
X278405543Y-88467614D03*
X278145071Y-86990402D03*
%TD*%
D20*
%TO.C,C511*%
X111023845Y-125671770D03*
X111292999Y-124145318D03*
%TD*%
D19*
%TO.C,D453*%
X338672690Y-113959119D03*
X339245728Y-117208985D03*
%TD*%
D30*
%TO.C,D517*%
X137455184Y-171162425D03*
X136942153Y-172571965D03*
X141781570Y-174333367D03*
X142294601Y-172923827D03*
%TD*%
D19*
%TO.C,D446*%
X294392870Y-136089437D03*
X294965908Y-139339303D03*
%TD*%
D31*
%TO.C,C527*%
X172375909Y-189980262D03*
X173372229Y-188792892D03*
%TD*%
D24*
%TO.C,D511*%
X112919600Y-126006041D03*
X112659128Y-127483253D03*
X117730888Y-128377541D03*
X117991360Y-126900329D03*
%TD*%
D20*
%TO.C,C504*%
X60121336Y-140812666D03*
X60390490Y-139286214D03*
%TD*%
D19*
%TO.C,D444*%
X287768191Y-98519023D03*
X288341229Y-101768889D03*
%TD*%
D23*
%TO.C,C543*%
X290959933Y-89554074D03*
X290690779Y-88027622D03*
%TD*%
D25*
%TO.C,D410*%
X129952008Y-98947609D03*
X129378970Y-102197475D03*
%TD*%
D21*
%TO.C,D533*%
X255173684Y-95787500D03*
X255434156Y-97264712D03*
X260505916Y-96370424D03*
X260245444Y-94893212D03*
%TD*%
D25*
%TO.C,D408*%
X103570999Y-137705412D03*
X102997961Y-140955278D03*
%TD*%
D19*
%TO.C,D451*%
X331982274Y-76303829D03*
X332555312Y-79553695D03*
%TD*%
D20*
%TO.C,C516*%
X133859338Y-105581897D03*
X134128492Y-104055445D03*
%TD*%
D25*
%TO.C,D401*%
X85445337Y-76376196D03*
X84872299Y-79626062D03*
%TD*%
D24*
%TO.C,D506*%
X96682741Y-108673215D03*
X96422269Y-110150427D03*
X101494029Y-111044715D03*
X101754501Y-109567503D03*
%TD*%
%TO.C,D524*%
X171774331Y-121913886D03*
X171513859Y-123391098D03*
X176585619Y-124285386D03*
X176846091Y-122808174D03*
%TD*%
D20*
%TO.C,C518*%
X155088584Y-94601500D03*
X155357738Y-93075048D03*
%TD*%
D23*
%TO.C,C541*%
X281105805Y-144524865D03*
X280836651Y-142998413D03*
%TD*%
D24*
%TO.C,D518*%
X156984338Y-94935775D03*
X156723866Y-96412987D03*
X161795626Y-97307275D03*
X162056098Y-95830063D03*
%TD*%
D20*
%TO.C,C521*%
X145147226Y-150981746D03*
X145416380Y-149455294D03*
%TD*%
D25*
%TO.C,D405*%
X113512358Y-81325169D03*
X112939320Y-84575035D03*
%TD*%
D32*
%TO.C,C517*%
X135646274Y-170504038D03*
X136176404Y-169047514D03*
%TD*%
D21*
%TO.C,D549*%
X318990496Y-128021018D03*
X319250968Y-129498230D03*
X324322728Y-128603942D03*
X324062256Y-127126730D03*
%TD*%
D33*
%TO.C,D422*%
X163408884Y-171516120D03*
X161758884Y-174374004D03*
%TD*%
D25*
%TO.C,D426*%
X178619178Y-151192289D03*
X178046140Y-154442155D03*
%TD*%
%TO.C,D407*%
X106895495Y-118851268D03*
X106322457Y-122101134D03*
%TD*%
D24*
%TO.C,D514*%
X135755091Y-105916172D03*
X135494619Y-107393384D03*
X140566379Y-108287672D03*
X140826851Y-106810460D03*
%TD*%
D21*
%TO.C,D543*%
X292855689Y-89219801D03*
X293116161Y-90697013D03*
X298187921Y-89802725D03*
X297927449Y-88325513D03*
%TD*%
D20*
%TO.C,C523*%
X173221303Y-102622066D03*
X173490457Y-101095614D03*
%TD*%
D34*
%TO.C,D527*%
X173850545Y-191217627D03*
X172886364Y-192366693D03*
X176831493Y-195677049D03*
X177795674Y-194527983D03*
%TD*%
D25*
%TO.C,D402*%
X82084375Y-95437152D03*
X81511337Y-98687018D03*
%TD*%
D23*
%TO.C,C545*%
X297545455Y-126902425D03*
X297276301Y-125375973D03*
%TD*%
D25*
%TO.C,D412*%
X123353378Y-136370301D03*
X122780340Y-139620167D03*
%TD*%
D24*
%TO.C,D503*%
X65316403Y-122435591D03*
X65055931Y-123912803D03*
X70127691Y-124807091D03*
X70388163Y-123329879D03*
%TD*%
D19*
%TO.C,D440*%
X271270618Y-116100903D03*
X271843656Y-119350769D03*
%TD*%
%TO.C,D434*%
X250101280Y-105460264D03*
X250674318Y-108710130D03*
%TD*%
D24*
%TO.C,D515*%
X132455777Y-124627517D03*
X132195305Y-126104729D03*
X137267065Y-126999017D03*
X137527537Y-125521805D03*
%TD*%
%TO.C,D523*%
X175117057Y-102956341D03*
X174856585Y-104433553D03*
X179928345Y-105327841D03*
X180188817Y-103850629D03*
%TD*%
D25*
%TO.C,D419*%
X167295693Y-105994325D03*
X166722655Y-109244191D03*
%TD*%
D24*
%TO.C,D525*%
X168475017Y-140625236D03*
X168214545Y-142102448D03*
X173286305Y-142996736D03*
X173546777Y-141519524D03*
%TD*%
D23*
%TO.C,C546*%
X300888183Y-145859974D03*
X300619029Y-144333522D03*
%TD*%
D35*
%TO.C,D432*%
X234512107Y-185128729D03*
X236633307Y-187656675D03*
%TD*%
D20*
%TO.C,C508*%
X88188356Y-145761637D03*
X88457510Y-144235185D03*
%TD*%
D23*
%TO.C,C539*%
X274463761Y-106855969D03*
X274194607Y-105329517D03*
%TD*%
D36*
%TO.C,C537*%
X254692592Y-183386184D03*
X253917594Y-182043844D03*
%TD*%
D21*
%TO.C,D550*%
X322320116Y-146904223D03*
X322580588Y-148381435D03*
X327652348Y-147487147D03*
X327391876Y-146009935D03*
%TD*%
D24*
%TO.C,D516*%
X129156460Y-143338867D03*
X128895988Y-144816079D03*
X133967748Y-145710367D03*
X134228220Y-144233155D03*
%TD*%
D37*
%TO.C,D542*%
X274983532Y-173525174D03*
X275496563Y-174934714D03*
X280335980Y-173173312D03*
X279822949Y-171763772D03*
%TD*%
D24*
%TO.C,D501*%
X71915035Y-85012892D03*
X71654563Y-86490104D03*
X76726323Y-87384392D03*
X76986795Y-85907180D03*
%TD*%
D23*
%TO.C,C553*%
X345192065Y-123578175D03*
X344922911Y-122051723D03*
%TD*%
D21*
%TO.C,D529*%
X240586480Y-122476001D03*
X240846952Y-123953213D03*
X245918712Y-123058925D03*
X245658240Y-121581713D03*
%TD*%
D25*
%TO.C,D418*%
X170674017Y-86834892D03*
X170100979Y-90084758D03*
%TD*%
D23*
%TO.C,C534*%
X256577243Y-114833122D03*
X256308089Y-113306670D03*
%TD*%
D20*
%TO.C,C526*%
X163279946Y-159002309D03*
X163549100Y-157475857D03*
%TD*%
D21*
%TO.C,D546*%
X302783938Y-145525703D03*
X303044410Y-147002915D03*
X308116170Y-146108627D03*
X307855698Y-144631415D03*
%TD*%
D19*
%TO.C,D441*%
X274586430Y-134905808D03*
X275159468Y-138155674D03*
%TD*%
D23*
%TO.C,C531*%
X245332767Y-160479170D03*
X245063613Y-158952718D03*
%TD*%
D38*
%TO.C,D427*%
X182096156Y-184619019D03*
X179974954Y-187146965D03*
%TD*%
D23*
%TO.C,C554*%
X348495722Y-142314144D03*
X348226568Y-140787692D03*
%TD*%
D39*
%TO.C,D532*%
X239900024Y-194777927D03*
X240864205Y-195926993D03*
X244809334Y-192616637D03*
X243845153Y-191467571D03*
%TD*%
D23*
%TO.C,C544*%
X294246140Y-108191079D03*
X293976986Y-106664627D03*
%TD*%
D19*
%TO.C,D433*%
X246801965Y-86748920D03*
X247375003Y-89998786D03*
%TD*%
D24*
%TO.C,D508*%
X90084109Y-146095907D03*
X89823637Y-147573119D03*
X94895397Y-148467407D03*
X95155869Y-146990195D03*
%TD*%
D21*
%TO.C,D530*%
X243885796Y-141187347D03*
X244146268Y-142664559D03*
X249218028Y-141770271D03*
X248957556Y-140293059D03*
%TD*%
D24*
%TO.C,D519*%
X153641609Y-113893326D03*
X153381137Y-115370538D03*
X158452897Y-116264826D03*
X158713369Y-114787614D03*
%TD*%
D40*
%TO.C,C532*%
X238425388Y-196015293D03*
X237429068Y-194827923D03*
%TD*%
D23*
%TO.C,C548*%
X313795424Y-109643943D03*
X313526270Y-108117491D03*
%TD*%
D19*
%TO.C,D438*%
X264645940Y-78530490D03*
X265218978Y-81780356D03*
%TD*%
D24*
%TO.C,D526*%
X165175699Y-159336585D03*
X164915227Y-160813797D03*
X169986987Y-161708085D03*
X170247459Y-160230873D03*
%TD*%
D21*
%TO.C,D544*%
X296141896Y-107856805D03*
X296402368Y-109334017D03*
X301474128Y-108439729D03*
X301213656Y-106962517D03*
%TD*%
D24*
%TO.C,D512*%
X109620284Y-144717389D03*
X109359812Y-146194601D03*
X114431572Y-147088889D03*
X114692044Y-145611677D03*
%TD*%
%TO.C,D502*%
X68689580Y-103737264D03*
X68429108Y-105214476D03*
X73500868Y-106108764D03*
X73761340Y-104631552D03*
%TD*%
D20*
%TO.C,C514*%
X130560022Y-124293246D03*
X130829176Y-122766794D03*
%TD*%
%TO.C,C525*%
X166579260Y-140290963D03*
X166848414Y-138764511D03*
%TD*%
D19*
%TO.C,D450*%
X313839247Y-137534565D03*
X314412285Y-140784431D03*
%TD*%
D23*
%TO.C,C551*%
X338593433Y-86155480D03*
X338324279Y-84629028D03*
%TD*%
D21*
%TO.C,D539*%
X276359517Y-106521697D03*
X276619989Y-107998909D03*
X281691749Y-107104621D03*
X281431277Y-105627409D03*
%TD*%
D24*
%TO.C,D513*%
X139054407Y-87204825D03*
X138793935Y-88682037D03*
X143865695Y-89576325D03*
X144126167Y-88099113D03*
%TD*%
D41*
%TO.C,D442*%
X273135260Y-162380199D03*
X274263926Y-165481185D03*
%TD*%
D20*
%TO.C,C520*%
X148446542Y-132270401D03*
X148715696Y-130743949D03*
%TD*%
D24*
%TO.C,D504*%
X62017088Y-141146934D03*
X61756616Y-142624146D03*
X66828376Y-143518434D03*
X67088848Y-142041222D03*
%TD*%
D19*
%TO.C,D431*%
X238856804Y-151106313D03*
X239429842Y-154356179D03*
%TD*%
D24*
%TO.C,D520*%
X150342295Y-132604670D03*
X150081823Y-134081882D03*
X155153583Y-134976170D03*
X155414055Y-133498958D03*
%TD*%
D21*
%TO.C,D534*%
X258472998Y-114498848D03*
X258733470Y-115976060D03*
X263805230Y-115081772D03*
X263544758Y-113604560D03*
%TD*%
D25*
%TO.C,D424*%
X185225623Y-113725277D03*
X184652585Y-116975143D03*
%TD*%
D21*
%TO.C,D551*%
X340579799Y-85795797D03*
X340840271Y-87273009D03*
X345912031Y-86378721D03*
X345651559Y-84901509D03*
%TD*%
D20*
%TO.C,C509*%
X117622476Y-88249072D03*
X117891630Y-86722620D03*
%TD*%
D25*
%TO.C,D420*%
X164057153Y-124360992D03*
X163484115Y-127610858D03*
%TD*%
%TO.C,D421*%
X160732659Y-143215135D03*
X160159621Y-146465001D03*
%TD*%
D23*
%TO.C,C535*%
X259880900Y-133569087D03*
X259611746Y-132042635D03*
%TD*%
%TO.C,C528*%
X235404519Y-104173269D03*
X235135365Y-102646817D03*
%TD*%
D21*
%TO.C,D528*%
X237300274Y-103838996D03*
X237560746Y-105316208D03*
X242632506Y-104421920D03*
X242372034Y-102944708D03*
%TD*%
D42*
%TO.C,C542*%
X273174624Y-174183567D03*
X272644494Y-172727043D03*
%TD*%
D21*
%TO.C,D545*%
X299441211Y-126568152D03*
X299701683Y-128045364D03*
X304773443Y-127151076D03*
X304512971Y-125673864D03*
%TD*%
D23*
%TO.C,C538*%
X271177554Y-88218963D03*
X270908400Y-86692511D03*
%TD*%
D19*
%TO.C,D449*%
X310605669Y-118908092D03*
X311178707Y-122157958D03*
%TD*%
D20*
%TO.C,C513*%
X137158652Y-86870553D03*
X137427806Y-85344101D03*
%TD*%
D25*
%TO.C,D423*%
X188560537Y-94812044D03*
X187987499Y-98061910D03*
%TD*%
D23*
%TO.C,C533*%
X253277928Y-96121774D03*
X253008774Y-94595322D03*
%TD*%
D25*
%TO.C,D409*%
X133056348Y-79902331D03*
X132483310Y-83152197D03*
%TD*%
D19*
%TO.C,D439*%
X267945255Y-97241836D03*
X268518293Y-100491702D03*
%TD*%
%TO.C,D452*%
X335281590Y-95015174D03*
X335854628Y-98265040D03*
%TD*%
%TO.C,D430*%
X235557490Y-132394966D03*
X236130528Y-135644832D03*
%TD*%
D23*
%TO.C,C547*%
X310487426Y-90883353D03*
X310218272Y-89356901D03*
%TD*%
D20*
%TO.C,C515*%
X127260707Y-143004596D03*
X127529861Y-141478144D03*
%TD*%
D23*
%TO.C,C530*%
X241994381Y-141546242D03*
X241725227Y-140019790D03*
%TD*%
%TO.C,C552*%
X341892750Y-104866829D03*
X341623596Y-103340377D03*
%TD*%
D21*
%TO.C,D540*%
X279671944Y-125307386D03*
X279932416Y-126784598D03*
X285004176Y-125890310D03*
X284743704Y-124413098D03*
%TD*%
D23*
%TO.C,C529*%
X238695067Y-122834893D03*
X238425913Y-121308441D03*
%TD*%
M02*
