M48
; DRILL file {KiCad 8.0.0} date 2024-04-28T13:48:37+0200
; FORMAT={-:-/ absolute / inch / decimal}
; #@! TF.CreationDate,2024-04-28T13:48:37+02:00
; #@! TF.GenerationSoftware,Kicad,Pcbnew,8.0.0
; #@! TF.FileFunction,Plated,1,4,PTH
FMAT,2
INCH
; #@! TA.AperFunction,Plated,PTH,ViaDrill
T1C0.0157
; #@! TA.AperFunction,Plated,PTH,ComponentDrill
T2C0.0236
; #@! TA.AperFunction,Plated,PTH,ComponentDrill
T3C0.0394
; #@! TA.AperFunction,Plated,PTH,ComponentDrill
T4C0.0591
%
G90
G05
T1
X2.3197Y-5.5854
X2.3584Y-5.5923
X2.4496Y-4.8488
X2.4883Y-4.8556
X2.5795Y-4.1121
X2.6182Y-4.1189
X2.7093Y-3.3754
X2.7481Y-3.3823
X2.8176Y-5.3689
X2.8286Y-5.3286
X2.9491Y-4.623
X2.956Y-4.5843
X3.08Y-3.8805
X3.0846Y-3.8414
X3.2953Y-3.3425
X3.3325Y-3.3557
X3.4247Y-5.7803
X3.4634Y-5.7871
X3.5152Y-5.8985
X3.5539Y-5.906
X3.5546Y-5.0436
X3.5933Y-5.0504
X3.6457Y-5.1592
X3.6842Y-5.1674
X3.6845Y-4.3069
X3.7232Y-4.3138
X3.7785Y-4.4231
X3.8143Y-3.5703
X3.8171Y-4.4309
X3.8531Y-3.5771
X3.9243Y-5.5541
X3.9322Y-5.5155
X3.9479Y-5.063
X3.9866Y-5.0703
X4.0542Y-4.8174
X4.0614Y-4.7787
X4.0778Y-4.3263
X4.1166Y-4.3333
X4.1841Y-4.0807
X4.1914Y-4.042
X4.1938Y-5.726
X4.2106Y-3.5902
X4.2196Y-3.5518
X4.2326Y-5.7328
X4.3237Y-4.9893
X4.3625Y-4.9962
X4.4025Y-5.353
X4.4224Y-5.1267
X4.4413Y-5.3599
X4.4536Y-4.2527
X4.4612Y-5.1335
X4.4924Y-4.2595
X4.5324Y-4.6164
X4.5523Y-4.39
X4.5712Y-4.6232
X4.5835Y-3.516
X4.5911Y-4.3968
X4.6223Y-3.5228
X4.6594Y-3.8792
X4.6771Y-3.6484
X4.6981Y-3.886
X4.7051Y-5.5018
X4.7105Y-5.4624
X4.7158Y-3.6556
X4.8311Y-4.7645
X4.8379Y-4.7257
X4.9571Y-4.0271
X4.9627Y-3.9882
X4.9629Y-5.6717
X5.0017Y-5.6786
X5.0554Y-5.7904
X5.0928Y-4.9351
X5.0941Y-5.7976
X5.1316Y-4.9419
X5.1859Y-5.051
X5.2227Y-4.1984
X5.2239Y-5.0613
X5.2615Y-4.2052
X5.3027Y-6.6956
X5.311Y-6.8181
X5.3158Y-4.3143
X5.3182Y-6.6594
X5.3231Y-6.7806
X5.3398Y-5.6882
X5.3473Y-5.6496
X5.3526Y-3.4617
X5.3546Y-4.3211
X5.3914Y-3.4686
X5.407Y-5.9003
X5.4138Y-5.8616
X5.4723Y-5.4472
X5.4782Y-5.4073
X5.4881Y-4.9548
X5.5269Y-4.9615
X5.6022Y-4.7105
X5.6095Y-4.6719
X5.618Y-4.2181
X5.6475Y-6.8679
X5.6565Y-4.2265
X5.663Y-6.829
X5.6671Y-5.9858
X5.7059Y-5.9926
X5.7225Y-6.1065
X5.7321Y-3.9739
X5.7387Y-3.9351
X5.7479Y-3.4815
X5.761Y-6.1147
X5.7863Y-3.4902
X5.797Y-5.2491
X5.8358Y-5.256
X5.8716Y-5.6141
X5.8893Y-5.3833
X5.9104Y-5.6209
X5.9269Y-4.5125
X5.9291Y-5.3937
X5.9657Y-4.5193
X6.0022Y-4.8735
X6.0199Y-4.6428
X6.041Y-4.8804
X6.0414Y-7.075
X6.051Y-7.0093
X6.0568Y-3.7758
X6.0591Y-4.6496
X6.071Y-6.9754
X6.0761Y-7.0937
X6.0956Y-3.7826
X6.1334Y-4.1291
X6.1511Y-3.8984
X6.1722Y-4.1359
X6.1767Y-5.7713
X6.1832Y-5.7325
X6.1929Y-3.9055
X6.3066Y-5.0346
X6.3139Y-4.996
X6.3667Y-7.2377
X6.381Y-6.3016
X6.3883Y-7.2047
X6.4198Y-6.3084
X6.4382Y-4.2883
X6.4434Y-4.2493
X6.4761Y-6.4179
X6.5109Y-5.5649
X6.5143Y-6.4272
X6.5497Y-5.5717
X6.606Y-5.6812
X6.6408Y-4.8282
X6.6441Y-5.6909
X6.6796Y-4.8351
X6.7251Y-6.4962
X6.729Y-7.5634
X6.7359Y-4.9445
X6.7491Y-7.4483
X6.7542Y-7.5331
X6.7638Y-6.5034
X6.7707Y-4.0916
X6.7744Y-4.9524
X6.776Y-7.4195
X6.8095Y-4.0984
X6.8816Y-6.07
X6.8897Y-6.0315
X6.9082Y-5.585
X6.9464Y-5.5942
X7.0115Y-5.3333
X7.0188Y-5.2946
X7.038Y-4.8483
X7.0413Y-7.6957
X7.0686Y-7.6673
X7.0769Y-4.8549
X7.1414Y-4.5967
X7.1488Y-4.558
X7.1679Y-4.1116
X7.2068Y-4.1179
X7.2223Y-5.2813
X7.2262Y-5.242
X7.364Y-4.4467
X7.5315Y-4.1969
X7.5315Y-4.2402
X7.7498Y-7.0438
X7.7498Y-7.0832
X7.8425Y-5.2557
X7.8858Y-5.2557
X7.9097Y-4.873
X7.9098Y-4.9123
X8.0136Y-4.801
X8.0136Y-4.8404
X8.0707Y-4.9668
X8.0747Y-4.5348
X8.0945Y-4.2913
X8.1101Y-4.9668
X8.114Y-4.5352
X8.114Y-5.4707
X8.114Y-5.5101
X8.1181Y-4.3661
X8.1339Y-4.0
X8.1475Y-5.1278
X8.1475Y-5.1672
X8.1495Y-4.9668
X8.1694Y-5.355
X8.1732Y-4.1929
X8.178Y-4.939
X8.179Y-5.3168
X8.1948Y-5.066
X8.2079Y-4.9133
X8.2093Y-5.1266
X8.2105Y-5.1672
X8.2268Y-5.0432
X8.2283Y-4.0709
X8.2323Y-4.4724
X8.238Y-5.3148
X8.242Y-5.3561
X8.2498Y-4.9113
X8.2565Y-5.0173
X8.2885Y-4.1916
X8.2892Y-4.99
X8.2892Y-5.4004
X8.315Y-4.0
X8.3296Y-5.3994
X8.3425Y-4.3661
X8.3502Y-4.5746
X8.3502Y-4.5352
X8.3581Y-5.4668
X8.3581Y-5.5062
X8.3621Y-6.3386
X8.3622Y-4.1969
X8.3622Y-6.378
X8.3916Y-5.1435
X8.3916Y-5.1829
X8.4054Y-4.6676
X8.4073Y-4.6278
X8.4073Y-4.9034
X8.5196Y-5.1543
X8.5412Y-5.1873
X8.5943Y-4.8605
X8.6337Y-4.86
X8.6731Y-4.8594
X8.7126Y-5.1693
X9.0687Y-4.4388
X9.2105Y-5.2498
X9.2184Y-5.2892
X9.2389Y-4.1634
X9.2776Y-4.1565
X9.3289Y-7.7157
X9.3547Y-7.7454
X9.3688Y-4.9
X9.3717Y-4.2479
X9.407Y-7.7812
X9.4075Y-4.8932
X9.4103Y-4.2401
X9.4342Y-4.4721
X9.4364Y-7.755
X9.4546Y-5.801
X9.4728Y-4.4639
X9.4969Y-5.627
X9.5009Y-4.9807
X9.5357Y-5.6202
X9.5395Y-4.973
X9.5609Y-5.2026
X9.602Y-5.1967
X9.6063Y-4.0039
X9.6142Y-4.0433
X9.6285Y-6.3734
X9.6322Y-5.7251
X9.6565Y-7.4843
X9.6673Y-6.3665
X9.6711Y-5.7183
X9.6837Y-7.5128
X9.6932Y-5.9351
X9.7321Y-5.9294
X9.7816Y-6.4708
X9.8207Y-6.4624
X9.9448Y-3.859
X9.968Y-7.2088
X9.9835Y-3.8522
X9.9895Y-7.2417
X10.0322Y-7.2882
X10.0661Y-7.2682
X10.0729Y-4.586
X10.1117Y-4.5791
X10.1876Y-4.664
X10.2011Y-5.313
X10.2399Y-5.3061
X10.2417Y-4.6502
X10.3136Y-5.4003
X10.3234Y-3.7223
X10.3327Y-6.0593
X10.3405Y-7.0559
X10.364Y-3.7144
X10.3676Y-5.3876
X10.3715Y-6.0525
X10.3744Y-7.0359
X10.3916Y-5.6199
X10.4462Y-6.1473
X10.4494Y-4.4596
X10.4546Y-6.1868
X10.4874Y-4.4492
X10.5793Y-5.1963
X10.6183Y-5.1904
X10.649Y-3.5449
X10.6877Y-3.5381
X10.6996Y-6.8372
X10.7064Y-5.9455
X10.7123Y-6.8744
X10.7136Y-5.9842
X10.7446Y-6.9206
X10.7769Y-3.6243
X10.7771Y-4.2719
X10.7825Y-6.91
X10.8159Y-4.2651
X10.8168Y-3.616
X10.8365Y-3.8483
X10.878Y-3.8404
X10.9053Y-4.9989
X10.91Y-4.3564
X10.9441Y-4.9921
X10.949Y-4.3514
X10.9728Y-4.5819
X11.0033Y-6.7112
X11.011Y-4.5725
X11.0352Y-5.7356
X11.0403Y-6.6975
X11.0406Y-5.097
X11.074Y-5.7287
X11.0806Y-5.0924
X11.1005Y-5.3011
X11.1392Y-5.2935
X11.1738Y-5.8416
X11.2128Y-5.8361
X11.4261Y-3.5878
X11.4649Y-3.581
X11.5543Y-4.3148
X11.593Y-4.308
X11.664Y-4.4042
X11.6842Y-5.0515
X11.7188Y-4.3898
X11.7229Y-5.0446
X11.7939Y-5.1404
X11.8006Y-3.4618
X11.8158Y-5.7978
X11.8404Y-3.4546
X11.8488Y-5.1264
X11.8545Y-5.791
X11.9239Y-5.8806
X11.9305Y-4.1985
X11.9696Y-4.1932
X11.9747Y-5.8642
X12.0566Y-4.9358
X12.0949Y-4.927
X12.1952Y-3.6421
X12.234Y-3.6353
X12.2446Y-5.8606
X12.2836Y-5.8553
X12.3234Y-4.3691
X12.3251Y-3.7211
X12.3622Y-4.3622
X12.364Y-3.7144
X12.3876Y-3.9506
X12.4272Y-3.943
X12.455Y-5.1154
X12.4553Y-4.4597
X12.4938Y-5.1086
X12.4939Y-4.4506
X12.5178Y-4.6837
X12.5564Y-4.6758
X12.5849Y-5.8521
X12.5866Y-5.2042
X12.6237Y-5.8453
X12.6255Y-5.1984
X12.649Y-5.4275
X12.6877Y-5.4202
X13.3002Y-3.4472
X13.339Y-3.4404
X13.4318Y-4.1936
X13.4706Y-4.1868
X13.5592Y-4.2607
X13.56Y-4.9206
X13.5988Y-4.9137
X13.6002Y-4.2538
X13.6804Y-3.3302
X13.6891Y-4.9974
X13.6916Y-5.6669
X13.7191Y-3.323
X13.7277Y-4.9897
X13.7304Y-5.6601
X13.8103Y-4.0669
X13.819Y-5.734
X13.849Y-4.06
X13.8573Y-5.725
X13.9402Y-4.8036
X13.979Y-4.7969
T3
X8.1219Y-5.8343
X8.1219Y-5.9343
X8.2219Y-5.8343
X8.2219Y-5.9343
X8.3219Y-5.8343
X8.3219Y-5.9343
T4
X2.435Y-5.3144
X2.5652Y-4.5758
X2.6955Y-3.8372
X2.6986Y-5.2594
X2.8257Y-3.0986
X2.8288Y-4.5208
X2.959Y-3.7822
X3.0893Y-3.0436
X3.5429Y-5.5098
X3.6732Y-4.7712
X3.8034Y-4.0326
X3.8065Y-5.4547
X3.9336Y-3.294
X3.9367Y-4.7161
X4.067Y-3.9775
X4.1972Y-3.2389
X4.3141Y-5.4554
X4.4443Y-4.7168
X4.5746Y-3.9782
X4.5777Y-5.4003
X4.7048Y-3.2396
X4.7079Y-4.6617
X4.8381Y-3.9231
X4.9684Y-3.1845
X5.0852Y-5.401
X5.2155Y-4.6624
X5.3457Y-3.9237
X5.3488Y-5.3459
X5.4534Y-6.502
X5.476Y-3.1851
X5.4791Y-4.6073
X5.6093Y-3.8687
X5.7225Y-6.4935
X5.7395Y-3.1301
X5.7913Y-5.7158
X5.9215Y-4.9772
X6.0518Y-4.2386
X6.0549Y-5.6608
X6.182Y-3.5
X6.1851Y-4.9222
X6.2397Y-6.8453
X6.3153Y-4.1836
X6.4456Y-3.445
X6.4973Y-6.0307
X6.5062Y-6.8837
X6.6276Y-5.2921
X6.7578Y-4.5535
X6.7609Y-5.9757
X6.8881Y-3.8149
X6.8911Y-5.2371
X6.9595Y-7.3171
X7.0214Y-4.4985
X7.1516Y-3.7598
X7.2153Y-7.4011
X9.244Y-7.5036
X9.2542Y-3.8633
X9.3712Y-7.2663
X9.3845Y-4.6019
X9.4831Y-3.7214
X9.5147Y-5.3405
X9.6133Y-4.4601
X9.6449Y-6.0792
X9.7435Y-5.1987
X9.8738Y-5.9373
X9.9301Y-6.9919
X9.9603Y-3.5484
X10.0905Y-4.2871
X10.0966Y-6.7803
X10.1891Y-3.4066
X10.2207Y-5.0257
X10.3193Y-4.1452
X10.351Y-5.7643
X10.4496Y-4.8838
X10.5798Y-5.6224
X10.6663Y-3.2336
X10.6971Y-6.6058
X10.7965Y-3.9722
X10.8951Y-3.0917
X10.8978Y-6.4263
X10.9268Y-4.7108
X11.0254Y-3.8303
X11.057Y-5.4494
X11.1556Y-4.5689
X11.2859Y-5.3075
X11.4375Y-3.288
X11.5677Y-4.0266
X11.6663Y-3.1461
X11.6979Y-4.7652
X11.7965Y-3.8847
X11.8282Y-5.5038
X11.9268Y-4.6233
X12.057Y-5.3619
X12.2086Y-3.3424
X12.3389Y-4.081
X12.4375Y-3.2005
X12.4691Y-4.8196
X12.5677Y-3.9391
X12.5993Y-5.5582
X12.698Y-4.6777
X12.8282Y-5.4163
X13.3165Y-3.147
X13.4468Y-3.8856
X13.5454Y-3.0051
X13.577Y-4.6243
X13.6756Y-3.7438
X13.7073Y-5.3629
X13.8059Y-4.4824
X13.9361Y-5.221
T2
G00X8.0601Y-3.9745
M15
G01X8.0601Y-3.943
M16
G05
G00X8.0601Y-4.1449
M15
G01X8.0601Y-4.1016
M16
G05
G00X8.4002Y-3.9745
M15
G01X8.4002Y-3.943
M16
G05
G00X8.4002Y-4.1449
M15
G01X8.4002Y-4.1016
M16
G05
M30
