%TF.GenerationSoftware,KiCad,Pcbnew,8.0.0*%
%TF.CreationDate,2024-04-28T13:48:32+02:00*%
%TF.ProjectId,phnx,70686e78-2e6b-4696-9361-645f70636258,A*%
%TF.SameCoordinates,Original*%
%TF.FileFunction,Paste,Top*%
%TF.FilePolarity,Positive*%
%FSLAX46Y46*%
G04 Gerber Fmt 4.6, Leading zero omitted, Abs format (unit mm)*
G04 Created by KiCad (PCBNEW 8.0.0) date 2024-04-28 13:48:32*
%MOMM*%
%LPD*%
G01*
G04 APERTURE LIST*
G04 Aperture macros list*
%AMRoundRect*
0 Rectangle with rounded corners*
0 $1 Rounding radius*
0 $2 $3 $4 $5 $6 $7 $8 $9 X,Y pos of 4 corners*
0 Add a 4 corners polygon primitive as box body*
4,1,4,$2,$3,$4,$5,$6,$7,$8,$9,$2,$3,0*
0 Add four circle primitives for the rounded corners*
1,1,$1+$1,$2,$3*
1,1,$1+$1,$4,$5*
1,1,$1+$1,$6,$7*
1,1,$1+$1,$8,$9*
0 Add four rect primitives between the rounded corners*
20,1,$1+$1,$2,$3,$4,$5,0*
20,1,$1+$1,$4,$5,$6,$7,0*
20,1,$1+$1,$6,$7,$8,$9,0*
20,1,$1+$1,$8,$9,$2,$3,0*%
G04 Aperture macros list end*
%ADD10RoundRect,0.218750X-0.381250X0.218750X-0.381250X-0.218750X0.381250X-0.218750X0.381250X0.218750X0*%
%ADD11RoundRect,0.225000X-0.250000X0.225000X-0.250000X-0.225000X0.250000X-0.225000X0.250000X0.225000X0*%
%ADD12RoundRect,0.200000X-0.200000X-0.275000X0.200000X-0.275000X0.200000X0.275000X-0.200000X0.275000X0*%
%ADD13RoundRect,0.225000X-0.225000X-0.250000X0.225000X-0.250000X0.225000X0.250000X-0.225000X0.250000X0*%
%ADD14RoundRect,0.250000X0.250000X0.475000X-0.250000X0.475000X-0.250000X-0.475000X0.250000X-0.475000X0*%
%ADD15RoundRect,0.200000X-0.275000X0.200000X-0.275000X-0.200000X0.275000X-0.200000X0.275000X0.200000X0*%
%ADD16RoundRect,0.225000X0.225000X0.250000X-0.225000X0.250000X-0.225000X-0.250000X0.225000X-0.250000X0*%
%ADD17RoundRect,0.250000X-0.475000X0.250000X-0.475000X-0.250000X0.475000X-0.250000X0.475000X0.250000X0*%
%ADD18RoundRect,0.150000X0.150000X-0.512500X0.150000X0.512500X-0.150000X0.512500X-0.150000X-0.512500X0*%
%ADD19RoundRect,0.243750X-0.243750X-0.456250X0.243750X-0.456250X0.243750X0.456250X-0.243750X0.456250X0*%
%ADD20RoundRect,0.243750X-0.456250X0.243750X-0.456250X-0.243750X0.456250X-0.243750X0.456250X0.243750X0*%
%ADD21RoundRect,0.243750X0.243750X0.456250X-0.243750X0.456250X-0.243750X-0.456250X0.243750X-0.456250X0*%
%ADD22RoundRect,0.200000X-0.800000X0.200000X-0.800000X-0.200000X0.800000X-0.200000X0.800000X0.200000X0*%
%ADD23R,4.500000X2.000000*%
%ADD24R,0.550000X1.500000*%
%ADD25R,1.500000X0.550000*%
%ADD26RoundRect,0.150000X0.150000X0.425000X-0.150000X0.425000X-0.150000X-0.425000X0.150000X-0.425000X0*%
%ADD27RoundRect,0.075000X0.075000X0.500000X-0.075000X0.500000X-0.075000X-0.500000X0.075000X-0.500000X0*%
%ADD28O,1.000000X2.100000*%
%ADD29O,1.000000X1.800000*%
G04 APERTURE END LIST*
D10*
%TO.C,FB1*%
X215687500Y-107187500D03*
X215687500Y-109312500D03*
%TD*%
D11*
%TO.C,C6*%
X201496100Y-125931644D03*
X201496100Y-127481644D03*
%TD*%
D12*
%TO.C,R9*%
X209051413Y-163103661D03*
X210701413Y-163103661D03*
%TD*%
D13*
%TO.C,C10*%
X203396100Y-138906644D03*
X204946100Y-138906644D03*
%TD*%
D14*
%TO.C,C9*%
X209096099Y-119706644D03*
X207196099Y-119706644D03*
%TD*%
D15*
%TO.C,R1*%
X202491026Y-107426525D03*
X202491026Y-109076525D03*
%TD*%
D16*
%TO.C,C11*%
X215046100Y-138906644D03*
X213496100Y-138906644D03*
%TD*%
D15*
%TO.C,R3*%
X207700000Y-112731644D03*
X207700000Y-114381644D03*
%TD*%
D17*
%TO.C,C8*%
X203596100Y-118006644D03*
X203596100Y-119906644D03*
%TD*%
D18*
%TO.C,U2*%
X208146100Y-110706644D03*
X209096100Y-110706644D03*
X210046100Y-110706644D03*
X210046100Y-108431644D03*
X209096100Y-108431644D03*
X208146100Y-108431644D03*
%TD*%
D15*
%TO.C,R2*%
X215646100Y-103881644D03*
X215646100Y-105531644D03*
%TD*%
D13*
%TO.C,C7*%
X213496100Y-119906644D03*
X215046100Y-119906644D03*
%TD*%
D19*
%TO.C,D110*%
X208962500Y-161000000D03*
X210837500Y-161000000D03*
%TD*%
D15*
%TO.C,R5*%
X202471100Y-103881644D03*
X202471100Y-105531644D03*
%TD*%
D17*
%TO.C,C3*%
X215646100Y-111062645D03*
X215646100Y-112962645D03*
%TD*%
D20*
%TO.C,D109*%
X202396100Y-111019144D03*
X202396100Y-112894144D03*
%TD*%
D15*
%TO.C,R4*%
X210700000Y-112731644D03*
X210700000Y-114381644D03*
%TD*%
D11*
%TO.C,C5*%
X217056597Y-123463788D03*
X217056597Y-125013788D03*
%TD*%
D21*
%TO.C,F1*%
X215833600Y-115200145D03*
X213958600Y-115200145D03*
%TD*%
D11*
%TO.C,C4*%
X204396100Y-107478678D03*
X204396100Y-109028678D03*
%TD*%
%TO.C,C1*%
X213646100Y-107487645D03*
X213646100Y-109037645D03*
%TD*%
D22*
%TO.C,SW55*%
X200346100Y-132556644D03*
X200346100Y-136756644D03*
%TD*%
D15*
%TO.C,R8*%
X204396100Y-110881644D03*
X204396100Y-112531644D03*
%TD*%
D23*
%TO.C,Y1*%
X204996100Y-142956644D03*
X213496100Y-142956644D03*
%TD*%
D12*
%TO.C,R7*%
X199521100Y-138881644D03*
X201171100Y-138881644D03*
%TD*%
D24*
%TO.C,U1*%
X213296100Y-122056644D03*
X212496100Y-122056644D03*
X211696100Y-122056644D03*
X210896100Y-122056644D03*
X210096100Y-122056644D03*
X209296100Y-122056644D03*
X208496100Y-122056644D03*
X207696100Y-122056644D03*
X206896100Y-122056644D03*
X206096100Y-122056644D03*
X205296100Y-122056644D03*
D25*
X203596100Y-123756644D03*
X203596100Y-124556644D03*
X203596100Y-125356644D03*
X203596100Y-126156644D03*
X203596100Y-126956644D03*
X203596100Y-127756644D03*
X203596100Y-128556644D03*
X203596100Y-129356644D03*
X203596100Y-130156644D03*
X203596100Y-130956644D03*
X203596100Y-131756644D03*
D24*
X205296100Y-133456644D03*
X206096100Y-133456644D03*
X206896100Y-133456644D03*
X207696100Y-133456644D03*
X208496100Y-133456644D03*
X209296100Y-133456644D03*
X210096100Y-133456644D03*
X210896100Y-133456644D03*
X211696100Y-133456644D03*
X212496100Y-133456644D03*
X213296100Y-133456644D03*
D25*
X214996100Y-131756644D03*
X214996100Y-130956644D03*
X214996100Y-130156644D03*
X214996100Y-129356644D03*
X214996100Y-128556644D03*
X214996100Y-127756644D03*
X214996100Y-126956644D03*
X214996100Y-126156644D03*
X214996100Y-125356644D03*
X214996100Y-124556644D03*
X214996100Y-123756644D03*
%TD*%
D11*
%TO.C,C2*%
X213646100Y-111237645D03*
X213646100Y-112787645D03*
%TD*%
D12*
%TO.C,R6*%
X213471100Y-135706644D03*
X215121100Y-135706644D03*
%TD*%
D26*
%TO.C,J1*%
X212246100Y-105306644D03*
X211446100Y-105306644D03*
D27*
X210296100Y-105306644D03*
X209296100Y-105306644D03*
X208796100Y-105306644D03*
X207796100Y-105306644D03*
D26*
X206646100Y-105306644D03*
X205846100Y-105306644D03*
X205846100Y-105306644D03*
X206646100Y-105306644D03*
D27*
X207296100Y-105306644D03*
X208296100Y-105306644D03*
X209796100Y-105306644D03*
X210796100Y-105306644D03*
D26*
X211446100Y-105306644D03*
X212246100Y-105306644D03*
D28*
X213366100Y-104731644D03*
D29*
X213366100Y-100551644D03*
D28*
X204726100Y-104731644D03*
D29*
X204726100Y-100551644D03*
%TD*%
M02*
